<svg width="566" height="423" viewBox="0 0 566 423" fill="none" xmlns="http://www.w3.org/2000/svg">
<path d="M41.7018 226.891H17.4517C7.81339 226.891 0 234.714 0 244.364V261.697C0 271.347 7.81339 279.17 17.4517 279.17H41.7018C51.3401 279.17 59.1535 271.347 59.1535 261.697V244.364C59.1535 234.714 51.3401 226.891 41.7018 226.891Z" fill="#1A1A1A"/>
<path d="M281.143 0.935623H70.6244C57.154 0.935623 46.2341 11.8688 46.2341 25.3557V156.672C46.2341 170.159 57.154 181.092 70.6244 181.092H281.143C294.613 181.092 305.533 170.159 305.533 156.672V25.3557C305.533 11.8688 294.613 0.935623 281.143 0.935623Z" fill="white"/>
<path d="M541.61 171.853H380.106C366.635 171.853 355.715 182.786 355.715 196.273V316.876C355.715 330.363 366.635 341.296 380.106 341.296H541.61C555.08 341.296 566 330.363 566 316.876V196.273C566 182.786 555.08 171.853 541.61 171.853Z" fill="#FF3233"/>
<path d="M540.792 301.251C540.792 301.251 538.9 300.432 523.083 292.222C507.267 284.012 499.277 281.649 493.413 281.064C486.975 280.725 480.538 281.77 474.536 284.129C469.724 286.117 454.024 291.988 447.109 292.924C440.194 293.859 431.993 290.935 428.583 289.532C425.172 288.128 399.964 272.714 399.964 272.714C399.964 272.714 394.38 334.115 392.277 353.974H518.645C524.552 353.961 530.214 351.606 534.391 347.424C538.568 343.242 540.92 337.573 540.932 331.659V301.906C540.874 301.69 540.827 301.471 540.792 301.251Z" fill="#1A1A1A"/>
<path d="M248.856 212.342C237.296 214.655 225.989 218.094 215.097 222.611C201.197 228.996 188.674 236.388 188.674 236.388C188.674 236.388 201.851 203.243 204.374 196.483C206.462 191.255 208.978 186.209 211.897 181.396C211.897 181.396 205.449 173.045 205.332 168.952C205.332 168.952 192.109 167.291 183.161 160.929C183.161 160.929 176.713 158.216 175.521 155.596C175.521 155.596 162.322 145.772 163.233 137.047C163.233 137.047 153.888 151.76 142.978 181.185C132.067 210.611 125.549 222.517 130.596 254.843C135.642 287.169 163.537 295.73 169.237 297.064C174.937 298.397 185.38 301.344 195.87 299.403C202.805 297.989 209.582 295.889 216.102 293.134L213.041 316.712L201.687 421.433H352.211L346.347 362.558C346.347 362.558 352.421 377.856 362.163 383.61C367.229 386.595 372.984 388.21 378.861 388.296C384.739 388.382 390.537 386.936 395.688 384.101C400.526 381.351 404.657 377.508 407.751 372.879C410.845 368.25 412.819 362.962 413.514 357.435C414.589 348.5 414.215 336.384 410.547 320.01C406.879 303.637 395.245 253.814 395.245 253.814L360.715 237.277C360.715 237.277 348.637 219.032 330.064 214.798L311.374 210.564L248.856 212.342Z" fill="#FF3233"/>
<path d="M394.824 254.96C394.824 254.96 396.015 243.662 390.689 235.335C385.362 227.008 381.344 222.517 379.919 220.084C378.494 217.652 379.148 206.892 378.213 202.799C377.279 198.705 375.877 192.436 368.705 193.653C361.533 194.869 359.36 204.389 360.575 210.611C361.789 216.833 366.135 231.359 365.901 233.347C365.668 235.335 354.057 242.703 347.889 245.042C341.721 247.382 329.9 251.522 326.863 256.27C323.826 261.018 324.854 267.264 330.788 267.965C330.788 267.965 323.148 271.965 324.69 277.603C325.021 279.12 325.901 280.461 327.16 281.368C328.42 282.275 329.97 282.683 331.512 282.515C331.312 283.606 331.343 284.727 331.602 285.806C331.862 286.884 332.343 287.897 333.017 288.778C333.69 289.659 334.54 290.39 335.512 290.922C336.484 291.455 337.557 291.778 338.661 291.871C347.095 292.924 363.168 287.193 368.728 284.105C374.288 281.018 384.03 276.035 388.236 269.86C392.441 263.685 394.964 256.34 394.824 254.96Z" fill="white"/>
<path d="M252.968 158.216C252.968 158.216 240.235 155.877 239.861 166.917C239.488 177.958 250.888 177.981 254.253 175.689C254.253 175.689 254.042 201.769 279.951 201.419C305.86 201.068 306.491 179.431 306.491 179.431V176.18C306.491 176.18 318.172 179.805 320.251 172.11C322.331 164.414 320.999 161.35 317.915 159.689C314.831 158.029 307.309 158.543 307.309 158.543V155.877C300.781 149.317 293.003 144.138 284.437 140.649C277.71 137.672 270.651 135.513 263.411 134.217C263.411 134.217 257.757 148.579 253.855 151.666L252.968 158.216Z" fill="white"/>
<path d="M262.032 191.267V198.565L248.856 212.342L258.107 263.287L280.559 230.891L303.103 263.287L312.121 211.289L299.132 198.191L299.225 191.945L262.032 191.267Z" fill="white"/>
<path d="M492.774 244.282C502.143 240.1 506.351 229.106 502.174 219.726C497.997 210.346 487.016 206.132 477.647 210.314C468.279 214.496 464.07 225.491 468.247 234.871C472.424 244.251 483.405 248.464 492.774 244.282Z" fill="white"/>
<path d="M279.647 323.449H46.8182C33.3478 323.449 22.4279 334.382 22.4279 347.869V386.019C22.4279 399.506 33.3478 410.439 46.8182 410.439H279.647C293.118 410.439 304.038 399.506 304.038 386.019V347.869C304.038 334.382 293.118 323.449 279.647 323.449Z" fill="white"/>
<path d="M77.8668 366.956C77.8668 369.916 76.9899 372.811 75.3469 375.272C73.704 377.734 71.3688 379.653 68.6367 380.786C65.9046 381.919 62.8983 382.216 59.9979 381.638C57.0975 381.06 54.4333 379.635 52.3423 377.541C50.2512 375.447 48.8272 372.78 48.2503 369.876C47.6733 366.972 47.9694 363.962 49.1011 361.227C50.2328 358.491 52.1492 356.153 54.608 354.508C57.0669 352.863 59.9577 351.985 62.9149 351.985C64.8792 351.982 66.8249 352.367 68.6404 353.119C70.4558 353.87 72.1053 354.972 73.4943 356.363C74.8834 357.754 75.9846 359.405 76.7349 361.223C77.4852 363.041 77.8699 364.989 77.8668 366.956Z" fill="#1A1A1A"/>
<path d="M279.811 0.935623H71.886C65.0703 0.935623 58.5338 3.64645 53.7144 8.47174C48.895 13.297 46.1874 19.8416 46.1874 26.6656V43.9982H305.51V26.6889C305.513 23.3081 304.85 19.9597 303.56 16.8353C302.27 13.7109 300.378 10.8717 297.991 8.48001C295.604 6.08829 292.77 4.19095 289.651 2.89643C286.531 1.60192 283.188 0.935622 279.811 0.935623Z" fill="#1A1A1A"/>
<path d="M249.627 156.719C248.658 151.53 247.995 146.29 247.641 141.023C247.781 137.538 250.328 127.831 253.131 126.428C254.351 125.769 255.645 125.259 256.986 124.907C259.446 121.573 262.675 118.883 266.397 117.066C270.119 115.25 274.224 114.361 278.363 114.475C293.291 114.475 304.225 120.299 308.734 128.229C313.243 136.158 312.285 148.275 312.261 151.83C312.274 153.856 311.99 155.874 311.42 157.818L307.495 158.052L307.215 155.877C307.215 155.877 294.623 143.55 280.652 139.129C275.024 137.173 269.291 135.533 263.481 134.217C263.481 134.217 259.042 147.245 253.926 151.666L253.715 158.052L249.627 156.719Z" fill="#1A1A1A"/>
<path d="M209.794 153.163C209.794 153.163 218.718 157.841 222.597 163.853C226.475 169.864 227.479 184.016 219.606 184.554C211.733 185.092 208.322 176.063 207.341 173.443C206.36 170.823 206.009 167.595 199.958 165.56C193.908 163.525 180.381 161.561 177.951 157.537C175.521 153.514 171.503 151.105 171.69 138.006C171.69 138.006 167.485 124.439 173.746 118.685C180.007 112.931 187.109 113.095 199.842 113.446C212.574 113.796 221.756 107.458 227.596 104.978C233.437 102.499 242.571 97.6334 247.641 100.3C252.711 102.966 249.043 110.077 249.043 110.077C251.615 110.997 253.727 112.885 254.93 115.34C256.309 119.036 251.122 126.147 251.122 126.147C251.122 126.147 254.112 126.965 254.907 131.971C255.701 136.977 248.412 141.608 241.987 143.362C233.507 145.205 224.926 146.548 216.289 147.386C213.041 147.69 207.691 149.935 209.794 153.163Z" fill="white"/>
<path d="M39.9964 236.248C39.7843 235.645 39.3906 235.123 38.8696 234.753C38.3487 234.384 37.7261 234.186 37.0878 234.186C36.4495 234.186 35.8269 234.384 35.3059 234.753C34.7849 235.123 34.3913 235.645 34.1792 236.248L21.8906 257.299C20.3019 260.036 21.5868 262.282 24.7408 262.282H49.4348C52.6121 262.282 53.897 259.942 52.3083 257.299L39.9964 236.248Z" fill="#FF3233"/>
<path d="M285.792 22.8762C285.792 24.6851 285.256 26.4534 284.252 27.9574C283.249 29.4614 281.822 30.6336 280.153 31.3259C278.484 32.0181 276.647 32.1992 274.875 31.8463C273.103 31.4934 271.475 30.6224 270.198 29.3433C268.92 28.0642 268.05 26.4346 267.698 24.6605C267.346 22.8864 267.526 21.0475 268.218 19.3763C268.909 17.7051 270.08 16.2767 271.582 15.2718C273.084 14.2668 274.85 13.7304 276.657 13.7304C279.078 13.7366 281.398 14.7021 283.11 16.416C284.821 18.1298 285.786 20.4525 285.792 22.8762Z" fill="#FF3233"/>
<path d="M333.731 48.0682C338.944 48.0682 343.17 43.8373 343.17 38.6183C343.17 33.3993 338.944 29.1684 333.731 29.1684C328.519 29.1684 324.293 33.3993 324.293 38.6183C324.293 43.8373 328.519 48.0682 333.731 48.0682Z" fill="#FF3233"/>
<path d="M546.82 129.96C552.032 129.96 556.258 125.729 556.258 120.51C556.258 115.291 552.032 111.06 546.82 111.06C541.607 111.06 537.381 115.291 537.381 120.51C537.381 125.729 541.607 129.96 546.82 129.96Z" fill="#FF3233"/>
<path d="M254.86 22.8762C254.865 24.6907 254.331 26.4658 253.328 27.9767C252.324 29.4877 250.896 30.6666 249.223 31.3641C247.55 32.0617 245.708 32.2466 243.93 31.8955C242.152 31.5443 240.518 30.6729 239.235 29.3915C237.951 28.1101 237.077 26.4764 236.722 24.6971C236.366 22.9178 236.546 21.073 237.239 19.3961C237.931 17.7193 239.105 16.2859 240.612 15.2773C242.118 14.2688 243.89 13.7304 245.702 13.7304C248.125 13.7365 250.447 14.7014 252.163 16.4145C253.878 18.1277 254.848 20.4504 254.86 22.8762Z" fill="#CCCCCC"/>
<path d="M223.975 22.8762C223.975 24.6891 223.437 26.461 222.429 27.9669C221.421 29.4729 219.989 30.645 218.314 31.3344C216.639 32.0238 214.798 32.1994 213.024 31.8389C211.249 31.4783 209.622 30.5979 208.348 29.3095C207.074 28.021 206.212 26.3827 205.87 24.6024C205.528 22.8222 205.722 20.9804 206.428 19.3109C207.134 17.6415 208.319 16.2197 209.834 15.2261C211.348 14.2324 213.123 13.7119 214.934 13.7304C217.338 13.7611 219.634 14.7375 221.326 16.4487C223.017 18.1599 223.969 20.4686 223.975 22.8762Z" fill="white"/>
<path d="M262.757 198.963C262.757 198.963 266.798 208.319 280.512 208.319C294.226 208.319 298.408 199.594 298.408 199.594L299.225 198.916V195.36C299.225 195.36 294.342 201.302 281.049 201.302C267.756 201.302 262.359 195.36 262.359 195.36L262.757 198.963Z" fill="#CCCCCC"/>
<path d="M169.774 130.989C169.774 130.989 164.027 132.018 163.233 136.977C162.439 141.936 171.269 152.766 173.536 153.912H175.218C175.218 153.912 170.779 143.877 172.227 138.404L169.774 130.989Z" fill="#1A1A1A"/>
<path d="M188.721 163.221C192.07 163.277 195.389 163.861 198.557 164.952C200.539 165.736 202.454 166.683 204.281 167.783C198.745 167.929 193.303 166.334 188.721 163.221Z" fill="#1A1A1A"/>
<path d="M213.719 147.97C213.719 147.97 209.046 149.491 209.397 152.181C212.828 154.46 216.142 156.911 219.326 159.526C220.914 161.186 222.059 162.332 222.059 162.332C222.059 162.332 222.199 154.637 213.719 147.97Z" fill="#1A1A1A"/>
<path d="M449.679 79.3417C449.683 81.2487 449.123 83.1142 448.068 84.7021C447.013 86.29 445.512 87.5288 443.753 88.2618C441.995 88.9948 440.059 89.189 438.19 88.8198C436.321 88.4506 434.604 87.5346 433.256 86.1878C431.907 84.841 430.988 83.1239 430.615 81.2538C430.242 79.3838 430.431 77.4449 431.159 75.6826C431.886 73.9203 433.12 72.4138 434.704 71.3539C436.287 70.2939 438.149 69.7281 440.053 69.7281C442.602 69.7281 445.047 70.7402 446.851 72.5424C448.656 74.3447 449.673 76.7899 449.679 79.3417Z" fill="#1A1A1A"/>
<path d="M307.355 158.052L311.28 157.818C311.85 155.874 312.133 153.856 312.121 151.83C312.121 148.275 313.056 136.158 308.593 128.229C304.855 121.562 296.515 116.323 285.068 114.896C292.777 118.241 301.001 123.48 299.319 130.24C296.842 140.088 262.266 133.515 262.266 133.515L263.13 134.755L263.341 134.217C269.159 135.534 274.899 137.174 280.535 139.129C294.553 143.55 307.075 155.877 307.075 155.877L307.355 158.052Z" fill="white"/>
<path d="M541.026 302.654C540.88 302.689 540.728 302.689 540.582 302.654L508.272 286.117C499.218 282.069 489.034 281.324 479.489 284.012L455.262 292.222C445.29 295.017 434.627 293.896 425.452 289.087L399.497 273.509C399.39 273.446 399.298 273.363 399.224 273.265C399.15 273.166 399.096 273.054 399.066 272.934C399.035 272.814 399.029 272.69 399.047 272.568C399.064 272.446 399.106 272.329 399.169 272.223C399.229 272.117 399.31 272.024 399.408 271.951C399.505 271.877 399.616 271.825 399.734 271.796C399.853 271.768 399.975 271.764 400.095 271.785C400.215 271.806 400.329 271.851 400.431 271.919L426.387 287.403C435.089 291.958 445.198 293.02 454.655 290.374L478.929 282.14C489.012 279.323 499.765 280.151 509.3 284.479L541.61 300.993C541.789 301.092 541.931 301.248 542.013 301.435C542.096 301.622 542.115 301.832 542.067 302.031C542.019 302.23 541.907 302.408 541.749 302.538C541.59 302.667 541.394 302.741 541.189 302.748L541.026 302.654Z" fill="black"/>
<path d="M479.442 252.06C475.583 252.064 471.809 250.923 468.598 248.779C465.387 246.636 462.883 243.587 461.403 240.019C459.923 236.45 459.533 232.523 460.283 228.732C461.034 224.942 462.89 221.46 465.617 218.726C468.344 215.992 471.82 214.13 475.605 213.374C479.389 212.619 483.313 213.004 486.879 214.482C490.445 215.959 493.493 218.462 495.637 221.675C497.782 224.887 498.927 228.664 498.927 232.528C498.92 237.702 496.866 242.663 493.214 246.324C489.562 249.985 484.61 252.047 479.442 252.06ZM479.442 214.868C475.953 214.864 472.54 215.895 469.637 217.833C466.733 219.771 464.468 222.527 463.13 225.754C461.791 228.98 461.439 232.532 462.117 235.959C462.795 239.387 464.473 242.535 466.938 245.008C469.404 247.48 472.547 249.164 475.969 249.847C479.392 250.531 482.939 250.182 486.164 248.846C489.388 247.51 492.144 245.247 494.083 242.342C496.023 239.437 497.058 236.022 497.058 232.528C497.051 227.851 495.194 223.366 491.893 220.056C488.591 216.746 484.115 214.881 479.442 214.868Z" fill="black"/>
<path d="M303.103 264.317C302.955 264.32 302.809 264.285 302.678 264.216C302.547 264.146 302.436 264.044 302.356 263.919L280.582 232.528L258.855 263.825C258.749 263.975 258.602 264.09 258.432 264.156C258.262 264.223 258.076 264.238 257.897 264.2C257.723 264.158 257.565 264.068 257.441 263.94C257.317 263.811 257.232 263.65 257.196 263.474L247.431 212.529C247.409 212.379 247.42 212.225 247.465 212.079C247.509 211.934 247.585 211.8 247.688 211.687L261.378 197.887C261.48 197.79 261.602 197.716 261.735 197.672C261.868 197.627 262.01 197.613 262.149 197.629C262.293 197.65 262.431 197.703 262.552 197.784C262.674 197.865 262.775 197.972 262.85 198.097L280.559 229.02L298.431 197.746C298.501 197.622 298.598 197.515 298.715 197.434C298.833 197.352 298.967 197.299 299.108 197.278C299.248 197.257 299.391 197.269 299.525 197.314C299.659 197.358 299.781 197.434 299.879 197.536L312.775 210.635C312.879 210.742 312.956 210.871 313 211.013C313.045 211.156 313.056 211.306 313.032 211.453L304.015 263.451C303.989 263.633 303.908 263.803 303.783 263.937C303.657 264.071 303.493 264.163 303.314 264.2L303.103 264.317ZM249.37 212.857L258.715 261.159L279.601 231.055L261.962 200.272L249.37 212.857ZM281.68 231.055L302.706 261.112L311.233 211.804L299.552 199.945L281.68 231.055Z" fill="black"/>
<path d="M285.979 186.799C284.612 186.811 283.249 186.669 281.914 186.378C281.706 186.295 281.536 186.14 281.433 185.942C281.33 185.743 281.301 185.515 281.352 185.297C281.403 185.079 281.53 184.887 281.71 184.755C281.89 184.623 282.112 184.56 282.334 184.577C282.334 184.577 288.385 185.957 292.123 183.337C292.963 182.72 293.659 181.928 294.163 181.016C294.668 180.103 294.968 179.091 295.043 178.051C295.078 177.809 295.204 177.59 295.395 177.438C295.586 177.285 295.828 177.212 296.071 177.232C296.194 177.247 296.313 177.286 296.421 177.347C296.529 177.407 296.624 177.489 296.7 177.587C296.776 177.685 296.832 177.797 296.865 177.917C296.897 178.037 296.905 178.162 296.889 178.285C296.775 179.573 296.384 180.821 295.743 181.944C295.102 183.066 294.226 184.036 293.174 184.788C291.032 186.167 288.525 186.869 285.979 186.799Z" fill="black"/>
<path d="M188.394 300.783C181.267 300.702 174.188 299.607 167.368 297.532C144.006 290.935 129.988 270.96 127.652 241.393C125.993 220.342 133.796 199.547 141.669 182.074C144.66 175.408 146.856 169.911 148.958 164.625C152.842 154.224 157.593 144.169 163.163 134.568C163.225 134.461 163.308 134.368 163.407 134.294C163.506 134.22 163.618 134.167 163.737 134.136C163.857 134.106 163.981 134.099 164.103 134.117C164.225 134.135 164.342 134.177 164.448 134.24C164.553 134.3 164.645 134.381 164.719 134.478C164.793 134.575 164.846 134.685 164.877 134.803C164.907 134.92 164.914 135.043 164.896 135.163C164.879 135.284 164.838 135.399 164.775 135.503C159.283 145.029 154.594 154.997 150.757 165.303C148.631 170.636 146.435 176.133 143.422 182.823C135.665 200.109 127.956 220.552 129.568 241.3C131.904 270.141 145.431 289.532 167.882 295.918C180.311 299.45 194.702 301.602 215.681 293.578C215.911 293.5 216.162 293.513 216.383 293.612C216.604 293.712 216.779 293.892 216.873 294.116C216.918 294.232 216.94 294.355 216.937 294.478C216.935 294.602 216.908 294.724 216.858 294.837C216.808 294.95 216.736 295.052 216.646 295.137C216.557 295.222 216.451 295.289 216.336 295.333C207.436 298.855 197.964 300.703 188.394 300.783Z" fill="black"/>
<path d="M185.754 250.399H185.637C185.391 250.359 185.17 250.224 185.022 250.023C184.873 249.822 184.809 249.571 184.843 249.323C186.593 238.816 189.736 228.59 194.188 218.915C194.562 218.049 194.889 217.348 195.076 216.857L202.855 197.419C205.046 192.295 207.518 187.298 210.261 182.449L211.149 180.788C211.281 180.606 211.475 180.478 211.694 180.427C211.912 180.377 212.142 180.407 212.341 180.512C212.54 180.617 212.694 180.79 212.775 181C212.857 181.209 212.86 181.441 212.784 181.653L211.897 183.314C209.232 188.083 206.83 192.995 204.701 198.027L196.875 217.535C196.664 218.026 196.361 218.751 195.963 219.64C191.504 229.157 188.36 239.237 186.619 249.604C186.587 249.815 186.484 250.01 186.327 250.154C186.169 250.299 185.967 250.385 185.754 250.399Z" fill="black"/>
<path d="M482.223 28.186C483.022 28.186 483.803 27.9486 484.468 27.504C485.133 27.0594 485.651 26.4274 485.957 25.6879C486.262 24.9485 486.343 24.1349 486.187 23.3499C486.031 22.5649 485.646 21.8439 485.08 21.278C484.515 20.712 483.795 20.3266 483.011 20.1705C482.227 20.0144 481.414 20.0945 480.676 20.4008C479.937 20.7071 479.306 21.2257 478.862 21.8912C478.418 22.5566 478.181 23.339 478.181 24.1394C478.181 25.2126 478.607 26.2419 479.365 27.0008C480.123 27.7596 481.151 28.186 482.223 28.186Z" fill="#1A1A1A"/>
<path d="M513.645 28.3965C514.482 28.3781 515.294 28.1128 515.981 27.634C516.668 27.1552 517.198 26.484 517.506 25.7047C517.814 24.9254 517.885 24.0725 517.71 23.2529C517.536 22.4334 517.123 21.6836 516.525 21.0976C515.927 20.5115 515.169 20.1153 514.347 19.9585C513.525 19.8016 512.675 19.8912 511.904 20.216C511.132 20.5408 510.473 21.0863 510.01 21.7842C509.547 22.4821 509.3 23.3014 509.3 24.1393C509.303 24.7055 509.418 25.2653 509.638 25.7866C509.859 26.3078 510.181 26.7801 510.585 27.176C510.989 27.572 511.467 27.8837 511.993 28.0932C512.518 28.3027 513.08 28.4058 513.645 28.3965Z" fill="#1A1A1A"/>
<path d="M545.067 28.069C546.059 27.9925 546.985 27.544 547.661 26.8133C548.337 26.0826 548.712 25.1235 548.712 24.1276C548.712 23.1318 548.337 22.1727 547.661 21.442C546.985 20.7113 546.059 20.2628 545.067 20.1863C544.525 20.1444 543.98 20.2152 543.466 20.3943C542.952 20.5734 542.481 20.8569 542.082 21.227C541.682 21.5971 541.364 22.0458 541.146 22.5449C540.928 23.0441 540.816 23.5829 540.816 24.1276C540.816 24.6724 540.928 25.2112 541.146 25.7104C541.364 26.2095 541.682 26.6582 542.082 27.0283C542.481 27.3984 542.952 27.6819 543.466 27.861C543.98 28.04 544.525 28.1109 545.067 28.069Z" fill="#1A1A1A"/>
<path d="M482.223 59.8572C483.063 59.8572 483.886 59.6075 484.585 59.1397C485.284 58.672 485.829 58.0071 486.151 57.2292C486.473 56.4513 486.557 55.5953 486.393 54.7695C486.229 53.9437 485.824 53.1852 485.229 52.5898C484.634 51.9944 483.877 51.589 483.052 51.4247C482.227 51.2605 481.372 51.3448 480.595 51.667C479.818 51.9892 479.154 52.5348 478.687 53.2349C478.22 53.935 477.971 54.7581 477.971 55.6001C477.977 56.7272 478.427 57.8065 479.223 58.6035C480.019 59.4006 481.097 59.851 482.223 59.8572Z" fill="#1A1A1A"/>
<path d="M513.645 60.0677C514.532 60.0909 515.406 59.8488 516.155 59.3723C516.904 58.8957 517.494 58.2064 517.85 57.3923C518.205 56.5783 518.311 55.6765 518.152 54.8023C517.993 53.9281 517.578 53.1212 516.959 52.4846C516.339 51.8481 515.545 51.4108 514.676 51.2287C513.808 51.0466 512.904 51.128 512.082 51.4625C511.26 51.7969 510.556 52.3692 510.06 53.1062C509.565 53.8432 509.3 54.7115 509.3 55.6C509.305 56.7632 509.761 57.8788 510.572 58.7121C511.382 59.5454 512.484 60.0314 513.645 60.0677Z" fill="#1A1A1A"/>
<path d="M545.067 59.7402C545.891 59.7402 546.696 59.4954 547.38 59.0369C548.064 58.5783 548.597 57.9267 548.911 57.1645C549.226 56.4024 549.306 55.564 549.144 54.7557C548.982 53.9475 548.583 53.2056 547.999 52.6243C547.416 52.0429 546.672 51.6483 545.864 51.4903C545.056 51.3323 544.219 51.4181 543.46 51.7368C542.7 52.0555 542.052 52.5928 541.598 53.2806C541.144 53.9683 540.904 54.7756 540.909 55.6001C540.909 56.1457 541.016 56.686 541.226 57.1899C541.435 57.6937 541.742 58.1511 542.128 58.5359C542.515 58.9207 542.973 59.2251 543.478 59.4318C543.982 59.6385 544.522 59.7433 545.067 59.7402Z" fill="#1A1A1A"/>
<path d="M482.223 90.9904C483.004 90.9904 483.769 90.7579 484.418 90.3225C485.068 89.8871 485.574 89.2683 485.872 88.5446C486.171 87.8209 486.247 87.0249 486.093 86.2575C485.939 85.49 485.56 84.7857 485.006 84.2338C484.451 83.6819 483.746 83.3073 482.978 83.1574C482.211 83.0075 481.416 83.0891 480.695 83.3919C479.974 83.6947 479.359 84.205 478.928 84.8582C478.497 85.5113 478.27 86.2779 478.274 87.0607C478.28 88.1051 478.699 89.1045 479.439 89.8408C480.179 90.5771 481.179 90.9904 482.223 90.9904Z" fill="#1A1A1A"/>
<path d="M513.645 91.2243C514.468 91.2243 515.273 90.9795 515.958 90.521C516.642 90.0624 517.175 89.4108 517.489 88.6486C517.803 87.8864 517.884 87.0481 517.722 86.2398C517.559 85.4315 517.161 84.6897 516.577 84.1084C515.993 83.527 515.25 83.1323 514.442 82.9743C513.634 82.8163 512.797 82.9021 512.037 83.2208C511.278 83.5396 510.63 84.0769 510.176 84.7646C509.722 85.4524 509.482 86.2597 509.486 87.0841C509.486 87.6298 509.594 88.1701 509.803 88.6739C510.013 89.1778 510.319 89.6352 510.706 90.02C511.092 90.4047 511.551 90.7092 512.055 90.9159C512.56 91.1226 513.1 91.2274 513.645 91.2243Z" fill="#1A1A1A"/>
<path d="M545.067 90.9202C545.835 90.9202 546.586 90.6918 547.224 90.2641C547.863 89.8364 548.36 89.2286 548.652 88.5178C548.945 87.8069 549.021 87.025 548.869 86.2711C548.718 85.5173 548.346 84.8255 547.801 84.2834C547.256 83.7413 546.563 83.3734 545.809 83.2262C545.056 83.079 544.275 83.1593 543.567 83.4567C542.859 83.7542 542.255 84.2555 541.831 84.8971C541.408 85.5387 541.184 86.2918 541.189 87.0607C541.189 87.5695 541.29 88.0733 541.485 88.5431C541.68 89.0129 541.966 89.4394 542.326 89.7981C542.687 90.1568 543.115 90.4406 543.585 90.6331C544.055 90.8257 544.559 90.9233 545.067 90.9202Z" fill="#1A1A1A"/>
<path d="M427.172 423H128.343C128.187 423 128.039 422.901 127.929 422.726C127.819 422.551 127.757 422.313 127.757 422.064C127.757 421.943 127.772 421.822 127.802 421.71C127.832 421.598 127.875 421.496 127.93 421.411C127.984 421.326 128.049 421.259 128.12 421.215C128.191 421.17 128.266 421.149 128.343 421.152H427.172C427.248 421.149 427.324 421.17 427.395 421.215C427.466 421.259 427.53 421.326 427.585 421.411C427.639 421.496 427.683 421.598 427.712 421.71C427.742 421.822 427.757 421.943 427.757 422.064C427.757 422.187 427.742 422.309 427.713 422.422C427.683 422.536 427.64 422.639 427.586 422.726C427.531 422.813 427.467 422.882 427.396 422.929C427.325 422.976 427.249 423 427.172 423Z" fill="black"/>
<path d="M267.499 158.309C268.223 158.192 268.737 158.52 268.948 161.186C269.158 163.853 268.41 164.695 267.733 164.672C267.055 164.648 266.331 163.736 266.331 161.584C266.331 159.432 266.518 158.473 267.499 158.309Z" fill="black"/>
<path d="M249.393 177.77H248.716C246.621 177.643 244.612 176.896 242.943 175.623C241.273 174.349 240.02 172.608 239.341 170.62C238.663 168.632 238.59 166.487 239.132 164.458C239.673 162.428 240.806 160.605 242.384 159.221C243.849 157.916 245.649 157.047 247.581 156.712C249.513 156.377 251.5 156.59 253.318 157.327C253.431 157.371 253.533 157.436 253.62 157.52C253.707 157.604 253.776 157.705 253.824 157.816C253.872 157.927 253.897 158.046 253.899 158.167C253.9 158.288 253.877 158.408 253.832 158.52C253.788 158.635 253.722 158.741 253.637 158.831C253.552 158.92 253.45 158.992 253.337 159.042C253.224 159.092 253.102 159.12 252.978 159.122C252.855 159.125 252.732 159.103 252.617 159.058C251.763 158.702 250.854 158.496 249.931 158.45C248.784 158.376 247.635 158.531 246.548 158.904C245.461 159.278 244.459 159.862 243.599 160.625C242.726 161.381 242.014 162.304 241.504 163.341C240.995 164.378 240.698 165.506 240.632 166.66C240.553 167.812 240.702 168.969 241.07 170.064C241.439 171.158 242.019 172.169 242.779 173.039C243.539 173.908 244.463 174.619 245.498 175.13C246.532 175.641 247.658 175.942 248.809 176.016C250.425 176.13 252.041 175.799 253.482 175.057C253.59 174.978 253.714 174.923 253.845 174.896C253.977 174.87 254.112 174.871 254.243 174.902C254.373 174.932 254.496 174.99 254.602 175.072C254.708 175.154 254.796 175.257 254.858 175.376C254.921 175.495 254.957 175.625 254.965 175.759C254.973 175.893 254.951 176.027 254.903 176.152C254.854 176.277 254.779 176.39 254.683 176.484C254.587 176.578 254.472 176.649 254.346 176.694C252.807 177.451 251.107 177.82 249.393 177.77Z" fill="black"/>
<path d="M247.267 173.092C247.075 173.091 246.888 173.03 246.731 172.918C246.575 172.806 246.456 172.649 246.392 172.467C246.328 172.286 246.322 172.089 246.374 171.903C246.426 171.718 246.534 171.553 246.683 171.431L252.314 167.081L246.099 162.403C246 162.333 245.916 162.244 245.851 162.141C245.787 162.038 245.744 161.923 245.724 161.804C245.704 161.684 245.709 161.561 245.737 161.443C245.766 161.325 245.817 161.214 245.889 161.116C245.961 161.016 246.052 160.931 246.157 160.866C246.261 160.802 246.378 160.758 246.499 160.739C246.621 160.719 246.745 160.724 246.865 160.752C246.985 160.781 247.098 160.833 247.197 160.906L254.416 166.262C254.532 166.344 254.626 166.453 254.691 166.579C254.756 166.705 254.79 166.845 254.79 166.987C254.79 167.132 254.756 167.276 254.691 167.406C254.626 167.536 254.532 167.649 254.416 167.736L247.898 172.788C247.731 172.962 247.507 173.07 247.267 173.092Z" fill="black"/>
<path d="M311.841 177.77C310.141 177.776 308.465 177.366 306.958 176.577C306.832 176.532 306.717 176.461 306.621 176.367C306.525 176.274 306.45 176.16 306.401 176.035C306.353 175.91 306.331 175.776 306.339 175.642C306.347 175.508 306.383 175.378 306.446 175.259C306.509 175.14 306.596 175.037 306.702 174.955C306.808 174.873 306.931 174.815 307.061 174.785C307.192 174.754 307.328 174.753 307.459 174.78C307.59 174.806 307.714 174.861 307.823 174.94C309.718 175.943 311.916 176.212 313.998 175.698C316.079 175.183 317.899 173.92 319.111 172.149C320.323 170.378 320.842 168.223 320.57 166.094C320.298 163.964 319.253 162.01 317.635 160.602C316.776 159.837 315.774 159.251 314.687 158.877C313.6 158.504 312.45 158.35 311.304 158.426C310.299 158.453 309.309 158.667 308.383 159.058C308.157 159.152 307.903 159.153 307.675 159.061C307.448 158.969 307.266 158.792 307.168 158.567C307.119 158.455 307.092 158.334 307.09 158.212C307.088 158.089 307.11 157.968 307.156 157.854C307.202 157.741 307.27 157.638 307.356 157.551C307.443 157.464 307.546 157.396 307.659 157.35C308.793 156.948 309.984 156.735 311.187 156.719C313.958 156.604 316.664 157.58 318.725 159.439C320.785 161.298 322.037 163.891 322.211 166.662C322.385 169.434 321.468 172.163 319.656 174.266C317.845 176.369 315.282 177.677 312.518 177.911L311.841 177.77Z" fill="black"/>
<path d="M313.967 173.092C313.765 173.088 313.57 173.022 313.406 172.905L306.865 167.853C306.755 167.761 306.667 167.646 306.607 167.517C306.546 167.388 306.515 167.247 306.514 167.104C306.514 166.962 306.548 166.822 306.613 166.696C306.678 166.57 306.772 166.461 306.888 166.379L314.107 161.023C314.205 160.951 314.316 160.899 314.434 160.871C314.552 160.842 314.674 160.838 314.794 160.857C314.913 160.877 315.028 160.92 315.131 160.985C315.233 161.049 315.322 161.134 315.392 161.233C315.468 161.328 315.524 161.438 315.556 161.556C315.588 161.673 315.595 161.796 315.578 161.917C315.56 162.038 315.518 162.153 315.454 162.257C315.39 162.361 315.305 162.45 315.205 162.52L308.991 167.198L314.551 171.502C314.7 171.623 314.808 171.788 314.86 171.974C314.912 172.159 314.906 172.356 314.842 172.538C314.778 172.719 314.66 172.877 314.503 172.989C314.346 173.1 314.159 173.161 313.967 173.162V173.092Z" fill="black"/>
<path d="M378.143 389.107C366.462 389.107 353.823 383.282 345.436 362.862C345.381 362.747 345.35 362.622 345.345 362.494C345.34 362.367 345.361 362.239 345.407 362.12C345.454 362.001 345.523 361.893 345.613 361.802C345.702 361.711 345.81 361.639 345.928 361.591C346.046 361.543 346.173 361.52 346.3 361.523C346.428 361.526 346.553 361.555 346.669 361.608C346.785 361.661 346.889 361.738 346.974 361.833C347.059 361.928 347.124 362.039 347.165 362.16C355.762 383.212 369.896 391.118 389.217 385.551C421.714 376.195 412.766 334.933 409.846 321.367C405.547 301.531 393.913 252.434 393.796 251.943C393.768 251.823 393.765 251.699 393.785 251.578C393.805 251.456 393.849 251.34 393.914 251.236C393.979 251.132 394.064 251.041 394.164 250.97C394.264 250.899 394.377 250.848 394.497 250.82C394.738 250.776 394.986 250.824 395.193 250.953C395.401 251.083 395.552 251.286 395.618 251.522C395.618 252.013 407.299 301.134 411.645 320.969C414.682 335.004 423.91 377.528 389.731 387.329C385.97 388.46 382.07 389.059 378.143 389.107Z" fill="black"/>
<path d="M282.404 202.307H278.69C272.656 202.497 266.752 200.532 262.032 196.764C257.944 193.255 255.257 187.641 253.785 179.548C252.884 170.338 252.51 161.083 252.664 151.83C252.664 151.582 252.763 151.344 252.938 151.168C253.113 150.993 253.351 150.894 253.599 150.894C253.846 150.894 254.084 150.993 254.259 151.168C254.435 151.344 254.533 151.582 254.533 151.83C254.371 160.965 254.73 170.103 255.608 179.197C257.009 186.846 259.509 192.109 263.247 195.337C267.636 198.799 273.105 200.597 278.69 200.413H282.404C287.995 200.593 293.471 198.796 297.87 195.337C301.608 192.109 304.108 186.846 305.51 179.197C306.335 171.429 306.647 163.615 306.444 155.806C306.441 155.684 306.462 155.561 306.506 155.447C306.55 155.332 306.617 155.227 306.701 155.138C306.786 155.049 306.887 154.977 306.999 154.927C307.112 154.878 307.233 154.85 307.355 154.847C307.939 154.847 308.29 155.245 308.29 155.76C308.492 163.67 308.172 171.586 307.332 179.455C305.86 187.548 303.15 193.162 299.062 196.67C294.356 200.473 288.45 202.472 282.404 202.307Z" fill="black"/>
<path d="M262.032 199.477C261.784 199.477 261.547 199.379 261.371 199.203C261.196 199.028 261.098 198.79 261.098 198.541V195.524C261.133 195.304 261.245 195.104 261.414 194.96C261.583 194.815 261.798 194.736 262.021 194.736C262.243 194.736 262.458 194.815 262.627 194.96C262.796 195.104 262.908 195.304 262.943 195.524V198.541C262.947 198.663 262.925 198.784 262.881 198.898C262.836 199.011 262.77 199.115 262.685 199.202C262.6 199.289 262.499 199.358 262.386 199.406C262.274 199.453 262.154 199.477 262.032 199.477Z" fill="black"/>
<path d="M299.038 199.126C298.788 199.12 298.551 199.016 298.376 198.837C298.201 198.658 298.104 198.418 298.104 198.167V195.501C298.122 195.255 298.234 195.025 298.416 194.859C298.599 194.694 298.839 194.605 299.085 194.612C299.329 194.624 299.558 194.731 299.724 194.91C299.89 195.089 299.979 195.327 299.973 195.571V198.237C299.961 198.477 299.857 198.703 299.683 198.869C299.509 199.034 299.278 199.127 299.038 199.126Z" fill="black"/>
<path d="M311.233 158.473H311.093C310.973 158.456 310.857 158.415 310.753 158.352C310.649 158.29 310.558 158.207 310.486 158.109C310.415 158.011 310.363 157.9 310.335 157.781C310.307 157.663 310.302 157.54 310.322 157.42C312.083 148.213 311.365 138.703 308.243 129.866C303.571 116.814 284.507 113.96 272.382 116.089C266.653 117.256 261.555 120.496 258.061 125.188C257.995 125.29 257.909 125.377 257.809 125.446C257.708 125.514 257.595 125.561 257.477 125.585C255.843 125.905 254.321 126.647 253.061 127.737C252.975 127.839 252.868 127.92 252.747 127.977C252.627 128.033 252.495 128.063 252.362 128.065C252.229 128.066 252.097 128.04 251.976 127.986C251.854 127.933 251.745 127.854 251.656 127.755C251.567 127.655 251.5 127.538 251.46 127.411C251.42 127.284 251.407 127.15 251.423 127.018C251.439 126.886 251.483 126.758 251.552 126.644C251.621 126.53 251.713 126.433 251.823 126.357C253.223 125.125 254.91 124.265 256.729 123.854C260.496 118.876 265.958 115.455 272.078 114.241C284.834 111.902 305.042 115.176 309.995 129.234C313.23 138.362 313.98 148.187 312.168 157.701C312.129 157.92 312.014 158.118 311.843 158.259C311.671 158.401 311.455 158.476 311.233 158.473Z" fill="black"/>
<path d="M249.79 158.45C249.588 158.451 249.391 158.385 249.23 158.263C249.07 158.14 248.954 157.967 248.903 157.771C247.493 152.426 246.755 146.926 246.707 141.398C246.685 141.264 246.693 141.127 246.73 140.997C246.766 140.867 246.831 140.746 246.918 140.643C247.006 140.54 247.115 140.457 247.238 140.401C247.361 140.344 247.494 140.315 247.629 140.315C247.764 140.315 247.898 140.344 248.021 140.401C248.144 140.457 248.253 140.54 248.34 140.643C248.428 140.746 248.492 140.867 248.529 140.997C248.566 141.127 248.573 141.264 248.552 141.398C248.627 146.75 249.34 152.074 250.678 157.257C250.743 157.492 250.714 157.744 250.596 157.958C250.478 158.173 250.281 158.332 250.047 158.403L249.79 158.45Z" fill="black"/>
<path d="M201.687 422.368C201.558 422.366 201.431 422.336 201.314 422.282C201.197 422.228 201.092 422.15 201.007 422.054C200.921 421.957 200.856 421.843 200.817 421.721C200.777 421.598 200.763 421.468 200.776 421.339L202.505 404.708C202.545 404.469 202.672 404.253 202.862 404.101C203.052 403.95 203.291 403.875 203.533 403.89C203.655 403.901 203.774 403.937 203.881 403.996C203.989 404.054 204.084 404.134 204.161 404.23C204.237 404.326 204.293 404.437 204.326 404.555C204.358 404.673 204.367 404.797 204.351 404.919L202.622 421.55C202.598 421.779 202.489 421.991 202.315 422.143C202.142 422.295 201.918 422.376 201.687 422.368Z" fill="black"/>
<path d="M213.065 317.648H212.925C212.804 317.633 212.688 317.595 212.583 317.535C212.478 317.476 212.386 317.395 212.312 317.3C212.238 317.204 212.184 317.094 212.153 316.977C212.121 316.86 212.114 316.738 212.13 316.618L218.204 269.463C218.219 269.34 218.257 269.222 218.319 269.115C218.38 269.008 218.462 268.914 218.56 268.84C218.658 268.765 218.771 268.712 218.89 268.682C219.01 268.653 219.134 268.647 219.256 268.667C219.377 268.678 219.495 268.715 219.602 268.773C219.708 268.832 219.802 268.912 219.876 269.009C219.951 269.105 220.005 269.216 220.035 269.335C220.065 269.453 220.07 269.576 220.05 269.696L213.976 316.852C213.938 317.07 213.827 317.267 213.661 317.412C213.495 317.557 213.285 317.64 213.065 317.648Z" fill="black"/>
<path d="M352.211 422.368C351.977 422.375 351.749 422.291 351.575 422.135C351.401 421.978 351.294 421.76 351.276 421.526C344.969 354.418 340.156 314.443 337.259 292.713C337.226 292.468 337.291 292.22 337.439 292.023C337.588 291.825 337.809 291.695 338.053 291.66C338.3 291.634 338.548 291.704 338.744 291.857C338.941 292.01 339.07 292.233 339.105 292.479C342.002 314.209 346.814 354.231 353.122 421.363C353.142 421.607 353.064 421.85 352.907 422.038C352.75 422.226 352.525 422.345 352.281 422.368H352.211Z" fill="black"/>
<path d="M261.074 155.456H260.747C260.634 155.417 260.529 155.355 260.44 155.274C260.35 155.193 260.279 155.095 260.228 154.986C260.178 154.877 260.151 154.758 260.147 154.638C260.144 154.518 260.166 154.398 260.21 154.286C261.869 149.608 268.223 148.368 271.891 149.21C272.119 149.276 272.314 149.426 272.436 149.63C272.557 149.834 272.597 150.077 272.546 150.309C272.496 150.541 272.359 150.745 272.163 150.88C271.968 151.015 271.729 151.07 271.494 151.035C268.387 150.333 263.084 151.502 261.845 154.918C261.776 155.067 261.668 155.196 261.532 155.291C261.397 155.385 261.239 155.442 261.074 155.456Z" fill="black"/>
<path d="M298.408 155.456C298.215 155.458 298.026 155.401 297.867 155.292C297.709 155.183 297.587 155.028 297.52 154.847C296.282 151.432 291.002 150.169 287.894 150.964C287.775 150.992 287.651 150.996 287.53 150.976C287.409 150.956 287.293 150.912 287.188 150.846C287.084 150.781 286.994 150.696 286.923 150.596C286.851 150.496 286.801 150.383 286.773 150.263C286.723 150.021 286.768 149.77 286.899 149.561C287.029 149.352 287.235 149.201 287.474 149.14C291.259 148.298 297.613 149.608 299.155 154.216C299.199 154.329 299.219 154.45 299.215 154.572C299.21 154.693 299.18 154.813 299.128 154.922C299.075 155.032 299.001 155.13 298.909 155.209C298.817 155.289 298.71 155.349 298.594 155.385C298.536 155.417 298.473 155.441 298.408 155.456Z" fill="black"/>
<path d="M260.631 130.498C260.481 130.503 260.333 130.472 260.198 130.407C260.064 130.342 259.948 130.244 259.86 130.123L256.986 125.89C256.849 125.687 256.797 125.439 256.841 125.199C256.885 124.958 257.021 124.744 257.22 124.603C257.317 124.531 257.428 124.479 257.546 124.451C257.664 124.423 257.787 124.418 257.906 124.438C258.026 124.457 258.141 124.501 258.243 124.565C258.346 124.63 258.435 124.714 258.505 124.814L261.495 129.047C261.634 129.247 261.69 129.493 261.65 129.733C261.611 129.973 261.48 130.189 261.285 130.334C261.096 130.47 260.862 130.529 260.631 130.498Z" fill="black"/>
<path d="M361.626 238.166C361.487 238.166 361.349 238.135 361.223 238.074C361.098 238.014 360.988 237.925 360.902 237.815C343.754 217.301 325.858 213.348 312.051 212.225C311.805 212.201 311.578 212.083 311.417 211.896C311.256 211.709 311.174 211.466 311.187 211.219C311.196 211.096 311.229 210.976 311.284 210.866C311.339 210.756 311.416 210.658 311.509 210.577C311.603 210.497 311.711 210.436 311.828 210.397C311.945 210.359 312.069 210.344 312.191 210.354C326.209 211.523 344.735 215.57 362.327 236.622C362.484 236.812 362.559 237.056 362.537 237.301C362.515 237.546 362.398 237.773 362.21 237.932C362.133 238.007 362.042 238.067 361.942 238.107C361.841 238.147 361.734 238.167 361.626 238.166Z" fill="black"/>
<path d="M49.4347 263.311H24.7407C23.9607 263.381 23.1762 263.24 22.4693 262.903C21.7623 262.565 21.159 262.044 20.7224 261.393C20.3687 260.689 20.2103 259.903 20.2637 259.117C20.3172 258.331 20.5805 257.574 21.0261 256.925L33.3147 235.873C33.6297 235.152 34.1477 234.539 34.8053 234.108C35.463 233.678 36.2318 233.448 37.0177 233.448C37.8035 233.448 38.5723 233.678 39.23 234.108C39.8877 234.539 40.4057 235.152 40.7206 235.873L53.0326 256.925C53.544 257.542 53.8548 258.301 53.9231 259.1C53.9915 259.898 53.8142 260.699 53.415 261.394C53.0158 262.089 52.4138 262.645 51.6898 262.988C50.9658 263.33 50.1544 263.443 49.3647 263.311H49.4347ZM37.0994 235.242C36.6378 235.3 36.1992 235.477 35.8266 235.756C35.4539 236.035 35.1599 236.406 34.9734 236.832L22.6848 257.884C22.4142 258.253 22.2404 258.684 22.1791 259.138C22.1179 259.591 22.1713 260.053 22.3344 260.48C22.6092 260.83 22.9668 261.105 23.3749 261.281C23.7829 261.456 24.2283 261.527 24.6706 261.486H49.4347C49.8766 261.523 50.3207 261.45 50.728 261.275C51.1353 261.099 51.4935 260.827 51.771 260.48C51.9352 260.052 51.987 259.588 51.9216 259.134C51.8562 258.679 51.6756 258.249 51.3972 257.884L39.1086 236.832C38.9387 236.412 38.6654 236.041 38.3141 235.755C37.9629 235.469 37.545 235.276 37.0994 235.195V235.242Z" fill="black"/>
<path d="M333.825 283.45C331.451 283.562 329.09 283.046 326.98 281.953C326.174 281.504 325.471 280.892 324.915 280.154C324.36 279.417 323.965 278.572 323.756 277.673C322.237 271.451 329.97 267.17 330.297 267.006C330.403 266.948 330.519 266.911 330.639 266.898C330.759 266.884 330.881 266.895 330.997 266.929C331.113 266.962 331.221 267.018 331.316 267.094C331.41 267.17 331.489 267.263 331.547 267.369C331.605 267.475 331.642 267.591 331.655 267.712C331.669 267.832 331.658 267.954 331.625 268.07C331.591 268.186 331.535 268.294 331.459 268.389C331.384 268.483 331.291 268.562 331.185 268.62C331.185 268.62 324.363 272.41 325.554 277.228C325.698 277.884 325.981 278.502 326.384 279.039C326.787 279.575 327.301 280.019 327.891 280.339C330.951 282.14 336.582 282 343.73 279.988C353.566 277.182 371.485 268.293 371.765 268.129C371.986 268.023 372.239 268.008 372.47 268.087C372.702 268.166 372.893 268.332 373.003 268.55C373.059 268.659 373.092 268.778 373.101 268.9C373.11 269.021 373.094 269.144 373.055 269.259C373.016 269.375 372.954 269.481 372.873 269.573C372.792 269.664 372.693 269.738 372.583 269.79C371.859 270.164 354.337 278.936 344.314 281.766C340.911 282.806 337.382 283.373 333.825 283.45Z" fill="black"/>
<path d="M340.927 292.666C338.356 292.885 335.787 292.225 333.638 290.795C328.265 286.281 331.045 281.953 331.091 281.906C331.241 281.735 331.447 281.625 331.672 281.595C331.897 281.565 332.125 281.618 332.313 281.744C332.502 281.87 332.639 282.06 332.698 282.279C332.756 282.499 332.734 282.732 332.633 282.936C332.633 283.076 330.788 285.976 334.829 289.368C338.871 292.76 355.856 289.625 369.873 282.351C376.922 278.824 383.228 273.972 388.446 268.059C390.783 265.139 392.445 261.736 393.314 258.097C394.182 254.457 394.235 250.67 393.469 247.007C392.235 239.626 389.003 232.725 384.124 227.055C383.68 226.517 383.213 226.002 382.769 225.511C380.234 223.234 378.58 220.138 378.096 216.763C377.98 215.149 377.933 213.324 377.863 211.453C377.676 204.225 377.442 196.039 372.513 194.822C371.142 194.386 369.678 194.332 368.279 194.666C366.879 194.999 365.597 195.709 364.57 196.717C360.972 200.389 360.341 207.898 362.841 217.301C363.705 220.529 364.663 223.733 365.621 226.961L366.672 230.564C367.065 231.564 367.114 232.666 366.812 233.698C366.478 234.404 365.972 235.015 365.341 235.476C359.168 240.619 352.105 244.583 344.501 247.171C334.105 250.773 327.984 254.726 326.279 258.866C325.921 259.758 325.767 260.719 325.828 261.678C325.889 262.637 326.162 263.57 326.629 264.41C326.938 264.914 327.346 265.35 327.828 265.692C328.309 266.033 328.855 266.274 329.433 266.398C335.694 268.363 351.417 265.463 368.238 256.2C368.343 256.138 368.46 256.098 368.581 256.082C368.702 256.066 368.825 256.075 368.943 256.108C369.06 256.14 369.17 256.197 369.266 256.273C369.361 256.349 369.441 256.443 369.499 256.551C369.56 256.658 369.599 256.776 369.613 256.898C369.627 257.02 369.616 257.144 369.581 257.262C369.547 257.38 369.488 257.49 369.41 257.585C369.331 257.68 369.235 257.757 369.125 257.814C353.73 266.305 336.815 270.655 328.872 268.176C328.052 267.978 327.28 267.615 326.606 267.108C325.931 266.601 325.366 265.962 324.947 265.229C324.373 264.159 324.042 262.975 323.977 261.762C323.913 260.549 324.116 259.337 324.573 258.211C326.512 253.533 332.82 249.3 343.894 245.463C351.285 242.918 358.15 239.042 364.149 234.025C364.531 233.744 364.849 233.385 365.084 232.973C365.21 232.321 365.145 231.647 364.897 231.031L363.822 227.429C362.888 224.201 361.93 220.973 361.042 217.722C358.379 207.664 359.173 199.5 363.238 195.36C364.5 194.134 366.068 193.27 367.778 192.859C369.487 192.447 371.276 192.503 372.957 193.021C379.265 194.588 379.498 203.524 379.732 211.383C379.732 213.231 379.732 215.009 379.965 216.623C380.458 219.593 381.97 222.298 384.241 224.271C384.708 224.786 385.175 225.301 385.619 225.839C390.698 231.776 394.059 238.991 395.338 246.703C396.14 250.628 396.068 254.681 395.127 258.574C394.186 262.468 392.4 266.105 389.894 269.229C384.526 275.341 378.019 280.346 370.737 283.965C360.995 289.017 348.964 292.666 340.927 292.666Z" fill="black"/>
<path d="M254.369 182.028H224.419C224.171 182.028 223.933 181.929 223.758 181.753C223.583 181.578 223.484 181.34 223.484 181.092C223.484 180.844 223.583 180.606 223.758 180.43C223.933 180.255 224.171 180.156 224.419 180.156H254.369C254.617 180.156 254.855 180.255 255.03 180.43C255.205 180.606 255.304 180.844 255.304 181.092C255.304 181.34 255.205 181.578 255.03 181.753C254.855 181.929 254.617 182.028 254.369 182.028Z" fill="black"/>
<path d="M305.533 114.288C305.411 114.291 305.29 114.269 305.177 114.225C305.064 114.181 304.961 114.114 304.874 114.029C304.786 113.944 304.717 113.842 304.67 113.73C304.623 113.618 304.598 113.497 304.598 113.375V26.689C304.592 20.1066 301.98 13.7953 297.333 9.13875C292.686 4.48216 286.385 1.86026 279.811 1.84788H71.886C65.3239 1.87878 59.0407 4.50885 54.4093 9.16344C49.7779 13.818 47.1747 20.1188 47.1686 26.689V67.0849C47.1686 67.3331 47.0702 67.5711 46.8949 67.7465C46.7197 67.922 46.482 68.0206 46.2341 68.0206C45.9863 68.0206 45.7486 67.922 45.5733 67.7465C45.3981 67.5711 45.2996 67.3331 45.2996 67.0849V26.689C45.3058 19.6125 48.1162 12.8277 53.114 7.82385C58.1117 2.82005 64.8882 0.00619383 71.9561 0L279.881 0C286.949 0.00619383 293.726 2.82005 298.723 7.82385C303.721 12.8277 306.531 19.6125 306.538 26.689V113.375C306.538 113.504 306.512 113.63 306.46 113.748C306.409 113.865 306.333 113.97 306.239 114.056C306.144 114.142 306.032 114.207 305.91 114.247C305.789 114.287 305.66 114.301 305.533 114.288Z" fill="black"/>
<path d="M117.84 182.028H71.9561C64.8882 182.021 58.1117 179.208 53.114 174.204C48.1162 169.2 45.3058 162.415 45.2996 155.339C45.2996 155.09 45.3981 154.852 45.5733 154.677C45.7486 154.502 45.9863 154.403 46.2341 154.403C46.482 154.403 46.7197 154.502 46.8949 154.677C47.0702 154.852 47.1686 155.09 47.1686 155.339C47.1872 161.911 49.8061 168.208 54.452 172.85C59.0979 177.493 65.392 180.103 71.9561 180.11H117.84C118.088 180.11 118.325 180.208 118.501 180.384C118.676 180.559 118.774 180.797 118.774 181.045C118.774 181.293 118.676 181.531 118.501 181.707C118.325 181.882 118.088 181.981 117.84 181.981V182.028Z" fill="black"/>
<path d="M518.645 354.886H414.916C414.795 354.889 414.675 354.868 414.563 354.823C414.451 354.778 414.349 354.711 414.264 354.626C414.179 354.54 414.112 354.439 414.067 354.327C414.023 354.214 414.001 354.094 414.004 353.974C414.001 353.852 414.023 353.731 414.067 353.617C414.111 353.504 414.178 353.401 414.263 353.313C414.348 353.226 414.449 353.157 414.561 353.11C414.674 353.062 414.794 353.038 414.916 353.038H518.645C524.306 353.032 529.734 350.777 533.737 346.769C537.74 342.761 539.992 337.327 539.998 331.659V253.837C539.998 253.715 540.022 253.593 540.069 253.479C540.116 253.366 540.185 253.263 540.271 253.176C540.358 253.089 540.461 253.02 540.575 252.973C540.688 252.926 540.81 252.902 540.932 252.902C541.054 252.902 541.174 252.926 541.286 252.973C541.398 253.021 541.5 253.09 541.585 253.177C541.67 253.264 541.736 253.368 541.781 253.481C541.825 253.595 541.846 253.716 541.843 253.837V331.659C541.837 337.817 539.391 343.721 535.042 348.076C530.692 352.431 524.795 354.88 518.645 354.886Z" fill="black"/>
<path d="M541.026 216.272C540.778 216.272 540.54 216.173 540.365 215.998C540.19 215.822 540.091 215.584 540.091 215.336V207.102C540.088 204.288 539.531 201.502 538.451 198.903C537.37 196.304 535.789 193.945 533.797 191.959C531.805 189.973 529.441 188.4 526.841 187.33C524.241 186.26 521.456 185.714 518.644 185.723H352.304C346.645 185.729 341.22 187.985 337.221 191.993C333.221 196.002 330.975 201.436 330.975 207.102V214.751C330.975 214.999 330.876 215.237 330.701 215.413C330.526 215.588 330.288 215.687 330.04 215.687C329.792 215.687 329.555 215.588 329.379 215.413C329.204 215.237 329.106 214.999 329.106 214.751V207.102C329.148 200.956 331.606 195.073 335.948 190.726C340.289 186.379 346.165 183.918 352.304 183.875H518.644C521.704 183.857 524.737 184.444 527.569 185.603C530.401 186.761 532.976 188.469 535.147 190.627C537.318 192.786 539.042 195.352 540.219 198.18C541.396 201.007 542.004 204.039 542.007 207.102V215.336C542.01 215.464 541.987 215.591 541.939 215.709C541.89 215.828 541.817 215.935 541.724 216.023C541.632 216.111 541.522 216.179 541.401 216.222C541.281 216.265 541.153 216.282 541.026 216.272Z" fill="black"/>
<path d="M275.676 406.112H38.5245C32.385 406.069 26.5092 403.608 22.1678 399.261C17.8264 394.915 15.3685 389.032 15.3257 382.885V340.126C15.3319 333.968 17.778 328.064 22.1273 323.709C26.4766 319.354 32.3737 316.905 38.5245 316.899H111.976C112.224 316.899 112.461 316.998 112.637 317.173C112.812 317.349 112.91 317.587 112.91 317.835C112.91 317.957 112.886 318.077 112.839 318.189C112.792 318.302 112.722 318.403 112.635 318.488C112.548 318.573 112.445 318.64 112.332 318.684C112.218 318.729 112.097 318.75 111.976 318.747H38.5245C32.8653 318.753 27.4401 321.008 23.4406 325.017C19.4412 329.026 17.1947 334.46 17.1947 340.126V382.885C17.1947 388.549 19.4419 393.981 23.442 397.986C27.4422 401.991 32.8675 404.241 38.5245 404.241H275.676C281.335 404.241 286.763 401.991 290.767 397.987C294.77 393.983 297.023 388.551 297.029 382.885V340.126C297.023 334.458 294.771 329.024 290.768 325.016C286.765 321.008 281.337 318.753 275.676 318.747H180.381C180.259 318.75 180.138 318.729 180.025 318.684C179.912 318.64 179.808 318.573 179.721 318.488C179.634 318.403 179.565 318.302 179.518 318.189C179.471 318.077 179.446 317.957 179.446 317.835C179.446 317.587 179.545 317.349 179.72 317.173C179.895 316.998 180.133 316.899 180.381 316.899H275.676C281.827 316.905 287.724 319.354 292.073 323.709C296.422 328.064 298.868 333.968 298.875 340.126V382.885C298.868 389.043 296.422 394.947 292.073 399.302C287.724 403.656 281.827 406.106 275.676 406.112Z" fill="black"/>
<path d="M171.713 138.591C171.525 138.589 171.341 138.529 171.187 138.421C171.033 138.312 170.915 138.159 170.849 137.983C170.639 137.374 165.779 123.41 175.031 116.159C180.171 112.112 186.432 112.299 193.043 112.487C198.893 112.926 204.775 112.388 210.448 110.896C215.465 109.23 220.38 107.269 225.166 105.025C235.282 100.534 244.02 96.6744 248.903 99.9959C250.052 100.92 250.87 102.192 251.237 103.622C251.603 105.051 251.497 106.561 250.935 107.925C248.435 116.486 236.053 126.03 214.747 126.638C214.622 126.652 214.495 126.638 214.376 126.598C214.256 126.558 214.147 126.492 214.056 126.405C213.965 126.318 213.894 126.212 213.848 126.095C213.801 125.978 213.781 125.852 213.789 125.726C213.783 125.482 213.872 125.244 214.038 125.065C214.204 124.886 214.433 124.779 214.677 124.767C238.039 124.042 247.384 113.071 249.16 107.317C249.601 106.332 249.712 105.23 249.476 104.176C249.24 103.122 248.67 102.172 247.851 101.469C243.81 98.7094 235.119 102.569 225.914 106.662C221.06 108.938 216.075 110.922 210.985 112.604C205.116 114.16 199.028 114.722 192.973 114.264C186.432 114.101 180.801 113.937 176.176 117.539C167.975 123.971 172.554 137.141 172.601 137.281C172.678 137.514 172.662 137.767 172.558 137.989C172.454 138.211 172.268 138.384 172.04 138.474L171.713 138.591Z" fill="black"/>
<path d="M221.429 135.129C219.419 135.129 217.363 135.129 215.284 134.895C215.161 134.886 215.042 134.853 214.931 134.798C214.821 134.742 214.723 134.666 214.643 134.572C214.563 134.479 214.502 134.37 214.463 134.253C214.425 134.136 214.41 134.012 214.42 133.889C214.429 133.767 214.462 133.648 214.517 133.539C214.573 133.43 214.65 133.333 214.744 133.255C214.837 133.176 214.946 133.117 215.063 133.082C215.18 133.046 215.303 133.034 215.424 133.047C234.114 134.474 250.678 128.954 253.762 120.206C254.229 119.268 254.472 118.235 254.472 117.188C254.472 116.141 254.229 115.108 253.762 114.171C253.144 113.429 252.383 112.821 251.523 112.382C250.664 111.944 249.725 111.685 248.763 111.621C248.64 111.621 248.518 111.597 248.405 111.55C248.292 111.503 248.189 111.434 248.102 111.347C248.015 111.26 247.946 111.157 247.899 111.044C247.852 110.93 247.828 110.808 247.828 110.685C247.828 110.563 247.852 110.441 247.899 110.327C247.946 110.214 248.015 110.111 248.102 110.024C248.189 109.937 248.292 109.868 248.405 109.821C248.518 109.774 248.64 109.75 248.763 109.75C250.011 109.836 251.228 110.18 252.338 110.76C253.447 111.34 254.425 112.142 255.211 113.118C255.867 114.285 256.237 115.591 256.29 116.929C256.343 118.267 256.077 119.599 255.514 120.814C252.454 129.468 238.577 135.129 221.429 135.129Z" fill="black"/>
<path d="M192.95 147.526C192.714 147.527 192.486 147.438 192.313 147.277C192.139 147.117 192.033 146.896 192.015 146.661C192.009 146.538 192.027 146.415 192.068 146.299C192.109 146.183 192.173 146.076 192.256 145.985C192.338 145.894 192.438 145.82 192.549 145.767C192.66 145.714 192.78 145.684 192.903 145.678C209.257 144.789 211.266 129.305 211.336 128.58C211.365 128.335 211.49 128.112 211.682 127.959C211.874 127.806 212.119 127.734 212.364 127.761C212.608 127.79 212.831 127.915 212.984 128.107C213.137 128.3 213.208 128.545 213.182 128.79C213.182 128.977 210.845 146.567 192.996 147.503L192.95 147.526Z" fill="black"/>
<path d="M218.041 185.747C217.302 185.738 216.568 185.611 215.868 185.372C210.331 183.501 206.827 174.823 205.589 171.174C204.584 168.227 200.286 166.496 197.716 165.631C195.114 164.728 192.452 164.009 189.749 163.479C188.16 163.128 186.548 162.777 184.936 162.332C182.469 161.715 180.169 160.555 178.205 158.937C176.241 157.318 174.662 155.282 173.582 152.976C171.358 148.184 170.4 142.901 170.802 137.632C170.805 137.509 170.833 137.388 170.885 137.276C170.936 137.164 171.011 137.065 171.103 136.983C171.195 136.902 171.303 136.841 171.42 136.803C171.538 136.766 171.661 136.753 171.783 136.766C172.027 136.784 172.254 136.897 172.416 137.081C172.577 137.265 172.661 137.504 172.648 137.749C172.28 142.654 173.165 147.572 175.218 152.041C176.172 154.119 177.585 155.954 179.349 157.409C181.113 158.863 183.183 159.899 185.404 160.438C186.969 160.882 188.558 161.233 190.076 161.561C192.863 162.14 195.603 162.922 198.276 163.9C201.15 164.976 205.963 166.8 207.248 170.589C208.159 173.233 211.476 181.957 216.359 183.618C217.21 183.878 218.11 183.928 218.985 183.765C219.859 183.602 220.681 183.231 221.382 182.683C222.514 181.892 223.443 180.844 224.093 179.624C224.743 178.404 225.095 177.047 225.12 175.665C225.094 172.692 224.439 169.759 223.199 167.058C221.958 164.356 220.161 161.949 217.924 159.993C215.478 157.861 212.825 155.981 210.004 154.38C209.61 154.212 209.253 153.966 208.956 153.656C208.659 153.347 208.427 152.98 208.275 152.578C208.158 152.011 208.224 151.422 208.462 150.894C208.806 150.046 209.338 149.287 210.018 148.675C210.698 148.063 211.508 147.614 212.387 147.362C213.624 147.043 214.895 146.871 216.172 146.848C222.456 146.595 228.709 145.813 234.862 144.509C239.973 143.56 244.882 141.732 249.37 139.105C251.258 138.113 252.75 136.503 253.598 134.544C254.063 133.069 253.947 131.473 253.273 130.081C252.6 128.69 251.421 127.608 249.977 127.059C249.782 126.944 249.635 126.761 249.565 126.546C249.494 126.33 249.503 126.096 249.592 125.888C249.681 125.679 249.842 125.509 250.046 125.411C250.25 125.312 250.483 125.291 250.702 125.352C252.544 126.059 254.051 127.439 254.918 129.214C255.785 130.99 255.948 133.028 255.374 134.918C254.417 137.313 252.647 139.293 250.374 140.509C245.699 143.249 240.585 145.156 235.259 146.146C229.041 147.511 222.718 148.349 216.359 148.649C215.17 148.66 213.986 148.81 212.831 149.093C212.246 149.29 211.712 149.614 211.267 150.043C210.823 150.472 210.479 150.994 210.261 151.573C210.216 151.757 210.216 151.95 210.261 152.134C210.261 152.368 210.822 152.625 211.079 152.766C214.034 154.404 216.82 156.332 219.396 158.52C221.854 160.663 223.826 163.309 225.18 166.278C226.534 169.247 227.238 172.472 227.246 175.735C227.225 177.411 226.802 179.057 226.014 180.534C225.225 182.012 224.093 183.278 222.713 184.226C221.353 185.21 219.719 185.742 218.041 185.747Z" fill="black"/>
<path d="M49.2245 276.269H24.9744C20.104 276.263 15.4345 274.325 11.9884 270.879C8.54237 267.433 6.60055 262.76 6.5882 257.884V240.551C6.61287 235.683 8.56013 231.023 12.0049 227.587C15.4496 224.151 20.1121 222.219 24.9744 222.213H49.2245C54.0989 222.219 58.7719 224.161 62.2187 227.612C65.6654 231.063 67.6045 235.741 67.6107 240.622V257.954C67.5799 262.818 65.6299 267.473 62.1858 270.904C58.7417 274.335 54.0828 276.263 49.2245 276.269ZM24.9744 223.991C20.5916 223.997 16.3904 225.744 13.2935 228.85C10.1966 231.955 8.45718 236.163 8.45718 240.551V257.884C8.46336 262.268 10.2055 266.471 13.3018 269.571C16.398 272.671 20.5956 274.415 24.9744 274.421H49.2245C53.6032 274.415 57.8009 272.671 60.8971 269.571C63.9933 266.471 65.7355 262.268 65.7417 257.884V240.551C65.7417 236.163 64.0023 231.955 60.9053 228.85C57.8084 225.744 53.6073 223.997 49.2245 223.991H24.9744Z" fill="black"/>
<path d="M453.23 100.931H427.344C425.108 100.931 422.962 100.042 421.381 98.4583C419.799 96.8747 418.911 94.7269 418.911 92.4874V66.6171C418.911 64.3776 419.799 62.2298 421.381 60.6463C422.962 59.0627 425.108 58.173 427.344 58.173H453.23C455.467 58.173 457.612 59.0627 459.194 60.6463C460.775 62.2298 461.664 64.3776 461.664 66.6171V92.4874C461.664 94.7269 460.775 96.8747 459.194 98.4583C457.612 100.042 455.467 100.931 453.23 100.931ZM427.344 60.0209C425.601 60.0271 423.931 60.7248 422.701 61.9611C421.471 63.1975 420.78 64.8717 420.78 66.6171V92.4874C420.777 93.3525 420.944 94.2097 421.273 95.0099C421.601 95.81 422.084 96.5374 422.694 97.1502C423.304 97.763 424.029 98.2493 424.827 98.5811C425.625 98.9128 426.48 99.0836 427.344 99.0836H453.23C454.094 99.0836 454.95 98.9128 455.748 98.5811C456.546 98.2493 457.27 97.763 457.88 97.1502C458.49 96.5374 458.973 95.81 459.302 95.0099C459.63 94.2097 459.798 93.3525 459.795 92.4874V66.6171C459.795 64.8717 459.104 63.1975 457.873 61.9611C456.643 60.7248 454.973 60.0271 453.23 60.0209H427.344Z" fill="black"/>
<path d="M436.129 58.9917C435.939 58.9928 435.754 58.9349 435.599 58.8259C435.444 58.7169 435.327 58.5623 435.264 58.3835C430.265 44.0216 421.784 34.1038 410.033 28.8877C393.679 21.5897 371.251 23.8587 343.52 35.6243C343.29 35.7133 343.035 35.7122 342.805 35.6212C342.576 35.5302 342.389 35.3559 342.282 35.133C342.189 34.9035 342.192 34.6466 342.288 34.4186C342.384 34.1906 342.567 34.0102 342.796 33.9167C371.018 21.9406 393.889 19.6717 410.804 27.1802C422.859 32.5367 431.83 43.1093 437.016 57.7754C437.091 58.0081 437.071 58.2607 436.962 58.4793C436.853 58.6978 436.663 58.8649 436.432 58.9449C436.336 58.9854 436.232 59.0014 436.129 58.9917Z" fill="black"/>
<path d="M333.731 48.9804C331.678 48.9851 329.669 48.3793 327.96 47.2399C326.25 46.1005 324.917 44.4787 324.129 42.5801C323.341 40.6814 323.134 38.5913 323.533 36.5745C323.933 34.5578 324.921 32.7051 326.373 31.2512C327.825 29.7974 329.676 28.8078 331.69 28.4078C333.704 28.0078 335.792 28.2155 337.688 29.0044C339.585 29.7934 341.204 31.1281 342.342 32.8396C343.481 34.5511 344.086 36.5622 344.081 38.6183C344.075 41.3646 342.982 43.9967 341.043 45.9386C339.103 47.8805 336.474 48.9742 333.731 48.9804ZM333.731 30.104C332.049 30.0994 330.402 30.5948 329.001 31.5275C327.599 32.4603 326.505 33.7884 325.858 35.3438C325.211 36.8991 325.039 38.6118 325.365 40.2649C325.69 41.9181 326.498 43.4374 327.687 44.6305C328.875 45.8235 330.39 46.6368 332.04 46.9672C333.691 47.2976 335.402 47.1304 336.957 46.4867C338.512 45.8429 339.842 44.7516 340.777 43.351C341.713 41.9503 342.212 40.3032 342.212 38.6183C342.212 36.3642 341.319 34.2021 339.729 32.606C338.14 31.01 335.983 30.1102 333.731 30.104Z" fill="black"/>
<path d="M440.264 89.891C438.211 89.891 436.205 89.2813 434.498 88.1391C432.792 86.9969 431.463 85.3735 430.678 83.4744C429.894 81.5754 429.69 79.486 430.092 77.4707C430.494 75.4555 431.484 73.605 432.937 72.1535C434.39 70.702 436.241 69.7147 438.254 69.3167C440.268 68.9186 442.354 69.1276 444.249 69.9172C446.144 70.7069 447.763 72.0416 448.9 73.7526C450.037 75.4636 450.641 77.4738 450.637 79.5289C450.63 82.2792 449.535 84.9148 447.59 86.8574C445.646 88.8 443.011 89.891 440.264 89.891ZM440.264 71.0146C438.582 71.0146 436.938 71.5139 435.539 72.4495C434.141 73.3851 433.051 74.7148 432.407 76.2706C431.764 77.8264 431.595 79.5383 431.923 81.1899C432.251 82.8415 433.061 84.3586 434.251 85.5494C435.44 86.7401 436.955 87.551 438.605 87.8795C440.254 88.2081 441.964 88.0395 443.518 87.395C445.072 86.7506 446.4 85.6593 447.334 84.2591C448.269 82.859 448.768 81.2128 448.768 79.5289C448.761 77.2726 447.864 75.1106 446.27 73.5152C444.677 71.9198 442.517 71.0208 440.264 71.0146Z" fill="black"/>
<path d="M491.871 136.252C484.267 136.387 476.719 134.913 469.724 131.924C457.669 126.544 448.581 115.948 443.511 101.282C443.471 101.169 443.453 101.048 443.459 100.928C443.466 100.807 443.496 100.689 443.548 100.58C443.6 100.472 443.673 100.374 443.763 100.294C443.853 100.214 443.958 100.152 444.072 100.113C444.187 100.069 444.309 100.048 444.432 100.052C444.555 100.057 444.676 100.086 444.787 100.139C444.899 100.191 444.998 100.266 445.08 100.358C445.162 100.45 445.224 100.557 445.263 100.674C450.24 115.06 458.72 125.001 470.471 130.217C486.825 137.515 509.276 135.269 537.031 123.504C537.142 123.454 537.263 123.427 537.385 123.425C537.507 123.423 537.629 123.445 537.742 123.491C537.856 123.537 537.959 123.605 538.045 123.692C538.131 123.778 538.2 123.881 538.246 123.995C538.339 124.222 538.341 124.476 538.249 124.704C538.157 124.931 537.98 125.113 537.755 125.211C520.397 132.579 505.048 136.252 491.871 136.252Z" fill="black"/>
<path d="M546.82 130.989C544.766 130.993 542.757 130.388 541.048 129.248C539.339 128.109 538.005 126.487 537.217 124.588C536.429 122.69 536.222 120.6 536.622 118.583C537.021 116.566 538.009 114.713 539.461 113.26C540.914 111.806 542.764 110.816 544.778 110.416C546.793 110.016 548.88 110.224 550.776 111.013C552.673 111.802 554.293 113.136 555.431 114.848C556.569 116.559 557.174 118.571 557.169 120.627C557.163 123.373 556.07 126.005 554.131 127.947C552.191 129.889 549.562 130.983 546.82 130.989ZM546.82 112.112C545.138 112.112 543.493 112.612 542.095 113.547C540.697 114.483 539.607 115.813 538.963 117.368C538.319 118.924 538.151 120.636 538.479 122.288C538.807 123.939 539.617 125.456 540.806 126.647C541.996 127.838 543.511 128.649 545.161 128.977C546.81 129.306 548.52 129.137 550.074 128.493C551.628 127.848 552.956 126.757 553.89 125.357C554.825 123.957 555.323 122.311 555.323 120.627C555.339 119.499 555.13 118.379 554.71 117.332C554.29 116.286 553.666 115.333 552.874 114.53C552.083 113.727 551.14 113.09 550.101 112.654C549.062 112.219 547.946 111.995 546.82 111.995V112.112Z" fill="black"/>
<path d="M240.072 350.675H103.752C103.504 350.675 103.267 350.577 103.091 350.401C102.916 350.226 102.818 349.988 102.818 349.74C102.818 349.492 102.916 349.254 103.091 349.078C103.267 348.903 103.504 348.804 103.752 348.804H240.072C240.319 348.804 240.557 348.903 240.732 349.078C240.908 349.254 241.006 349.492 241.006 349.74C241.006 349.988 240.908 350.226 240.732 350.401C240.557 350.577 240.319 350.675 240.072 350.675Z" fill="black"/>
<path d="M240.072 373.669H103.752C103.631 373.672 103.51 373.651 103.396 373.606C103.283 373.562 103.18 373.495 103.093 373.41C103.006 373.325 102.937 373.223 102.889 373.111C102.842 372.999 102.818 372.878 102.818 372.756C102.818 372.508 102.916 372.27 103.091 372.095C103.267 371.919 103.504 371.821 103.752 371.821H240.072C240.193 371.821 240.314 371.845 240.426 371.892C240.538 371.94 240.639 372.009 240.724 372.096C240.809 372.183 240.876 372.287 240.92 372.4C240.965 372.514 240.986 372.635 240.983 372.756C240.986 372.877 240.965 372.997 240.92 373.109C240.875 373.221 240.808 373.323 240.723 373.409C240.638 373.494 240.536 373.561 240.424 373.606C240.312 373.651 240.192 373.672 240.072 373.669Z" fill="black"/>
<path d="M56.35 377.411C53.208 377.411 50.1365 376.478 47.524 374.731C44.9115 372.983 42.8753 370.499 41.6729 367.592C40.4705 364.686 40.1559 361.488 40.7689 358.402C41.3819 355.317 42.8949 352.483 45.1167 350.258C47.3384 348.034 50.1691 346.519 53.2508 345.905C56.3324 345.292 59.5266 345.607 62.4295 346.81C65.3324 348.014 67.8135 350.053 69.5591 352.669C71.3047 355.284 72.2364 358.36 72.2364 361.505C72.2303 365.722 70.5545 369.764 67.5766 372.746C64.5987 375.727 60.5615 377.405 56.35 377.411ZM56.35 347.448C53.5777 347.448 50.8675 348.271 48.5624 349.813C46.2572 351.355 44.4606 353.547 43.3996 356.111C42.3387 358.676 42.0611 361.498 42.602 364.22C43.1428 366.942 44.4779 369.443 46.4382 371.406C48.3986 373.369 50.8963 374.705 53.6154 375.247C56.3345 375.788 59.1529 375.51 61.7143 374.448C64.2756 373.386 66.4648 371.587 68.0051 369.279C69.5454 366.971 70.3675 364.258 70.3675 361.482C70.3675 357.76 68.8906 354.19 66.2619 351.558C63.6331 348.926 60.0677 347.448 56.35 347.448Z" fill="black"/>
<path d="M276.587 32.9577C274.594 32.9623 272.645 32.375 270.986 31.27C269.328 30.1651 268.033 28.5922 267.268 26.7505C266.502 24.9087 266.299 22.881 266.685 20.9238C267.071 18.9667 268.028 17.1681 269.435 15.7559C270.843 14.3436 272.637 13.3811 274.591 12.9902C276.544 12.5993 278.57 12.7976 280.412 13.56C282.253 14.3223 283.827 15.6145 284.934 17.2729C286.042 18.9312 286.633 20.8813 286.633 22.8762C286.633 25.5459 285.575 28.1067 283.692 29.9966C281.809 31.8866 279.253 32.9515 276.587 32.9577ZM276.587 14.666C274.959 14.6614 273.365 15.141 272.009 16.0439C270.653 16.9468 269.596 18.2325 268.971 19.7379C268.345 21.2434 268.18 22.9008 268.497 24.5002C268.813 26.0995 269.597 27.5687 270.749 28.7216C271.9 29.8745 273.368 30.6591 274.965 30.9761C276.562 31.293 278.218 31.128 279.721 30.5019C281.225 29.8759 282.509 28.8169 283.411 27.4593C284.313 26.1018 284.792 24.5067 284.787 22.8762C284.781 20.7007 283.915 18.6159 282.379 17.0776C280.842 15.5392 278.76 14.6722 276.587 14.666Z" fill="#FF3233"/>
<path d="M245.702 32.022C250.747 32.022 254.837 27.9273 254.837 22.8762C254.837 17.8251 250.747 13.7304 245.702 13.7304C240.657 13.7304 236.567 17.8251 236.567 22.8762C236.567 27.9273 240.657 32.022 245.702 32.022Z" fill="white"/>
<path d="M245.702 32.9577C243.71 32.9577 241.764 32.3664 240.108 31.2587C238.452 30.1509 237.161 28.5764 236.399 26.7342C235.637 24.8921 235.438 22.8651 235.826 20.9094C236.215 18.9538 237.174 17.1575 238.582 15.7476C239.99 14.3377 241.784 13.3775 243.738 12.9885C245.691 12.5995 247.715 12.7992 249.555 13.5622C251.395 14.3252 252.968 15.6174 254.074 17.2753C255.181 18.9332 255.771 20.8823 255.771 22.8762C255.765 25.5481 254.702 28.1088 252.815 29.9981C250.928 31.8874 248.371 32.9515 245.702 32.9577ZM245.702 14.6661C244.075 14.6661 242.484 15.1495 241.131 16.0553C239.778 16.9611 238.724 18.2484 238.102 19.7542C237.48 21.2601 237.319 22.9168 237.638 24.5145C237.957 26.1123 238.743 27.5794 239.895 28.7299C241.048 29.8805 242.515 30.6628 244.112 30.9778C245.709 31.2929 247.363 31.1265 248.865 30.4997C250.367 29.873 251.65 28.814 252.551 27.4569C253.452 26.0998 253.93 24.5057 253.926 22.8762C253.919 20.6966 253.05 18.6084 251.509 17.0693C249.967 15.5303 247.879 14.666 245.702 14.6661Z" fill="black"/>
<path d="M214.934 32.9577C212.942 32.9577 210.996 32.3664 209.34 31.2587C207.684 30.1509 206.393 28.5764 205.631 26.7342C204.869 24.8921 204.67 22.8651 205.058 20.9094C205.447 18.9538 206.406 17.1575 207.814 15.7476C209.222 14.3377 211.016 13.3775 212.969 12.9885C214.923 12.5995 216.947 12.7992 218.787 13.5622C220.627 14.3252 222.2 15.6174 223.306 17.2753C224.412 18.9332 225.003 20.8823 225.003 22.8762C224.997 25.5481 223.934 28.1088 222.047 29.9981C220.16 31.8874 217.602 32.9515 214.934 32.9577ZM214.934 14.6661C213.306 14.6661 211.715 15.1495 210.363 16.0553C209.01 16.9611 207.956 18.2484 207.334 19.7542C206.712 21.2601 206.551 22.9168 206.87 24.5145C207.189 26.1123 207.975 27.5794 209.127 28.7299C210.28 29.8805 211.747 30.6628 213.344 30.9778C214.941 31.2929 216.595 31.1265 218.097 30.4997C219.599 29.873 220.882 28.814 221.783 27.4569C222.684 26.0998 223.162 24.5057 223.157 22.8762C223.157 21.7961 222.944 20.7266 222.531 19.7289C222.117 18.7313 221.511 17.8252 220.747 17.0625C219.983 16.2998 219.077 15.6955 218.079 15.2843C217.081 14.8731 216.013 14.663 214.934 14.6661Z" fill="black"/>
<path d="M188.861 236.715C188.656 236.726 188.453 236.666 188.286 236.547C188.118 236.427 187.996 236.254 187.939 236.056C187.882 235.859 187.894 235.647 187.972 235.457C188.051 235.266 188.191 235.108 188.371 235.008C188.651 234.844 216.219 217.582 248.178 211.43C248.298 211.406 248.422 211.407 248.541 211.432C248.661 211.457 248.774 211.506 248.874 211.576C248.974 211.646 249.06 211.735 249.125 211.839C249.19 211.942 249.233 212.058 249.253 212.178C249.28 212.297 249.283 212.42 249.261 212.539C249.238 212.659 249.192 212.773 249.124 212.874C249.056 212.974 248.968 213.06 248.866 213.126C248.763 213.191 248.649 213.235 248.529 213.254C216.92 219.359 189.632 236.411 189.352 236.645C189.198 236.713 189.028 236.738 188.861 236.715Z" fill="black"/>
<path d="M322.611 262.609H313.056C312.808 262.609 312.57 262.51 312.395 262.335C312.22 262.16 312.121 261.922 312.121 261.673C312.121 261.425 312.22 261.187 312.395 261.012C312.57 260.836 312.808 260.738 313.056 260.738H322.728C322.976 260.738 323.213 260.836 323.388 261.012C323.564 261.187 323.662 261.425 323.662 261.673C323.662 261.922 323.564 262.16 323.388 262.335C323.213 262.51 322.976 262.609 322.728 262.609H322.611ZM303.267 262.609H293.618C293.37 262.609 293.133 262.51 292.957 262.335C292.782 262.16 292.684 261.922 292.684 261.673C292.684 261.425 292.782 261.187 292.957 261.012C293.133 260.836 293.37 260.738 293.618 260.738H303.267C303.515 260.738 303.752 260.836 303.928 261.012C304.103 261.187 304.201 261.425 304.201 261.673C304.201 261.922 304.103 262.16 303.928 262.335C303.752 262.51 303.515 262.609 303.267 262.609ZM283.946 262.609H274.274C274.026 262.609 273.789 262.51 273.613 262.335C273.438 262.16 273.34 261.922 273.34 261.673C273.34 261.425 273.438 261.187 273.613 261.012C273.789 260.836 274.026 260.738 274.274 260.738H283.946C284.194 260.738 284.432 260.836 284.607 261.012C284.782 261.187 284.881 261.425 284.881 261.673C284.881 261.922 284.782 262.16 284.607 262.335C284.432 262.51 284.194 262.609 283.946 262.609ZM264.602 262.609H254.953C254.706 262.609 254.468 262.51 254.293 262.335C254.117 262.16 254.019 261.922 254.019 261.673C254.019 261.425 254.117 261.187 254.293 261.012C254.468 260.836 254.706 260.738 254.953 260.738H264.602C264.85 260.738 265.088 260.836 265.263 261.012C265.438 261.187 265.537 261.425 265.537 261.673C265.537 261.922 265.438 262.16 265.263 262.335C265.088 262.51 264.85 262.609 264.602 262.609ZM245.281 262.609H235.609C235.362 262.609 235.124 262.51 234.949 262.335C234.773 262.16 234.675 261.922 234.675 261.673C234.675 261.425 234.773 261.187 234.949 261.012C235.124 260.836 235.362 260.738 235.609 260.738H245.305C245.553 260.738 245.79 260.836 245.966 261.012C246.141 261.187 246.239 261.425 246.239 261.673C246.239 261.922 246.141 262.16 245.966 262.335C245.79 262.51 245.553 262.609 245.305 262.609H245.281ZM225.961 262.609H216.289C216.041 262.609 215.803 262.51 215.628 262.335C215.453 262.16 215.354 261.922 215.354 261.673C215.354 261.425 215.453 261.187 215.628 261.012C215.803 260.836 216.041 260.738 216.289 260.738H225.961C226.209 260.738 226.446 260.836 226.622 261.012C226.797 261.187 226.895 261.425 226.895 261.673C226.895 261.922 226.797 262.16 226.622 262.335C226.446 262.51 226.209 262.609 225.961 262.609ZM206.617 262.609H196.968C196.72 262.609 196.483 262.51 196.307 262.335C196.132 262.16 196.034 261.922 196.034 261.673C196.034 261.425 196.132 261.187 196.307 261.012C196.483 260.836 196.72 260.738 196.968 260.738H206.617C206.865 260.738 207.102 260.836 207.278 261.012C207.453 261.187 207.551 261.425 207.551 261.673C207.551 261.922 207.453 262.16 207.278 262.335C207.102 262.51 206.865 262.609 206.617 262.609ZM190.263 259.545C190.015 259.545 189.778 259.446 189.602 259.271C189.427 259.095 189.329 258.857 189.329 258.609V248.925C189.329 248.677 189.427 248.439 189.602 248.264C189.778 248.088 190.015 247.99 190.263 247.99C190.511 247.99 190.749 248.088 190.924 248.264C191.099 248.439 191.198 248.677 191.198 248.925V258.609C191.21 258.732 191.199 258.856 191.164 258.975C191.128 259.093 191.07 259.204 190.991 259.299C190.913 259.395 190.817 259.474 190.708 259.533C190.599 259.591 190.48 259.627 190.357 259.638L190.263 259.545ZM190.263 240.177C190.142 240.18 190.021 240.159 189.907 240.115C189.794 240.07 189.691 240.003 189.604 239.918C189.517 239.833 189.447 239.732 189.4 239.62C189.353 239.507 189.329 239.387 189.329 239.265V229.581C189.329 229.333 189.427 229.095 189.602 228.92C189.778 228.744 190.015 228.646 190.263 228.646C190.511 228.646 190.749 228.744 190.924 228.92C191.099 229.095 191.198 229.333 191.198 229.581V239.265C191.198 239.495 191.112 239.717 190.956 239.886C190.8 240.056 190.586 240.159 190.357 240.177H190.263ZM190.263 220.833C190.015 220.833 189.778 220.734 189.602 220.559C189.427 220.383 189.329 220.145 189.329 219.897V210.237C189.329 209.989 189.427 209.751 189.602 209.575C189.778 209.4 190.015 209.301 190.263 209.301C190.511 209.301 190.749 209.4 190.924 209.575C191.099 209.751 191.198 209.989 191.198 210.237V219.874C191.205 220.111 191.122 220.341 190.966 220.519C190.81 220.697 190.592 220.809 190.357 220.833H190.263ZM190.263 201.489C190.015 201.489 189.778 201.39 189.602 201.215C189.427 201.039 189.329 200.801 189.329 200.553V190.869C189.329 190.621 189.427 190.383 189.602 190.208C189.778 190.032 190.015 189.934 190.263 189.934C190.511 189.934 190.749 190.032 190.924 190.208C191.099 190.383 191.198 190.621 191.198 190.869V200.553C191.199 200.786 191.113 201.011 190.958 201.184C190.802 201.357 190.588 201.465 190.357 201.489H190.263ZM368.588 185.56C368.34 185.56 368.102 185.461 367.927 185.286C367.752 185.11 367.654 184.872 367.654 184.624V174.964C367.654 174.715 367.752 174.477 367.927 174.302C368.102 174.126 368.34 174.028 368.588 174.028C368.71 174.028 368.83 174.052 368.942 174.099C369.054 174.147 369.156 174.216 369.241 174.303C369.326 174.39 369.392 174.494 369.437 174.607C369.481 174.721 369.502 174.842 369.499 174.964V184.624C369.506 184.854 369.426 185.079 369.274 185.253C369.122 185.426 368.911 185.536 368.681 185.56H368.588ZM190.357 182.121C190.234 182.121 190.112 182.097 189.999 182.05C189.886 182.003 189.783 181.934 189.696 181.847C189.609 181.76 189.54 181.657 189.493 181.544C189.446 181.43 189.422 181.308 189.422 181.185V171.525C189.422 171.277 189.521 171.039 189.696 170.863C189.871 170.688 190.109 170.589 190.357 170.589C190.604 170.589 190.842 170.688 191.017 170.863C191.193 171.039 191.291 171.277 191.291 171.525V181.185C191.291 181.434 191.193 181.672 191.017 181.847C190.842 182.023 190.604 182.121 190.357 182.121ZM368.681 166.215C368.434 166.215 368.196 166.117 368.021 165.941C367.845 165.766 367.747 165.528 367.747 165.28V155.596C367.747 155.348 367.845 155.11 368.021 154.934C368.196 154.759 368.434 154.66 368.681 154.66C368.803 154.66 368.924 154.685 369.036 154.732C369.148 154.779 369.249 154.848 369.334 154.936C369.419 155.023 369.486 155.126 369.53 155.24C369.574 155.353 369.596 155.474 369.593 155.596V165.28C369.596 165.401 369.574 165.523 369.53 165.636C369.486 165.749 369.419 165.853 369.334 165.94C369.249 166.027 369.148 166.096 369.036 166.144C368.924 166.191 368.803 166.215 368.681 166.215ZM190.357 162.777C190.234 162.777 190.112 162.753 189.999 162.706C189.886 162.659 189.783 162.59 189.696 162.503C189.609 162.416 189.54 162.313 189.493 162.199C189.446 162.086 189.422 161.964 189.422 161.841V152.157C189.422 151.909 189.521 151.671 189.696 151.496C189.871 151.32 190.109 151.222 190.357 151.222C190.604 151.222 190.842 151.32 191.017 151.496C191.193 151.671 191.291 151.909 191.291 152.157V161.841C191.291 162.089 191.193 162.327 191.017 162.503C190.842 162.678 190.604 162.777 190.357 162.777ZM368.681 146.848C368.434 146.848 368.196 146.749 368.021 146.574C367.845 146.398 367.747 146.16 367.747 145.912V136.252C367.747 136.004 367.845 135.766 368.021 135.59C368.196 135.415 368.434 135.316 368.681 135.316C368.803 135.316 368.924 135.34 369.036 135.388C369.148 135.435 369.249 135.504 369.334 135.591C369.419 135.679 369.486 135.782 369.53 135.895C369.574 136.009 369.596 136.13 369.593 136.252V145.912C369.596 146.034 369.574 146.155 369.53 146.268C369.486 146.382 369.419 146.485 369.334 146.572C369.249 146.659 369.148 146.729 369.036 146.776C368.924 146.823 368.803 146.848 368.681 146.848ZM190.357 143.409C190.235 143.412 190.114 143.391 190.001 143.347C189.887 143.302 189.784 143.235 189.697 143.15C189.61 143.065 189.541 142.964 189.494 142.852C189.446 142.739 189.422 142.619 189.422 142.497V132.813C189.422 132.565 189.521 132.327 189.696 132.152C189.871 131.976 190.109 131.878 190.357 131.878C190.604 131.878 190.842 131.976 191.017 132.152C191.193 132.327 191.291 132.565 191.291 132.813V142.497C191.291 142.619 191.267 142.739 191.22 142.852C191.172 142.964 191.103 143.065 191.016 143.15C190.929 143.235 190.826 143.302 190.712 143.347C190.599 143.391 190.478 143.412 190.357 143.409ZM368.681 127.503C368.434 127.503 368.196 127.405 368.021 127.229C367.845 127.054 367.747 126.816 367.747 126.568V123.129H363.378C363.255 123.129 363.134 123.105 363.021 123.058C362.907 123.011 362.804 122.942 362.717 122.855C362.631 122.768 362.562 122.665 362.515 122.552C362.468 122.438 362.444 122.317 362.444 122.194C362.444 122.071 362.468 121.949 362.515 121.836C362.562 121.722 362.631 121.619 362.717 121.532C362.804 121.445 362.907 121.376 363.021 121.329C363.134 121.282 363.255 121.258 363.378 121.258H368.681C368.803 121.258 368.924 121.282 369.036 121.33C369.148 121.377 369.249 121.446 369.334 121.534C369.419 121.621 369.486 121.724 369.53 121.837C369.574 121.951 369.596 122.072 369.593 122.194V126.568C369.596 126.69 369.574 126.811 369.53 126.924C369.486 127.038 369.419 127.141 369.334 127.228C369.249 127.315 369.148 127.385 369.036 127.432C368.924 127.479 368.803 127.504 368.681 127.503ZM190.357 123.971C190.234 123.971 190.112 123.947 189.999 123.9C189.886 123.853 189.783 123.784 189.696 123.697C189.609 123.611 189.54 123.507 189.493 123.394C189.446 123.28 189.422 123.159 189.422 123.036V122.1C189.422 121.977 189.446 121.856 189.493 121.742C189.54 121.629 189.609 121.525 189.696 121.439C189.783 121.352 189.886 121.283 189.999 121.236C190.112 121.189 190.234 121.165 190.357 121.165H199.071C199.319 121.165 199.556 121.263 199.732 121.439C199.907 121.614 200.005 121.852 200.005 122.1C200.005 122.348 199.907 122.586 199.732 122.762C199.556 122.937 199.319 123.036 199.071 123.036H191.291C191.291 123.284 191.193 123.522 191.017 123.697C190.842 123.873 190.604 123.971 190.357 123.971ZM353.706 123.036H344.058C343.81 123.036 343.572 122.937 343.397 122.762C343.221 122.586 343.123 122.348 343.123 122.1C343.123 121.852 343.221 121.614 343.397 121.439C343.572 121.263 343.81 121.165 344.058 121.165H353.706C353.954 121.165 354.192 121.263 354.367 121.439C354.542 121.614 354.641 121.852 354.641 122.1C354.641 122.348 354.542 122.586 354.367 122.762C354.192 122.937 353.954 123.036 353.706 123.036ZM334.386 123.036H324.737C324.489 123.036 324.251 122.937 324.076 122.762C323.901 122.586 323.802 122.348 323.802 122.1C323.802 121.852 323.901 121.614 324.076 121.439C324.251 121.263 324.489 121.165 324.737 121.165H334.409C334.657 121.165 334.894 121.263 335.07 121.439C335.245 121.614 335.343 121.852 335.343 122.1C335.343 122.348 335.245 122.586 335.07 122.762C334.894 122.937 334.657 123.036 334.409 123.036H334.386ZM315.065 123.036H305.393C305.145 123.036 304.907 122.937 304.732 122.762C304.557 122.586 304.458 122.348 304.458 122.1C304.458 121.852 304.557 121.614 304.732 121.439C304.907 121.263 305.145 121.165 305.393 121.165H315.065C315.313 121.165 315.55 121.263 315.726 121.439C315.901 121.614 315.999 121.852 315.999 122.1C315.999 122.348 315.901 122.586 315.726 122.762C315.55 122.937 315.313 123.036 315.065 123.036ZM295.721 123.036H286.049C285.801 123.036 285.563 122.937 285.388 122.762C285.213 122.586 285.114 122.348 285.114 122.1C285.114 121.852 285.213 121.614 285.388 121.439C285.563 121.263 285.801 121.165 286.049 121.165H295.721C295.969 121.165 296.206 121.263 296.382 121.439C296.557 121.614 296.655 121.852 296.655 122.1C296.655 122.348 296.557 122.586 296.382 122.762C296.206 122.937 295.969 123.036 295.721 123.036ZM276.4 123.036H266.728C266.48 123.036 266.243 122.937 266.067 122.762C265.892 122.586 265.794 122.348 265.794 122.1C265.794 121.852 265.892 121.614 266.067 121.439C266.243 121.263 266.48 121.165 266.728 121.165H276.4C276.648 121.165 276.886 121.263 277.061 121.439C277.236 121.614 277.335 121.852 277.335 122.1C277.335 122.348 277.236 122.586 277.061 122.762C276.886 122.937 276.648 123.036 276.4 123.036ZM257.056 123.036H247.407C247.16 123.036 246.922 122.937 246.747 122.762C246.571 122.586 246.473 122.348 246.473 122.1C246.473 121.852 246.571 121.614 246.747 121.439C246.922 121.263 247.16 121.165 247.407 121.165H256.986C257.234 121.165 257.472 121.263 257.647 121.439C257.822 121.614 257.921 121.852 257.921 122.1C257.921 122.348 257.822 122.586 257.647 122.762C257.472 122.937 257.234 123.036 256.986 123.036H257.056ZM237.735 123.036H228.063C227.816 123.036 227.578 122.937 227.403 122.762C227.227 122.586 227.129 122.348 227.129 122.1C227.129 121.852 227.227 121.614 227.403 121.439C227.578 121.263 227.816 121.165 228.063 121.165H237.735C237.983 121.165 238.221 121.263 238.396 121.439C238.571 121.614 238.67 121.852 238.67 122.1C238.67 122.348 238.571 122.586 238.396 122.762C238.221 122.937 237.983 123.036 237.735 123.036ZM218.415 123.036H208.743C208.495 123.036 208.257 122.937 208.082 122.762C207.907 122.586 207.808 122.348 207.808 122.1C207.808 121.852 207.907 121.614 208.082 121.439C208.257 121.263 208.495 121.165 208.743 121.165H218.415C218.663 121.165 218.9 121.263 219.076 121.439C219.251 121.614 219.349 121.852 219.349 122.1C219.349 122.348 219.251 122.586 219.076 122.762C218.9 122.937 218.663 123.036 218.415 123.036Z" fill="black"/>
<path d="M307.355 156.719C307.121 156.709 306.898 156.618 306.724 156.461C294.792 145.457 279.966 138.096 263.995 135.246C263.013 138.029 259.322 147.83 254.253 152.532C254.078 152.703 253.843 152.799 253.598 152.799C253.354 152.799 253.119 152.703 252.944 152.532C252.772 152.353 252.675 152.114 252.675 151.865C252.675 151.616 252.772 151.377 252.944 151.198C258.364 146.146 262.289 134.1 262.429 133.959C262.501 133.761 262.636 133.591 262.813 133.477C262.99 133.363 263.2 133.31 263.411 133.328C280.083 136.135 295.575 143.752 307.986 155.245C308.074 155.33 308.143 155.432 308.191 155.544C308.238 155.657 308.263 155.778 308.263 155.9C308.263 156.022 308.238 156.143 308.191 156.256C308.143 156.368 308.074 156.47 307.986 156.555C307.897 156.623 307.795 156.672 307.687 156.7C307.579 156.729 307.466 156.735 307.355 156.719Z" fill="black"/>
<path d="M279.788 178.308C278.271 178.284 276.776 177.944 275.397 177.312C274.018 176.68 272.784 175.769 271.774 174.636C271.426 174.264 271.184 173.805 271.073 173.307C270.962 172.809 270.987 172.291 271.144 171.806C271.662 170.556 272.295 169.358 273.036 168.227C276.184 163.522 278.104 158.101 278.62 152.462C278.628 152.339 278.661 152.22 278.717 152.111C278.773 152.002 278.85 151.906 278.944 151.827C279.037 151.749 279.146 151.69 279.263 151.654C279.38 151.618 279.503 151.607 279.624 151.619C279.87 151.643 280.097 151.761 280.258 151.948C280.419 152.136 280.502 152.378 280.489 152.625C279.919 158.543 277.905 164.23 274.625 169.186C273.944 170.211 273.365 171.3 272.896 172.437C272.756 172.788 273.059 173.279 273.246 173.513C274.145 174.465 275.233 175.216 276.441 175.72C277.648 176.224 278.947 176.468 280.255 176.437C280.377 176.428 280.499 176.443 280.614 176.481C280.73 176.52 280.837 176.581 280.928 176.662C281.02 176.743 281.094 176.841 281.147 176.951C281.2 177.061 281.23 177.181 281.236 177.303C281.246 177.424 281.231 177.547 281.192 177.663C281.154 177.778 281.092 177.885 281.011 177.977C280.931 178.068 280.833 178.143 280.723 178.196C280.613 178.249 280.494 178.279 280.372 178.285L279.788 178.308Z" fill="black"/>
<path d="M280.489 307.707C280.241 307.707 280.003 307.608 279.828 307.433C279.653 307.257 279.554 307.019 279.554 306.771V238.821C279.554 238.572 279.653 238.334 279.828 238.159C280.003 237.983 280.241 237.885 280.489 237.885C280.61 237.885 280.731 237.909 280.843 237.957C280.955 238.004 281.056 238.073 281.141 238.16C281.226 238.248 281.293 238.351 281.337 238.464C281.382 238.578 281.403 238.699 281.4 238.821V306.771C281.403 306.893 281.382 307.014 281.337 307.127C281.293 307.241 281.226 307.344 281.141 307.431C281.056 307.518 280.955 307.588 280.843 307.635C280.731 307.682 280.61 307.707 280.489 307.707Z" fill="black"/>
<path d="M176.292 157.023C176.09 157.026 175.892 156.96 175.732 156.836C165.149 148.859 160.219 140.088 163.139 134.474C163.827 133.184 164.831 132.09 166.057 131.296C167.283 130.502 168.691 130.034 170.148 129.936C170.268 129.916 170.39 129.921 170.509 129.949C170.627 129.977 170.738 130.029 170.836 130.1C170.934 130.172 171.017 130.263 171.079 130.367C171.141 130.472 171.182 130.588 171.199 130.708C171.219 130.829 171.215 130.953 171.187 131.073C171.16 131.193 171.108 131.306 171.037 131.406C170.965 131.506 170.875 131.591 170.77 131.656C170.666 131.721 170.55 131.764 170.428 131.784C169.245 131.826 168.092 132.176 167.084 132.799C166.077 133.423 165.248 134.298 164.681 135.339C162.228 140.018 167.018 148.064 176.736 155.362C176.899 155.475 177.02 155.637 177.082 155.825C177.144 156.013 177.143 156.216 177.08 156.404C177.017 156.591 176.894 156.753 176.731 156.864C176.568 156.976 176.373 157.032 176.176 157.023H176.292Z" fill="black"/>
<path d="M205.168 169.794C198.303 168.686 191.685 166.382 185.614 162.987L184.282 162.262C184.175 162.204 184.081 162.124 184.004 162.029C183.928 161.933 183.872 161.823 183.84 161.705C183.807 161.587 183.798 161.464 183.814 161.343C183.83 161.221 183.87 161.105 183.932 160.999C183.988 160.893 184.065 160.798 184.159 160.723C184.252 160.647 184.36 160.591 184.476 160.558C184.592 160.525 184.713 160.516 184.832 160.532C184.952 160.547 185.067 160.587 185.17 160.648L186.478 161.327C192.352 164.622 198.756 166.863 205.402 167.946C205.646 167.981 205.867 168.111 206.016 168.309C206.165 168.506 206.23 168.754 206.196 168.999C206.185 169.12 206.149 169.238 206.09 169.345C206.031 169.452 205.951 169.546 205.855 169.62C205.759 169.695 205.648 169.749 205.53 169.779C205.412 169.809 205.288 169.814 205.168 169.794Z" fill="black"/>
<path d="M221.522 163.245C221.392 163.246 221.263 163.219 221.144 163.166C221.025 163.113 220.919 163.035 220.833 162.938C220.746 162.84 220.682 162.725 220.643 162.601C220.605 162.476 220.594 162.345 220.611 162.216C221.008 158.496 218.275 153.678 213.018 148.649C212.93 148.564 212.861 148.462 212.813 148.349C212.766 148.237 212.741 148.116 212.741 147.994C212.741 147.872 212.766 147.751 212.813 147.638C212.861 147.526 212.93 147.424 213.018 147.339C213.193 147.168 213.428 147.071 213.672 147.071C213.917 147.071 214.152 147.168 214.326 147.339C220.05 152.789 222.947 158.169 222.48 162.473C222.44 162.696 222.322 162.897 222.145 163.039C221.969 163.181 221.748 163.254 221.522 163.245Z" fill="black"/>
<path d="M289.25 185.443C289.041 185.442 288.839 185.369 288.678 185.237C288.516 185.105 288.405 184.922 288.362 184.717C288.151 183.829 286.516 175.969 290.698 174.87C291.315 174.661 291.977 174.622 292.615 174.758C293.252 174.893 293.841 175.199 294.319 175.642C295.002 176.593 295.455 177.691 295.642 178.848C295.828 180.005 295.743 181.19 295.394 182.308C295.366 182.428 295.315 182.541 295.244 182.641C295.173 182.742 295.083 182.827 294.978 182.892C294.874 182.957 294.758 183.001 294.637 183.021C294.516 183.042 294.392 183.038 294.272 183.01C294.035 182.949 293.831 182.797 293.704 182.587C293.578 182.377 293.538 182.126 293.595 181.887C293.851 181.074 293.932 180.215 293.831 179.368C293.73 178.521 293.451 177.706 293.011 176.975C292.758 176.755 292.45 176.611 292.12 176.557C291.789 176.503 291.451 176.543 291.142 176.671C289.133 177.186 289.53 182.051 290.044 184.32C290.071 184.438 290.075 184.561 290.054 184.681C290.034 184.8 289.99 184.915 289.924 185.017C289.859 185.12 289.774 185.208 289.674 185.277C289.574 185.346 289.462 185.394 289.343 185.419L289.25 185.443Z" fill="black"/>
<path d="M115.13 143.784C114.882 143.784 114.644 143.685 114.469 143.509C114.294 143.334 114.195 143.096 114.195 142.848V55.5532C114.195 55.3051 114.294 55.0671 114.469 54.8917C114.644 54.7162 114.882 54.6176 115.13 54.6176C115.378 54.6176 115.615 54.7162 115.791 54.8917C115.966 55.0671 116.064 55.3051 116.064 55.5532V142.848C116.064 143.096 115.966 143.334 115.791 143.509C115.615 143.685 115.378 143.784 115.13 143.784Z" fill="black"/>
<path d="M296.702 165.607H296.492L289.156 163.736C288.983 163.692 288.826 163.601 288.703 163.473C288.579 163.345 288.493 163.185 288.455 163.011C288.421 162.833 288.441 162.649 288.511 162.482C288.582 162.316 288.701 162.174 288.852 162.075L295.394 157.397C295.492 157.312 295.608 157.248 295.732 157.21C295.857 157.172 295.988 157.161 296.117 157.177C296.247 157.192 296.371 157.235 296.483 157.302C296.595 157.369 296.692 157.458 296.767 157.565C296.842 157.671 296.895 157.792 296.92 157.92C296.946 158.048 296.945 158.18 296.917 158.307C296.889 158.435 296.834 158.555 296.757 158.66C296.68 158.765 296.581 158.853 296.468 158.917L291.586 162.309L296.936 163.619C297.173 163.68 297.377 163.832 297.504 164.042C297.631 164.252 297.67 164.503 297.613 164.742C297.591 164.972 297.486 165.186 297.319 165.345C297.152 165.504 296.932 165.597 296.702 165.607Z" fill="black"/>
</svg>
