<svg width="576" height="559" viewBox="0 0 576 559" fill="none" xmlns="http://www.w3.org/2000/svg">
<path fill-rule="evenodd" clip-rule="evenodd" d="M359.617 232.551L356.551 240.449L351.732 245.715L347.79 248.786L356.989 256.245L367.501 238.255L359.617 232.551Z" fill="white"/>
<path d="M91.1805 122.495L75.3755 138.311L79.4003 142.347L95.2052 126.53L91.1805 122.495Z" fill="black"/>
<path d="M79.3939 122.49L75.368 126.524L91.1663 142.345L95.1922 138.311L79.3939 122.49Z" fill="black"/>
<path fill-rule="evenodd" clip-rule="evenodd" d="M366.625 35.98H353.047V22.3779H366.625V35.98Z" fill="black"/>
<path fill-rule="evenodd" clip-rule="evenodd" d="M135.787 35.98H122.208V22.3779H135.787V35.98Z" fill="black"/>
<path fill-rule="evenodd" clip-rule="evenodd" d="M366.625 200.081H353.047V186.479H366.625V200.081Z" fill="black"/>
<path fill-rule="evenodd" clip-rule="evenodd" d="M135.787 200.081H122.208V186.479H135.787V200.081Z" fill="black"/>
<path d="M360.055 195.693H128.779C127.903 195.693 127.027 194.816 127.027 193.938V28.0813C127.027 27.2037 127.903 26.3262 128.779 26.3262H360.055C360.931 26.3262 361.807 27.2037 361.807 28.0813V193.938C361.807 194.816 360.931 195.693 360.055 195.693ZM130.531 192.183H358.303V29.8364H130.531V192.183Z" fill="black"/>
<path d="M325.451 33.3472V126.806C325.451 136.459 317.567 144.796 307.492 144.796H159.002C149.366 144.796 141.043 136.898 141.043 126.806V33.3472C141.043 23.6942 148.928 15.3574 159.002 15.3574H307.492C317.567 15.3574 325.451 23.2554 325.451 33.3472Z" fill="#FF3233"/>
<path d="M307.93 146.113H159.002C148.052 146.113 139.291 137.337 139.291 126.368V33.3474C139.291 22.378 148.052 13.6025 159.002 13.6025H307.492C318.443 13.6025 327.203 22.378 327.203 33.3474V126.807C327.203 137.337 318.443 146.113 307.93 146.113ZM159.002 17.1127C150.242 17.1127 142.795 24.1332 142.795 33.3474V126.807C142.795 135.582 149.804 143.041 159.002 143.041H307.492C316.252 143.041 323.699 136.021 323.699 126.807V33.3474C323.699 24.5719 316.69 17.1127 307.492 17.1127H159.002Z" fill="black"/>
<path d="M310.996 54.8474V112.327C310.996 115.398 308.368 118.47 304.864 118.47H260.186C257.12 118.47 254.053 115.837 254.053 112.327V54.8474C254.053 51.776 256.681 48.7046 260.186 48.7046H304.864C308.368 48.7046 310.996 51.776 310.996 54.8474Z" fill="#FF3233"/>
<path d="M304.864 120.225H260.186C255.805 120.225 252.301 116.715 252.301 112.327V54.8477C252.301 50.4599 255.805 46.9497 260.186 46.9497H304.864C309.244 46.9497 312.748 50.4599 312.748 54.8477V112.327C312.748 116.715 309.244 120.225 304.864 120.225ZM260.186 50.8987C257.995 50.8987 256.243 52.6538 256.243 54.8477V112.327C256.243 114.521 257.995 116.276 260.186 116.276H304.864C307.054 116.276 308.806 114.521 308.806 112.327V54.8477C308.806 52.6538 307.054 50.8987 304.864 50.8987H260.186Z" fill="black"/>
<path fill-rule="evenodd" clip-rule="evenodd" d="M339.468 37.7347H130.093V0H339.468V37.7347Z" fill="black"/>
<path fill-rule="evenodd" clip-rule="evenodd" d="M195.796 26.7657C195.796 29.3983 193.606 31.1534 191.416 31.1534C188.788 31.1534 187.036 28.9596 187.036 26.7657C187.036 24.5718 189.226 22.3779 191.416 22.3779C194.044 22.3779 195.796 24.133 195.796 26.7657Z" fill="white"/>
<path fill-rule="evenodd" clip-rule="evenodd" d="M181.78 26.7657C181.78 29.3983 179.589 31.1534 177.399 31.1534C174.771 31.1534 173.019 28.9596 173.019 26.7657C173.019 24.5718 175.209 22.3779 177.399 22.3779C179.589 22.3779 181.78 24.133 181.78 26.7657Z" fill="white"/>
<path fill-rule="evenodd" clip-rule="evenodd" d="M166.449 26.7657C166.449 29.3983 164.259 31.1534 162.068 31.1534C159.44 31.1534 157.688 28.9596 157.688 26.7657C157.688 24.5718 159.878 22.3779 162.068 22.3779C164.697 22.3779 166.449 24.133 166.449 26.7657Z" fill="white"/>
<path d="M236.97 82.0517H159.002C158.126 82.0517 157.25 81.1741 157.25 80.2966C157.25 79.4191 158.126 78.5415 159.002 78.5415H236.97C237.846 78.5415 238.723 79.4191 238.723 80.2966C238.723 81.1741 237.846 82.0517 236.97 82.0517Z" fill="black"/>
<path d="M236.97 72.3979H212.003C211.127 72.3979 210.251 71.5203 210.251 70.6428C210.251 69.7652 211.127 68.8877 212.003 68.8877H236.97C237.846 68.8877 238.722 69.7652 238.722 70.6428C238.722 71.5203 237.846 72.3979 236.97 72.3979Z" fill="black"/>
<path d="M184.408 72.3979H159.44C158.564 72.3979 157.688 71.5203 157.688 70.6428C157.688 69.7652 158.564 68.8877 159.44 68.8877H184.408C185.284 68.8877 186.16 69.7652 186.16 70.6428C186.16 71.5203 185.284 72.3979 184.408 72.3979Z" fill="black"/>
<path d="M204.119 72.3979H193.606C192.73 72.3979 191.854 71.5203 191.854 70.6428C191.854 69.7652 192.73 68.8877 193.606 68.8877H204.119C204.995 68.8877 205.871 69.7652 205.871 70.6428C205.871 71.5203 205.433 72.3979 204.119 72.3979Z" fill="black"/>
<path d="M236.97 62.7446H159.002C158.126 62.7446 157.25 61.867 157.25 60.9895C157.25 60.1119 158.126 59.2344 159.002 59.2344H236.97C237.846 59.2344 238.723 60.1119 238.723 60.9895C238.723 61.867 237.846 62.7446 236.97 62.7446Z" fill="black"/>
<path d="M236.97 52.6533H220.326C219.45 52.6533 218.573 51.7757 218.573 50.8982C218.573 50.0206 219.45 49.1431 220.326 49.1431H236.97C237.847 49.1431 238.723 50.0206 238.723 50.8982C238.723 52.2145 237.847 52.6533 236.97 52.6533Z" fill="black"/>
<path d="M204.119 52.6533H159.002C158.126 52.6533 157.25 51.7757 157.25 50.8982C157.25 50.0206 158.126 49.1431 159.002 49.1431H204.119C204.995 49.1431 205.871 50.0206 205.871 50.8982C205.871 52.2145 205.433 52.6533 204.119 52.6533Z" fill="black"/>
<path d="M208.499 231.673H356.989C366.625 231.673 374.948 239.571 374.948 249.663V343.122C374.948 352.775 367.063 361.112 356.989 361.112H208.499C198.862 361.112 190.54 353.214 190.54 343.122V249.663C190.54 240.01 198.424 231.673 208.499 231.673Z" fill="white"/>
<path d="M356.989 362.867H208.499C197.548 362.867 188.788 354.092 188.788 343.123V249.663C188.788 238.694 197.548 229.918 208.499 229.918H356.989C367.939 229.918 376.7 238.694 376.7 249.663V343.123C376.262 354.092 367.501 362.867 356.989 362.867ZM208.499 233.867C199.738 233.867 192.292 240.888 192.292 250.102V343.561C192.292 352.337 199.3 359.796 208.499 359.796H356.989C365.749 359.796 373.195 352.776 373.195 343.561V249.663C373.195 240.888 366.187 233.429 356.989 233.429H208.499V233.867Z" fill="black"/>
<path d="M211.127 265.459H255.805C258.872 265.459 261.938 268.092 261.938 271.602V329.082C261.938 332.153 259.31 335.225 255.805 335.225H211.127C208.061 335.225 204.995 332.592 204.995 329.082V271.164C204.995 268.092 208.061 265.459 211.127 265.459Z" fill="#FF3233"/>
<path d="M255.805 336.541H211.127C206.747 336.541 203.243 333.031 203.243 328.643V271.164C203.243 266.776 206.747 263.266 211.127 263.266H255.805C260.186 263.266 263.69 266.776 263.69 271.164V328.643C263.69 333.031 260.186 336.541 255.805 336.541ZM211.127 267.215C208.937 267.215 207.185 268.97 207.185 271.164V328.643C207.185 330.837 208.937 332.592 211.127 332.592H255.805C257.995 332.592 259.747 330.837 259.747 328.643V271.164C259.747 268.97 257.995 267.215 255.805 267.215H211.127Z" fill="black"/>
<path fill-rule="evenodd" clip-rule="evenodd" d="M176.523 216.316H385.898V254.489H176.523V216.316Z" fill="black"/>
<path fill-rule="evenodd" clip-rule="evenodd" d="M324.575 237.816C327.203 237.816 328.955 240.01 328.955 242.204C328.955 244.398 326.765 246.591 324.575 246.591C321.947 246.591 320.195 244.398 320.195 242.204C320.195 240.01 322.385 237.816 324.575 237.816Z" fill="white"/>
<path fill-rule="evenodd" clip-rule="evenodd" d="M339.03 237.816C341.658 237.816 343.41 240.01 343.41 242.204C343.41 244.398 341.22 246.591 339.03 246.591C336.401 246.591 334.649 244.398 334.649 242.204C334.649 240.01 336.401 237.816 339.03 237.816Z" fill="white"/>
<path fill-rule="evenodd" clip-rule="evenodd" d="M353.922 237.816C356.551 237.816 358.303 240.01 358.303 242.204C358.303 244.398 356.113 246.591 353.922 246.591C351.294 246.591 349.542 244.398 349.542 242.204C349.542 240.01 351.294 237.816 353.922 237.816Z" fill="white"/>
<path d="M356.989 298.367H279.021C278.144 298.367 277.268 297.489 277.268 296.612C277.268 295.734 278.144 294.856 279.021 294.856H356.989C357.865 294.856 358.741 295.734 358.741 296.612C358.741 297.928 357.865 298.367 356.989 298.367Z" fill="black"/>
<path d="M303.988 288.713H279.021C278.144 288.713 277.268 287.836 277.268 286.958C277.268 286.081 278.144 285.203 279.021 285.203H303.988C304.864 285.203 305.74 286.081 305.74 286.958C305.74 287.836 305.302 288.713 303.988 288.713Z" fill="black"/>
<path d="M356.989 288.713H332.021C331.145 288.713 330.269 287.836 330.269 286.958C330.269 286.081 331.145 285.203 332.021 285.203H356.989C357.865 285.203 358.741 286.081 358.741 286.958C358.741 287.836 357.865 288.713 356.989 288.713Z" fill="black"/>
<path d="M322.385 288.713H311.872C310.996 288.713 310.12 287.836 310.12 286.958C310.12 286.081 310.996 285.203 311.872 285.203H322.385C323.261 285.203 324.137 286.081 324.137 286.958C324.137 287.836 323.261 288.713 322.385 288.713Z" fill="black"/>
<path d="M356.989 279.061H279.021C278.144 279.061 277.268 278.183 277.268 277.306C277.268 276.428 278.144 275.551 279.021 275.551H356.989C357.865 275.551 358.741 276.428 358.741 277.306C358.741 278.183 357.865 279.061 356.989 279.061Z" fill="black"/>
<path d="M295.665 269.407H279.021C278.144 269.407 277.268 268.53 277.268 267.652C277.268 266.775 278.144 265.897 279.021 265.897H295.665C296.541 265.897 297.418 266.775 297.418 267.652C297.418 268.53 296.541 269.407 295.665 269.407Z" fill="black"/>
<path d="M356.989 269.407H311.872C310.996 269.407 310.12 268.53 310.12 267.652C310.12 266.775 310.996 265.897 311.872 265.897H356.989C357.865 265.897 358.741 266.775 358.741 267.652C358.741 268.53 357.865 269.407 356.989 269.407Z" fill="black"/>
<path fill-rule="evenodd" clip-rule="evenodd" d="M117.39 310.214V343.122C117.39 346.193 114.762 349.265 111.258 349.265H6.13232C2.62814 349.265 0 346.632 0 343.122V310.214C0 307.142 2.62814 304.071 6.13232 304.071H111.696C114.762 304.071 117.39 306.703 117.39 310.214Z" fill="#FF3233"/>
<path fill-rule="evenodd" clip-rule="evenodd" d="M31.0997 337.857C31.0997 337.857 33.7279 342.245 30.2237 347.949C26.7195 352.775 14.8929 355.408 14.8929 355.408C14.8929 355.408 17.959 351.459 18.8351 347.51C20.1492 342.683 19.2731 339.173 19.2731 339.173L31.0997 337.857Z" fill="#FF3233"/>
<path fill-rule="evenodd" clip-rule="evenodd" d="M155.498 262.826V281.694C155.498 284.765 152.87 287.837 149.366 287.837H44.2404C41.1742 287.837 38.108 285.204 38.108 281.694V262.826C38.108 259.755 40.7362 256.684 44.2404 256.684H149.804C152.87 257.122 155.498 259.755 155.498 262.826Z" fill="black"/>
<path fill-rule="evenodd" clip-rule="evenodd" d="M124.399 275.989C124.399 275.989 121.77 280.377 125.275 286.081C128.341 291.346 140.167 293.979 140.167 293.979C140.167 293.979 137.101 290.03 136.225 286.081C134.911 281.255 135.787 277.744 135.787 277.744L124.399 275.989Z" fill="black"/>
<path fill-rule="evenodd" clip-rule="evenodd" d="M500.66 426.051C514.239 419.469 523.437 399.285 524.751 397.53C526.065 395.336 523.875 392.704 523.437 390.51C522.999 388.316 522.561 385.245 522.561 385.245L537.892 359.796C537.892 359.796 549.281 361.989 563.735 357.163C578.19 352.336 573.81 333.469 573.81 333.469H515.115L502.85 356.724C502.85 356.724 505.04 325.132 504.164 302.755C503.288 280.377 484.891 266.775 484.891 266.775L492.776 244.398C492.776 244.398 498.47 249.224 501.974 250.979C505.478 252.734 507.23 254.051 518.181 251.418C529.132 248.785 535.702 240.01 538.768 232.989C541.396 225.969 531.322 214.122 531.322 214.122C531.322 214.122 534.826 211.928 540.082 205.785C545.338 199.643 545.776 190.867 543.586 178.143C541.396 165.418 531.76 163.663 522.561 159.275C513.363 154.887 512.925 149.622 513.801 139.969C514.239 130.316 517.305 125.051 506.792 109.255C496.718 93.4589 478.759 96.0915 466.494 97.8466C454.668 100.04 449.849 111.01 449.849 111.01L451.602 118.908C451.602 118.908 448.973 125.489 448.535 128.561C448.097 131.632 447.659 134.704 447.659 134.704C447.659 134.704 446.783 140.408 448.535 145.673C450.287 150.938 452.478 154.01 452.478 154.01C452.478 154.01 450.725 156.204 449.411 157.959C448.097 159.714 442.403 158.398 432.328 164.54C422.254 170.683 424.882 179.898 424.882 179.898H401.667V124.173C401.667 124.173 406.485 112.765 407.361 109.255C408.237 105.745 409.989 104.428 411.303 101.357C412.179 98.2854 409.551 100.04 407.799 100.04C406.047 100.04 402.105 103.989 402.105 103.989C402.105 103.989 400.353 88.6323 399.477 81.1731C398.601 73.714 395.097 73.714 389.84 75.0303C384.584 75.9078 381.08 83.8058 381.08 83.8058C381.08 83.8058 379.766 82.9283 378.452 83.8058C377.138 84.6834 377.576 94.3364 376.7 106.622C375.824 118.908 378.014 130.316 378.014 130.316C378.014 130.316 372.319 180.336 371.881 191.745C371.443 203.591 381.08 209.296 385.022 210.612C388.526 211.928 402.981 212.806 402.981 212.806L387.212 225.091L349.104 200.081C349.104 200.081 342.096 189.989 338.154 184.285C333.773 178.143 335.087 170.683 333.335 168.051C331.583 164.979 329.831 169.367 328.517 171.122C326.765 172.438 326.765 179.02 327.641 181.653C328.517 184.285 326.327 186.479 326.327 186.479C326.327 186.479 308.806 186.918 303.55 186.479C298.732 186.04 294.789 187.357 293.037 188.673C291.285 189.989 294.789 193.938 294.789 193.938C294.789 193.938 292.161 195.255 291.285 196.571C289.971 198.326 292.599 204.908 296.103 210.612C299.608 216.316 316.69 215.438 328.955 216.755C341.22 218.071 348.666 232.551 365.749 250.102C382.832 267.653 394.659 258.877 394.659 258.877L434.081 235.622L433.205 267.653C433.205 267.653 426.634 277.745 424.006 290.03C420.94 302.316 416.122 366.816 413.494 392.704C410.865 418.591 414.37 427.367 422.692 437.898C430.576 448.428 450.725 467.296 452.916 469.489C455.106 471.683 461.676 470.806 461.676 470.806L489.71 501.959L492.338 512.051C492.338 512.051 485.329 539.255 484.891 546.714C484.015 554.173 494.09 557.683 494.09 557.683C494.09 557.683 501.974 555.051 506.792 551.102C511.611 547.153 515.991 538.377 522.999 521.265C529.57 503.714 530.446 497.132 530.446 497.132L487.519 451.061C487.519 451.061 488.833 448.867 489.271 447.112C490.148 445.357 489.271 443.163 489.271 443.163L478.759 430.438C478.321 430 487.519 432.632 500.66 426.051Z" fill="white"/>
<path fill-rule="evenodd" clip-rule="evenodd" d="M534.826 339.612C534.826 339.612 526.941 347.071 520.809 348.826C514.677 351.02 509.859 346.632 509.859 346.632L507.23 351.459C507.23 351.459 510.735 353.214 518.619 357.163C526.503 361.112 530.884 371.642 530.884 371.642L538.33 358.479L557.603 356.724C557.603 356.724 560.231 354.091 561.983 349.265C563.735 344.438 561.983 340.051 561.983 340.051L534.826 339.612Z" fill="black"/>
<path fill-rule="evenodd" clip-rule="evenodd" d="M510.297 474.754C510.297 474.754 509.859 481.336 502.412 490.112C494.966 498.887 486.205 498.448 486.205 498.448L489.271 500.642L493.214 512.05L488.395 533.989C488.395 533.989 490.148 530.04 496.718 528.285C503.288 526.53 512.487 533.55 512.487 533.55L524.313 499.765C524.313 499.765 523.437 496.693 521.685 493.183C520.371 489.673 519.495 485.285 519.495 485.285L510.297 474.754Z" fill="black"/>
<path fill-rule="evenodd" clip-rule="evenodd" d="M501.974 426.489C491.9 434.387 477.883 430.438 477.883 430.438C477.883 430.438 487.958 441.408 488.834 446.234C489.71 451.061 478.759 459.397 473.065 462.908C467.37 466.418 459.924 470.806 455.544 470.367C451.602 469.928 431.015 449.306 420.064 435.265C409.113 421.663 410.865 419.03 416.56 343.999C423.13 266.775 432.767 267.652 432.767 267.652L482.701 266.775C482.701 266.775 498.032 281.693 502.412 293.101C506.793 304.51 501.974 365.938 501.974 365.938C501.974 365.938 512.049 374.275 516.867 378.663C521.685 383.05 525.19 390.948 525.19 396.214C525.19 400.601 512.049 418.591 501.974 426.489Z" fill="white"/>
<path fill-rule="evenodd" clip-rule="evenodd" d="M513.801 373.837C518.619 378.663 524.313 390.072 525.189 394.898C526.503 399.725 515.991 409.816 515.991 409.816C515.991 409.816 514.677 401.48 508.982 392.704C503.288 384.367 501.974 383.051 501.974 383.051L502.85 366.816C502.85 366.816 509.421 369.01 513.801 373.837Z" fill="black"/>
<path fill-rule="evenodd" clip-rule="evenodd" d="M454.668 469.929C458.172 471.684 459.048 470.368 472.627 463.786C486.205 457.204 488.833 446.674 488.833 444.041C488.833 441.409 477.883 430.878 477.883 430.878C477.883 430.878 477.007 437.021 463.428 447.113C449.849 457.205 438.461 453.694 438.461 453.694C438.461 453.694 451.163 468.174 454.668 469.929Z" fill="black"/>
<path fill-rule="evenodd" clip-rule="evenodd" d="M460.362 155.327L452.915 151.816C452.915 151.816 450.287 155.327 448.973 156.204C447.659 157.52 441.965 158.837 432.766 162.786C423.568 166.735 424.444 178.143 424.444 178.143C424.444 178.143 464.742 175.949 465.618 175.072C466.494 174.194 463.866 155.765 463.866 155.765L460.362 155.327Z" fill="#FF3233"/>
<path fill-rule="evenodd" clip-rule="evenodd" d="M494.966 135.143C493.652 130.316 486.205 133.827 486.205 133.827L482.263 140.408C482.263 140.408 477.883 133.827 472.627 125.929C467.37 118.031 463.866 109.694 463.866 109.694L453.354 116.714C453.354 116.714 449.849 112.327 448.973 109.694C448.097 107.061 452.04 104.867 459.924 99.1633C468.246 93.4593 487.081 96.5307 500.222 102.674C513.363 109.255 513.801 125.051 512.049 141.725C510.297 158.398 522.123 158.837 531.322 163.663C540.52 168.49 543.148 173.755 543.586 189.99C544.024 205.786 532.636 213.684 532.636 213.684C532.636 213.684 535.264 218.51 539.206 228.602C543.148 238.694 527.379 249.225 513.801 252.296C499.784 255.367 492.338 243.959 492.338 243.959C492.338 243.959 496.718 231.235 496.28 209.296C495.842 187.357 488.395 180.776 485.767 177.265C482.701 173.316 481.825 153.571 481.825 153.571C481.825 153.571 486.643 146.551 487.081 146.112C487.957 145.674 496.28 139.969 494.966 135.143Z" fill="#FF3233"/>
<path fill-rule="evenodd" clip-rule="evenodd" d="M423.13 213.246C423.13 213.246 422.692 218.95 424.006 224.654C425.32 229.919 433.204 234.307 433.204 234.307L432.328 267.215L484.453 268.531C484.453 268.531 491.023 250.542 493.652 237.817C496.28 225.531 496.718 211.929 495.404 197.011C494.09 182.093 486.205 177.705 476.569 176.388C466.932 175.072 446.783 178.144 446.783 178.144C446.783 178.144 454.23 190.868 453.354 199.205C452.915 207.542 445.469 212.807 445.469 212.807L423.13 213.246Z" fill="black"/>
<path d="M494.966 407.184C494.09 407.184 493.214 406.306 493.214 405.428C493.214 404.551 494.528 333.469 494.528 306.704C494.09 280.816 475.255 269.847 475.255 269.847C474.379 269.408 473.941 268.092 474.379 267.214C474.817 266.337 476.131 265.898 477.007 266.337C477.883 266.775 498.032 278.622 498.032 306.265C498.47 333.031 496.718 404.551 496.718 405.428C496.718 406.745 495.842 407.184 494.966 407.184Z" fill="black"/>
<path d="M496.28 400.602C495.842 400.602 495.404 400.602 495.404 400.163C494.528 399.724 494.528 398.408 494.966 397.53L511.611 374.275C512.049 373.398 513.363 373.398 514.239 373.837C515.115 374.275 515.115 375.592 514.677 376.469L498.032 399.724C497.156 400.163 496.718 400.602 496.28 400.602Z" fill="black"/>
<path d="M481.825 457.644C481.387 457.644 480.949 457.644 480.511 457.205C479.635 456.327 459.486 433.95 454.23 422.103C448.535 410.256 454.23 362.429 454.668 360.236C454.668 359.358 455.544 358.48 456.858 358.48C457.734 358.48 458.61 359.358 458.61 360.674C456.858 374.276 453.792 411.572 457.734 420.348C462.99 431.317 483.577 454.134 483.577 454.572C484.453 455.45 484.015 456.327 483.577 457.205C482.701 457.644 482.263 457.644 481.825 457.644Z" fill="black"/>
<path fill-rule="evenodd" clip-rule="evenodd" d="M378.452 211.052C374.072 207.98 370.129 201.837 369.691 195.694C369.253 193.062 369.691 190.429 370.129 187.358C371.443 169.807 373.633 153.133 375.386 136.021C375.386 134.705 375.824 133.388 375.824 132.072C375.824 130.317 374.948 128.123 374.51 126.807C373.195 120.664 373.633 114.521 374.51 107.939C374.948 103.99 375.824 100.041 376.262 95.6536C376.7 89.5107 375.824 83.3679 381.08 82.4903C381.08 81.174 382.394 79.8577 383.27 78.9801C385.46 76.3475 389.402 71.9597 394.659 72.8373C400.353 74.1536 400.791 79.4189 401.667 86.0005C402.105 91.2659 402.981 96.9699 403.419 101.358C404.295 100.919 405.171 99.6026 406.923 99.1638C409.551 98.2863 413.494 99.1638 413.932 101.358C414.808 103.99 411.741 105.745 410.427 107.501C407.799 111.011 406.923 115.399 405.609 120.225C404.733 122.419 403.857 125.49 403.857 127.684C403.419 132.072 403.857 136.46 403.857 140.847C403.857 154.011 404.295 167.174 404.295 179.46C410.865 179.021 417.436 178.582 424.006 178.143C423.568 169.807 427.51 165.858 431.891 162.786C436.709 159.276 443.279 158.398 448.535 156.205C450.287 155.327 450.725 153.572 451.602 152.256C449.849 150.062 448.097 147.429 446.783 144.358C445.907 141.725 445.907 137.337 446.345 134.705C446.783 132.072 449.849 132.072 451.602 130.756C454.23 129.001 456.858 125.052 453.792 121.98C452.04 121.541 449.849 121.98 449.411 119.786C449.411 118.47 450.287 117.592 451.164 116.715C450.287 116.276 449.849 114.96 448.973 113.643C448.535 112.766 447.221 111.011 447.221 110.133C447.221 108.817 449.411 107.062 450.287 105.745C451.602 103.99 452.478 102.674 453.792 101.796C459.048 96.9699 468.246 95.2148 477.445 94.7761C492.338 94.3373 502.85 100.919 508.545 110.133C512.487 116.276 514.677 124.613 514.239 135.143C513.801 139.97 513.363 145.674 514.239 149.623C515.991 158.398 524.751 160.154 531.322 163.225C535.264 164.98 537.016 167.174 539.644 170.684C544.024 176.827 546.215 186.041 544.462 195.694C543.148 203.592 539.206 208.419 534.388 212.807C533.95 213.245 532.636 213.684 532.636 214.562C534.388 217.194 535.702 219.388 537.454 222.46C538.768 225.092 540.52 228.603 540.082 232.113C540.082 235.623 537.892 238.694 536.14 240.888C534.388 243.521 532.198 245.276 529.57 247.031C524.751 250.541 518.619 253.613 510.735 253.613C506.792 253.613 502.412 253.613 499.784 252.296C496.718 250.98 494.966 248.786 492.338 247.031C490.148 254.052 488.395 261.072 485.767 268.092C490.148 272.041 494.528 275.99 498.032 281.256C501.098 286.521 502.85 293.541 503.726 301.001C504.602 308.898 504.164 317.235 504.164 325.572C504.164 333.909 503.726 342.245 503.726 350.582C505.916 345.756 508.106 341.368 510.297 336.541C510.735 335.225 511.611 332.592 512.925 332.154C513.801 331.715 515.991 332.154 516.867 332.154C518.181 332.154 519.933 332.154 520.371 332.154C533.512 332.154 543.586 332.154 565.488 332.154C568.116 332.154 573.372 331.715 574.686 332.592C576 333.47 575.124 338.296 574.686 340.052C573.81 347.511 571.182 352.776 566.802 356.725C563.735 359.358 559.793 360.674 554.537 361.113C549.719 361.552 544.024 361.552 538.768 361.552C533.512 369.888 528.256 378.664 522.999 387.001C524.751 390.072 526.941 395.776 524.751 399.725C523.875 401.48 522.123 403.674 520.809 405.429C516.867 411.133 512.925 416.837 508.106 421.664C505.04 425.174 501.536 428.245 497.156 430.001C492.338 431.756 487.081 432.633 480.511 432.633C481.825 434.388 483.139 436.143 484.891 437.898C486.205 439.654 488.395 441.409 489.271 443.164C490.586 445.796 489.272 449.307 487.519 451.501C499.784 464.664 512.487 477.388 525.189 490.552C526.503 492.307 530.008 494.501 530.446 496.694C530.446 497.572 530.008 500.205 529.57 501.96C529.132 503.715 528.694 505.47 528.256 507.225C525.627 517.756 521.685 526.531 517.743 534.868C515.115 540.572 512.487 546.276 508.545 551.103C505.916 554.613 501.974 556.807 497.156 558.562C495.842 559.001 493.652 560.317 492.338 560.317C491.462 560.317 490.586 559.439 489.71 559.001C487.519 557.245 484.891 555.49 483.577 553.296C481.387 549.786 482.263 544.082 483.139 539.694C484.453 531.796 486.205 524.337 488.395 517.317C488.833 516.001 489.271 515.123 489.271 514.245C489.271 512.929 488.395 510.735 487.957 509.419C487.519 507.664 487.081 505.909 486.643 504.592C486.205 503.276 484.453 501.96 483.139 500.643C475.693 492.745 469.122 484.847 461.676 476.949C460.8 476.072 459.048 473.439 457.734 473.439C456.858 473.439 455.544 473.878 454.668 473.878C450.287 473.878 448.535 470.807 446.345 468.613C445.031 467.296 443.717 465.98 442.403 464.664C434.081 456.766 425.32 448.868 418.75 439.215C414.37 432.633 410.865 424.735 409.989 415.082C409.551 409.817 409.989 404.99 410.427 399.286C410.865 394.021 411.303 389.194 411.741 383.929C413.494 364.184 415.246 343.123 417.436 323.378C419.626 303.194 421.378 283.888 430.576 270.725C430.576 261.072 431.014 251.419 431.014 241.766C422.254 247.031 414.808 251.858 405.609 257.123C401.667 259.317 396.411 262.388 392.03 264.143C386.774 266.337 380.204 265.898 375.386 263.705C370.567 261.511 367.501 258.439 363.997 254.929C355.237 246.154 347.79 236.939 339.906 228.164C338.154 226.409 336.402 224.215 334.649 222.898C331.145 220.705 325.013 221.143 319.757 220.266C314.5 219.827 308.806 219.388 303.988 218.511C298.732 217.633 295.227 216.317 293.037 212.368C291.723 210.613 291.285 208.858 290.409 206.225C289.971 204.47 288.657 200.96 289.533 198.766C289.971 197.888 291.723 196.133 291.723 195.694C291.723 195.694 290.409 194.378 290.409 193.939C289.971 193.501 289.533 192.623 289.533 191.307C289.533 188.674 293.913 188.235 296.103 187.796C305.302 186.041 316.252 187.796 325.013 187.358C325.013 184.286 323.261 180.337 324.137 176.388C324.575 173.317 327.203 170.245 328.955 168.929C329.393 168.49 330.269 168.052 330.707 168.052C335.087 167.174 335.087 174.633 335.964 178.582C337.278 185.603 340.782 189.99 344.286 194.817C346.038 197.011 347.79 200.082 349.542 201.837C350.856 203.154 352.608 204.031 353.922 204.909C364.435 212.368 374.51 219.388 385.022 226.409C389.402 223.337 394.221 219.827 398.163 216.756C390.716 214.562 383.708 214.562 378.452 211.052ZM392.468 76.3475C391.154 76.3475 390.278 77.225 388.964 77.6638C391.154 83.8067 392.03 91.7046 392.03 99.1638C391.592 99.6026 391.154 100.041 390.278 100.041C387.65 100.041 388.088 93.021 387.65 90.8271C387.212 86.8781 386.774 83.3679 385.898 80.7352C385.46 80.2965 385.022 81.6128 384.584 82.0516C384.146 82.4903 383.708 82.9291 383.27 83.3679C384.584 86.0005 385.022 89.9495 385.46 94.3373C385.898 96.9699 386.774 102.235 384.584 102.235C381.956 102.235 382.394 96.5312 381.956 94.3373C381.518 91.2659 381.08 88.1944 380.642 85.5618C379.766 86.4393 379.328 87.3169 379.328 88.6332C378.89 92.5822 379.328 96.5312 378.89 100.041C378.452 103.552 377.576 107.062 377.138 110.572C376.7 114.521 376.262 118.031 376.7 121.541C376.7 123.296 377.576 125.052 377.576 126.368C378.014 127.684 378.89 129.439 378.89 131.194C378.89 133.388 378.452 136.46 378.014 139.092C376.262 154.888 374.51 170.245 373.195 186.48C373.195 189.113 372.757 192.184 372.757 194.817C373.195 200.082 376.262 205.347 380.642 207.98C385.46 211.052 393.344 210.613 401.667 210.613C416.122 210.613 431.452 210.613 445.469 210.174C447.659 207.541 450.287 204.031 451.164 200.082C452.04 195.694 452.04 189.99 450.287 186.041C448.973 182.97 446.783 181.215 445.469 178.582C431.014 179.46 414.808 180.776 399.915 181.654C397.725 181.654 394.659 182.092 394.659 179.898C394.659 177.705 397.725 178.143 399.477 177.705C399.477 163.225 399.039 145.674 399.039 129.878C399.039 127.684 398.601 125.49 399.039 123.296C399.039 122.419 399.915 121.103 399.915 120.225C400.791 117.154 401.667 113.643 402.543 110.572C403.857 106.184 406.047 103.113 408.237 100.48C405.609 100.041 404.733 101.796 403.419 103.113C402.543 103.99 401.667 105.745 400.791 106.184C398.163 106.184 398.601 101.796 398.601 99.6026C398.163 96.9699 398.163 93.8985 397.725 91.7046C397.287 86.4393 396.849 80.2965 395.535 76.7863C395.973 81.174 396.411 86.4393 396.849 91.7046C396.849 93.4597 396.849 95.2148 395.097 95.2148C392.468 95.2148 392.906 88.1944 392.468 85.5618C393.345 83.8067 392.906 80.2965 392.468 76.3475ZM451.602 109.694C452.478 111.011 452.916 112.327 453.792 113.643C454.23 113.643 454.23 113.205 454.668 113.205C455.544 112.327 456.42 111.888 457.734 111.011C459.048 110.133 460.8 109.256 462.114 108.378C462.99 107.939 463.428 106.623 464.304 106.623C465.618 106.623 466.494 108.378 466.932 109.694C471.751 118.909 477.007 128.562 482.263 136.899C483.577 136.021 484.015 133.827 485.767 132.95C486.643 132.511 487.957 132.511 489.271 132.072C490.586 131.633 491.9 131.194 492.776 131.194C495.404 131.194 498.908 134.705 498.032 138.215C497.156 143.919 491.024 144.358 487.519 147.429C487.081 147.868 486.205 149.184 485.767 149.623C485.329 150.501 484.015 150.939 484.015 151.817C483.577 153.133 484.453 156.205 484.453 157.521C484.891 161.47 485.329 164.98 485.767 168.929C486.205 170.684 486.205 172.878 486.643 174.194C487.519 176.388 489.71 177.266 491.024 179.021C493.652 182.97 494.966 187.358 496.28 192.623C498.47 202.276 500.222 215.001 498.47 225.97C498.032 229.48 496.718 233.429 495.842 237.378C495.404 238.694 494.966 240.011 494.966 240.888C494.966 242.205 497.594 243.521 498.47 244.399C500.222 245.715 501.536 247.031 503.288 247.47C510.735 249.664 519.495 247.909 525.189 244.837C527.818 243.521 530.446 241.327 533.074 239.133C535.264 236.939 537.892 233.868 537.892 230.796C538.33 226.847 536.14 223.337 534.826 220.705C533.95 219.388 533.512 218.072 532.198 216.756C531.322 215.439 530.008 213.684 530.008 212.368C530.008 211.052 532.636 209.296 533.95 207.98C538.768 203.592 541.396 200.082 542.71 191.745C544.024 180.776 540.52 172.001 535.264 166.735C532.636 164.103 527.818 162.786 524.313 161.031C520.371 159.276 517.305 157.082 514.677 153.572C512.487 150.062 512.049 145.235 512.049 139.531C512.049 134.266 513.363 129.001 512.487 123.735C512.049 120.225 510.735 116.276 508.983 113.205C505.04 103.99 495.404 96.9699 483.577 96.0924C476.131 95.6536 469.56 96.9699 464.304 98.725C457.734 101.796 454.668 105.307 451.602 109.694ZM454.668 118.031C457.296 118.909 459.048 122.419 458.61 125.49C458.172 130.317 453.354 133.388 450.287 134.705C451.164 136.46 451.602 139.092 449.411 139.531C449.849 143.48 451.164 146.113 453.354 148.745C455.544 151.378 459.048 153.572 464.304 153.133C465.618 153.133 466.932 152.694 467.808 152.256C469.561 151.817 473.065 150.062 473.065 153.133C473.065 154.888 471.313 154.888 470.437 155.327C469.122 155.766 467.808 156.205 466.494 156.205C467.37 162.347 468.246 168.052 468.246 174.633C473.941 174.633 479.197 174.633 483.139 176.388C481.387 170.684 481.387 164.98 480.511 157.96C480.511 156.205 479.635 153.572 480.073 151.817C480.073 150.501 481.387 149.623 482.263 148.307C484.015 146.113 485.767 144.358 488.395 142.603C490.586 141.286 494.09 140.409 494.09 137.337C494.09 134.266 490.586 134.266 488.833 135.582C490.586 136.021 492.776 135.582 492.776 137.337C492.776 139.97 487.957 138.215 485.329 138.215C484.015 139.092 484.015 141.725 481.825 141.286C480.511 141.286 479.197 138.215 478.321 136.899C475.255 132.072 472.189 126.368 469.999 122.419C469.122 122.419 468.684 121.541 467.808 121.541C465.18 121.103 462.114 122.419 462.552 119.786C462.552 117.592 465.18 118.031 467.808 118.031C467.808 117.592 467.37 116.715 467.37 116.276C466.494 114.521 465.18 112.327 464.304 110.572C460.362 113.205 456.858 114.96 454.668 118.031ZM453.792 154.011C452.478 155.327 452.04 157.082 450.287 158.398C448.535 159.715 445.907 160.154 443.717 161.031C438.899 162.347 434.519 163.664 431.452 167.174C428.824 169.807 426.634 172.001 427.072 177.705C439.775 176.827 452.478 175.95 464.742 175.072C464.742 168.929 463.428 163.225 462.99 157.082C459.048 156.643 456.42 155.327 453.792 154.011ZM325.451 189.113C314.938 189.113 302.674 187.796 293.913 189.99C294.351 191.745 296.979 191.745 299.17 191.745C303.55 191.745 307.93 192.184 312.748 192.184C314.938 192.184 318.005 191.745 318.005 193.939C318.005 196.572 310.996 195.694 308.368 195.694C306.616 195.694 304.426 195.694 302.674 195.694C300.484 195.694 298.732 195.256 297.418 195.256C296.541 195.256 296.103 196.133 295.227 196.572C294.351 197.011 293.475 197.45 293.475 198.327C299.608 198.766 306.616 198.766 313.186 198.766C315.814 198.766 318.443 198.327 318.443 200.521C318.443 202.715 315.814 202.276 313.624 202.276C307.492 202.276 300.046 202.276 294.351 201.837C294.351 202.715 294.789 203.154 294.789 204.031C300.922 204.47 307.054 204.909 313.624 205.347C315.814 205.347 318.005 205.347 318.005 207.541C318.005 210.174 314.5 209.296 311.872 208.858C306.616 208.419 301.36 208.419 296.541 207.98C296.103 208.419 296.979 209.296 297.418 209.735C300.922 213.684 310.996 213.684 318.005 214.562C321.509 215.001 325.013 215.439 328.517 215.439C332.021 215.878 335.525 216.756 337.716 218.072C339.468 218.95 340.782 221.143 342.096 222.46C350.856 231.674 358.741 241.766 367.501 250.541C368.815 251.858 370.567 253.613 371.881 254.929C375.386 257.562 380.204 260.194 386.336 259.756C390.716 259.317 394.659 256.684 398.601 254.49C410.427 248.786 419.626 241.327 431.014 235.184C424.882 231.235 420.064 225.531 420.94 214.562C416.998 214.562 413.056 214.562 408.675 214.562C407.361 214.562 405.609 214.123 404.733 214.562C404.295 214.562 402.981 215.878 402.543 216.317C398.601 218.95 395.097 222.021 391.154 224.654C389.84 225.97 388.088 226.847 386.774 228.164C384.584 228.164 382.832 232.113 380.642 231.674C379.766 231.674 379.328 230.796 378.89 229.919C378.89 227.725 381.518 227.725 382.394 226.409C372.319 219.388 361.807 212.368 351.732 204.909C350.418 204.031 348.666 203.154 347.352 201.837C346.476 200.96 345.6 199.643 344.724 198.327C342.096 194.817 339.468 191.307 337.278 187.796C335.525 185.164 334.211 182.97 333.335 179.898C332.459 176.827 332.021 173.317 331.145 169.368C329.831 170.684 328.079 172.439 327.641 174.194C326.765 177.266 328.517 180.776 328.955 183.847C329.393 187.796 327.641 192.184 328.079 196.133C328.517 197.45 329.393 198.766 329.831 200.082C330.707 201.398 332.897 205.347 329.831 205.347C328.079 205.347 327.641 203.154 326.765 201.837C325.451 199.205 324.137 194.378 325.451 189.113ZM450.287 179.021C452.916 182.531 455.544 187.796 455.544 194.817C455.544 198.327 455.106 201.398 454.23 204.031C453.354 206.664 451.602 208.419 450.726 210.613C453.354 210.613 455.544 210.613 458.172 210.613C460.362 210.613 463.866 210.174 463.866 212.368C463.866 215.001 458.172 214.123 455.544 214.123C445.907 214.123 434.519 214.562 425.32 214.562C424.882 221.582 427.072 226.847 431.014 230.358C432.329 231.674 434.957 232.113 435.395 233.429C436.271 235.184 435.395 239.133 435.395 241.766C434.957 249.664 434.957 258.001 434.519 265.898C450.725 265.898 468.246 265.898 484.015 265.898C487.519 254.49 491.9 242.205 494.528 227.725C496.718 217.194 494.966 204.47 492.776 194.817C491.9 191.745 491.462 187.796 490.148 185.603C489.71 184.725 488.395 183.847 487.519 182.97C486.643 182.092 485.329 181.215 484.453 180.776C481.825 179.021 478.321 178.582 475.255 178.582C466.056 177.705 458.61 179.021 450.287 179.021ZM434.519 269.409C425.32 282.572 423.568 301.439 421.378 321.184C418.75 345.317 416.56 370.766 414.808 395.776C414.37 401.041 413.932 406.307 413.932 411.133C415.246 430.878 426.634 441.409 437.585 452.378C442.403 457.205 446.783 462.031 452.04 466.419C453.354 467.735 453.792 468.613 456.42 468.613C460.362 468.613 463.866 466.858 466.932 465.103C472.627 462.031 477.883 458.082 482.263 453.256C484.015 451.062 487.519 447.99 487.519 444.919C487.519 443.603 485.767 442.286 484.891 440.97C482.701 438.337 481.387 436.582 479.197 433.949C478.321 433.072 477.445 430.878 476.569 430.439C475.693 430.001 474.379 430.001 473.503 429.562C468.684 427.368 465.18 423.858 462.552 419.031C461.676 417.276 460.362 415.521 459.924 413.327C459.048 409.817 458.61 405.868 458.172 402.358C455.544 377.347 454.23 351.46 452.916 325.133C452.916 322.939 452.916 320.745 452.478 318.99C452.04 318.113 451.164 316.796 450.287 315.919C449.849 315.041 448.097 314.164 448.535 312.409C448.535 311.97 449.411 311.531 449.849 311.531C451.602 311.092 452.478 313.286 453.354 314.164C454.23 315.48 455.982 316.358 455.982 317.674C456.42 318.99 456.42 322.062 456.42 323.817C457.296 346.194 458.61 367.256 460.362 389.194C460.8 393.143 460.8 397.092 461.238 401.041C461.676 404.99 461.676 408.501 462.99 412.011C463.866 415.082 466.056 418.592 467.808 420.786C469.999 423.419 472.627 425.174 475.693 426.49C482.263 429.123 492.338 427.807 498.47 425.174C505.04 422.541 508.545 417.276 512.487 412.011C515.115 408.501 518.181 404.552 520.809 400.164C521.685 398.847 522.999 397.092 523.437 395.776C523.875 392.266 522.123 388.756 520.809 386.562C517.743 379.98 513.363 375.154 507.668 371.205C506.792 370.327 505.916 369.449 504.164 369.011C504.164 371.205 504.164 374.276 503.726 377.347C503.726 379.98 504.164 383.929 501.974 383.929C499.346 383.929 500.222 379.541 500.222 377.347C500.66 369.011 500.66 361.113 501.098 352.776C501.536 341.368 501.974 330.399 501.974 319.429C501.974 313.725 502.412 308.021 501.974 302.756C501.098 292.225 498.47 283.888 493.214 277.745C490.586 274.674 487.081 272.041 484.015 269.409C467.37 269.409 449.411 269.409 434.519 269.409ZM572.058 334.786C553.223 334.786 534.388 334.786 515.115 334.786C513.363 338.296 511.611 342.245 509.859 345.756C511.611 347.072 514.677 347.95 517.743 347.95C522.999 347.511 526.503 344.878 529.57 341.807C530.446 340.929 531.322 339.174 532.636 338.735C534.388 338.296 537.892 338.735 540.52 338.735C545.776 338.735 550.157 338.735 555.851 338.735C557.603 338.735 561.983 338.296 562.859 339.174C563.735 340.052 562.859 344.001 562.859 345.756C562.421 350.143 561.545 353.215 559.355 355.847C568.116 353.215 571.62 345.756 572.058 334.786C572.496 334.786 572.496 334.786 572.058 334.786ZM508.983 348.827C508.545 349.705 508.106 350.143 508.106 351.021C518.181 354.531 526.065 359.796 530.446 369.011C532.636 365.939 533.95 363.307 536.14 359.796C537.016 358.48 537.454 357.603 538.33 357.164C539.644 356.725 541.396 357.164 542.71 357.164C545.776 357.164 547.967 357.164 551.033 356.725C552.347 356.725 554.099 356.725 554.975 356.286C556.289 355.847 558.479 351.898 558.917 351.021C560.231 348.388 559.793 345.317 560.669 342.245C554.537 342.245 547.967 342.245 541.396 342.245C539.644 342.245 536.578 341.807 535.264 342.245C534.388 342.684 532.636 344.878 531.76 345.317C528.694 348.388 523.875 351.021 518.181 351.021C514.677 351.021 511.611 350.143 508.983 348.827ZM505.478 356.286C514.677 360.235 522.123 365.939 526.503 375.154C527.379 374.276 527.818 372.96 527.38 371.205C526.941 369.011 525.189 367.256 523.875 365.501C519.933 361.113 512.487 355.847 506.792 354.531C505.916 354.97 505.916 355.847 505.478 356.286ZM504.164 365.062C511.611 369.449 517.305 375.154 521.685 382.613C525.189 379.98 522.999 375.154 520.809 372.082C517.305 367.256 509.859 361.99 504.602 359.796C503.726 361.113 504.164 363.745 504.164 365.062ZM462.99 470.368C468.246 476.072 473.065 481.776 478.759 487.919C479.635 488.796 480.511 490.113 480.949 490.113C483.139 490.99 486.643 488.358 488.395 487.48C492.776 484.409 495.404 481.337 498.47 476.949C499.346 475.194 501.536 472.123 501.098 469.49C500.66 468.613 498.47 466.419 497.594 465.541C494.09 461.592 490.148 457.643 486.643 454.133C480.073 460.715 472.627 466.858 462.99 470.368ZM504.164 472.123C502.85 476.949 499.784 480.898 496.718 484.409C493.214 488.358 489.272 491.868 483.577 493.623C484.453 494.501 484.891 496.256 486.205 496.256C488.395 496.694 491.462 494.939 493.214 493.623C497.156 490.99 500.222 487.919 502.85 483.97C504.164 482.215 505.478 479.582 505.916 477.827C506.354 476.949 506.354 475.633 506.354 474.756C505.916 473.878 504.164 473.001 504.164 472.123ZM489.71 499.766C489.272 499.766 490.148 500.205 490.148 500.643C491.024 502.398 491.462 504.592 492.338 507.225C492.776 508.98 493.652 511.174 494.09 512.49C494.09 513.807 493.652 515.123 493.214 516.878C491.9 520.827 490.586 525.215 489.71 529.164C491.9 527.409 494.09 526.531 498.47 526.531C501.098 526.531 503.288 527.409 505.04 528.286C507.23 529.164 508.545 530.919 510.297 531.358C513.801 520.388 517.743 509.858 521.247 499.327C519.057 496.256 517.743 493.184 516.867 488.796C516.429 487.48 516.429 485.725 515.991 484.847C515.553 483.97 513.801 482.654 512.925 481.776C511.611 480.46 510.735 479.582 509.859 478.266C505.916 488.358 499.346 495.817 489.71 499.766ZM520.809 489.235C520.809 490.552 521.685 492.745 522.561 494.501C523.437 495.817 524.751 497.572 524.751 498.888C524.751 500.205 523.875 502.398 522.999 503.715C519.495 513.368 516.429 522.143 512.925 532.235C512.487 533.99 512.049 536.184 510.297 536.184C509.421 536.184 508.107 534.868 507.23 533.99C504.602 531.796 499.784 528.725 494.528 530.041C493.214 530.48 491.9 530.919 491.024 531.796C490.148 532.674 488.833 533.552 488.395 534.429C487.957 535.745 487.957 537.939 487.519 540.133C487.081 543.205 486.643 546.715 487.519 548.909C488.834 551.98 491.9 553.296 493.652 554.613C497.594 552.858 502.412 551.541 505.478 548.47C508.545 545.398 510.735 541.011 512.925 537.062C519.495 525.215 525.189 511.174 528.256 496.256C525.627 494.062 522.999 491.868 520.809 489.235Z" fill="black"/>
<path fill-rule="evenodd" clip-rule="evenodd" d="M463.428 138.653C460.8 137.776 461.676 139.97 459.486 141.286C458.172 141.725 455.982 141.725 455.106 142.602C454.668 143.48 455.106 144.796 455.544 145.235C456.858 146.112 460.362 144.796 461.238 144.357C462.552 143.48 466.932 139.531 463.428 138.653Z" fill="black"/>
<path fill-rule="evenodd" clip-rule="evenodd" d="M455.106 126.806V129.438C455.106 130.755 454.23 131.632 452.916 131.632C451.602 131.632 450.726 130.755 450.726 129.438V126.806C450.726 125.489 451.602 124.612 452.916 124.612C454.23 124.612 455.106 125.489 455.106 126.806Z" fill="black"/>
<path fill-rule="evenodd" clip-rule="evenodd" d="M469.561 128.561V131.633C469.561 132.949 468.684 133.826 467.37 133.826C466.056 133.826 465.18 132.949 465.18 131.633V129C465.18 127.684 466.056 126.806 467.37 126.806C468.246 126.367 469.561 127.245 469.561 128.561Z" fill="black"/>
<path d="M396.411 320.744V365.938C396.411 369.01 393.783 372.081 390.279 372.081H313.625C310.558 372.081 307.492 369.448 307.492 365.938V320.744C307.492 317.673 310.12 314.602 313.625 314.602H390.279C393.783 314.602 396.411 317.234 396.411 320.744Z" fill="white"/>
<path d="M390.716 373.837H313.624C309.244 373.837 305.74 370.326 305.74 365.939V320.745C305.74 316.357 309.244 312.847 313.624 312.847H390.278C394.659 312.847 398.163 316.357 398.163 320.745V365.939C398.163 370.326 394.659 373.837 390.716 373.837ZM313.624 316.357C311.434 316.357 309.682 318.112 309.682 320.306V365.5C309.682 367.694 311.434 369.449 313.624 369.449H390.278C392.469 369.449 394.221 367.694 394.221 365.5V320.745C394.221 318.551 392.469 316.796 390.278 316.796H313.624V316.357Z" fill="black"/>
<path fill-rule="evenodd" clip-rule="evenodd" d="M309.682 372.52L352.171 329.958L394.659 372.52H309.682Z" fill="black"/>
<path d="M399.477 314.602L352.171 357.602L304.864 314.602L352.171 271.602L399.477 314.602Z" fill="white"/>
<path d="M352.17 359.796C351.732 359.796 351.294 359.796 350.856 359.357L303.55 315.918C303.112 315.48 303.112 315.041 303.112 314.602C303.112 314.163 303.112 313.724 303.55 313.286L350.856 270.286C351.732 269.847 352.608 269.847 353.046 270.286L400.353 313.286C400.791 313.724 400.791 314.163 400.791 314.602C400.791 315.041 400.791 315.48 400.353 315.918L353.046 358.918C353.046 359.357 352.608 359.796 352.17 359.796ZM307.492 314.602L352.17 355.408L396.849 314.602L352.17 273.796L307.492 314.602Z" fill="black"/>
<path d="M390.716 373.837H313.624C309.244 373.837 305.74 370.326 305.74 365.939V320.745C305.74 316.357 309.244 312.847 313.624 312.847H390.278C394.659 312.847 398.163 316.357 398.163 320.745V365.939C398.163 370.326 394.659 373.837 390.716 373.837ZM313.624 316.357C311.434 316.357 309.682 318.112 309.682 320.306V365.5C309.682 367.694 311.434 369.449 313.624 369.449H390.278C392.469 369.449 394.221 367.694 394.221 365.5V320.745C394.221 318.551 392.469 316.796 390.278 316.796H313.624V316.357Z" fill="black"/>
<path fill-rule="evenodd" clip-rule="evenodd" d="M494.966 37.7349C496.718 37.7349 498.47 39.49 498.47 41.2451C498.47 43.0002 496.718 44.7553 494.966 44.7553C493.214 44.7553 491.462 43.0002 491.462 41.2451C491.462 39.49 492.776 37.7349 494.966 37.7349Z" fill="black"/>
<path fill-rule="evenodd" clip-rule="evenodd" d="M482.701 37.7349C484.453 37.7349 486.205 39.49 486.205 41.2451C486.205 43.0002 484.453 44.7553 482.701 44.7553C480.949 44.7553 479.197 43.0002 479.197 41.2451C479.197 39.49 480.949 37.7349 482.701 37.7349Z" fill="black"/>
<path fill-rule="evenodd" clip-rule="evenodd" d="M470.875 37.7349C472.627 37.7349 474.379 39.49 474.379 41.2451C474.379 43.0002 472.627 44.7553 470.875 44.7553C469.122 44.7553 467.37 43.0002 467.37 41.2451C467.37 39.49 468.684 37.7349 470.875 37.7349Z" fill="black"/>
<path fill-rule="evenodd" clip-rule="evenodd" d="M470.875 37.7349C472.627 37.7349 474.379 39.49 474.379 41.2451C474.379 43.0002 472.627 44.7553 470.875 44.7553C469.122 44.7553 467.37 43.0002 467.37 41.2451C467.37 39.49 468.684 37.7349 470.875 37.7349Z" fill="black"/>
<path fill-rule="evenodd" clip-rule="evenodd" d="M458.61 37.7349C460.362 37.7349 462.114 39.49 462.114 41.2451C462.114 43.0002 460.362 44.7553 458.61 44.7553C456.858 44.7553 455.106 43.0002 455.106 41.2451C455.106 39.49 456.858 37.7349 458.61 37.7349Z" fill="black"/>
<path fill-rule="evenodd" clip-rule="evenodd" d="M446.783 37.7349C448.535 37.7349 450.288 39.49 450.288 41.2451C450.288 43.0002 448.535 44.7553 446.783 44.7553C445.031 44.7553 443.279 43.0002 443.279 41.2451C443.279 39.49 444.593 37.7349 446.783 37.7349Z" fill="black"/>
<path fill-rule="evenodd" clip-rule="evenodd" d="M434.519 37.7349C436.271 37.7349 438.023 39.49 438.023 41.2451C438.023 43.0002 436.271 44.7553 434.519 44.7553C432.767 44.7553 431.015 43.0002 431.015 41.2451C431.015 39.49 432.767 37.7349 434.519 37.7349Z" fill="black"/>
<path fill-rule="evenodd" clip-rule="evenodd" d="M494.966 37.7349C496.718 37.7349 498.47 39.49 498.47 41.2451C498.47 43.0002 496.718 44.7553 494.966 44.7553C493.214 44.7553 491.462 43.0002 491.462 41.2451C491.462 39.49 492.776 37.7349 494.966 37.7349Z" fill="black"/>
<path fill-rule="evenodd" clip-rule="evenodd" d="M482.701 37.7349C484.453 37.7349 486.205 39.49 486.205 41.2451C486.205 43.0002 484.453 44.7553 482.701 44.7553C480.949 44.7553 479.197 43.0002 479.197 41.2451C479.197 39.49 480.949 37.7349 482.701 37.7349Z" fill="black"/>
<path fill-rule="evenodd" clip-rule="evenodd" d="M470.875 37.7349C472.627 37.7349 474.379 39.49 474.379 41.2451C474.379 43.0002 472.627 44.7553 470.875 44.7553C469.122 44.7553 467.37 43.0002 467.37 41.2451C467.37 39.49 468.684 37.7349 470.875 37.7349Z" fill="black"/>
<path fill-rule="evenodd" clip-rule="evenodd" d="M470.875 37.7349C472.627 37.7349 474.379 39.49 474.379 41.2451C474.379 43.0002 472.627 44.7553 470.875 44.7553C469.122 44.7553 467.37 43.0002 467.37 41.2451C467.37 39.49 468.684 37.7349 470.875 37.7349Z" fill="black"/>
<path fill-rule="evenodd" clip-rule="evenodd" d="M458.61 37.7349C460.362 37.7349 462.114 39.49 462.114 41.2451C462.114 43.0002 460.362 44.7553 458.61 44.7553C456.858 44.7553 455.106 43.0002 455.106 41.2451C455.106 39.49 456.858 37.7349 458.61 37.7349Z" fill="black"/>
<path fill-rule="evenodd" clip-rule="evenodd" d="M446.783 37.7349C448.535 37.7349 450.288 39.49 450.288 41.2451C450.288 43.0002 448.535 44.7553 446.783 44.7553C445.031 44.7553 443.279 43.0002 443.279 41.2451C443.279 39.49 444.593 37.7349 446.783 37.7349Z" fill="black"/>
<path fill-rule="evenodd" clip-rule="evenodd" d="M434.519 37.7349C436.271 37.7349 438.023 39.49 438.023 41.2451C438.023 43.0002 436.271 44.7553 434.519 44.7553C432.767 44.7553 431.015 43.0002 431.015 41.2451C431.015 39.49 432.767 37.7349 434.519 37.7349Z" fill="black"/>
<path fill-rule="evenodd" clip-rule="evenodd" d="M494.966 50.02C496.718 50.02 498.47 51.7751 498.47 53.5302C498.47 55.2853 496.718 57.0404 494.966 57.0404C493.214 57.0404 491.462 55.2853 491.462 53.5302C491.462 51.3363 492.776 50.02 494.966 50.02Z" fill="black"/>
<path fill-rule="evenodd" clip-rule="evenodd" d="M482.701 50.02C484.453 50.02 486.205 51.7751 486.205 53.5302C486.205 55.2853 484.453 57.0404 482.701 57.0404C480.949 57.0404 479.197 55.2853 479.197 53.5302C479.197 51.3363 480.949 50.02 482.701 50.02Z" fill="black"/>
<path fill-rule="evenodd" clip-rule="evenodd" d="M470.875 50.02C472.627 50.02 474.379 51.7751 474.379 53.5302C474.379 55.2853 472.627 57.0404 470.875 57.0404C469.122 57.0404 467.37 55.2853 467.37 53.5302C467.37 51.3363 468.684 50.02 470.875 50.02Z" fill="black"/>
<path fill-rule="evenodd" clip-rule="evenodd" d="M470.875 50.02C472.627 50.02 474.379 51.7751 474.379 53.5302C474.379 55.2853 472.627 57.0404 470.875 57.0404C469.122 57.0404 467.37 55.2853 467.37 53.5302C467.37 51.3363 468.684 50.02 470.875 50.02Z" fill="black"/>
<path fill-rule="evenodd" clip-rule="evenodd" d="M458.61 50.02C460.362 50.02 462.114 51.7751 462.114 53.5302C462.114 55.2853 460.362 57.0404 458.61 57.0404C456.858 57.0404 455.106 55.2853 455.106 53.5302C455.106 51.3363 456.858 50.02 458.61 50.02Z" fill="black"/>
<path fill-rule="evenodd" clip-rule="evenodd" d="M446.783 50.02C448.535 50.02 450.288 51.7751 450.288 53.5302C450.288 55.2853 448.535 57.0404 446.783 57.0404C445.031 57.0404 443.279 55.2853 443.279 53.5302C443.279 51.3363 444.593 50.02 446.783 50.02Z" fill="black"/>
<path fill-rule="evenodd" clip-rule="evenodd" d="M434.519 50.02C436.271 50.02 438.023 51.7751 438.023 53.5302C438.023 55.2853 436.271 57.0404 434.519 57.0404C432.767 57.0404 431.015 55.2853 431.015 53.5302C431.015 51.3363 432.767 50.02 434.519 50.02Z" fill="black"/>
</svg>
