<svg width="30" height="30" viewBox="0 0 30 30" fill="none" xmlns="http://www.w3.org/2000/svg">
<path d="M15.0001 0C6.71586 0 0 6.74393 0 15.0628C0 22.5239 5.40783 28.7029 12.4984 29.8994V18.2053H8.87992V13.9971H12.4984V10.8941C12.4984 7.29377 14.6882 5.33179 17.8871 5.33179C19.4191 5.33179 20.7357 5.44643 21.1179 5.49692V9.26024L18.8993 9.26132C17.16 9.26132 16.8247 10.0911 16.8247 11.3092V13.9949H20.9748L20.4335 18.2032H16.8247V30C24.2463 29.093 30 22.7565 30 15.0585C30 6.74393 23.2841 0 15.0001 0Z" fill="#1A1A1A"/>
</svg>
