<svg width="358" height="80" viewBox="0 0 358 80" fill="none" xmlns="http://www.w3.org/2000/svg">
<path d="M74.6338 20.9004C71.0569 14.7718 66.205 9.91982 60.077 6.3433C53.9481 2.76659 47.2571 0.978699 39.9994 0.978699C32.7425 0.978699 26.0494 2.76714 19.9217 6.3433C13.7931 9.91964 8.94149 14.7718 5.3646 20.9004C1.78826 27.0288 0 33.721 0 40.977C0 49.693 2.54293 57.5306 7.63007 64.492C12.7167 71.4538 19.2878 76.2712 27.3429 78.9445C28.2805 79.1186 28.9746 78.9962 29.4259 78.5804C29.8774 78.1641 30.1029 77.6428 30.1029 77.0185C30.1029 76.9144 30.094 75.9773 30.0766 74.2062C30.0588 72.4351 30.0504 70.89 30.0504 69.5716L28.8524 69.7789C28.0886 69.9188 27.1251 69.9781 25.9618 69.9613C24.7991 69.945 23.592 69.8232 22.3422 69.5966C21.0919 69.3721 19.929 68.8512 18.8525 68.0353C17.7766 67.2193 17.0128 66.1513 16.5613 64.8327L16.0405 63.6342C15.6934 62.8363 15.1469 61.9499 14.4002 60.9784C13.6536 60.0059 12.8985 59.3466 12.1347 58.9995L11.7701 58.7384C11.5271 58.565 11.3016 58.3557 11.0931 58.1129C10.8848 57.8701 10.7288 57.6271 10.6247 57.3838C10.5203 57.1403 10.6068 56.9405 10.885 56.7838C11.1632 56.6271 11.6659 56.5511 12.3954 56.5511L13.4367 56.7067C14.1311 56.8458 14.9902 57.2616 16.0148 57.9564C17.0389 58.6507 17.8808 59.5533 18.5406 60.6639C19.3396 62.0879 20.3022 63.1729 21.4312 63.9195C22.5593 64.6662 23.6967 65.0389 24.8423 65.0389C25.9879 65.0389 26.9773 64.952 27.811 64.7793C28.6437 64.6056 29.425 64.3446 30.1545 63.9976C30.467 61.6703 31.3178 59.8824 32.7062 58.6326C30.7273 58.4247 28.9482 58.1115 27.3679 57.695C25.7885 57.278 24.1564 56.6012 22.4727 55.6628C20.788 54.7258 19.3905 53.5621 18.2797 52.1739C17.1688 50.7849 16.2571 48.9615 15.5458 46.7051C14.8342 44.4479 14.4783 41.844 14.4783 38.8928C14.4783 34.6908 15.8501 31.115 18.5931 28.1634C17.3082 25.0043 17.4295 21.4628 18.9574 17.5393C19.9644 17.2265 21.4577 17.4612 23.4366 18.2422C25.4158 19.0235 26.865 19.6928 27.7854 20.2477C28.7059 20.8024 29.4435 21.2725 29.9991 21.6538C33.2289 20.7514 36.5618 20.3001 39.999 20.3001C43.4361 20.3001 46.7699 20.7514 49.9998 21.6538L51.9789 20.4044C53.3322 19.5707 54.9304 18.8068 56.7696 18.1123C58.6098 17.4182 60.017 17.227 60.9897 17.5399C62.5515 21.4635 62.6907 25.0048 61.4054 28.164C64.1483 31.1155 65.5206 34.6922 65.5206 38.8934C65.5206 41.8446 65.1634 44.4566 64.4529 46.7312C63.7415 49.0062 62.8219 50.8278 61.6938 52.2C60.5644 53.572 59.158 54.7265 57.4743 55.6634C55.7902 56.601 54.1575 57.2778 52.5781 57.6948C50.998 58.1118 49.2189 58.4252 47.24 58.6336C49.0448 60.1954 49.9474 62.6608 49.9474 66.0287V77.0171C49.9474 77.6413 50.1645 78.1625 50.599 78.579C51.033 78.9947 51.7184 79.1171 52.656 78.9429C60.7122 76.2699 67.2833 71.4524 72.3697 64.4905C77.4556 57.5292 79.9994 49.6915 79.9994 40.9755C79.9976 33.7205 78.2084 27.0288 74.6338 20.9004Z" fill="black"/>
<g clip-path="url(#clip0)">
<path d="M147.257 33.9605H125.33C124.764 33.9605 124.305 34.4159 124.305 34.9774V45.6118C124.305 46.1728 124.764 46.6297 125.33 46.6297H133.884V59.8421C133.884 59.8421 131.963 60.4916 126.653 60.4916C120.388 60.4916 111.637 58.2207 111.637 39.1312C111.637 20.0373 120.75 17.5252 129.305 17.5252C136.711 17.5252 139.901 18.8187 141.931 19.4418C142.569 19.6358 143.159 19.0057 143.159 18.4441L145.605 8.16901C145.605 7.90652 145.516 7.59014 145.213 7.37509C144.389 6.79192 139.359 4 126.653 4C112.015 4 97 10.1778 97 39.8756C97 69.5745 114.191 74 128.677 74C140.672 74 147.949 68.9153 147.949 68.9153C148.249 68.7508 148.281 68.3352 148.281 68.1445V34.9774C148.281 34.4159 147.823 33.9605 147.257 33.9605Z" fill="black"/>
<path d="M260.258 7.55834C260.258 6.99241 259.806 6.5359 259.241 6.5359H246.895C246.331 6.5359 245.872 6.99241 245.872 7.55834C245.872 7.56104 245.875 31.2263 245.875 31.2263H226.631V7.55834C226.631 6.99241 226.177 6.5359 225.612 6.5359H213.266C212.705 6.5359 212.247 6.99241 212.247 7.55834V71.6447C212.247 72.21 212.705 72.6702 213.266 72.6702H225.612C226.177 72.6702 226.631 72.21 226.631 71.6447V44.2327H245.875C245.875 44.2327 245.842 71.6426 245.842 71.6447C245.842 72.21 246.3 72.6702 246.864 72.6702H259.24C259.805 72.6702 260.257 72.21 260.258 71.6447V7.55834Z" fill="black"/>
<path d="M170.554 15.968C170.554 11.5581 166.99 7.99437 162.593 7.99437C158.2 7.99437 154.633 11.5581 154.633 15.968C154.633 20.3734 158.2 23.9467 162.593 23.9467C166.99 23.9467 170.554 20.3734 170.554 15.968Z" fill="black"/>
<path d="M169.672 58.1259C169.672 56.484 169.672 28.5436 169.672 28.5436C169.672 27.9818 169.215 27.5227 168.65 27.5227H156.343C155.778 27.5227 155.273 28.1004 155.273 28.6619C155.273 28.6619 155.273 64.259 155.273 71.0446C155.273 72.2904 156.056 72.6605 157.068 72.6605C157.068 72.6605 162.321 72.6605 168.157 72.6605C169.373 72.6605 169.672 72.0683 169.672 71.0248C169.672 68.7529 169.672 59.8534 169.672 58.1259Z" fill="black"/>
<path d="M307.179 27.6191H294.927C294.366 27.6191 293.908 28.0785 293.908 28.6438V60.0674C293.908 60.0674 290.796 62.3263 286.378 62.3263C281.961 62.3263 280.788 60.338 280.788 56.0471C280.788 51.7511 280.788 28.6438 280.788 28.6438C280.788 28.0785 280.332 27.6191 279.769 27.6191H267.335C266.774 27.6191 266.314 28.0785 266.314 28.6438C266.314 28.6438 266.314 45.3781 266.314 58.1222C266.314 70.867 273.475 73.9849 283.326 73.9849C291.407 73.9849 297.922 69.5562 297.922 69.5562C297.922 69.5562 298.233 71.89 298.373 72.1669C298.513 72.4429 298.879 72.7216 299.274 72.7216L307.184 72.6871C307.746 72.6871 308.205 72.2269 308.205 71.6641L308.202 28.6438C308.202 28.0785 307.744 27.6191 307.179 27.6191Z" fill="black"/>
<path d="M335.832 62.2875C331.582 62.1591 328.7 60.2463 328.7 60.2463V39.9514C328.7 39.9514 331.544 38.2225 335.032 37.9134C339.444 37.5214 343.695 38.8434 343.695 49.2836C343.695 60.2927 341.777 62.4652 335.832 62.2875ZM340.664 26.1795C333.706 26.1795 328.973 29.2592 328.973 29.2592V7.55836C328.973 6.99243 328.517 6.53592 327.954 6.53592H315.573C315.01 6.53592 314.553 6.99243 314.553 7.55836V71.6447C314.553 72.21 315.01 72.6703 315.575 72.6703C315.576 72.6703 324.162 72.6703 324.165 72.6703C324.552 72.6703 324.844 72.4726 325.061 72.126C325.274 71.7816 325.582 69.1713 325.582 69.1713C325.582 69.1713 330.645 73.9305 340.229 73.9305C351.48 73.9305 357.933 68.2689 357.933 48.5151C357.933 28.7609 347.628 26.1795 340.664 26.1795Z" fill="black"/>
<path d="M205.155 27.517H195.894C195.894 27.517 195.88 15.3827 195.88 15.38C195.88 14.9208 195.641 14.6912 195.106 14.6912H182.486C181.995 14.6912 181.731 14.9052 181.731 15.373V27.9149C181.731 27.9149 175.407 29.4295 174.979 29.5518C174.553 29.6744 174.24 30.0639 174.24 30.5287V38.4101C174.24 38.9768 174.696 39.4339 175.261 39.4339H181.731C181.731 39.4339 181.731 47.6771 181.731 58.3944C181.731 72.4774 191.69 73.861 198.41 73.861C201.48 73.861 205.153 72.8826 205.759 72.6605C206.126 72.5268 206.339 72.1502 206.339 71.7417L206.349 63.0715C206.349 62.5062 205.868 62.0487 205.326 62.0487C204.786 62.0487 203.406 62.2664 201.984 62.2664C197.435 62.2664 195.894 60.1682 195.894 57.4524C195.894 54.7386 195.893 39.4339 195.893 39.4339H205.155C205.72 39.4339 206.177 38.9768 206.177 38.4101V28.5381C206.177 27.9723 205.72 27.517 205.155 27.517Z" fill="black"/>
</g>
<defs>
<clipPath id="clip0">
<rect width="260.909" height="70" fill="white" transform="translate(97 4)"/>
</clipPath>
</defs>
</svg>
