<svg width="30" height="30" viewBox="0 0 30 30" fill="none" xmlns="http://www.w3.org/2000/svg">
<path d="M27.9877 7.83782C26.6463 5.53961 24.8269 3.72011 22.5289 2.37891C20.2305 1.03765 17.7214 0.367188 14.9998 0.367188C12.2784 0.367188 9.76851 1.03785 7.47064 2.37891C5.17242 3.72004 3.35306 5.53961 2.01172 7.83782C0.670598 10.136 0 12.6456 0 15.3665C0 18.635 0.953599 21.5742 2.86128 24.1847C4.76875 26.7954 7.23292 28.6019 10.2536 29.6044C10.6052 29.6696 10.8655 29.6237 11.0347 29.4678C11.204 29.3117 11.2886 29.1162 11.2886 28.8821C11.2886 28.8431 11.2852 28.4917 11.2787 27.8275C11.272 27.1633 11.2689 26.5839 11.2689 26.0895L10.8197 26.1672C10.5332 26.2197 10.1719 26.2419 9.73567 26.2357C9.29964 26.2296 8.84699 26.1839 8.37833 26.0989C7.90947 26.0147 7.47337 25.8194 7.0697 25.5134C6.66623 25.2074 6.37981 24.8069 6.2105 24.3124L6.0152 23.863C5.88502 23.5638 5.68007 23.2314 5.40008 22.8671C5.12009 22.5024 4.83695 22.2552 4.55053 22.125L4.41378 22.0271C4.32266 21.962 4.23811 21.8836 4.15992 21.7925C4.0818 21.7015 4.02331 21.6104 3.98425 21.5191C3.94512 21.4278 3.97755 21.3529 4.08187 21.2941C4.18619 21.2353 4.37472 21.2068 4.64828 21.2068L5.03875 21.2652C5.29918 21.3174 5.62131 21.4733 6.00555 21.7338C6.38959 21.9942 6.70529 22.3327 6.95272 22.7491C7.25235 23.2831 7.61333 23.69 8.03671 23.97C8.45974 24.25 8.88626 24.3897 9.31586 24.3897C9.74546 24.3897 10.1165 24.3572 10.4291 24.2924C10.7414 24.2273 11.0344 24.1294 11.3079 23.9993C11.4251 23.1265 11.7442 22.4561 12.2648 21.9874C11.5227 21.9094 10.8556 21.792 10.263 21.6358C9.67069 21.4794 9.05865 21.2256 8.42725 20.8737C7.7955 20.5223 7.27143 20.086 6.8549 19.5654C6.4383 19.0445 6.0964 18.3607 5.82968 17.5146C5.56282 16.6681 5.42936 15.6917 5.42936 14.585C5.42936 13.0092 5.94378 11.6683 6.97242 10.5615C6.49056 9.37679 6.53605 8.04872 7.10903 6.57742C7.48664 6.4601 8.04663 6.54814 8.78871 6.84099C9.53093 7.13398 10.0744 7.38497 10.4195 7.59306C10.7647 7.80109 11.0413 7.97738 11.2497 8.12035C12.4608 7.78194 13.7107 7.6127 14.9996 7.6127C16.2886 7.6127 17.5387 7.78194 18.7499 8.12035L19.4921 7.65182C19.9996 7.3392 20.5989 7.05271 21.2886 6.79229C21.9787 6.53199 22.5064 6.4603 22.8711 6.57762C23.4568 8.049 23.509 9.37699 23.027 10.5617C24.0556 11.6685 24.5702 13.0098 24.5702 14.5852C24.5702 15.6919 24.4363 16.6714 24.1698 17.5244C23.903 18.3775 23.5582 19.0606 23.1352 19.5752C22.7117 20.0897 22.1842 20.5226 21.5528 20.874C20.9213 21.2256 20.3091 21.4794 19.7168 21.6357C19.1242 21.7921 18.4571 21.9096 17.715 21.9878C18.3918 22.5735 18.7303 23.498 18.7303 24.7609V28.8816C18.7303 29.1157 18.8117 29.3111 18.9746 29.4673C19.1374 29.6232 19.3944 29.6691 19.746 29.6038C22.7671 28.6014 25.2312 26.7948 27.1387 24.1841C29.0459 21.5736 29.9998 18.6345 29.9998 15.366C29.9991 12.6454 29.3282 10.136 27.9877 7.83782Z" fill="#1A1A1A"/>
</svg>
