<svg width="30" height="30" viewBox="0 0 30 30" fill="none" xmlns="http://www.w3.org/2000/svg">
<g clip-path="url(#clip0)">
<path d="M29.9926 29.9998V29.9985H30.0001V18.996C30.0001 13.6135 28.8413 9.46729 22.5488 9.46729C19.5238 9.46729 17.4938 11.1273 16.6651 12.701H16.5776V9.96979H10.6113V29.9985H16.8238V20.081C16.8238 17.4698 17.3188 14.9448 20.5526 14.9448C23.7388 14.9448 23.7863 17.9248 23.7863 20.2485V29.9998H29.9926Z" fill="#1A1A1A"/>
<path d="M0.494995 9.97119H6.715V29.9999H0.494995V9.97119Z" fill="#1A1A1A"/>
<path d="M3.6025 0C1.61375 0 0 1.61375 0 3.6025C0 5.59125 1.61375 7.23875 3.6025 7.23875C5.59125 7.23875 7.205 5.59125 7.205 3.6025C7.20375 1.61375 5.59 0 3.6025 0V0Z" fill="#1A1A1A"/>
</g>
<defs>
<clipPath id="clip0">
<rect width="30" height="30" fill="white"/>
</clipPath>
</defs>
</svg>
