<svg width="72" height="71" viewBox="0 0 72 71" fill="none" xmlns="http://www.w3.org/2000/svg">
<path d="M36 70.0541C55.8823 70.0541 72 54.3719 72 35.027C72 15.6821 55.8823 0 36 0C16.1177 0 0 15.6821 0 35.027C0 54.3719 16.1177 70.0541 36 70.0541Z" fill="black"/>
<path d="M36 56.8007C23.6603 56.8007 13.6215 47.0332 13.6215 35.0271C13.6215 23.0209 23.6603 13.2534 36 13.2534C48.3396 13.2534 58.3785 23.0209 58.3785 35.0271V36.1831H32.2401V33.8723H55.9687C55.3524 23.676 46.6302 15.5649 36.0003 15.5649C24.9704 15.5649 15.9969 24.2965 15.9969 35.0277C15.9969 45.7589 24.971 54.4905 36.0003 54.4905C44.4778 54.4905 52.0611 49.2673 54.8739 41.4927L57.1141 42.2601C53.9669 50.957 45.4818 56.8007 36 56.8007Z" fill="white"/>
<path d="M36 46.4102C29.5489 46.4102 24.3005 41.3037 24.3005 35.0269H26.6755C26.6755 40.0294 30.8586 44.0994 36 44.0994C41.1415 44.0994 45.3245 40.0294 45.3245 35.0269C45.3245 30.0244 41.1415 25.9544 36 25.9544C34.1423 25.9511 32.3263 26.4907 30.7874 27.5032L29.4578 25.5884C31.3892 24.3173 33.6683 23.6397 36 23.6436C42.4512 23.6436 47.6996 28.7501 47.6996 35.0269C47.6996 41.3037 42.4512 46.4102 36 46.4102Z" fill="white"/>
<path d="M26.6755 17.6943H24.3005V35.0271H26.6755V17.6943Z" fill="white"/>
</svg>
