<svg width="262" height="224" viewBox="0 0 262 224" fill="none" xmlns="http://www.w3.org/2000/svg">
<path d="M133.25 115.133H39.3294C31.307 115.133 24.8499 108.671 24.8499 100.643V46.2097C24.8499 38.1818 31.307 31.7202 39.3294 31.7202H133.25C141.273 31.7202 147.73 38.1818 147.73 46.2097V100.643C147.73 108.671 141.273 115.133 133.25 115.133ZM39.3294 33.2866C32.0896 33.2866 26.4153 39.1608 26.4153 46.2097V100.643C26.4153 107.888 32.2853 113.566 39.3294 113.566H133.25C140.49 113.566 146.164 107.692 146.164 100.643V46.2097C146.164 38.965 140.294 33.2866 133.25 33.2866H39.3294Z" fill="black"/>
<path fill-rule="evenodd" clip-rule="evenodd" d="M34.0463 173.287C35.0246 173.287 36.003 174.07 36.003 175.245C36.003 176.419 35.2203 177.203 34.0463 177.203C33.0679 177.203 32.0896 176.419 32.0896 175.245C32.0896 174.07 32.8723 173.287 34.0463 173.287Z" fill="black"/>
<path fill-rule="evenodd" clip-rule="evenodd" d="M27.5893 173.287C28.5676 173.287 29.5459 174.07 29.5459 175.245C29.5459 176.419 28.7633 177.203 27.5893 177.203C26.6109 177.203 25.6326 176.419 25.6326 175.245C25.6326 174.07 26.6109 173.287 27.5893 173.287Z" fill="black"/>
<path fill-rule="evenodd" clip-rule="evenodd" d="M21.1322 173.287C22.1105 173.287 23.0888 174.07 23.0888 175.245C23.0888 176.419 22.3062 177.203 21.1322 177.203C20.1538 177.203 19.1755 176.419 19.1755 175.245C19.1755 174.07 20.1538 173.287 21.1322 173.287Z" fill="black"/>
<path fill-rule="evenodd" clip-rule="evenodd" d="M21.1322 173.287C22.1105 173.287 23.0888 174.07 23.0888 175.245C23.0888 176.419 22.3062 177.203 21.1322 177.203C20.1538 177.203 19.1755 176.419 19.1755 175.245C19.1755 174.07 20.1538 173.287 21.1322 173.287Z" fill="black"/>
<path fill-rule="evenodd" clip-rule="evenodd" d="M14.6751 173.287C15.6535 173.287 16.6318 174.07 16.6318 175.245C16.6318 176.419 15.8491 177.203 14.6751 177.203C13.6968 177.203 12.7184 176.419 12.7184 175.245C12.7184 174.07 13.6968 173.287 14.6751 173.287Z" fill="black"/>
<path fill-rule="evenodd" clip-rule="evenodd" d="M8.2181 173.287C9.19644 173.287 10.1748 174.07 10.1748 175.245C10.1748 176.419 9.39211 177.203 8.2181 177.203C7.23976 177.203 6.26141 176.419 6.26141 175.245C6.26141 174.07 7.23976 173.287 8.2181 173.287Z" fill="black"/>
<path fill-rule="evenodd" clip-rule="evenodd" d="M1.95668 173.287C2.93503 173.287 3.91337 174.07 3.91337 175.245C3.91337 176.419 3.13069 177.203 1.95668 177.203C0.978342 177.203 0 176.419 0 175.245C0 174.07 0.782674 173.287 1.95668 173.287Z" fill="black"/>
<path fill-rule="evenodd" clip-rule="evenodd" d="M34.0463 173.287C35.0246 173.287 36.003 174.07 36.003 175.245C36.003 176.419 35.2203 177.203 34.0463 177.203C33.0679 177.203 32.0896 176.419 32.0896 175.245C32.0896 174.07 32.8723 173.287 34.0463 173.287Z" fill="black"/>
<path fill-rule="evenodd" clip-rule="evenodd" d="M27.5893 173.287C28.5676 173.287 29.5459 174.07 29.5459 175.245C29.5459 176.419 28.7633 177.203 27.5893 177.203C26.6109 177.203 25.6326 176.419 25.6326 175.245C25.6326 174.07 26.6109 173.287 27.5893 173.287Z" fill="black"/>
<path fill-rule="evenodd" clip-rule="evenodd" d="M21.1322 173.287C22.1105 173.287 23.0888 174.07 23.0888 175.245C23.0888 176.419 22.3062 177.203 21.1322 177.203C20.1538 177.203 19.1755 176.419 19.1755 175.245C19.1755 174.07 20.1538 173.287 21.1322 173.287Z" fill="black"/>
<path fill-rule="evenodd" clip-rule="evenodd" d="M21.1322 173.287C22.1105 173.287 23.0888 174.07 23.0888 175.245C23.0888 176.419 22.3062 177.203 21.1322 177.203C20.1538 177.203 19.1755 176.419 19.1755 175.245C19.1755 174.07 20.1538 173.287 21.1322 173.287Z" fill="black"/>
<path fill-rule="evenodd" clip-rule="evenodd" d="M14.6751 173.287C15.6535 173.287 16.6318 174.07 16.6318 175.245C16.6318 176.419 15.8491 177.203 14.6751 177.203C13.6968 177.203 12.7184 176.419 12.7184 175.245C12.7184 174.07 13.6968 173.287 14.6751 173.287Z" fill="black"/>
<path fill-rule="evenodd" clip-rule="evenodd" d="M8.2181 173.287C9.19644 173.287 10.1748 174.07 10.1748 175.245C10.1748 176.419 9.39211 177.203 8.2181 177.203C7.23976 177.203 6.26141 176.419 6.26141 175.245C6.26141 174.07 7.23976 173.287 8.2181 173.287Z" fill="black"/>
<path fill-rule="evenodd" clip-rule="evenodd" d="M1.95668 173.287C2.93503 173.287 3.91337 174.07 3.91337 175.245C3.91337 176.419 3.13069 177.203 1.95668 177.203C0.978342 177.203 0 176.419 0 175.245C0 174.07 0.782674 173.287 1.95668 173.287Z" fill="black"/>
<path fill-rule="evenodd" clip-rule="evenodd" d="M34.0463 179.748C35.0246 179.748 36.003 180.532 36.003 181.706C36.003 182.685 35.2203 183.664 34.0463 183.664C33.0679 183.664 32.0896 182.881 32.0896 181.706C32.0896 180.532 32.8723 179.748 34.0463 179.748Z" fill="black"/>
<path fill-rule="evenodd" clip-rule="evenodd" d="M27.5893 179.748C28.5676 179.748 29.5459 180.532 29.5459 181.706C29.5459 182.685 28.7633 183.664 27.5893 183.664C26.6109 183.664 25.6326 182.881 25.6326 181.706C25.6326 180.532 26.6109 179.748 27.5893 179.748Z" fill="black"/>
<path fill-rule="evenodd" clip-rule="evenodd" d="M21.1322 179.748C22.1105 179.748 23.0888 180.532 23.0888 181.706C23.0888 182.685 22.3062 183.664 21.1322 183.664C20.1538 183.664 19.1755 182.881 19.1755 181.706C19.1755 180.532 20.1538 179.748 21.1322 179.748Z" fill="black"/>
<path fill-rule="evenodd" clip-rule="evenodd" d="M21.1322 179.748C22.1105 179.748 23.0888 180.532 23.0888 181.706C23.0888 182.685 22.3062 183.664 21.1322 183.664C20.1538 183.664 19.1755 182.881 19.1755 181.706C19.1755 180.532 20.1538 179.748 21.1322 179.748Z" fill="black"/>
<path fill-rule="evenodd" clip-rule="evenodd" d="M14.6751 179.748C15.6535 179.748 16.6318 180.532 16.6318 181.706C16.6318 182.685 15.8491 183.664 14.6751 183.664C13.6968 183.664 12.7184 182.881 12.7184 181.706C12.9141 180.532 13.6968 179.748 14.6751 179.748Z" fill="black"/>
<path fill-rule="evenodd" clip-rule="evenodd" d="M8.2181 179.748C9.19644 179.748 10.1748 180.532 10.1748 181.706C10.1748 182.685 9.39211 183.664 8.2181 183.664C7.23976 183.664 6.26141 182.881 6.26141 181.706C6.45708 180.532 7.23976 179.748 8.2181 179.748Z" fill="black"/>
<path fill-rule="evenodd" clip-rule="evenodd" d="M1.95668 179.748C2.93503 179.748 3.91337 180.532 3.91337 181.706C3.91337 182.685 3.13069 183.664 1.95668 183.664C0.978342 183.664 0 182.881 0 181.706C0 180.532 0.782674 179.748 1.95668 179.748Z" fill="black"/>
<path fill-rule="evenodd" clip-rule="evenodd" d="M57.7222 20.1677H151.643C159.274 20.1677 165.34 26.2377 165.34 33.874V88.3076C165.34 95.944 159.274 102.014 151.643 102.014H57.7222C50.0911 102.014 44.0254 95.944 44.0254 88.3076V33.874C44.0254 26.2377 50.0911 20.1677 57.7222 20.1677Z" fill="white"/>
<path d="M151.643 102.797H57.7222C49.6998 102.797 43.2427 96.3356 43.2427 88.3076V33.874C43.2427 25.8461 49.6998 19.3845 57.7222 19.3845H151.643C159.665 19.3845 166.123 25.8461 166.123 33.874V88.3076C166.123 96.3356 159.47 102.797 151.643 102.797ZM57.7222 20.951C50.4825 20.951 44.8081 26.8251 44.8081 33.874V88.3076C44.8081 95.5523 50.6781 101.231 57.7222 101.231H151.643C158.883 101.231 164.557 95.3565 164.557 88.3076V33.874C164.557 26.6293 158.687 20.951 151.643 20.951H57.7222Z" fill="black"/>
<path fill-rule="evenodd" clip-rule="evenodd" d="M117.597 0.783203H220.518C224.236 0.783203 227.171 3.72027 227.171 7.44055V203.832C227.171 207.552 224.236 210.489 220.518 210.489H117.597C113.879 210.489 110.944 207.552 110.944 203.832V7.44055C110.944 3.72027 113.879 0.783203 117.597 0.783203Z" fill="white"/>
<path d="M220.518 211.273H117.597C113.488 211.273 110.161 207.944 110.161 203.832V7.44056C110.161 3.32867 113.488 0 117.597 0H220.518C224.627 0 227.954 3.32867 227.954 7.44056V203.832C227.954 207.944 224.627 211.273 220.518 211.273ZM117.597 1.56643C114.466 1.56643 111.922 4.11189 111.922 7.24476V203.636C111.922 206.769 114.466 209.315 117.597 209.315H220.518C223.649 209.315 226.193 206.769 226.193 203.636V7.44056C226.193 4.30769 223.649 1.76224 220.518 1.76224H117.597V1.56643Z" fill="black"/>
<path fill-rule="evenodd" clip-rule="evenodd" d="M123.467 7.04907H214.844C218.562 7.04907 221.497 9.98614 221.497 13.7064V189.93C221.497 193.65 218.562 196.588 214.844 196.588H123.467C119.749 196.588 116.814 193.65 116.814 189.93V13.5106C116.814 9.98614 119.749 7.04907 123.467 7.04907Z" fill="white"/>
<path d="M214.844 197.371H123.467C119.358 197.371 116.031 194.042 116.031 189.93V13.5106C116.031 9.39874 119.358 6.07007 123.467 6.07007H214.844C218.953 6.07007 222.279 9.39874 222.279 13.5106V189.93C222.084 194.042 218.757 197.371 214.844 197.371ZM123.467 7.83231C120.336 7.83231 117.792 10.3778 117.792 13.5106V189.93C117.792 193.063 120.336 195.609 123.467 195.609H214.844C217.975 195.609 220.518 193.063 220.518 189.93V13.5106C220.518 10.3778 217.975 7.83231 214.844 7.83231H123.467Z" fill="black"/>
<path fill-rule="evenodd" clip-rule="evenodd" d="M128.554 12.1399H208.191C211.909 12.1399 214.844 15.077 214.844 18.7972V50.9091C214.844 54.6294 211.909 57.5665 208.191 57.5665H128.554C124.836 57.5665 121.901 54.6294 121.901 50.9091V18.7972C121.901 15.077 124.836 12.1399 128.554 12.1399Z" fill="#FF645A"/>
<path d="M206.822 91.0488H194.103C189.994 91.0488 186.668 87.7201 186.668 83.6083V70.881C186.668 66.7691 189.994 63.4404 194.103 63.4404H206.822C210.931 63.4404 214.257 66.7691 214.257 70.881V83.6083C214.061 87.7201 210.735 91.0488 206.822 91.0488ZM193.907 65.0069C190.777 65.0069 188.037 67.5523 188.037 70.881V83.6083C188.037 86.7411 190.581 89.4824 193.907 89.4824H206.626C209.757 89.4824 212.496 86.9369 212.496 83.6083V70.881C212.496 67.7481 209.952 65.0069 206.626 65.0069H193.907Z" fill="black"/>
<path d="M174.341 91.0488H161.622C157.513 91.0488 154.187 87.7201 154.187 83.6083V70.881C154.187 66.7691 157.513 63.4404 161.622 63.4404H174.341C178.45 63.4404 181.776 66.7691 181.776 70.881V83.6083C181.58 87.7201 178.45 91.0488 174.341 91.0488ZM161.426 65.0069C158.296 65.0069 155.556 67.5523 155.556 70.881V83.6083C155.556 86.7411 158.1 89.4824 161.426 89.4824H174.145C177.276 89.4824 180.015 86.9369 180.015 83.6083V70.881C180.015 67.7481 177.471 65.0069 174.145 65.0069H161.426Z" fill="black"/>
<path d="M140.294 91.0488H127.576C123.467 91.0488 120.14 87.7201 120.14 83.6083V70.881C120.14 66.7691 123.467 63.4404 127.576 63.4404H140.294C144.403 63.4404 147.73 66.7691 147.73 70.881V83.6083C147.534 87.7201 144.208 91.0488 140.294 91.0488ZM127.38 65.0069C124.249 65.0069 121.51 67.5523 121.51 70.881V83.6083C121.51 86.7411 124.054 89.4824 127.38 89.4824H140.099C143.229 89.4824 145.969 86.9369 145.969 83.6083V70.881C145.969 67.7481 143.425 65.0069 140.099 65.0069H127.38Z" fill="black"/>
<path fill-rule="evenodd" clip-rule="evenodd" d="M193.907 132.364H206.626C210.344 132.364 213.279 135.301 213.279 139.021V151.748C213.279 155.469 210.344 158.406 206.626 158.406H193.907C190.19 158.406 187.255 155.469 187.255 151.748V139.021C187.255 135.301 190.19 132.364 193.907 132.364Z" fill="#FF645A"/>
<path fill-rule="evenodd" clip-rule="evenodd" d="M161.426 132.364H174.145C177.863 132.364 180.798 135.301 180.798 139.021V151.748C180.798 155.469 177.863 158.406 174.145 158.406H161.426C157.709 158.406 154.774 155.469 154.774 151.748V139.021C154.774 135.301 157.709 132.364 161.426 132.364Z" fill="#FF645A"/>
<path fill-rule="evenodd" clip-rule="evenodd" d="M127.38 132.364H140.099C143.816 132.364 146.751 135.301 146.751 139.021V151.748C146.751 155.469 143.816 158.406 140.099 158.406H127.38C123.662 158.406 120.727 155.469 120.727 151.748V139.021C120.727 135.301 123.662 132.364 127.38 132.364Z" fill="#FF645A"/>
<path fill-rule="evenodd" clip-rule="evenodd" d="M193.907 164.084H206.626C210.344 164.084 213.279 167.021 213.279 170.741V183.469C213.279 187.189 210.344 190.126 206.626 190.126H193.907C190.19 190.126 187.255 187.189 187.255 183.469V170.741C187.255 167.021 190.19 164.084 193.907 164.084Z" fill="#FF645A"/>
<path fill-rule="evenodd" clip-rule="evenodd" d="M161.426 164.084H174.145C177.863 164.084 180.798 167.021 180.798 170.741V183.469C180.798 187.189 177.863 190.126 174.145 190.126H161.426C157.709 190.126 154.774 187.189 154.774 183.469V170.741C154.774 167.021 157.709 164.084 161.426 164.084Z" fill="#FF645A"/>
<path fill-rule="evenodd" clip-rule="evenodd" d="M127.38 164.084H140.099C143.816 164.084 146.751 167.021 146.751 170.741V183.469C146.751 187.189 143.816 190.126 140.099 190.126H127.38C123.662 190.126 120.727 187.189 120.727 183.469V170.741C120.727 167.021 123.662 164.084 127.38 164.084Z" fill="#FF645A"/>
<path d="M210.344 123.357H123.662C120.727 123.357 118.575 121.007 118.575 118.266C118.575 115.329 120.923 113.175 123.662 113.175H210.344C213.279 113.175 215.431 115.524 215.431 118.266C215.627 121.203 213.279 123.357 210.344 123.357ZM123.662 114.545C121.706 114.545 119.945 116.112 119.945 118.266C119.945 120.224 121.51 121.986 123.662 121.986H210.344C212.3 121.986 214.061 120.42 214.061 118.266C214.061 116.308 212.496 114.545 210.344 114.545H123.662Z" fill="black"/>
<path fill-rule="evenodd" clip-rule="evenodd" d="M165.535 113.958H210.539C212.887 113.958 214.844 115.916 214.844 118.266C214.844 120.615 212.887 122.573 210.539 122.573H165.535C163.187 122.573 161.231 120.615 161.231 118.266C161.035 115.916 162.992 113.958 165.535 113.958Z" fill="black"/>
<path fill-rule="evenodd" clip-rule="evenodd" d="M161.231 113.762C163.774 113.762 165.927 115.916 165.927 118.462C165.927 121.007 163.774 123.161 161.231 123.161C158.687 123.161 156.535 121.007 156.535 118.462C156.535 115.916 158.687 113.762 161.231 113.762Z" fill="#FF645A"/>
<path d="M210.344 110.238H123.662C120.727 110.238 118.575 107.888 118.575 105.147C118.575 102.406 120.923 100.056 123.662 100.056H210.344C213.279 100.056 215.431 102.406 215.431 105.147C215.431 107.888 213.279 110.238 210.344 110.238ZM123.662 101.427C121.706 101.427 119.945 102.993 119.945 105.147C119.945 107.105 121.51 108.867 123.662 108.867H210.344C212.3 108.867 214.061 107.301 214.061 105.147C214.061 103.189 212.496 101.427 210.344 101.427H123.662Z" fill="black"/>
<path fill-rule="evenodd" clip-rule="evenodd" d="M184.907 100.643H210.539C212.887 100.643 214.844 102.601 214.844 104.951C214.844 107.301 212.887 109.259 210.539 109.259H184.907C182.559 109.259 180.602 107.301 180.602 104.951C180.406 102.601 182.363 100.643 184.907 100.643Z" fill="black"/>
<path fill-rule="evenodd" clip-rule="evenodd" d="M182.559 100.448C185.102 100.448 187.255 102.601 187.255 105.147C187.255 107.692 185.102 109.846 182.559 109.846C180.015 109.846 177.863 107.692 177.863 105.147C177.863 102.406 180.015 100.448 182.559 100.448Z" fill="#FF645A"/>
<path fill-rule="evenodd" clip-rule="evenodd" d="M157.317 95.3567C159.274 93.7902 162.405 89.4825 162.992 88.1119C163.774 86.7413 164.948 84.5874 164.557 83.021C163.97 81.4546 159.47 86.1539 158.883 86.5455C158.491 86.9371 156.535 85.3707 156.535 85.3707C156.535 85.3707 159.274 75.3846 159.861 73.8182C160.448 72.2518 159.665 70.8812 158.883 70.8812C158.1 70.6853 152.817 81.063 152.817 81.063C152.817 81.063 153.6 71.8602 153.795 70.8812C153.795 69.9021 150.078 70.2937 147.534 72.056C144.99 73.8182 143.816 79.4965 143.816 83.4126C143.816 87.3287 143.621 93.986 143.621 93.986L132.859 118.657C132.859 118.657 125.619 106.126 120.923 99.0769C116.227 92.028 106.248 92.028 106.248 92.028L108.205 86.1539C108.205 86.1539 109.966 85.9581 112.509 85.3707C115.053 84.5874 118.379 78.5175 118.379 78.5175C118.379 78.5175 120.336 76.7553 120.532 75.7763C120.727 74.7972 119.162 74.6014 119.162 74.6014C119.162 74.6014 119.749 74.014 119.162 70.4895C118.575 66.9651 116.814 62.6574 116.814 62.6574C116.814 62.6574 117.401 58.1539 117.01 57.3707C116.618 56.5874 114.662 54.8252 111.727 52.0839C108.792 49.5385 98.4212 52.6714 94.1165 54.042C90.0075 55.6084 90.0075 63.6364 90.0075 63.6364C90.0075 63.6364 86.8768 66.9651 86.4854 71.4686C85.8984 75.9721 89.2248 80.2798 92.5511 82.6294C95.8775 84.9791 98.0299 84.9791 98.0299 84.9791L99.3995 85.7623L95.0948 93.986C95.0948 93.986 84.3331 101.231 79.05 105.343C73.767 109.455 73.767 119.245 73.767 119.245C73.767 119.245 71.8103 207.748 71.6146 218.322C71.6146 218.909 71.6146 219.301 71.6146 219.301L126.402 217.93L110.553 166.825V157.427C110.553 157.427 112.314 158.21 113.096 158.406C113.879 158.601 117.205 158.014 119.945 156.839C122.684 155.664 143.425 143.916 143.425 143.916C143.425 143.916 143.425 144.112 146.556 143.133C149.686 142.154 151.252 137.455 151.252 137.455L153.013 137.65C153.013 137.65 153.013 138.629 154.187 139.217C155.361 139.804 156.73 139.217 158.883 135.497C161.035 131.776 158.883 128.056 158.883 128.056C158.883 128.056 160.839 124.727 161.231 123.944C161.622 123.161 161.035 123.161 159.665 122.769C158.491 122.378 155.556 124.336 155.556 124.336C155.556 124.336 155.361 124.531 154.578 123.944C153.795 123.357 151.839 122.573 151.839 122.573C151.839 122.573 153.404 119.636 153.991 118.657C154.578 117.678 158.296 115.72 158.296 115.133C158.491 114.545 156.143 113.762 153.795 114.154C151.447 114.545 146.556 122.769 146.556 122.769L153.404 98.4895C153.795 98.0979 155.361 96.9231 157.317 95.3567ZM117.597 141.175L113.683 134.517L115.836 122.573L128.945 137.259L117.597 141.175Z" fill="white"/>
<path fill-rule="evenodd" clip-rule="evenodd" d="M98.4212 76.5594C98.4212 76.5594 100.965 79.8881 101.552 78.7133C102.139 77.5385 103.117 76.3636 102.335 74.6014C101.552 72.8392 97.6385 66.5734 100.182 64.8112C102.726 63.0489 105.661 62.6573 108.4 62.0699C110.944 61.4825 112.509 62.2657 113.096 60.5035C113.683 58.7413 112.901 57.1748 113.879 58.3496C114.662 59.3287 116.423 61.8741 116.423 61.8741C116.423 61.8741 118.771 59.5245 117.01 57.3706C115.249 55.2168 114.662 54.4336 113.683 53.4545C112.705 52.4755 111.335 49.5385 108.009 50.3217C104.487 51.1049 93.1382 52.8671 91.7685 56.3916C90.5945 59.9161 90.5945 63.2447 90.5945 63.2447C90.5945 63.2447 85.1158 68.5315 87.0724 73.035C89.0291 77.5385 92.7468 82.8252 94.8992 83.8042C97.0515 84.7832 99.5952 85.3706 99.5952 85.3706L99.2039 83.2168L98.2256 82.042C98.2256 82.042 95.0949 81.6503 94.3122 79.6923C93.5295 77.5385 93.9208 76.5594 95.0949 76.5594C95.8775 76.3636 98.4212 76.5594 98.4212 76.5594Z" fill="black"/>
<path fill-rule="evenodd" clip-rule="evenodd" d="M95.2905 164.671L109.966 161.539L110.357 166.238L127.967 218.909L72.006 215.776L95.2905 164.671Z" fill="black"/>
<path fill-rule="evenodd" clip-rule="evenodd" d="M113.879 134.517L117.792 140.783L121.119 140.392C121.119 140.392 117.401 142.937 119.358 148.419C121.314 153.706 123.858 155.077 123.858 155.077C123.858 155.077 118.771 158.601 116.031 158.21C113.292 157.818 111.335 156.056 111.335 156.056L111.531 160.364L75.528 168.196C75.528 168.196 71.6146 125.315 73.9627 114.937C76.5063 104.559 79.2457 105.538 81.2024 103.58C83.1591 101.622 87.0724 98.881 87.0724 98.881C87.0724 98.881 92.5512 102.406 97.4429 103.189C102.53 103.972 108.596 101.426 109.574 98.2936C110.553 95.1608 111.14 93.2027 111.14 93.2027C111.14 93.2027 117.401 92.4195 121.314 98.6852C125.032 104.951 133.446 119.245 133.446 119.245L136.381 113.566C136.381 113.566 139.12 116.308 142.642 118.07C146.164 119.832 148.121 119.832 148.121 119.832L147.534 122.378L138.533 135.105L129.924 137.454L116.031 121.399L113.879 134.517Z" fill="#FF645A"/>
<path fill-rule="evenodd" clip-rule="evenodd" d="M118.771 65.3986C119.358 64.8112 120.532 64.8112 120.532 65.7902C120.532 66.5734 119.749 66.5734 119.358 67.1608C119.945 69.1189 120.14 71.2727 120.14 73.8182C120.727 74.2098 121.706 74.2098 121.706 74.993C121.901 76.5594 119.945 75.5804 119.162 75.1888C117.401 74.4056 115.836 73.035 115.64 70.8811C115.444 68.7273 116.227 67.3567 117.401 66.3776C116.423 63.8322 115.444 61.2867 113.683 59.3287C113.292 60.6993 112.901 61.6783 111.727 62.2657C109.966 63.049 107.422 63.2448 105.074 63.8322C104.096 64.028 102.922 64.4196 101.943 64.8112C100.965 65.2028 99.9866 65.986 99.7909 66.7692C99.7909 67.5525 100.182 68.5315 100.378 69.1189C100.574 69.9021 100.965 70.6853 101.161 71.2727C101.748 72.8392 102.53 74.2098 102.922 75.5804C103.117 76.9511 102.139 79.3007 100.965 79.4965C100.378 79.4965 100.182 79.3007 99.7909 79.1049C99.3996 79.1049 98.4212 79.3007 97.8342 79.4965C97.2472 79.4965 96.2689 79.8881 96.2689 78.9091C96.2689 77.7343 98.0299 78.3217 98.8125 77.9301C98.0299 77.7343 96.8559 77.3427 95.8775 77.5385C95.2905 77.7343 94.8992 78.5175 94.8992 79.1049C94.8992 79.6923 96.0732 80.8671 96.6602 81.0629C97.2472 81.2588 98.0299 80.8671 98.6169 81.2587C99.0082 81.4546 99.3996 82.2378 99.5952 82.6294C99.9866 83.2168 100.378 83.6084 100.378 84.1958C100.378 84.979 99.5952 86.1539 99.3995 86.7413C98.6169 88.5035 98.0299 89.8741 97.0515 91.8322C96.6602 92.6154 96.4645 93.5944 95.8775 94.3776C95.4862 94.7692 94.7035 95.1608 94.1165 95.5525C92.3555 96.7273 90.3988 97.7063 88.6378 98.8811C91.5728 100.448 95.0948 102.21 99.2039 102.406C101.356 102.406 103.313 101.818 104.878 101.035C107.422 99.6643 109.183 97.5105 109.183 93.5944C108.4 93.3986 107.422 93.3986 106.639 93.2028C106.052 93.986 106.248 95.9441 104.878 95.9441C104.487 95.9441 104.291 95.5525 104.096 95.3567C103.9 94.7692 104.487 93.7902 104.878 93.007C105.661 90.8532 106.835 88.1119 107.618 86.3497C106.835 86.1539 105.857 85.958 104.683 85.7622C104.096 85.5664 102.53 85.3706 102.53 84.5874C102.53 83.021 104.683 84.1958 105.465 84.3916C107.813 84.979 110.553 85.5664 113.096 84.3916C115.249 83.4126 116.618 81.8462 117.401 79.6923C117.597 79.1049 118.184 77.1469 119.162 78.1259C119.749 78.7133 118.575 81.0629 118.379 81.6504C117.597 83.021 117.01 83.6084 116.227 84.1958C114.662 85.5664 112.509 86.7413 109.379 86.5455C108.596 88.1119 108.009 89.8741 107.422 91.6364C111.335 92.4196 115.053 92.6154 117.597 94.1818C120.336 95.7483 122.293 98.0979 123.858 100.839C126.989 106.126 129.924 112 132.859 117.483C136.185 111.413 139.12 104.168 141.86 97.3147C142.251 96.3357 142.838 95.3567 143.034 94.3776C143.229 93.3986 143.034 92.028 143.034 91.049C143.034 87.9161 142.838 84.1958 143.229 80.8671C143.425 78.9091 144.208 76.9511 144.795 75.3846C145.382 73.6224 146.164 72.056 147.534 71.0769C148.512 70.4895 150.665 69.9021 152.034 69.7063C153.013 69.7063 154.187 69.9021 154.382 70.4895C154.578 70.8811 154.382 71.6643 154.187 72.2518C153.991 74.014 153.795 75.972 153.6 77.7343C154.774 76.1678 155.948 74.014 157.317 72.056C157.709 71.4685 158.296 70.6853 158.883 70.4895C160.057 70.2937 161.035 71.4685 161.035 72.4476C161.035 73.4266 160.448 74.6014 160.057 75.5804C159.078 77.9301 158.296 80.2797 157.709 83.2168C157.513 83.8042 157.317 84.5874 157.513 84.979C157.709 85.3706 158.1 85.5664 158.491 85.7622C159.861 84.979 161.426 83.021 162.992 82.042C163.774 81.6504 165.34 81.2587 165.731 82.2378C166.122 83.021 165.535 84.3916 165.34 85.1748C164.557 87.7203 162.796 89.8741 161.426 91.8322C159.274 94.7692 156.926 96.9231 154.187 98.6853C152.426 105.343 150.665 111.804 148.904 118.266C149.882 117.287 150.665 115.72 151.839 114.545C153.404 113.175 156.535 112 158.687 113.371C159.078 113.566 159.665 114.35 159.47 114.937C159.47 115.72 158.1 116.504 157.317 116.895C156.535 117.483 155.556 118.07 154.969 118.657C153.991 119.636 153.795 121.007 153.013 122.182C154.187 122.378 154.969 122.769 155.948 123.357C156.926 122.769 157.709 121.594 159.274 121.79C160.448 121.79 162.209 122.573 162.209 124.14C162.013 124.923 161.231 125.315 160.644 125.902C160.057 126.685 160.057 127.664 159.47 128.252C159.861 129.818 160.448 131.385 160.448 133.343C160.448 136.084 158.491 137.846 156.73 139.217C156.143 139.608 155.361 140.196 154.774 140.392C153.404 140.392 152.817 139.413 152.426 138.434C150.86 141.175 149.686 144.112 146.164 144.699C145.577 144.699 144.99 144.699 144.208 144.895C143.621 145.091 142.838 145.483 142.251 145.874C137.555 148.42 133.055 150.965 128.554 153.315C126.01 154.685 123.271 156.252 120.532 157.427C117.988 158.601 114.857 160.951 111.531 158.601C111.335 160.755 111.531 162.909 111.335 165.063C111.335 165.846 111.14 166.434 111.335 167.217C111.531 168.196 111.922 169.175 112.314 170.154C114.662 177.203 117.01 183.86 119.358 190.909C118.771 190.909 118.184 191.497 117.792 191.497C115.444 184.448 113.096 177.594 110.748 170.545C110.357 169.566 109.966 168.587 109.77 167.608C109.574 166.042 109.966 164.476 109.966 163.105C106.835 163.692 103.313 164.476 99.9866 165.259C99.2039 165.455 97.0515 166.238 97.0515 165.063C97.0515 163.888 98.8125 163.888 99.7909 163.692C103.117 162.909 106.835 162.126 109.966 161.343C109.966 160.168 109.966 159.189 109.966 157.818C106.248 155.273 103.117 152.336 100.182 148.811C99.7909 148.224 99.2039 147.636 99.2039 147.245C99.2039 146.853 99.5952 146.462 99.9866 146.462C100.574 146.462 101.161 147.245 101.748 148.028C104.291 151.161 106.639 153.315 109.966 155.86C111.335 156.839 112.901 158.21 114.857 158.21C116.227 158.21 117.205 157.622 118.184 157.035C119.162 156.448 119.945 156.056 121.119 155.469C120.923 155.077 120.532 154.685 120.14 154.294C118.966 153.119 118.184 151.748 117.792 149.986C117.205 147.441 117.205 144.504 118.575 142.741C117.988 142.937 117.401 143.133 116.618 143.329C115.836 143.524 114.27 144.308 114.075 143.133C114.075 142.154 115.444 142.154 116.227 141.762C112.314 134.909 108.205 127.86 103.9 121.007C101.748 117.678 99.5952 114.154 96.6602 111.608C94.5078 109.65 91.9642 108.084 88.8335 106.909C88.0508 106.517 86.2898 106.322 86.2898 105.343C86.2898 103.972 88.0508 104.951 89.0291 105.147C95.0948 107.301 99.3996 110.825 102.53 115.72C106.248 121.399 109.574 127.273 113.096 132.951C113.879 126.881 114.857 120.224 115.836 113.958C116.031 112.979 116.031 111.608 117.01 112C117.792 112.196 117.401 113.566 117.401 114.35C117.01 116.895 116.618 119.832 116.227 122.182C120.727 127.273 125.228 132.168 129.924 137.259C131.881 136.671 133.642 136.084 135.598 135.301C136.185 135.105 136.968 134.909 137.555 134.713C137.946 134.517 138.338 133.734 138.729 133.147C140.49 130.601 142.251 128.056 144.012 125.51C145.186 123.944 146.36 122.769 146.556 120.811C142.055 119.832 138.533 118.07 135.99 115.329C135.207 116.895 134.424 118.462 133.642 119.832C133.837 120.224 134.229 121.007 134.62 121.594C135.011 122.182 135.794 124.14 134.424 123.944C133.837 123.944 133.446 122.769 133.055 121.986C130.315 117.091 127.576 111.804 124.836 107.105C123.271 104.168 121.706 101.427 119.749 99.0769C117.597 96.7273 114.857 95.1609 110.944 94.7692C110.944 98.0979 109.77 99.8602 108.205 101.622C106.639 103.189 104.487 104.364 101.943 104.951C95.8775 105.93 90.9858 102.993 87.0724 101.035C83.7461 102.993 80.811 104.951 78.463 108.084C76.8977 110.238 75.9193 113.175 74.941 116.308C74.7453 117.483 74.5497 119.049 73.767 119.049C72.9843 119.049 72.7886 118.266 73.18 117.091C73.767 114.741 74.354 112.392 75.3323 110.434C77.6804 104.951 82.5721 102.014 87.2681 98.8811C89.0291 97.7063 90.7901 96.7273 92.7468 95.5525C93.3338 95.1608 94.1165 94.965 94.5078 94.3776C94.8992 93.986 95.0948 93.007 95.4862 92.4196C96.4645 90.4615 97.4429 88.3077 98.2255 86.5455C95.2905 85.9581 93.3338 85.1748 91.7685 83.4126C90.2031 81.6504 88.8335 79.8881 87.6594 77.9301C87.0724 76.9511 86.2898 75.7762 86.0941 74.6014C85.7028 73.2308 85.8984 71.6643 86.2898 70.2937C86.8768 68.5315 87.6594 66.7692 88.6378 65.3986C88.8335 65.007 89.4205 64.4196 89.6161 64.028C89.8118 63.4406 89.6161 62.4615 89.8118 61.8741C90.0075 59.9161 90.3988 57.958 91.3771 56.5874C92.9425 54.4336 95.8775 53.8462 98.6169 53.0629C101.552 52.2797 104.487 51.3007 107.813 51.1049C110.553 50.9091 112.118 51.8881 113.488 53.4546C114.075 54.2378 114.662 55.021 115.444 55.6084C116.618 56.7832 118.184 57.3706 118.379 59.5245C118.575 61.0909 117.988 62.2657 117.792 63.6364C117.988 63.6364 118.575 64.4196 118.771 65.3986ZM115.053 56.5874C114.466 56.1958 114.075 55.6084 113.488 55.2168C111.727 53.2588 110.944 51.4965 107.618 51.6923C104.487 51.8881 102.139 52.6713 99.3995 53.4546C97.0515 54.042 94.1165 54.6294 92.5512 56.5874C91.7685 57.7622 91.5728 59.7203 91.3771 61.4825C91.3771 62.0699 91.3771 62.8532 91.1815 63.4406C90.9858 64.028 90.3988 64.6154 90.0075 65.2028C89.6161 65.7902 89.2248 66.3776 88.8335 66.965C88.2465 68.1399 87.4638 69.7063 87.2681 71.2727C87.0724 73.4266 88.0508 74.4056 88.8335 75.5804C89.4205 76.3636 89.8118 77.1469 90.3988 77.9301C91.3771 79.3007 92.5512 81.2587 94.1165 82.2378C95.2905 83.021 96.4645 83.2168 98.0299 83.6084C98.0299 83.4126 97.8342 83.021 97.6385 82.8252C97.0515 82.8252 96.2689 82.8252 95.8775 82.6294C94.5078 82.042 93.1382 80.6713 93.1382 79.3007C93.1382 77.3427 94.7035 75.5804 97.0515 75.972C97.0515 75.3846 97.2472 74.993 97.8342 74.993C98.6169 74.993 98.8125 75.7762 99.3995 76.3636C99.9866 76.9511 100.378 77.5385 100.965 77.7343C102.139 76.5595 101.356 75.1888 100.769 74.014C100.182 72.2518 99.5952 71.2727 99.0082 69.5105C98.6169 68.3357 98.2255 66.965 98.8125 65.7902C99.7909 63.8322 102.139 63.2448 104.487 62.4615C105.661 62.0699 106.835 61.8741 108.009 61.6783C108.987 61.4825 110.944 61.2867 111.531 60.6993C112.314 60.1119 112.118 57.7622 113.488 57.3706C115.249 56.979 115.836 59.7203 116.814 60.1119C117.01 58.1539 116.031 57.5664 115.053 56.5874ZM117.988 72.4476C118.184 72.6434 118.379 72.8392 118.575 72.8392C118.379 71.2727 118.379 69.5105 117.988 68.1399C116.814 69.3147 117.205 71.4685 117.988 72.4476ZM150.665 71.6643C150.469 74.6014 150.273 77.7343 150.078 80.6713C150.078 81.6504 150.078 83.021 149.099 83.021C148.121 83.021 148.317 81.8462 148.317 80.8671C148.512 77.9301 148.708 74.993 148.904 72.2518C148.121 72.4476 147.73 73.035 147.338 73.6224C147.143 76.1678 146.751 79.3007 146.751 82.4336C146.751 83.4126 146.947 84.7832 145.969 84.7832C144.403 84.7832 145.382 80.6713 145.186 79.6923C144.599 83.021 144.599 86.9371 144.599 90.6573C144.599 92.028 144.795 93.3986 144.599 94.5734C144.599 95.3567 144.012 96.3357 143.621 97.1189C141.468 102.406 139.12 108.084 136.968 113.175C139.316 116.112 142.642 118.07 147.143 118.853C148.708 112.783 150.469 106.517 152.034 100.448C152.23 99.6643 152.426 98.4895 152.817 97.9021C153.013 97.5105 153.991 96.9231 154.578 96.5315C156.535 95.1608 158.1 93.5944 159.47 91.8322C161.426 89.2867 163.383 87.1329 164.166 83.6084C162.6 84.3916 161.622 85.5664 160.252 86.7413C159.861 87.1329 159.274 87.7203 158.883 87.7203C157.904 87.7203 156.339 86.7413 156.143 85.9581C155.752 84.7832 156.339 83.2168 156.73 82.042C156.926 80.8671 157.317 79.8881 157.513 78.7133C158.1 77.1469 158.687 75.5804 159.078 74.2098C159.274 73.8182 159.665 73.2308 159.274 72.6434C158.883 72.8392 158.687 73.4266 158.296 73.8182C156.926 75.972 155.556 78.1259 154.187 80.4755C153.795 81.2587 153.208 83.021 152.23 82.8252C151.252 82.8252 151.447 81.2587 151.643 80.4755C151.839 79.4965 151.839 78.5175 152.034 77.5385C152.23 75.5804 152.621 73.4266 152.621 71.6643C152.034 71.0769 151.252 71.4685 150.665 71.6643ZM158.883 130.797C157.709 130.014 157.317 128.839 155.948 128.056C155.165 127.664 153.991 127.469 152.621 127.273C151.643 127.077 150.078 127.077 150.078 126.098C150.078 125.119 151.252 125.315 152.034 125.51C154.187 125.706 156.535 126.294 157.709 127.077C156.73 125.315 155.165 123.357 152.817 123.161C151.839 123.161 150.469 123.552 149.882 123.161C148.904 122.573 150.078 121.203 151.056 121.594C152.23 120.224 152.621 118.462 153.795 117.091C154.578 116.112 156.143 115.329 157.122 114.545C157.317 114.545 157.513 114.35 157.513 114.154C156.926 113.958 156.535 113.762 155.948 113.958C153.404 114.154 152.034 116.112 150.86 117.874C147.143 122.769 143.621 127.86 140.294 132.951C139.707 133.734 139.12 135.105 138.533 135.496C137.946 135.888 137.164 135.888 136.381 136.28C131.293 137.846 126.206 139.608 121.119 141.175C120.336 142.35 119.162 143.524 118.966 145.483C118.575 149.399 120.532 152.531 122.684 154.098C128.75 150.965 135.207 147.441 141.273 144.112C141.86 143.72 143.229 142.937 144.012 142.741C144.403 142.741 144.99 142.741 145.186 142.741C148.512 142.545 149.686 139.804 150.86 137.259C149.882 137.455 149.491 137.063 149.295 136.671C149.099 135.497 150.86 135.496 151.643 135.496C152.621 135.301 154.187 135.105 154.382 135.888C154.578 136.671 153.404 138.042 154.382 138.238C154.969 138.434 155.752 137.455 156.143 137.063C156.73 136.671 157.317 136.28 157.513 135.496C156.926 134.517 156.73 133.734 155.752 133.147C154.969 132.755 153.991 132.559 153.208 132.364C152.426 132.168 150.86 131.972 150.86 131.189C150.665 129.622 153.404 130.601 154.187 130.797C154.969 130.993 156.143 131.385 156.73 131.776C157.317 132.168 157.904 132.951 158.296 133.538L158.491 133.734C159.274 132.755 159.078 131.776 158.883 130.797ZM157.513 123.944C157.904 124.531 158.491 125.119 158.883 125.706C159.274 124.727 159.861 123.944 160.644 123.161C159.47 122.573 158.1 123.357 157.513 123.944ZM116.227 123.944C116.031 125.51 115.836 127.077 115.444 128.839C115.249 130.797 115.053 132.951 114.466 134.517C115.64 136.476 116.814 138.629 118.184 140.587C121.51 139.608 124.836 138.434 128.358 137.259C127.576 136.084 126.402 134.909 125.423 133.93C122.293 130.406 119.358 127.077 116.227 123.944C116.227 123.748 116.227 123.748 116.227 123.944Z" fill="black"/>
<path fill-rule="evenodd" clip-rule="evenodd" d="M109.966 68.5314C110.748 68.5314 112.705 68.1398 112.705 69.3146C112.705 70.4895 110.944 70.0978 110.161 70.0978C108.596 70.2936 108.009 70.8811 107.422 72.0559C107.226 72.4475 107.031 73.6223 106.052 73.6223C104.487 73.6223 105.661 71.6643 106.052 70.8811C107.031 69.5104 107.813 68.7272 109.966 68.5314Z" fill="black"/>
<path fill-rule="evenodd" clip-rule="evenodd" d="M111.14 78.9091C111.922 78.7133 112.314 79.4965 113.292 79.8881C114.466 80.2797 116.031 79.8881 116.031 81.0629C116.031 82.4336 113.292 81.6503 112.509 81.2587C111.727 80.8671 110.553 80.2797 110.553 79.6923C110.553 79.1049 110.944 78.9091 111.14 78.9091Z" fill="black"/>
<path fill-rule="evenodd" clip-rule="evenodd" d="M130.315 222.825C129.728 222.825 129.141 222.629 128.554 222.629C127.184 218.517 125.815 214.406 124.249 210.294C124.641 210.098 125.423 210.098 125.815 209.706C127.184 214.014 128.75 218.517 130.315 222.825Z" fill="black"/>
<path fill-rule="evenodd" clip-rule="evenodd" d="M110.944 72.0558C111.531 71.86 112.314 72.2516 112.509 73.0348L112.901 74.6012C113.096 75.1886 112.705 75.9718 111.922 76.1676C111.335 76.3634 110.553 75.9718 110.357 75.1886L109.966 73.6222C109.77 73.0348 110.161 72.2516 110.944 72.0558Z" fill="black"/>
<path fill-rule="evenodd" clip-rule="evenodd" d="M192.146 174.462H191.951C191.755 174.462 191.559 174.462 191.364 174.462H148.121C146.556 174.462 144.99 175.832 144.599 177.399L137.164 206.182C136.968 206.965 137.164 207.748 137.359 208.336C137.946 209.706 139.903 210.881 141.273 210.881H184.515C186.081 210.881 187.646 209.511 188.037 207.944L195.473 179.161C195.864 177.399 193.712 174.462 192.146 174.462Z" fill="black"/>
<path d="M184.515 211.664H141.468C140.099 211.664 137.751 210.294 136.968 208.727C136.577 208.14 136.381 207.161 136.577 206.182L144.012 177.399C144.599 175.441 146.36 173.874 148.317 173.874H191.559C191.755 173.874 191.951 173.874 192.146 173.874C193.516 173.874 194.69 175.245 195.277 175.636C196.255 177.007 196.647 178.378 196.451 179.357L189.016 208.14C188.429 210.098 186.472 211.664 184.515 211.664ZM148.121 175.245C146.947 175.245 145.773 176.224 145.382 177.595L137.946 206.378C137.751 206.965 137.946 207.357 138.142 207.748C138.729 208.923 140.49 209.902 141.273 209.902H184.515C185.689 209.902 186.863 208.923 187.255 207.553L194.69 178.769C194.886 178.182 194.494 177.203 193.907 176.42C193.32 175.636 192.538 175.245 192.342 175.245H192.146H191.951C191.755 175.245 191.755 175.245 191.559 175.245H148.121Z" fill="black"/>
<path fill-rule="evenodd" clip-rule="evenodd" d="M187.45 177.399H150.078C148.512 177.399 146.947 178.769 146.556 180.336L140.881 202.266C140.49 203.832 141.273 205.203 142.838 205.203H180.211C181.776 205.203 183.341 203.832 183.733 202.266L189.407 180.336C189.994 178.574 189.016 177.399 187.45 177.399Z" fill="white"/>
<path d="M180.406 205.986H143.034C142.055 205.986 141.273 205.595 140.686 205.007C140.099 204.224 139.903 203.245 140.099 202.07L145.773 180.14C146.36 178.182 148.121 176.615 150.078 176.615H187.45C188.429 176.615 189.211 177.007 189.798 177.594C190.385 178.378 190.581 179.357 190.385 180.532L184.711 202.462C184.124 204.42 182.363 205.986 180.406 205.986ZM150.078 178.182C148.904 178.182 147.73 179.161 147.338 180.532L141.664 202.462C141.468 203.049 141.664 203.636 141.86 204.028C142.055 204.224 142.447 204.42 142.838 204.42H180.211C181.385 204.42 182.559 203.441 182.95 202.07L188.82 180.14C189.016 179.553 188.82 178.965 188.624 178.574C188.429 178.378 188.037 178.182 187.646 178.182H150.078Z" fill="black"/>
<path fill-rule="evenodd" clip-rule="evenodd" d="M117.988 208.14H184.711C185.298 208.14 185.885 208.727 185.885 209.315V212.448C185.885 214.014 184.711 215.189 183.146 215.189H119.749C118.184 215.189 117.01 214.014 117.01 212.448V209.315C117.01 208.727 117.401 208.14 117.988 208.14Z" fill="black"/>
<path d="M183.146 216.168H119.749C117.792 216.168 116.227 214.601 116.227 212.643V209.511C116.227 208.532 117.01 207.552 118.184 207.552H184.907C185.885 207.552 186.863 208.336 186.863 209.511V212.643C186.863 214.406 185.102 216.168 183.146 216.168ZM117.988 209.119C117.792 209.119 117.792 209.315 117.792 209.315V212.448C117.792 213.427 118.575 214.406 119.749 214.406H183.341C184.32 214.406 185.298 213.622 185.298 212.448V209.315C185.298 209.119 185.102 209.119 185.102 209.119H117.988Z" fill="black"/>
<path fill-rule="evenodd" clip-rule="evenodd" d="M176.689 180.727L185.885 180.531C186.863 180.531 187.255 181.511 187.059 182.685L183.733 195.608C183.341 196.783 182.363 197.762 181.58 197.762L172.384 197.958C171.406 197.958 171.014 196.979 171.21 195.804L174.536 182.685C174.732 181.706 175.71 180.727 176.689 180.727Z" fill="#FF645A"/>
<path d="M146.36 197.762C145.969 197.762 145.773 197.371 145.577 197.175C145.577 196.783 145.969 196.392 146.164 196.392L167.492 196.196C167.884 196.196 168.275 196.588 168.275 196.783C168.275 197.175 167.884 197.567 167.688 197.567L146.36 197.762Z" fill="#FF645A"/>
<path d="M147.73 192.672C147.338 192.672 147.143 192.28 146.947 192.084C146.947 191.693 147.338 191.301 147.534 191.301H154.382C154.774 191.301 155.165 191.693 155.165 191.888C155.165 192.28 154.774 192.672 154.578 192.672H147.73Z" fill="#FF645A"/>
<path d="M162.209 192.476C161.818 192.476 161.622 192.084 161.426 191.888C161.426 191.497 161.818 191.105 162.013 191.105H168.862C169.253 191.105 169.645 191.497 169.645 191.692C169.645 192.084 169.253 192.476 169.058 192.476H162.209Z" fill="#FF645A"/>
<path d="M156.73 192.476C156.339 192.476 156.143 192.084 155.948 191.888C155.948 191.497 156.339 191.105 156.535 191.105H159.47C159.861 191.105 160.253 191.497 160.253 191.692C160.253 192.084 159.861 192.476 159.665 192.476H156.73Z" fill="#FF645A"/>
<path d="M149.099 187.581C148.708 187.581 148.512 187.189 148.317 186.993C148.317 186.602 148.708 186.21 148.904 186.21L170.427 186.014C170.819 186.014 171.21 186.406 171.21 186.602C171.21 186.993 170.819 187.385 170.623 187.385L149.099 187.581Z" fill="#FF645A"/>
<path d="M150.469 182.294C150.078 182.294 149.882 181.902 149.686 181.707C149.686 181.315 150.078 180.923 150.273 180.923H154.774C155.165 180.923 155.556 181.315 155.556 181.511C155.556 181.902 155.165 182.294 154.969 182.294H150.469Z" fill="#FF645A"/>
<path d="M159.47 182.294C159.078 182.294 158.883 181.902 158.687 181.707C158.687 181.315 159.078 180.923 159.274 180.923H171.601C171.993 180.923 172.384 181.315 172.384 181.511C172.384 181.902 171.993 182.294 171.797 182.294H159.47Z" fill="#FF645A"/>
<path d="M145.577 202.07C145.186 202.07 144.99 201.678 144.795 201.483C144.795 201.091 145.186 200.699 145.382 200.699L177.471 200.504C177.863 200.504 178.254 200.895 178.254 201.091C178.254 201.483 177.863 201.874 177.667 201.874L145.577 202.07Z" fill="#FF645A"/>
<path fill-rule="evenodd" clip-rule="evenodd" d="M157.122 181.902C157.513 180.923 155.361 180.727 153.6 180.531C151.643 180.336 148.904 180.923 145.382 183.664C141.86 186.21 132.663 195.021 132.663 195.021L125.228 196.979L126.793 196.587C126.793 196.587 129.533 195.217 131.098 193.063C132.663 190.909 133.446 185.426 133.446 185.426C133.446 185.426 137.555 181.51 138.338 180.727C138.925 179.748 136.968 178.182 136.968 178.182C136.968 178.182 141.077 177.594 141.86 177.398C142.642 177.203 142.251 176.224 142.251 174.853C142.055 173.482 139.12 173.482 139.12 173.482C139.12 173.482 135.99 171.524 131.685 171.524C127.184 171.524 126.989 176.028 125.032 179.748C123.075 183.468 120.532 190.517 120.532 190.517L109.966 192.867C107.422 186.21 103.704 176.811 101.161 170.937C96.0732 159.189 90.0075 161.538 90.0075 161.538C90.0075 161.538 88.6378 160.363 87.6595 158.797C86.4854 157.231 90.7902 148.615 90.7902 148.615C90.7902 148.615 92.3555 149.007 95.6819 148.419C99.0082 147.832 100.965 141.175 100.965 141.175C100.965 141.175 102.53 138.433 102.335 137.063C102.139 136.084 101.943 136.671 99.9866 135.888C98.2256 134.909 98.4212 130.797 98.4212 130.797C98.4212 130.797 100.769 128.252 100.965 126.098C101.161 124.14 92.9425 120.419 88.0508 119.049C83.1591 117.678 77.4847 120.419 77.4847 120.419C77.4847 120.419 72.9843 117.482 70.4406 115.329C67.8969 113.175 64.1792 114.937 59.8745 117.287C55.5698 119.636 57.7222 128.056 59.2875 130.014C60.8529 131.972 68.2883 131.776 68.2883 131.776C68.2883 131.776 68.0926 133.93 68.0926 137.454C68.0926 140.979 69.658 144.895 69.658 144.895C69.658 144.895 66.7229 149.986 64.7663 152.336C63.0052 154.685 57.9179 155.273 55.1785 157.818C52.4391 160.363 54.9828 168 54.9828 168C54.9828 168 49.8955 169.762 48.9171 173.287C47.9388 176.811 47.5474 180.14 51.4608 183.273C55.3742 186.405 60.6572 185.818 60.6572 185.818C60.6572 185.818 60.2659 188.559 57.7222 193.063C55.1785 197.566 56.5482 201.287 56.5482 201.287L45.3951 218.126L89.0291 218.322L84.5288 205.398L88.4421 200.503C88.4421 200.503 89.8118 200.895 91.5728 200.895C93.5295 200.895 94.3122 200.308 94.3122 200.308C94.3122 200.308 102.53 214.014 105.857 215.384C109.183 216.755 114.27 215.776 118.575 213.622C122.88 211.468 135.99 203.636 135.99 203.636C135.99 203.636 136.577 204.224 139.903 203.832C143.034 203.44 149.099 196.979 149.099 196.979C149.099 196.979 152.621 200.308 154.187 200.503C155.752 200.503 154.969 197.958 154.969 197.958C154.969 197.958 156.73 196.196 156.926 195.217C157.122 194.238 156.143 190.713 154.187 187.972C152.23 185.426 147.73 186.797 147.73 186.797L150.273 184.252C150.469 184.056 156.73 182.685 157.122 181.902Z" fill="white"/>
<path fill-rule="evenodd" clip-rule="evenodd" d="M80.8111 138.825C80.8111 138.825 84.9201 136.671 87.0724 134.517C89.2248 132.364 93.3338 125.902 93.3338 125.902C93.3338 125.902 94.8992 126.685 95.8775 128.056C96.8559 129.427 98.4212 131.385 98.4212 131.385C98.4212 131.385 102.139 126.881 100.574 124.923C99.0082 122.965 94.3122 118.07 87.0724 117.482C79.8327 116.895 76.115 119.245 76.115 119.245C76.115 119.245 72.7886 114.154 66.3316 115.329C60.0702 116.503 57.7222 116.308 57.5265 121.399C57.3308 126.294 57.5265 130.014 60.0702 130.406C62.6139 130.797 67.8969 131.189 67.8969 131.189C67.8969 131.189 68.4839 137.65 68.6796 139.413C69.0709 141.371 69.0709 144.112 69.0709 144.112C69.0709 144.112 65.3532 151.357 61.8312 152.727C58.3092 154.098 54.5915 155.468 54.0045 158.21C53.6131 160.755 54.3958 167.021 54.3958 167.021C54.3958 167.021 51.2651 168 49.6998 170.35C48.1344 172.895 46.9604 180.923 51.4608 183.273C55.9612 185.426 60.2659 185.231 60.2659 185.231L79.05 151.944L81.0067 145.287C81.0067 145.287 78.8544 145.482 77.0934 143.329C75.3323 141.371 76.115 139.804 77.4847 139.413C79.637 139.217 80.8111 138.825 80.8111 138.825Z" fill="black"/>
<path fill-rule="evenodd" clip-rule="evenodd" d="M80.6154 152.14L89.2248 153.315C89.2248 153.315 86.4854 157.427 87.6594 158.797C89.0291 160.168 89.6161 160.755 89.6161 160.755C89.6161 160.755 96.8559 160.951 100.182 169.371C103.509 177.594 110.553 193.063 110.553 193.063L118.379 191.105C118.379 191.105 120.336 191.497 121.119 193.259C121.901 195.021 122.293 196.587 122.293 196.587H128.358C128.358 196.587 130.902 198.154 131.098 200.895C131.293 203.636 130.511 206.965 130.511 206.965C130.511 206.965 118.966 213.231 116.423 214.406C113.879 215.776 110.553 216.951 106.052 214.993C101.552 213.035 94.7035 200.112 94.7035 200.112C94.7035 200.112 92.7468 201.091 91.3771 201.091C90.2031 201.091 89.0291 200.699 89.0291 200.699L84.7244 205.399L89.6161 219.301L44.4167 219.105L56.5482 201.091C56.5482 201.091 53.2218 197.958 58.5048 189.93C64.3749 181.315 80.6154 152.14 80.6154 152.14Z" fill="white"/>
<path fill-rule="evenodd" clip-rule="evenodd" d="M156.73 181.315C155.948 180.923 154.578 180.727 153.6 180.727C149.686 180.532 147.73 182.49 145.382 184.252C141.664 187.189 138.533 190.126 135.011 193.455C134.229 194.042 133.642 195.021 133.055 195.413C132.468 195.804 131.489 195.804 130.707 196C125.228 197.371 119.553 198.937 113.879 200.308C113.879 200.895 113.683 201.483 113.096 201.483C112.314 201.483 112.118 200.504 111.727 199.525C107.813 189.539 103.9 179.553 99.5953 169.958C98.8126 168.392 98.2256 166.825 97.4429 165.651C96.6602 164.476 95.2905 163.692 94.1165 162.909C92.7468 162.126 91.1815 161.539 89.6162 161.343C88.4421 161.343 87.4638 161.539 86.2898 161.734C85.3115 161.93 84.1374 162.713 83.5504 162.518C83.3548 162.518 82.9634 162.126 82.9634 161.734C82.9634 160.755 84.3331 160.56 85.1158 160.364C86.0941 159.972 86.6811 159.776 87.8551 159.776C87.6595 159.385 87.0725 158.797 86.8768 158.21C86.6811 156.644 87.8551 154.881 88.0508 153.706C85.7028 153.315 83.1591 153.119 80.8111 152.727C76.3107 160.168 72.006 167.804 67.7013 175.441C64.3749 181.315 61.2442 186.993 58.7005 193.259C57.9179 194.825 57.5265 196.392 57.5265 198.937C57.5265 199.525 57.7222 200.308 57.7222 201.091C57.5265 201.679 56.7439 202.658 56.3525 203.441C53.6132 207.748 50.6781 212.056 47.7431 216.56C47.3518 217.147 46.7648 218.518 46.1778 218.518C45.7864 218.518 45.3951 218.126 45.3951 217.93C45.1994 217.343 46.1778 216.364 46.5691 215.581C49.3085 211.273 51.8522 207.357 54.7872 203.049C55.1785 202.462 55.9612 201.287 56.1569 200.895C56.3525 200.112 55.9612 199.329 55.9612 198.546C55.9612 193.259 58.7005 190.322 60.2659 186.21C57.5265 186.21 55.1785 186.014 53.2218 185.035C51.4608 184.252 50.0911 182.686 49.3085 180.923C48.3301 178.965 47.7431 176.42 48.3301 174.07C49.1128 170.35 50.8738 167.609 54.9828 167.217C54.0045 164.084 53.0262 158.993 54.9828 156.644C56.9395 154.294 61.2442 153.902 63.7879 152.14C65.1576 151.161 65.9403 149.986 66.9186 148.42C67.5056 147.441 68.2883 146.462 68.8753 145.287C69.071 144.895 69.4623 144.504 69.4623 144.112C69.4623 143.72 69.2666 143.133 69.2666 142.741C68.6796 139.413 68.2883 135.888 68.0926 132.168C64.5706 131.972 61.8312 131.581 59.8746 130.21C57.9179 128.839 57.1352 125.902 57.3309 122.574C57.5265 119.441 58.8962 117.483 61.0486 116.112C63.2009 114.741 65.9403 113.958 69.2666 114.154C71.0277 114.35 72.593 115.133 73.9627 116.112C75.3324 116.895 76.702 117.874 77.8761 118.853C79.8327 118.07 82.3764 117.091 85.1158 117.091C90.5945 117.091 95.2905 119.049 98.6169 121.399C100.182 122.574 102.335 124.14 102.139 126.881C101.943 127.86 101.552 128.644 101.161 129.427C100.769 130.21 100.378 130.993 99.5953 131.385C99.9866 132.168 99.9866 132.56 100.378 133.539C100.574 134.126 101.161 135.105 101.552 135.301C102.335 135.497 103.509 134.713 103.509 135.888C103.509 137.259 100.965 136.867 100.182 136.476C99.2039 135.692 98.6169 133.93 98.0299 132.364C97.2472 130.21 96.0732 128.448 94.1165 127.665C93.7252 128.056 93.5295 128.448 93.3339 128.839C94.1165 128.839 95.8775 128.644 95.8775 129.623C96.0732 130.993 93.7252 130.406 93.1382 130.602C92.3555 130.797 91.5728 131.581 91.1815 132.168C90.5945 132.951 90.0075 133.734 89.4205 134.518C87.6595 136.476 84.9201 138.042 82.5721 139.413C82.7678 139.609 83.1591 140 82.9634 140.392C82.5721 141.762 80.2241 140.196 78.8544 140.392C78.2674 140.588 77.8761 141.371 78.0717 142.154C78.2674 142.937 78.8544 143.916 79.6371 144.112C80.0284 144.308 81.2024 144.504 81.9851 144.504C82.9634 144.504 83.7461 144.504 83.9418 145.287C83.9418 145.874 83.5504 145.874 83.3548 146.266C83.1591 146.658 83.1591 147.049 82.9634 147.441C82.5721 148.616 82.3764 149.986 81.9851 151.161C84.3331 151.553 86.8768 151.748 89.2248 152.14C89.8118 150.965 90.2032 149.79 90.7902 148.616C90.2032 148.028 87.4638 147.832 87.4638 146.658C87.4638 145.091 89.2248 146.266 90.2032 146.462C92.1598 147.245 95.0949 147.832 97.2472 146.658C99.0082 145.679 99.9866 143.916 100.574 141.567C100.769 140.588 101.161 139.217 102.139 140C102.922 140.588 101.943 143.329 101.748 143.916C101.161 145.483 100.574 146.07 99.7909 146.853C98.2256 148.616 95.8775 149.399 92.5512 148.811C91.5728 150.769 90.5945 152.923 89.8118 155.273C89.6162 155.86 89.0292 157.035 89.2248 157.623C89.4205 158.406 90.9858 159.581 91.7685 159.776C92.5512 160.168 93.3339 160.168 94.1165 160.56C96.0732 161.343 98.2256 162.518 99.5953 164.28C100.965 166.042 101.943 168.588 102.922 170.741C105.857 177.399 108.792 184.448 111.531 191.497C114.466 190.322 118.184 189.734 121.314 188.755C123.271 184.448 125.228 178.965 127.38 174.658C127.967 173.287 128.946 171.329 129.924 170.546C131.881 168.979 136.381 169.567 138.533 170.741C138.925 170.937 139.316 171.133 139.707 171.525C141.077 171.72 142.447 172.112 143.425 173.091C144.599 174.462 144.012 177.399 142.447 177.79C141.664 177.986 140.881 177.79 139.903 178.182C140.099 178.574 140.49 178.965 140.49 179.748C140.49 180.923 138.729 181.902 137.946 182.686C136.772 183.665 135.794 184.448 134.816 185.035C134.229 188.56 133.837 192.084 131.685 194.238C132.076 194.042 132.663 194.042 133.25 193.846C133.642 193.651 134.229 193.063 134.62 192.672C137.555 189.734 140.686 186.993 144.012 184.252C145.773 182.881 147.73 180.923 149.882 179.944C151.056 179.357 152.621 179.161 154.187 179.161C156.143 179.161 159.274 179.357 159.47 181.315C159.47 182.294 158.491 183.273 157.709 183.665C156.143 184.448 153.991 184.056 152.426 184.644C151.839 184.839 151.447 185.427 150.86 185.818C153.013 185.623 155.165 185.623 156.339 186.797C157.122 187.581 157.709 188.951 158.1 190.126C158.491 191.497 159.078 193.063 158.883 194.434C158.687 196 157.904 197.175 157.122 198.154C157.122 199.525 156.535 200.699 155.556 200.699C154.774 200.699 153.6 199.72 153.013 199.133C152.817 198.937 152.426 198.546 152.034 198.154C151.839 197.958 151.252 197.175 151.056 197.175C150.86 197.175 150.273 197.958 149.882 198.35C147.925 200.308 146.164 201.679 143.621 203.049C142.251 203.832 141.077 204.42 138.925 204.224C138.533 204.224 137.946 204.028 137.751 204.028C137.359 204.028 136.577 204.616 136.185 204.811C130.902 207.944 125.619 211.077 119.945 214.014C117.792 214.993 115.444 216.168 112.901 216.364C109.183 216.56 105.465 215.581 103.509 213.818C102.726 213.035 101.943 211.86 101.161 210.686C99.0082 207.357 97.2472 204.224 95.0949 200.895C94.1165 201.287 92.9425 201.483 91.5728 201.287C90.9858 201.287 90.3988 200.895 90.0075 201.091C89.6162 201.091 89.2248 201.679 88.8335 202.07C87.8551 203.245 86.8768 204.224 85.8985 205.399C87.4638 209.902 89.0292 214.21 90.5945 218.713C90.7902 219.497 90.9858 220.28 90.0075 220.28C89.2248 220.28 89.0292 219.497 88.8335 218.713C87.4638 214.602 86.0941 210.881 84.5288 206.965C84.3331 206.378 83.9418 205.399 83.9418 205.007C83.9418 204.42 84.7244 203.832 85.1158 203.441C86.0941 202.462 86.8768 201.679 87.6595 200.699C88.0508 200.308 88.6378 199.525 89.0292 199.329C89.8118 199.133 90.5945 199.525 91.3772 199.525C92.1599 199.525 92.9425 199.72 93.7252 199.329C90.9858 194.63 88.2465 189.93 85.5071 185.231C84.3331 185.035 82.5721 185.623 82.5721 184.448C82.5721 183.469 83.5504 183.469 84.3331 183.665C84.9201 183.665 85.8985 183.469 86.2898 183.665C86.8768 183.86 87.0725 184.839 87.4638 185.427C91.5728 192.28 95.2905 198.741 99.3996 205.399C100.182 206.574 100.769 207.748 101.748 208.923C102.53 210.098 103.313 211.469 104.096 212.448C105.857 214.21 109.966 215.189 113.488 214.406C116.618 213.818 119.162 212.252 121.706 210.881C126.01 208.532 130.511 205.986 134.816 203.441C135.403 203.049 136.185 202.462 136.772 202.462C137.555 202.266 138.925 202.658 139.903 202.658C140.881 202.462 142.055 201.679 143.034 201.091C145.382 199.72 147.143 198.154 149.099 196C149.491 195.609 149.882 195.021 150.273 195.021C151.252 195.021 152.034 196.392 152.621 196.979C153.404 197.762 153.991 198.154 154.774 198.937C155.361 197.567 154.187 196.392 153.404 195.609C152.817 194.825 151.643 193.259 150.665 193.063C149.686 192.867 148.317 193.259 147.534 193.651C146.556 194.042 145.382 194.825 144.795 194.434C144.599 194.238 144.403 193.846 144.403 193.846C144.403 193.063 146.164 192.476 146.947 192.084C148.317 191.497 150.078 191.105 151.447 191.693C153.404 192.476 154.578 194.63 155.752 196.392C155.948 195.804 156.535 195.413 156.535 194.825C156.535 194.434 156.143 193.846 155.948 193.455C155.361 192.476 154.578 190.909 153.6 190.322C152.426 189.734 150.469 190.126 149.099 190.322C147.338 190.518 144.795 191.301 144.795 189.93C144.795 188.755 147.73 188.56 148.904 188.56C151.447 188.168 153.991 188.168 155.165 189.734C155.165 189.734 155.165 189.734 155.361 189.734C154.774 188.364 154.382 187.385 152.817 187.189C151.447 186.993 149.686 187.189 148.121 187.385C147.143 187.581 144.599 188.56 144.599 187.189C144.599 186.21 145.969 186.406 146.751 186.014C147.338 185.818 148.317 184.839 148.904 184.448C149.491 183.86 150.078 183.273 150.86 182.881C152.621 182.294 155.752 183.077 156.73 181.315ZM67.1143 115.916C62.2226 116.308 58.1135 118.07 58.3092 123.357C58.3092 124.923 58.7005 127.469 59.8746 128.644C61.4399 130.21 64.7663 130.21 67.7013 130.602C68.2883 124.923 71.8103 122.182 75.7237 119.832C73.5713 118.07 70.6363 115.72 67.1143 115.916ZM99.9866 126.49C99.9866 124.923 98.4212 123.748 97.4429 123.161C96.2689 122.182 95.0949 121.399 93.7252 120.811C91.1815 119.637 87.4638 118.658 83.7461 118.853C80.6154 119.049 78.0717 120.224 75.7237 121.399C72.593 123.357 69.4623 125.902 69.071 130.406C68.6796 134.518 69.2666 138.63 70.0493 142.35C70.245 143.133 70.4407 143.916 70.4407 144.7C70.4407 145.091 70.0493 145.483 69.8536 145.874C68.484 148.42 66.723 151.357 64.5706 153.119C63.3966 154.098 61.6356 154.881 59.8746 155.469C58.1135 156.056 56.1569 156.839 55.3742 158.014C54.5915 159.385 54.7872 161.93 55.1785 163.497C55.3742 164.084 55.5699 165.063 55.7655 165.846C55.9612 166.63 56.5482 167.609 56.3525 168.196C56.1569 168.783 54.7872 168.783 54.0045 168.979C53.0262 169.175 52.2435 169.567 51.6565 169.762C50.8738 170.154 50.2868 171.72 49.8955 172.504C48.1345 176.616 50.2868 181.511 53.0262 183.077C54.9828 184.252 57.7222 184.252 60.4616 184.448C63.3966 178.769 66.5273 173.091 69.658 167.609C72.006 163.497 74.354 159.189 76.702 155.273C77.4847 153.902 78.4631 152.532 79.0501 151.161C79.0501 151.161 79.0501 151.161 79.0501 150.965C79.6371 149.399 79.8327 147.441 80.4197 145.874C77.4847 145.874 74.5497 143.329 75.528 140.392C75.7237 139.804 76.115 139.413 76.3107 138.825C75.528 137.063 75.3324 134.518 75.528 131.972C75.528 130.993 75.528 130.014 76.5064 130.014C77.289 130.014 77.2891 130.993 77.0934 131.581C76.702 134.126 77.0934 136.476 77.8761 138.238C78.2674 138.238 78.6587 138.238 79.0501 138.238C81.9851 136.476 85.3115 135.105 87.6595 131.972C89.2248 130.014 90.7902 127.469 92.1598 125.315C92.5512 124.532 93.1382 123.357 93.9209 123.357C95.2905 123.357 94.1165 125.315 93.9209 125.706C95.6819 126.294 96.6602 127.86 97.6386 129.427C98.8126 128.839 99.9866 128.056 99.9866 126.49ZM131.685 171.72C129.924 171.916 129.533 172.895 128.75 174.07C126.206 178.378 124.445 183.077 122.488 187.972C122.097 188.755 121.901 189.93 121.51 190.322C120.923 190.713 119.749 190.909 118.966 191.105C117.988 191.301 117.205 191.693 116.423 191.888C114.466 192.476 113.096 192.867 111.14 193.259C111.727 195.217 112.509 196.979 113.292 198.741C117.401 197.762 121.314 196.588 125.228 195.609C125.815 195.413 126.402 195.413 126.989 195.217C127.38 195.021 127.772 194.63 127.967 194.434C128.946 193.651 130.12 192.476 130.707 191.497C131.489 189.93 131.685 188.168 131.881 186.21C131.881 185.623 132.076 184.839 132.272 184.252C132.468 183.86 133.25 183.469 133.642 183.077C135.207 181.902 136.577 180.727 137.751 179.553C137.555 179.161 137.164 178.574 136.577 178.574C136.185 178.574 135.207 178.965 134.62 179.161C133.25 179.553 132.272 180.14 130.902 180.532C130.12 180.923 128.359 181.706 128.359 180.336C128.359 179.748 128.946 179.553 129.337 179.357C129.728 178.182 129.924 177.399 130.315 176.224C130.511 175.441 130.902 173.679 131.685 173.287C132.076 173.091 132.663 173.287 133.25 173.287C134.816 173.483 136.577 173.874 137.946 173.287C136.577 172.112 133.837 171.525 131.685 171.72ZM139.707 173.679C139.12 176.028 135.011 175.441 132.663 175.049C132.272 176.224 131.685 177.399 131.489 178.574C132.859 178.182 134.424 177.203 136.185 177.007C137.164 176.811 137.751 176.811 138.729 176.616C140.099 176.42 141.077 176.42 141.468 175.441C141.273 174.266 140.49 173.874 139.707 173.679Z" fill="black"/>
<path fill-rule="evenodd" clip-rule="evenodd" d="M94.5079 141.175C94.7036 141.958 95.0949 142.546 95.6819 143.133C96.0732 143.329 96.4646 143.72 96.4646 144.112C96.4646 144.504 96.0732 144.895 95.8776 144.895C94.8992 145.091 94.1166 143.72 93.5296 143.133C92.9425 142.35 92.5512 140.979 92.7469 140C92.7469 139.217 93.1382 138.238 94.1166 138.434C94.8992 138.63 95.4862 140 95.8776 140.392C96.8559 141.175 98.6169 141.371 98.6169 142.154C98.8126 143.916 96.4646 142.546 96.0732 142.35C95.4862 141.958 95.0949 141.567 94.5079 141.175Z" fill="black"/>
<path fill-rule="evenodd" clip-rule="evenodd" d="M79.2458 141.567C80.0284 141.371 82.3764 141.371 82.1808 142.35C82.1808 142.937 81.5938 142.937 80.8111 142.937C79.8328 142.937 78.6588 143.133 78.6588 142.35C78.6588 141.567 78.8544 141.567 79.2458 141.567Z" fill="black"/>
<path d="M128.75 208.336C128.358 208.336 127.967 208.14 127.967 207.748C127.771 207.357 128.163 206.769 128.554 206.769C129.728 206.378 130.707 204.028 130.315 201.091C130.119 199.329 129.141 197.762 128.163 196.979C127.771 196.783 127.38 196.587 126.989 196.783C126.597 196.979 126.01 196.587 126.01 196.196C125.815 195.804 126.206 195.217 126.597 195.217C127.38 195.021 128.163 195.217 128.945 195.608C130.315 196.587 131.294 198.545 131.685 200.699C132.272 204.42 130.902 207.748 128.75 208.14C128.946 208.336 128.75 208.336 128.75 208.336Z" fill="black"/>
<path d="M122.097 197.958C121.706 197.958 121.314 197.566 121.314 197.175C121.314 196.587 121.119 196 121.119 195.412C120.727 193.65 119.749 192.084 118.575 191.496C118.184 191.301 117.792 191.301 117.401 191.301C117.01 191.496 116.423 191.301 116.423 190.713C116.227 190.321 116.423 189.734 117.01 189.734C117.792 189.538 118.575 189.538 119.553 189.93C121.119 190.713 122.293 192.475 122.88 194.825C123.075 195.608 123.075 196.196 123.271 196.979C122.88 197.566 122.488 197.958 122.097 197.958Z" fill="black"/>
<path fill-rule="evenodd" clip-rule="evenodd" d="M93.3338 132.364C93.9208 132.168 94.7035 132.559 94.8992 133.343L95.2905 134.909C95.4862 135.496 95.0948 136.28 94.3121 136.476C93.7251 136.671 92.9425 136.28 92.7468 135.496L92.3555 133.93C92.1598 133.147 92.5511 132.559 93.3338 132.364Z" fill="black"/>
<path fill-rule="evenodd" clip-rule="evenodd" d="M12.3271 215.385H257.304C259.456 215.385 261.217 217.147 261.217 219.301C261.217 221.455 259.456 223.217 257.304 223.217H12.3271C10.1747 223.217 8.41373 221.455 8.41373 219.301C8.41373 217.147 10.1747 215.385 12.3271 215.385Z" fill="white"/>
<path d="M257.304 224H12.3271C9.78343 224 7.63107 221.846 7.63107 219.301C7.63107 216.755 9.78343 214.602 12.3271 214.602H257.304C259.848 214.602 262 216.755 262 219.301C262 221.846 259.848 224 257.304 224ZM12.3271 216.168C10.5661 216.168 9.19642 217.539 9.19642 219.301C9.19642 221.063 10.5661 222.434 12.3271 222.434H257.304C259.065 222.434 260.435 221.063 260.435 219.301C260.435 217.539 259.065 216.168 257.304 216.168H12.3271Z" fill="black"/>
<path fill-rule="evenodd" clip-rule="evenodd" d="M34.4377 129.035L42.0687 136.671L40.3077 138.434L32.6766 130.797L34.4377 129.035Z" fill="#FF645A"/>
<path fill-rule="evenodd" clip-rule="evenodd" d="M40.3077 129.035L42.0687 130.797L34.4377 138.434L32.6766 136.671L40.3077 129.035Z" fill="#FF645A"/>
<path d="M50.6781 41.5105H38.938V56.979H50.6781V41.5105Z" fill="white"/>
<path d="M32.2853 69.3147C31.5026 69.3147 30.9156 68.9231 30.5243 68.1398C30.3286 67.944 27.7849 61.2867 30.5243 55.6084C31.6983 53.0629 33.8506 51.3007 36.59 49.9301C36.3943 48.3636 36.3943 46.4056 37.3727 44.4475C39.3293 40.1398 43.047 39.3566 47.3518 38.5734C48.7214 38.3776 50.2868 37.986 51.8521 37.5944C55.5698 36.6154 54.9828 31.5245 54.9828 31.3287C54.9828 30.937 54.9828 30.3496 55.3742 29.958C55.7655 29.5664 56.1568 29.3706 56.5482 29.1748H56.7438C57.7222 29.1748 58.5049 29.7622 58.7005 30.7412C59.0919 33.6783 58.5049 39.7482 52.8305 41.3147C51.2651 41.7063 49.6998 42.0979 48.3301 42.2937C44.4167 43.0769 42.2644 43.4685 41.0904 46.014C40.699 46.7972 40.699 47.7762 40.699 48.5594C41.4817 48.3636 42.2644 48.3636 42.8514 48.3636C45.5907 48.3636 47.1561 49.5384 47.9388 50.5175C49.3084 52.0839 49.8954 54.2377 49.1128 56.1958C48.5258 57.958 47.1561 58.937 45.3951 59.1329C45.1994 59.1329 45.0037 59.1329 44.6124 59.1329C42.6557 59.1329 40.699 57.958 39.3293 56C38.7423 55.2168 38.351 54.4335 37.9597 53.4545C36.1986 54.4335 35.0246 55.6084 34.242 56.979C32.0896 61.0909 34.242 66.3776 34.242 66.3776C34.6333 67.3566 34.242 68.5315 33.2636 68.9231C32.8723 69.3147 32.481 69.3147 32.2853 69.3147ZM41.286 52.4755C41.4817 53.0629 41.873 53.6503 42.2644 54.0419C42.6557 54.4336 43.634 55.6084 44.6124 55.6084H44.8081C45.1994 55.6084 45.3951 55.4126 45.5907 55.021C45.7864 54.4336 45.5907 53.6503 45.1994 53.2587C44.8081 52.8671 44.2211 52.4755 42.8514 52.4755C42.2644 52.2797 41.6774 52.2797 41.286 52.4755Z" fill="black"/>
<path d="M56.7438 30.1538C57.3308 30.1538 57.7222 30.5454 57.9179 31.1329C58.3092 33.8741 57.7222 39.5524 52.6348 40.9231C50.8738 41.3147 49.3084 41.7063 47.9388 41.9021C44.0254 42.6853 41.4817 43.0769 40.3077 46.014C39.7207 47.3846 39.7207 48.7552 39.9164 49.9301H40.112C41.0904 49.7343 42.0687 49.5384 42.8514 49.5384C45.1994 49.5384 46.7648 50.5175 47.3518 51.3007C48.5258 52.6713 48.9171 54.6294 48.3301 56.1958C47.7431 57.5664 46.5691 58.5454 45.1994 58.7412C45.0037 58.7412 44.8081 58.7412 44.6124 58.7412C42.8514 58.7412 41.286 57.7622 39.9164 56C39.3294 55.021 38.7423 54.0419 38.351 52.8671C36.1987 53.8461 34.4376 55.2168 33.655 57.1748C31.5026 61.6783 33.655 67.1608 33.655 67.3566C33.8506 67.944 33.655 68.5315 33.068 68.7273C32.8723 68.7273 32.8723 68.7273 32.6766 68.7273C32.2853 68.7273 31.894 68.5315 31.6983 67.944C31.5026 67.7482 29.1546 61.4825 31.6983 56C32.8723 53.4545 35.0246 51.6923 37.9597 50.5175C37.764 48.951 37.5683 46.993 38.5467 45.035C40.3077 41.1189 43.6341 40.3357 47.9388 39.5524C49.3084 39.3566 50.8738 38.965 52.4391 38.5734C56.9395 37.3986 56.1568 31.5245 56.1568 31.3287C55.3742 30.7412 55.9612 30.1538 56.7438 30.1538C56.5482 30.1538 56.5482 30.1538 56.7438 30.1538ZM44.4167 56.3916C44.6124 56.3916 44.6124 56.3916 44.8081 56.3916C45.3951 56.3916 45.9821 56 46.1777 55.4126C46.5691 54.6294 46.1777 53.4545 45.5907 52.8671C45.1994 52.2797 44.2211 51.6923 42.6557 51.6923C42.0687 51.6923 41.286 51.8881 40.5034 52.0839H40.3077C40.699 53.0629 41.0904 53.8461 41.6774 54.6294C42.0687 55.2168 43.2427 56.3916 44.4167 56.3916ZM56.7438 28.5874C56.5482 28.5874 56.5482 28.5874 56.3525 28.5874C55.5698 28.7832 54.9828 28.979 54.5915 29.5664C54.2002 30.1538 54.0045 30.7412 54.0045 31.5245C54.0045 31.7203 54.5915 36.2238 51.4608 37.007C49.8954 37.3986 48.5258 37.5944 47.1561 37.986C42.8514 38.7692 38.7424 39.5524 36.59 44.2517C35.8073 46.014 35.6117 47.972 35.8073 49.5384C33.2636 50.9091 31.3069 52.8671 29.9373 55.2168C27.0022 61.2867 29.7416 68.1398 29.7416 68.3357C30.1329 69.3147 31.1113 69.9021 32.2853 69.9021C32.6766 69.9021 32.8723 69.9021 33.2636 69.7063C34.6333 69.1189 35.2203 67.5524 34.6333 66.1818C34.6333 66.1818 32.6766 61.0909 34.6333 57.3706C35.2203 56.1958 36.003 55.2168 37.3727 54.4336C37.764 55.2168 38.1553 55.8042 38.5467 56.3916C40.112 58.5454 42.2644 59.7203 44.4167 59.7203C44.6124 59.7203 45.0037 59.7203 45.1994 59.7203C47.3518 59.5245 48.9171 58.1538 49.6998 56.1958C50.4825 54.0419 49.8954 51.4965 48.3301 49.7343C47.3518 48.7552 45.5907 47.3846 42.6557 47.3846C42.2644 47.3846 41.6774 47.3846 41.286 47.5804C41.286 47.1888 41.4817 46.6014 41.6774 46.2098C42.6557 44.0559 44.0254 43.6643 48.3301 42.8811C49.6998 42.6853 51.4608 42.2937 53.0261 41.9021C59.0919 40.3357 59.8745 33.6783 59.4832 30.5454C59.0919 29.5664 57.9179 28.5874 56.7438 28.5874ZM42.4601 53.0629C42.4601 53.0629 42.6557 53.0629 42.4601 53.0629C43.6341 53.0629 44.2211 53.4545 44.4167 53.6503C44.8081 54.0419 44.8081 54.4336 44.8081 54.6294C44.8081 54.6294 44.8081 54.6294 44.6124 54.6294C44.0254 54.6294 43.4384 54.2377 42.8514 53.4545C42.6557 53.4545 42.6557 53.2587 42.4601 53.0629Z" fill="white"/>
<path d="M73.9626 47.972L68.8752 46.6014L72.5929 42.8811C72.5929 42.8811 73.9626 47.972 73.9626 47.972ZM69.0709 46.6014L73.9626 47.972L72.5929 43.0769L69.0709 46.6014Z" fill="#BA9BC9"/>
<path d="M73.9627 48.5594L68.6796 47.1888C68.4839 47.1888 68.2883 46.993 68.0926 46.6014C68.0926 46.4056 68.0926 46.014 68.2883 45.8182L72.006 42.0979C72.2016 41.9021 72.3973 41.9021 72.7886 41.9021C72.9843 41.9021 73.18 42.0979 73.3756 42.4895L74.7453 47.5804C74.7453 47.7762 74.7453 48.1678 74.5497 48.3636C74.354 48.5594 74.1583 48.5594 73.9627 48.5594ZM70.4406 46.2098L72.9843 46.7972L72.3973 44.2518L70.4406 46.2098Z" fill="#FF645A"/>
<path fill-rule="evenodd" clip-rule="evenodd" d="M37.764 8.41968C40.8947 8.41968 43.4384 10.9651 43.4384 14.098C43.4384 17.2309 40.8947 19.7763 37.764 19.7763C34.6333 19.7763 32.0896 17.2309 32.0896 14.098C32.2853 10.7693 34.6333 8.41968 37.764 8.41968Z" fill="#FF645A"/>
</svg>
