<svg width="270" height="215" viewBox="0 0 270 215" fill="none" xmlns="http://www.w3.org/2000/svg">
<path fill-rule="evenodd" clip-rule="evenodd" d="M9.49136 150.97C8.72848 150.97 7.96559 151.789 7.96559 152.609C7.96559 153.428 8.72848 154.247 9.49136 154.247C10.2542 154.247 11.0171 153.428 11.0171 152.609C11.0171 151.585 10.2542 150.97 9.49136 150.97Z" fill="black"/>
<path fill-rule="evenodd" clip-rule="evenodd" d="M14.6409 150.97C13.878 150.97 13.1151 151.789 13.1151 152.609C13.1151 153.428 13.878 154.247 14.6409 154.247C15.4037 154.247 16.1666 153.428 16.1666 152.609C16.1666 151.585 15.4037 150.97 14.6409 150.97Z" fill="black"/>
<path fill-rule="evenodd" clip-rule="evenodd" d="M19.7903 150.97C19.0274 150.97 18.2645 151.789 18.2645 152.609C18.2645 153.428 19.0274 154.247 19.7903 154.247C20.5532 154.247 21.316 153.428 21.316 152.609C21.316 151.585 20.7439 150.97 19.7903 150.97Z" fill="black"/>
<path fill-rule="evenodd" clip-rule="evenodd" d="M19.7903 150.97C19.0274 150.97 18.2645 151.789 18.2645 152.609C18.2645 153.428 19.0274 154.247 19.7903 154.247C20.5532 154.247 21.316 153.428 21.316 152.609C21.316 151.585 20.7439 150.97 19.7903 150.97Z" fill="black"/>
<path fill-rule="evenodd" clip-rule="evenodd" d="M25.1304 150.97C24.3675 150.97 23.6046 151.789 23.6046 152.609C23.6046 153.428 24.3675 154.247 25.1304 154.247C25.8933 154.247 26.6561 153.428 26.6561 152.609C26.6561 151.585 25.8933 150.97 25.1304 150.97Z" fill="black"/>
<path fill-rule="evenodd" clip-rule="evenodd" d="M30.2798 150.97C29.5169 150.97 28.754 151.789 28.754 152.609C28.754 153.428 29.5169 154.247 30.2798 154.247C31.0427 154.247 31.8055 153.428 31.8055 152.609C31.8055 151.585 31.2334 150.97 30.2798 150.97Z" fill="black"/>
<path fill-rule="evenodd" clip-rule="evenodd" d="M35.62 150.97C34.8571 150.97 34.0942 151.79 34.0942 152.609C34.0942 153.429 34.8571 154.248 35.62 154.248C36.3829 154.248 37.1458 153.429 37.1458 152.609C37.1458 151.585 36.3829 150.97 35.62 150.97Z" fill="black"/>
<path fill-rule="evenodd" clip-rule="evenodd" d="M9.49136 150.97C8.72848 150.97 7.96559 151.789 7.96559 152.609C7.96559 153.428 8.72848 154.247 9.49136 154.247C10.2542 154.247 11.0171 153.428 11.0171 152.609C11.0171 151.585 10.2542 150.97 9.49136 150.97Z" fill="black"/>
<path fill-rule="evenodd" clip-rule="evenodd" d="M14.6409 150.97C13.878 150.97 13.1151 151.789 13.1151 152.609C13.1151 153.428 13.878 154.247 14.6409 154.247C15.4037 154.247 16.1666 153.428 16.1666 152.609C16.1666 151.585 15.4037 150.97 14.6409 150.97Z" fill="black"/>
<path fill-rule="evenodd" clip-rule="evenodd" d="M19.7903 150.97C19.0274 150.97 18.2645 151.789 18.2645 152.609C18.2645 153.428 19.0274 154.247 19.7903 154.247C20.5532 154.247 21.316 153.428 21.316 152.609C21.316 151.585 20.7439 150.97 19.7903 150.97Z" fill="black"/>
<path fill-rule="evenodd" clip-rule="evenodd" d="M19.7903 150.97C19.0274 150.97 18.2645 151.789 18.2645 152.609C18.2645 153.428 19.0274 154.247 19.7903 154.247C20.5532 154.247 21.316 153.428 21.316 152.609C21.316 151.585 20.7439 150.97 19.7903 150.97Z" fill="black"/>
<path fill-rule="evenodd" clip-rule="evenodd" d="M25.1304 150.97C24.3675 150.97 23.6046 151.789 23.6046 152.609C23.6046 153.428 24.3675 154.247 25.1304 154.247C25.8933 154.247 26.6561 153.428 26.6561 152.609C26.6561 151.585 25.8933 150.97 25.1304 150.97Z" fill="black"/>
<path fill-rule="evenodd" clip-rule="evenodd" d="M30.2798 150.97C29.5169 150.97 28.754 151.789 28.754 152.609C28.754 153.428 29.5169 154.247 30.2798 154.247C31.0427 154.247 31.8055 153.428 31.8055 152.609C31.8055 151.585 31.2334 150.97 30.2798 150.97Z" fill="black"/>
<path fill-rule="evenodd" clip-rule="evenodd" d="M35.62 150.97C34.8571 150.97 34.0942 151.79 34.0942 152.609C34.0942 153.429 34.8571 154.248 35.62 154.248C36.3829 154.248 37.1458 153.429 37.1458 152.609C37.1458 151.585 36.3829 150.97 35.62 150.97Z" fill="black"/>
<path fill-rule="evenodd" clip-rule="evenodd" d="M9.49136 156.501C8.72848 156.501 7.96559 157.32 7.96559 158.139C7.96559 158.959 8.72848 159.778 9.49136 159.778C10.2542 159.778 11.0171 158.959 11.0171 158.139C11.0171 157.32 10.2542 156.501 9.49136 156.501Z" fill="black"/>
<path fill-rule="evenodd" clip-rule="evenodd" d="M14.6409 156.501C13.878 156.501 13.1151 157.32 13.1151 158.139C13.1151 158.959 13.878 159.778 14.6409 159.778C15.4037 159.778 16.1666 158.959 16.1666 158.139C16.1666 157.32 15.4037 156.501 14.6409 156.501Z" fill="black"/>
<path fill-rule="evenodd" clip-rule="evenodd" d="M19.7903 156.501C19.0274 156.501 18.2645 157.32 18.2645 158.139C18.2645 158.959 19.0274 159.778 19.7903 159.778C20.5532 159.778 21.316 158.959 21.316 158.139C21.316 157.32 20.7439 156.501 19.7903 156.501Z" fill="black"/>
<path fill-rule="evenodd" clip-rule="evenodd" d="M19.7903 156.501C19.0274 156.501 18.2645 157.32 18.2645 158.139C18.2645 158.959 19.0274 159.778 19.7903 159.778C20.5532 159.778 21.316 158.959 21.316 158.139C21.316 157.32 20.7439 156.501 19.7903 156.501Z" fill="black"/>
<path fill-rule="evenodd" clip-rule="evenodd" d="M25.1304 156.501C24.3675 156.501 23.6046 157.32 23.6046 158.139C23.6046 158.959 24.3675 159.778 25.1304 159.778C25.8933 159.778 26.6561 158.959 26.6561 158.139C26.6561 157.32 25.8933 156.501 25.1304 156.501Z" fill="black"/>
<path fill-rule="evenodd" clip-rule="evenodd" d="M30.2798 156.501C29.5169 156.501 28.754 157.32 28.754 158.139C28.754 158.959 29.5169 159.778 30.2798 159.778C31.0427 159.778 31.8055 158.959 31.8055 158.139C31.8055 157.32 31.2334 156.501 30.2798 156.501Z" fill="black"/>
<path fill-rule="evenodd" clip-rule="evenodd" d="M35.62 156.501C34.8571 156.501 34.0942 157.32 34.0942 158.139C34.0942 158.959 34.8571 159.778 35.62 159.778C36.3829 159.778 37.1458 158.959 37.1458 158.139C37.1458 157.32 36.3829 156.501 35.62 156.501Z" fill="black"/>
<path fill-rule="evenodd" clip-rule="evenodd" d="M45.728 11.676H45.1559C44.0116 11.676 43.058 12.7002 43.058 13.9293V85.8295C43.058 87.0586 44.0116 88.0828 45.1559 88.0828H45.728C46.8723 88.0828 47.8259 87.0586 47.8259 85.8295V13.7245C47.8259 12.7002 46.8723 11.676 45.728 11.676Z" fill="white"/>
<path d="M45.156 88.4926H45.7281C47.2539 88.4926 48.3982 87.2635 48.3982 85.6247V13.9293C48.3982 12.2906 47.2539 11.0615 45.7281 11.0615H45.156C43.6302 11.0615 42.4859 12.2906 42.4859 13.9293V85.8296C42.4859 87.2635 43.6302 88.4926 45.156 88.4926ZM45.7281 12.4954C46.491 12.4954 47.0632 13.11 47.0632 13.9293V85.8296C47.0632 86.649 46.491 87.2635 45.7281 87.2635H45.156C44.3931 87.2635 43.8209 86.649 43.8209 85.8296V13.9293C43.8209 13.11 44.3931 12.4954 45.156 12.4954H45.7281Z" fill="black"/>
<path fill-rule="evenodd" clip-rule="evenodd" d="M47.254 48.9578L43.2488 48.1384L42.8674 83.7813L43.6303 87.4685L45.7282 87.6733L47.254 86.6491L48.0168 83.3716L47.254 48.9578Z" fill="black"/>
<path fill-rule="evenodd" clip-rule="evenodd" d="M47.4447 51.8256C48.589 51.8256 49.5426 50.8014 49.5426 49.5723V45.4755C49.5426 44.2464 48.589 43.2222 47.4447 43.2222H43.6303C42.486 43.2222 41.5324 44.2464 41.5324 45.4755V49.5723C41.5324 50.8014 42.486 51.8256 43.6303 51.8256H47.4447Z" fill="#FF645A"/>
<path d="M43.6301 44.0413C42.8673 44.0413 42.2951 44.6559 42.2951 45.4752V49.5721C42.2951 50.3915 42.8673 51.006 43.6301 51.006H47.4445C48.2074 51.006 48.7796 50.3915 48.7796 49.5721V45.4752C48.7796 44.6559 48.2074 44.0413 47.4445 44.0413H43.6301ZM43.6301 42.4026H47.4445C48.9703 42.4026 50.1146 43.6317 50.1146 45.2704V49.3673C50.1146 51.006 48.9703 52.2351 47.4445 52.2351H43.6301C42.1044 52.2351 40.9601 51.006 40.9601 49.3673V45.2704C40.7693 43.8365 42.1044 42.4026 43.6301 42.4026Z" fill="black"/>
<path fill-rule="evenodd" clip-rule="evenodd" d="M31.9963 11.676H31.4242C30.2798 11.676 29.3262 12.7002 29.3262 13.9293V85.8295C29.3262 87.0586 30.2798 88.0828 31.4242 88.0828H31.9963C33.1406 88.0828 34.0942 87.0586 34.0942 85.8295V13.7245C34.0942 12.7002 33.1406 11.676 31.9963 11.676Z" fill="white"/>
<path d="M31.424 88.4926H31.9962C33.5219 88.4926 34.6663 87.2635 34.6663 85.6247V13.9293C34.6663 12.2906 33.5219 11.0615 31.9962 11.0615H31.424C29.8983 11.0615 28.754 12.2906 28.754 13.9293V85.8296C28.754 87.2635 29.8983 88.4926 31.424 88.4926ZM31.9962 12.4954C32.7591 12.4954 33.3312 13.11 33.3312 13.9293V85.8296C33.3312 86.649 32.7591 87.2635 31.9962 87.2635H31.424C30.6611 87.2635 30.089 86.649 30.089 85.8296V13.9293C30.089 13.11 30.6611 12.4954 31.424 12.4954H31.9962Z" fill="black"/>
<path fill-rule="evenodd" clip-rule="evenodd" d="M33.5219 35.0284L29.5168 34.209L29.1354 83.7812L29.8982 87.4684L31.9962 87.6733L33.5219 86.649L34.2848 83.3715L33.5219 35.0284Z" fill="black"/>
<path fill-rule="evenodd" clip-rule="evenodd" d="M33.7126 36.4621C34.857 36.4621 35.8105 35.4379 35.8105 34.2088V30.1119C35.8105 28.8829 34.857 27.8586 33.7126 27.8586H29.8982C28.7539 27.8586 27.8003 28.8829 27.8003 30.1119V34.2088C27.8003 35.4379 28.7539 36.4621 29.8982 36.4621H33.7126Z" fill="#FF645A"/>
<path d="M29.8984 28.6778C29.1355 28.6778 28.5633 29.2923 28.5633 30.1117V34.2086C28.5633 35.028 29.1355 35.6425 29.8984 35.6425H33.7127C34.4756 35.6425 35.0478 35.028 35.0478 34.2086V30.1117C35.0478 29.2923 34.4756 28.6778 33.7127 28.6778H29.8984ZM29.8984 27.2439H33.7127C35.2385 27.2439 36.3828 28.473 36.3828 30.1117V34.2086C36.3828 35.8473 35.2385 37.0764 33.7127 37.0764H29.8984C28.3726 37.0764 27.2283 35.8473 27.2283 34.2086V30.1117C27.0376 28.6778 28.3726 27.2439 29.8984 27.2439Z" fill="black"/>
<path fill-rule="evenodd" clip-rule="evenodd" d="M59.6505 11.676H59.0783C57.934 11.676 56.9804 12.7002 56.9804 13.9293V85.8295C56.9804 87.0586 57.934 88.0828 59.0783 88.0828H59.6505C60.7948 88.0828 61.7484 87.0586 61.7484 85.8295V13.7245C61.5577 12.7002 60.6041 11.676 59.6505 11.676Z" fill="white"/>
<path d="M58.8877 88.4926H59.4598C60.9856 88.4926 62.1299 87.2635 62.1299 85.6247V13.9293C62.1299 12.2906 60.9856 11.0615 59.4598 11.0615H58.8877C57.3619 11.0615 56.2176 12.2906 56.2176 13.9293V85.8296C56.2176 87.2635 57.3619 88.4926 58.8877 88.4926ZM59.6505 12.4954C60.4134 12.4954 60.9856 13.11 60.9856 13.9293V85.8296C60.9856 86.649 60.4134 87.2635 59.6505 87.2635H59.0784C58.3155 87.2635 57.7433 86.649 57.7433 85.8296V13.9293C57.7433 13.11 58.3155 12.4954 59.0784 12.4954H59.6505Z" fill="black"/>
<path fill-rule="evenodd" clip-rule="evenodd" d="M60.9855 69.2371L56.9804 68.4177L56.599 83.781L57.3619 87.4682L59.4598 87.6731L60.9855 86.6488L61.7484 83.3713L60.9855 69.2371Z" fill="black"/>
<path fill-rule="evenodd" clip-rule="evenodd" d="M61.1762 72.1052C62.3206 72.1052 63.2742 71.0809 63.2742 69.8519V65.755C63.2742 64.5259 62.3206 63.5017 61.1762 63.5017H57.3619C56.2175 63.5017 55.2639 64.5259 55.2639 65.755V69.8519C55.2639 71.0809 56.2175 72.1052 57.3619 72.1052H61.1762Z" fill="#FF645A"/>
<path d="M57.362 64.3209C56.5991 64.3209 56.027 64.9354 56.027 65.7548V69.8517C56.027 70.671 56.5991 71.2856 57.362 71.2856H61.1764C61.9392 71.2856 62.5114 70.671 62.5114 69.8517V65.7548C62.5114 64.9354 61.9392 64.3209 61.1764 64.3209H57.362ZM57.362 62.887H61.1764C62.7021 62.887 63.8464 64.116 63.8464 65.7548V69.8517C63.8464 71.4904 62.7021 72.7195 61.1764 72.7195H57.362C55.8362 72.7195 54.6919 71.4904 54.6919 69.8517V65.7548C54.6919 64.116 55.8362 62.887 57.362 62.887Z" fill="black"/>
<path fill-rule="evenodd" clip-rule="evenodd" d="M123.732 147.897C123.732 147.897 114.578 131.919 110.191 126.389C105.805 120.653 104.47 119.014 102.944 117.375C101.418 115.737 97.9852 113.279 97.9852 113.279C97.9852 113.279 100.846 110.616 101.8 109.591C102.753 108.567 103.707 106.928 103.707 106.928C103.707 106.928 107.903 109.387 111.145 107.953C114.578 106.519 116.866 104.675 116.676 101.398C116.485 98.1201 114.768 94.8426 114.768 94.8426C114.768 94.8426 118.392 93.2038 118.774 89.9263C119.155 86.6488 118.774 85.4198 115.722 82.3471C112.48 79.2745 109.047 69.0323 108.284 62.4773C107.712 55.9222 108.093 41.5832 106.186 38.9202C104.279 36.2572 96.8408 30.9313 91.6914 33.1846C86.3512 35.4378 78.9132 38.1008 78.1503 39.125C77.3874 40.3541 76.0524 41.3783 77.006 42.8122C77.9596 44.2461 80.2482 46.0897 80.2482 46.0897C80.2482 46.0897 81.2018 49.9818 79.8668 52.0302C78.5317 54.0786 78.341 54.898 78.341 54.898C78.341 54.898 80.2482 61.8627 83.8719 62.4773C87.4956 63.0918 88.0677 63.0918 88.0677 63.0918L89.4028 68.008C89.4028 68.008 84.6348 72.5146 81.0111 73.9485C77.3874 75.3824 73.0009 77.4309 72.6194 80.0938C72.238 82.7568 72.8102 85.4198 72.8102 85.4198L68.805 89.3118C68.805 89.3118 62.5113 85.2149 57.934 72.7194C54.6918 63.9112 53.3567 54.898 50.6867 49.9818C47.8259 44.6558 45.9187 45.68 45.9187 47.3188C45.9187 48.9575 48.0166 52.2351 48.0166 52.2351L48.9702 56.7416C48.9702 56.7416 42.4857 56.9465 42.295 60.0191C42.1043 63.0918 42.1043 67.1887 43.4393 68.008C44.7744 68.8274 46.4908 69.0323 46.4908 69.0323C46.4908 69.0323 46.1094 74.1534 47.8259 74.563C49.5423 74.9727 50.6867 75.5873 50.6867 75.5873C50.6867 75.5873 54.6918 90.9506 57.3619 97.7104C60.0319 104.47 62.1299 107.953 66.5164 107.748C70.903 107.543 76.4338 103.036 76.4338 103.036C76.4338 103.036 76.0524 109.591 77.5782 110.82C79.1039 112.049 80.2482 114.098 80.2482 114.098C80.2482 114.098 65.9442 134.582 57.3619 160.802C48.7795 187.022 44.2022 200.747 44.2022 200.747L124.686 203.205L123.732 147.897Z" fill="white"/>
<path fill-rule="evenodd" clip-rule="evenodd" d="M76.0524 103.242C76.0524 103.242 75.671 108.567 76.8153 110.001C77.9596 111.435 80.0575 113.074 80.0575 113.074L97.2223 112.664C97.2223 112.664 103.516 109.797 103.325 104.061C103.135 98.5301 103.325 75.5876 101.037 73.744C98.5573 72.1052 92.8358 69.4422 88.0678 72.5149C83.2998 75.5876 67.8515 89.3121 67.8515 89.3121L65.1814 85.6249C65.1814 85.6249 64.0371 89.517 60.6041 90.746C57.1712 91.9751 55.0733 91.3605 55.0733 91.3605C55.0733 91.3605 57.5526 102.627 60.6041 104.88C63.6556 107.134 67.0886 107.543 70.1401 106.314C73.0009 105.29 76.0524 103.242 76.0524 103.242Z" fill="black"/>
<path fill-rule="evenodd" clip-rule="evenodd" d="M79.2946 46.9096C79.2946 48.5484 79.4853 50.1871 79.2946 51.621C79.1039 52.6453 78.5317 53.8743 77.7688 54.284C77.1967 54.6937 76.2431 54.4889 76.2431 55.5131C76.4338 57.1518 78.1503 56.1276 78.7224 55.7179C79.676 55.1034 80.6296 53.6695 81.0111 52.0307C81.3925 50.392 80.6296 47.9339 81.2018 46.2951C81.5832 45.2709 82.3461 44.6563 82.7275 44.0418C83.2997 44.8612 83.6811 45.8854 84.2533 46.7048C83.4904 46.9096 82.5368 46.7048 82.3461 47.5242C82.1554 48.9581 84.0626 48.3435 85.2069 48.3435C86.5419 50.392 89.0213 53.0549 90.7378 54.8985C91.3099 55.5131 92.0728 56.7421 92.8357 56.7421C93.2171 56.7421 93.4078 56.3325 93.7893 56.3325C94.7429 56.1276 96.4593 56.5373 96.2686 55.3082C96.2686 54.284 94.9336 54.6937 93.98 54.8985C93.98 54.284 94.3614 54.284 94.7429 54.0792C95.1243 53.6695 95.5058 53.2598 95.6965 53.2598C96.4594 53.2598 96.8408 54.4889 96.8408 55.3082C96.8408 56.1276 96.0779 57.1518 95.5057 57.5615C94.3614 58.3809 92.645 57.7664 93.0264 59.61C92.0728 61.8632 91.1192 64.1165 89.9749 66.165C89.4027 65.1407 89.212 64.1165 88.6398 63.0923C89.4027 62.6826 90.547 62.6826 90.547 61.4536C90.547 59.8148 88.4491 61.4536 87.4955 61.6584C85.2069 62.0681 83.2997 60.839 82.3461 60.0196C82.9183 59.8148 83.4904 59.4051 84.0626 58.9954C84.6347 58.5857 85.3976 58.1761 85.3976 57.5615C85.3976 57.1518 85.2069 56.947 84.8254 56.7421C84.2533 56.5373 83.6811 57.3567 83.109 57.7664C82.5368 58.1761 81.9646 58.5857 81.2018 58.5857C80.6296 58.3809 79.676 54.8985 78.5317 56.1276C77.9595 56.7421 78.9131 58.3809 79.2946 58.9954C80.8203 61.4536 83.4904 63.502 86.9234 63.2971C87.6862 64.5262 88.0677 66.165 88.6398 67.5989C85.0162 71.4909 77.9595 72.72 73.7637 76.612C72.4287 77.8411 71.0936 79.4798 71.0936 81.938C71.0936 83.167 71.2844 84.3961 71.4751 85.4203C70.5215 86.4445 69.1864 87.4687 68.0421 88.2881C65.5628 85.4203 63.2741 82.1428 61.3669 78.8653C58.3154 73.7442 56.7897 66.9843 55.2639 60.2245C54.6917 57.9712 54.3103 55.7179 53.3567 53.8743C52.2124 51.2114 50.8774 48.3435 48.9702 46.0903C48.398 45.4757 47.6351 44.2467 46.6815 44.4515C45.3465 44.6563 45.1558 46.9096 45.3465 48.3435C45.5372 49.9823 46.8722 51.4162 47.4444 52.4404C47.8258 53.2598 47.8258 54.284 48.2073 55.1034C45.9186 55.9228 43.63 55.7179 42.295 57.9712C41.3414 59.61 41.5321 62.4778 41.9135 64.9359C42.1042 65.9601 42.295 67.1892 42.8671 67.8037C43.63 68.6231 44.7743 69.0328 45.9186 69.2376C46.3001 70.8764 46.1094 72.72 46.8722 73.7442C47.6351 74.7684 48.7794 74.9733 49.9238 75.3829C52.2124 83.3719 54.1196 92.1801 56.9804 99.9642C58.3154 103.856 60.6041 107.134 64.6092 107.748C69.5679 108.568 72.8101 106.11 75.6709 103.856C75.8616 106.11 75.6709 108.158 76.2431 109.797C76.8152 111.231 77.9595 112.05 79.2946 113.074C75.2895 119.22 71.4751 125.775 68.0421 132.534C64.6092 139.294 61.7484 146.669 58.6969 154.043C53.166 167.768 48.398 182.516 43.8207 197.265C43.4393 198.289 42.295 200.747 44.0114 200.338C44.5836 200.133 44.965 198.699 45.3465 197.675C49.9238 182.926 54.501 168.177 60.0319 154.453C65.9442 139.704 72.238 125.57 80.6296 113.689C85.3976 113.484 90.1656 113.279 95.1243 113.074C95.8872 113.074 96.6501 112.869 97.2222 113.074C97.9851 113.279 98.9387 114.303 99.7016 114.918C103.897 118.195 106.567 122.292 109.81 126.799C110.382 127.618 110.954 128.438 111.717 129.257C112.289 130.076 113.052 131.51 113.815 131.51C114.196 131.51 114.578 131.305 114.578 130.896C114.768 130.281 114.196 129.871 114.006 129.257C111.908 126.389 109.81 123.316 107.712 120.449C105.232 117.171 102.562 114.098 99.1294 111.845C100.846 110.206 102.753 108.773 103.897 106.519C105.614 107.339 107.712 108.363 109.81 108.158C113.815 107.748 116.866 104.471 117.439 100.169C117.82 97.7109 117.057 95.6625 115.722 94.0237C117.629 92.5898 119.918 90.5414 119.536 86.4445C119.346 83.5767 117.248 82.1428 115.722 80.2992C114.196 78.6604 113.052 76.2023 112.098 73.949C110 69.0328 108.665 64.5262 108.475 57.7664C108.475 54.284 108.475 51.0065 108.284 47.729C108.284 46.2951 107.903 44.6563 107.712 43.2224C107.521 41.7885 107.33 40.3546 106.949 39.1256C105.423 34.2093 101.227 31.3415 95.5057 30.9318C93.7893 30.727 92.0728 31.3415 90.547 31.7512C87.4955 32.5706 84.6347 33.3899 81.7739 34.619C80.4389 35.2335 78.9131 35.8481 77.9595 36.6674C76.6245 37.8965 75.4802 40.7643 76.2431 42.8128C77.1967 45.066 78.341 45.8854 79.2946 46.9096ZM78.1503 42.6079C77.9595 41.3788 78.7224 39.7401 79.4853 38.9207C80.2482 38.1013 81.7739 37.6917 82.9183 37.282C85.3976 36.2577 88.0677 35.2335 90.547 34.619C92.2635 34.2093 94.1707 33.5948 96.2686 33.7996C101.418 34.2093 105.232 36.8723 106.377 41.9934C106.567 43.2224 106.758 44.6563 106.949 46.0903C107.521 50.1871 107.33 54.8985 107.521 59.61C107.712 66.165 109.047 70.2618 110.954 74.7684C111.908 77.0217 112.861 79.0701 114.006 80.9137C114.578 81.7331 115.341 82.5525 116.103 83.3719C116.866 84.1912 117.82 85.0106 118.201 85.83C118.774 87.2639 118.583 89.5172 117.82 90.9511C117.439 91.5656 116.676 92.385 116.103 92.7947C115.531 93.2044 114.196 93.8189 114.196 94.6383C114.196 95.2528 114.959 96.0722 115.341 96.4819C115.722 97.0964 116.294 98.1206 116.294 98.94C116.676 102.422 114.768 105.085 112.671 106.519C110 108.158 106.758 107.339 104.66 105.905C105.232 97.9158 104.851 89.1075 104.088 81.5283C103.897 78.8653 103.707 76.2023 102.753 74.3587C102.181 73.1297 100.846 72.3103 99.5109 71.9006C96.6501 70.8764 92.2635 70.6715 89.5934 71.6958C88.2584 72.3103 87.1141 73.1297 85.9698 73.949C83.6811 75.5878 81.5832 77.4314 79.676 79.275C77.9595 80.9137 76.0523 82.5525 74.3359 84.1912C74.1451 84.3961 73.9544 84.8058 73.573 84.6009C73.0008 82.3476 73.7637 80.504 74.5266 79.275C76.6245 76.8169 79.8667 75.5878 82.7275 74.1539C84.6347 73.1297 86.5419 72.1054 88.4491 70.8764C92.2635 68.2134 93.4078 64.5262 95.315 59.8148C97.2222 59.4051 99.1294 57.5615 98.748 54.8985C98.5573 52.8501 96.6501 50.5968 94.5521 52.0307C93.5986 52.6453 93.2171 53.4646 93.0264 54.4889C91.3099 52.4404 88.4491 49.9823 86.7326 47.3193C85.5883 45.4757 84.444 43.2224 83.2997 41.174C82.9183 40.5595 82.5368 39.3304 81.7739 39.3304C80.2482 39.3304 81.7739 41.9934 81.9647 42.4031C81.0111 43.0176 80.4389 44.0418 79.8667 45.066C79.1039 44.2467 78.1503 43.6321 78.1503 42.6079ZM49.1609 52.0307C48.9702 51.4162 48.398 51.0065 48.2073 50.392C47.6351 49.3678 47.063 48.3435 47.4444 46.7048C48.5887 47.9338 49.5423 49.5726 50.3052 51.0065C51.0681 52.4404 52.0217 54.284 52.5938 55.9228C53.7381 59.4051 54.501 63.502 55.4546 67.394C56.4082 70.8764 57.5525 75.1781 59.0783 78.0459C60.2226 80.2992 61.7484 82.5525 63.0834 84.6009C63.4648 85.2155 64.4184 86.2397 64.4184 86.6494C64.4184 87.2639 63.6556 88.0833 63.2741 88.493C62.702 89.1075 62.3205 89.5172 61.5577 89.9269C60.2226 90.7462 58.8876 91.5656 57.1711 91.5656C55.8361 91.5656 56.0268 90.5414 55.6454 89.3123C54.501 85.6251 53.7381 82.3476 52.5938 78.6604C52.2124 77.6362 52.0217 75.1781 51.2588 74.5636C50.4959 73.949 48.9702 74.1539 48.398 73.1297C47.8258 72.3103 47.8258 70.6715 47.8258 69.2376C47.8258 68.2134 47.8258 65.7553 46.8722 65.5504C45.7279 65.3456 45.9186 66.7795 46.1094 67.8037C44.2022 67.5989 44.0114 66.165 43.63 64.3214C44.3929 64.1165 45.1558 63.7068 46.3001 63.502C47.4444 63.2971 49.733 63.502 49.733 62.2729C49.733 61.2487 48.5887 61.4536 47.6351 61.6584C46.4908 61.8632 45.5372 61.8632 44.5836 62.2729C44.2022 62.4778 43.63 62.6826 43.4393 62.6826C43.2486 62.2729 43.63 62.0681 44.0114 61.8632C45.5372 61.0439 46.8722 60.6342 48.7794 60.4293C49.5423 60.2245 50.3052 60.2245 50.3052 59.4051C50.3052 58.3809 48.9702 58.5857 48.2073 58.7906C46.4908 58.9954 44.965 59.61 43.8207 60.2245C44.3929 58.3809 47.2537 57.7664 49.733 57.5615C50.6866 57.3567 51.6402 57.5615 51.831 56.7421C52.0217 55.7179 51.0681 55.7179 50.1145 55.7179C49.5423 54.0792 49.5423 53.0549 49.1609 52.0307ZM66.7071 89.5172C67.0885 89.9269 67.47 90.7462 68.0421 90.7462C68.6143 90.7462 69.1864 90.1317 69.7586 89.722C73.3823 86.6494 77.0059 83.5767 80.0575 80.504C82.7275 77.8411 85.9698 74.9733 89.4027 73.3345C90.547 72.72 92.4542 72.3103 94.1707 72.5151C96.6501 72.9248 100.083 73.1297 101.037 75.1781C101.799 77.0217 101.99 79.8895 102.181 82.3476C102.753 88.6978 102.944 95.6625 102.753 102.422C102.753 103.856 102.753 105.29 102.372 106.314C101.99 107.543 100.846 108.568 100.083 109.592C99.1294 110.616 98.1758 111.435 97.2222 112.05C93.0264 112.255 87.4955 112.46 83.109 112.665C82.3461 112.665 81.3925 112.869 81.0111 112.665C80.8203 112.665 80.4389 112.255 80.0575 112.05C79.1039 111.435 78.1503 110.616 77.7688 109.592C77.1967 107.953 77.3874 105.495 77.3874 103.242C82.1554 99.5545 86.7326 95.8673 91.5006 91.9753C92.0728 91.5656 93.2171 90.7462 93.2171 89.9269C93.2171 89.5172 92.8357 89.3123 92.4542 89.3123C91.6914 89.3123 90.547 90.7462 89.7842 91.3608C84.444 95.6625 79.1039 99.9642 73.573 104.061C72.6194 104.676 71.6658 105.495 70.7122 106.11C68.2328 107.339 64.4185 107.134 62.3205 105.7C60.7948 104.676 59.4597 102.422 58.8876 100.169C58.1247 97.9158 57.3618 95.6625 56.7897 93.2044C60.9855 93.2044 63.8463 90.9511 65.7535 88.0833C66.1349 88.493 66.3256 88.9026 66.7071 89.5172Z" fill="black"/>
<path fill-rule="evenodd" clip-rule="evenodd" d="M84.0626 49.7774C83.6811 49.9822 83.4904 50.5968 83.8719 51.2113L84.6347 52.4404C84.8255 52.85 85.3976 53.0549 85.9698 52.6452C86.3512 52.4404 86.5419 51.8258 86.1605 51.2113L85.3976 49.9822C85.0162 49.5725 84.444 49.5725 84.0626 49.7774Z" fill="black"/>
<path fill-rule="evenodd" clip-rule="evenodd" d="M235.494 113.074H161.304C157.68 113.074 154.629 116.351 154.629 120.244V146.259C154.629 150.151 157.68 153.428 161.304 153.428H235.494C239.118 153.428 242.169 150.356 242.169 146.259V120.039C242.169 116.147 239.118 113.074 235.494 113.074Z" fill="white"/>
<path d="M161.304 154.043H235.494C239.499 154.043 242.932 150.56 242.932 146.054V120.038C242.932 115.737 239.69 112.05 235.494 112.05H161.304C157.299 112.05 153.866 115.532 153.866 120.038V146.054C153.866 150.56 157.299 154.043 161.304 154.043ZM235.494 113.893C238.736 113.893 241.216 116.761 241.216 120.038V146.054C241.216 149.536 238.546 152.199 235.494 152.199H161.304C158.062 152.199 155.583 149.331 155.583 146.054V120.038C155.583 116.556 158.253 113.893 161.304 113.893H235.494Z" fill="black"/>
<path d="M148.717 107.953H251.705V120.653H148.717V107.953Z" fill="black"/>
<path fill-rule="evenodd" clip-rule="evenodd" d="M194.108 124.955H162.448C160.923 124.955 159.778 126.184 159.778 127.823V146.054C159.778 147.693 160.923 148.922 162.448 148.922H194.108C195.634 148.922 196.778 147.693 196.778 146.054V127.823C196.778 126.389 195.634 124.955 194.108 124.955Z" fill="#FF645A"/>
<path fill-rule="evenodd" clip-rule="evenodd" d="M177.897 114.713C176.943 114.713 176.18 115.532 176.18 116.556C176.18 117.581 176.943 118.4 177.897 118.4C178.85 118.4 179.613 117.581 179.613 116.556C179.804 115.532 179.041 114.713 177.897 114.713Z" fill="white"/>
<path fill-rule="evenodd" clip-rule="evenodd" d="M170.268 114.713C169.314 114.713 168.552 115.532 168.552 116.556C168.552 117.581 169.314 118.4 170.268 118.4C171.222 118.4 171.984 117.581 171.984 116.556C171.984 115.532 171.222 114.713 170.268 114.713Z" fill="white"/>
<path fill-rule="evenodd" clip-rule="evenodd" d="M162.067 114.713C161.113 114.713 160.351 115.532 160.351 116.556C160.351 117.581 161.113 118.4 162.067 118.4C163.021 118.4 163.784 117.581 163.784 116.556C163.784 115.532 163.021 114.713 162.067 114.713Z" fill="white"/>
<path d="M203.263 146.668H232.443C232.824 146.668 233.206 146.259 233.206 145.849C233.206 145.439 232.824 145.03 232.443 145.03H203.263C202.881 145.03 202.5 145.439 202.5 145.849C202.309 146.463 202.69 146.668 203.263 146.668Z" fill="#FF645A"/>
<path d="M222.907 141.957H232.443C232.824 141.957 233.206 141.547 233.206 141.137C233.206 140.728 232.824 140.318 232.443 140.318H222.907C222.525 140.318 222.144 140.728 222.144 141.137C222.144 141.547 222.525 141.957 222.907 141.957Z" fill="#FF645A"/>
<path d="M203.263 141.957H212.608C212.989 141.957 213.371 141.547 213.371 141.137C213.371 140.728 212.989 140.318 212.608 140.318H203.263C202.881 140.318 202.5 140.728 202.5 141.137C202.309 141.547 202.691 141.957 203.263 141.957Z" fill="#FF645A"/>
<path d="M216.041 141.957H220.046C220.427 141.957 220.809 141.547 220.809 141.137C220.809 140.728 220.427 140.318 220.046 140.318H216.041C215.659 140.318 215.278 140.728 215.278 141.137C215.278 141.547 215.659 141.957 216.041 141.957Z" fill="#FF645A"/>
<path d="M203.263 137.041H232.443C232.824 137.041 233.206 136.631 233.206 136.221C233.206 135.812 232.824 135.402 232.443 135.402H203.263C202.881 135.402 202.5 135.812 202.5 136.221C202.309 136.631 202.69 137.041 203.263 137.041Z" fill="#FF645A"/>
<path d="M226.149 132.125H232.443C232.824 132.125 233.205 131.715 233.205 131.305C233.205 130.896 232.824 130.486 232.443 130.486H226.149C225.767 130.486 225.386 130.896 225.386 131.305C225.386 131.92 225.577 132.125 226.149 132.125Z" fill="#FF645A"/>
<path d="M203.263 132.125H220.237C220.618 132.125 221 131.715 221 131.305C221 130.896 220.618 130.486 220.237 130.486H203.263C202.881 130.486 202.5 130.896 202.5 131.305C202.309 131.92 202.691 132.125 203.263 132.125Z" fill="#FF645A"/>
<path fill-rule="evenodd" clip-rule="evenodd" d="M126.021 149.741L124.304 148.922L126.021 146.054C126.021 146.054 131.361 148.102 134.031 144.62C136.701 141.138 136.701 138.27 136.701 138.27L137.083 135.402L138.608 134.583L138.799 132.534L140.516 133.558L141.851 131.51L144.139 133.149L144.711 130.281C144.711 130.281 147.572 131.305 148.335 130.281C149.098 129.257 150.433 127.823 148.717 127.208C147 126.594 147.191 125.774 146.237 124.545C145.284 123.316 143.567 118.81 140.897 117.785C138.227 116.761 134.603 116.556 134.603 116.556C134.603 116.556 136.32 114.713 135.748 114.098C135.176 113.484 133.84 112.459 131.933 113.484C130.026 114.508 126.975 114.918 126.975 114.918C126.975 114.918 127.737 112.869 126.402 112.664C125.067 112.459 120.681 116.351 120.681 116.351C120.681 116.351 118.201 116.966 117.439 117.785C116.676 118.605 114.387 124.545 114.387 127.003C114.387 129.257 114.768 132.124 114.768 132.124C114.768 132.124 113.624 134.378 114.959 136.017C116.294 137.655 117.629 138.679 117.629 138.679L118.583 141.138C118.583 141.138 116.676 149.127 111.717 149.331C106.758 149.536 97.0316 147.897 88.4492 155.067C80.0575 162.237 64.7999 171.455 60.9855 176.166C57.1711 180.673 53.7382 185.794 54.5011 189.481C55.2639 193.168 56.4083 198.494 61.1763 198.494C65.9442 198.289 68.4236 198.289 68.4236 198.289H162.83L175.799 158.754L188.005 157.73L198.494 149.331C198.494 149.331 199.067 147.488 198.113 147.283C197.35 147.078 196.778 146.873 196.778 146.873C196.778 146.873 197.159 144.825 195.443 144.62C193.726 144.415 192.964 144.415 192.201 145.439C191.438 146.464 187.433 150.151 187.433 150.151C187.433 150.151 190.103 142.572 189.149 141.752C188.386 140.933 186.861 141.752 186.098 142.981C185.526 144.21 181.711 151.79 181.711 151.79C181.711 151.79 168.361 148.922 166.072 153.838C163.783 158.549 155.773 177.805 155.773 177.805C155.773 177.805 149.67 159.574 147 156.911C144.33 154.248 139.753 151.175 133.65 150.765C127.928 150.151 126.021 149.741 126.021 149.741Z" fill="white"/>
<path fill-rule="evenodd" clip-rule="evenodd" d="M124.114 124.75L120.681 136.426L118.774 135.402L118.201 131.715C118.201 131.715 116.485 130.486 115.722 131.51C114.959 132.329 114.578 132.944 114.578 132.944C114.578 132.944 113.624 130.69 114.196 127.413C114.769 123.931 116.294 117.99 117.439 117.376C118.392 116.761 119.727 116.761 119.727 116.761C119.727 116.761 120.49 115.737 122.397 114.508C124.305 113.279 124.877 112.254 125.449 112.459C126.021 112.869 126.402 114.917 126.402 114.917C126.402 114.917 130.026 113.688 131.933 113.484C133.84 113.279 134.794 113.484 134.985 113.688C135.176 114.303 134.413 116.761 134.413 116.761C134.413 116.761 140.706 116.761 142.041 119.629C143.567 122.497 145.093 125.979 146.619 126.389C148.144 127.003 148.907 127.823 148.907 128.437C148.907 129.052 147.572 130.486 146.809 130.895C146.047 131.1 144.521 130.895 144.521 130.895C144.521 130.895 144.33 132.739 143.567 132.944C142.995 133.149 141.66 131.92 141.66 131.92C141.66 131.92 140.897 133.353 140.325 133.353C139.753 133.353 138.608 132.534 138.608 132.534L138.799 127.618C138.799 127.618 138.036 126.184 137.464 126.389C136.892 126.594 133.65 127.208 129.835 125.979C126.021 124.955 124.114 124.75 124.114 124.75Z" fill="black"/>
<path fill-rule="evenodd" clip-rule="evenodd" d="M117.439 140.318C117.057 141.547 116.485 142.571 115.913 143.596C114.959 145.644 114.387 147.897 111.717 148.102C108.666 148.512 105.805 147.897 102.944 148.102C100.274 148.307 97.6039 148.717 95.506 149.536C93.4081 150.355 91.6916 151.584 89.9752 153.018C88.2587 154.247 86.5422 155.476 84.635 156.706C77.5784 161.622 70.5218 166.538 63.6559 172.069C61.9394 173.503 60.4136 174.732 58.8879 176.575C57.5528 178.214 56.2178 180.058 55.0735 181.901C53.9292 183.95 52.9756 186.203 53.1663 189.276C53.5477 194.397 56.5992 198.699 61.7487 199.108C67.4702 199.518 71.8568 197.06 74.7176 194.397C75.8619 193.373 77.0062 192.144 78.1505 190.914C78.532 190.505 78.9134 189.89 79.2949 189.685C80.0577 189.481 81.2021 189.685 81.9649 189.685C83.8721 189.685 85.2072 189.481 86.5422 188.661C87.1144 188.252 87.6865 187.842 88.2587 187.637C90.1659 187.227 91.1195 188.866 93.0267 188.456C93.7896 188.252 94.7432 187.637 94.7432 186.818C94.9339 185.384 93.4081 183.745 92.836 183.13C92.2638 182.721 91.5009 182.516 90.9288 182.311C89.5937 181.901 88.2587 181.901 87.4958 181.082C88.4494 179.648 88.4494 176.575 87.8772 174.732C88.068 174.322 88.2587 174.117 88.6401 173.912C88.8308 173.708 89.0216 173.298 89.403 173.093C90.1659 173.503 90.5473 174.322 90.9288 175.141C91.3102 175.961 91.8824 176.78 92.6452 177.19C93.7896 177.6 94.9339 176.78 95.3153 175.756C95.6967 174.732 95.3153 173.093 95.1246 172.274C94.9339 171.045 94.5524 170.225 93.9803 169.611C93.0267 167.972 91.8824 166.538 89.9752 166.128C88.068 165.719 86.3515 167.357 85.3979 168.382C84.4443 169.201 83.8721 170.02 82.7278 171.249C80.8206 171.045 79.6763 171.864 78.3413 172.683C75.4805 174.322 73.0011 176.166 70.5218 178.214C69.5682 178.829 68.996 179.648 68.2331 180.467C67.661 181.492 67.0888 182.106 66.1352 182.721C64.9909 183.54 63.0837 184.155 61.5579 184.769C60.9858 184.974 60.4136 185.179 60.4136 185.793C60.2229 187.432 63.0837 186.203 63.8466 185.998C64.9909 185.589 66.5167 184.974 67.2795 184.359C68.6146 183.335 69.3774 181.696 70.5218 180.672C72.0475 179.034 73.9547 178.214 75.6712 176.78C77.9598 178.009 79.6763 179.443 79.6763 183.13C78.9134 183.335 77.7691 183.745 76.8155 183.54C76.2433 183.54 76.0526 182.926 75.6712 182.721C75.8619 182.311 76.0526 182.106 75.8619 181.492C75.2898 179.648 71.8568 183.13 74.1454 183.54C74.7176 184.155 75.2897 185.179 76.4341 185.179C77.1969 185.384 78.3413 184.974 79.1041 184.974C81.3928 184.564 84.0629 183.745 85.7793 182.721C86.5422 182.926 86.9236 183.745 87.6865 183.95C88.2587 184.155 89.0216 184.155 89.5937 184.155C91.3102 184.564 92.2638 185.179 92.836 186.818C92.2638 187.227 91.5009 186.818 90.9288 186.613C89.7844 186.203 88.4494 185.998 87.1144 186.408C86.5422 186.613 85.5886 187.432 84.8257 187.637C82.9185 188.252 79.6763 188.047 77.3877 188.047C76.4341 188.047 75.6712 187.842 75.4805 188.661C75.2897 189.481 75.8619 189.685 76.6248 189.685C75.8619 190.71 74.9083 191.529 73.9547 192.553C71.2846 195.216 67.8517 197.674 62.7023 197.674C60.0322 197.674 58.125 196.855 56.5992 195.011C55.2642 193.373 54.3106 191.119 54.3106 188.456C54.3106 185.179 56.4085 182.311 57.7435 180.263C59.46 177.804 61.1765 175.961 63.2744 174.322C71.6661 167.357 80.6299 161.622 89.5937 155.272C91.6916 153.838 93.7896 151.994 96.8411 151.175C98.7483 150.56 101.609 150.151 104.088 150.151C105.042 150.151 106.186 149.946 106.758 150.151C107.14 150.151 107.712 150.97 108.094 151.175C109.429 152.404 110.764 153.633 111.908 154.657C113.624 156.091 115.722 157.525 118.011 158.344C120.49 159.164 124.114 159.369 126.403 158.549C128.691 157.73 130.98 155.067 130.408 151.38C137.655 151.994 142.995 153.838 146.428 158.754C149.67 163.465 152.531 168.586 155.583 173.503C154.82 175.141 153.676 177.6 152.722 179.648C152.34 180.263 151.387 182.311 152.722 182.311C153.676 182.311 154.438 179.648 154.82 179.034C158.253 171.659 161.304 164.285 164.928 157.115C165.691 155.681 166.263 153.633 167.598 153.018C169.315 151.994 172.175 152.404 174.464 152.609C176.18 152.813 177.897 152.813 179.804 153.018C180.376 153.018 181.139 153.223 181.521 153.018C182.093 152.813 182.283 151.38 182.665 150.765C183.046 149.946 183.428 149.126 183.619 148.307C184.763 145.849 185.335 143.596 187.051 142.366C187.624 143.8 187.051 145.234 186.479 146.668C185.907 148.512 185.335 149.946 184.572 151.789C184.381 152.404 183.046 155.067 184.572 155.067C185.526 155.067 185.526 153.633 185.907 152.813C186.289 152.199 186.861 151.584 187.433 150.765C188.387 149.536 189.531 148.307 190.675 147.078C191.629 146.054 192.392 145.029 194.108 145.439C193.155 148.102 191.819 149.331 190.294 151.38C189.34 152.609 188.196 154.043 187.051 155.476C186.67 155.886 186.289 156.501 185.907 156.706C185.526 156.91 184.763 156.91 184 156.91C180.567 157.115 177.897 157.32 174.464 157.525C173.51 157.525 171.412 157.525 171.412 158.549C171.412 159.573 172.175 159.573 173.129 159.573C169.887 169.611 166.454 180.058 162.639 190.095C162.067 191.529 161.686 192.963 160.923 194.192C159.969 196.036 157.871 198.289 155.583 198.494C154.057 198.699 152.531 198.084 151.387 197.469C150.243 196.855 149.098 196.036 148.335 195.216C147.191 193.987 146.237 192.348 145.284 190.71C142.423 186.203 139.562 181.082 136.701 176.371C136.701 175.551 138.609 174.117 138.037 173.093C137.464 172.069 136.511 173.298 136.129 173.912C131.552 182.106 127.356 190.095 122.779 198.289C122.398 198.903 121.444 200.747 122.779 200.747C123.542 200.747 124.114 198.903 124.686 198.084C128.501 191.119 131.933 184.769 135.748 178.009C138.418 182.721 141.279 187.432 144.14 191.939C145.856 194.807 147.573 197.06 150.433 198.699C151.959 199.518 153.485 200.337 155.583 200.132C159.397 199.928 162.067 196.24 163.402 192.963C167.789 182.106 171.222 170.225 175.036 159.369C177.134 159.164 179.232 159.164 181.711 158.959C183.809 158.754 186.289 158.959 188.005 158.344C188.959 157.935 189.912 156.91 190.675 156.296C192.392 154.862 193.917 153.428 195.634 151.789C196.397 151.175 197.541 150.355 197.922 149.331C198.495 147.692 197.541 146.258 196.015 146.054C196.397 143.8 193.536 143.391 192.01 144.005C191.247 144.415 190.484 145.234 189.912 146.054C189.149 146.873 188.577 147.692 188.005 148.307C188.196 146.873 189.149 145.644 189.149 144.21C189.149 142.776 188.768 140.728 187.433 140.728C186.289 140.728 185.144 141.752 184.572 142.776C183.809 144.005 183.237 145.644 182.474 147.078C181.902 148.512 180.948 150.151 180.567 151.584C177.897 151.38 175.036 151.175 172.175 150.97C169.124 150.765 166.644 150.97 165.119 152.813C164.737 153.428 164.356 154.247 163.974 155.067C161.304 160.393 158.634 166.538 156.155 171.864C154.438 168.996 152.531 166.128 150.815 163.261C149.098 160.393 147.382 157.32 144.902 155.067C142.423 152.813 139.372 151.38 135.748 150.56C132.124 149.946 128.119 149.331 124.114 148.717C124.305 147.897 124.877 147.283 125.258 146.668C130.598 148.307 134.222 145.234 135.748 141.342C136.129 140.523 137.274 137.245 135.748 137.245C134.985 137.245 134.985 138.27 134.794 139.089C133.841 142.776 131.361 145.849 126.784 145.029C126.021 144.825 125.258 144.62 124.686 144.21C124.114 144.005 123.351 143.186 122.779 143.391C122.588 143.391 122.207 143.8 122.207 144.21C122.207 145.234 123.16 145.234 123.923 145.849C123.542 147.078 121.062 149.741 122.97 151.175C123.542 151.584 124.877 151.994 124.877 150.56C126.212 150.765 127.356 150.97 128.691 151.175C129.073 153.838 127.928 155.476 126.784 156.296C125.449 157.32 122.588 157.32 120.49 157.115C115.532 156.296 112.099 152.813 109.238 150.355C115.15 150.97 116.104 146.054 117.82 142.162C118.392 142.162 118.965 141.957 118.965 141.547C118.965 140.933 118.392 140.523 118.011 139.908C117.63 139.294 117.439 138.884 117.057 138.474C116.294 137.655 114.959 137.041 114.387 136.016C113.624 134.378 114.197 132.124 116.676 132.534C116.867 132.739 117.057 133.148 117.057 133.558C116.294 133.353 114.959 132.739 114.959 133.968C114.959 134.992 116.676 134.787 117.439 135.402C118.202 136.221 118.202 137.655 119.346 137.86C120.3 138.065 121.062 137.245 121.253 136.631C121.635 135.811 121.444 134.582 121.635 133.763C122.016 131.1 123.351 128.232 123.923 125.979C126.784 127.003 130.217 128.232 134.031 128.437C135.176 128.437 136.32 128.232 137.464 127.823C138.037 129.666 137.274 131.51 137.274 133.353C136.32 133.148 135.366 132.739 134.413 132.739C131.552 133.148 128.691 138.065 130.598 141.137C130.217 141.547 130.026 141.752 130.026 142.366C130.217 144.005 132.506 142.366 132.696 141.752C132.696 140.933 131.743 140.113 131.743 139.089C131.552 136.836 133.078 134.992 134.413 134.582C135.176 134.378 135.939 134.582 136.701 134.992C137.274 135.197 137.846 135.607 138.418 135.402C138.99 135.197 138.99 134.787 138.99 133.968C139.562 134.787 141.088 134.582 141.469 133.558C142.614 134.787 144.521 133.968 144.521 132.124C145.284 132.329 146.428 132.124 147 131.919C148.145 131.51 149.67 129.871 149.289 128.232C148.908 126.798 147 126.389 146.047 125.569C145.093 124.545 144.33 122.906 143.377 121.472C142.614 120.243 141.66 118.809 140.325 117.785C138.99 116.761 136.892 116.556 134.794 116.351C134.985 115.532 135.748 114.917 135.557 113.893C135.176 112.254 131.743 113.074 130.026 113.279C128.691 113.483 127.356 113.893 126.403 114.303C126.593 112.869 126.212 111.845 124.686 112.05C123.351 112.254 121.444 113.483 120.49 114.098C119.727 114.713 119.346 115.532 118.774 116.146C116.104 115.942 115.15 117.785 114.387 119.834C114.006 120.858 113.624 121.882 113.434 122.906C112.671 125.569 111.717 129.052 112.48 131.51C112.671 131.919 112.862 132.329 112.862 132.739C112.862 133.148 112.671 133.558 112.671 133.968C113.052 137.45 116.104 138.065 117.439 140.318ZM126.021 116.146C126.593 116.351 127.356 115.737 127.928 115.532C129.836 114.917 132.315 114.303 134.413 114.303C134.413 115.122 132.887 116.146 132.887 116.966C132.887 117.99 134.413 117.785 135.366 117.785C137.083 117.785 138.799 117.99 139.944 118.809C141.088 119.629 142.042 121.268 142.995 122.701C143.758 123.93 144.521 125.364 145.284 126.389C146.047 127.208 147.191 127.618 148.145 128.437C147.763 129.052 147.573 129.666 146.81 129.871C146.047 130.281 145.093 129.666 144.14 129.871C143.377 129.871 143.377 131.1 143.186 131.919C142.614 131.715 142.232 130.895 141.469 131.1C140.897 131.1 140.707 131.715 140.516 132.329C140.134 132.124 139.944 131.715 139.562 131.305C139.944 129.871 140.325 126.389 138.609 125.774C137.464 125.364 136.32 126.184 135.176 126.389C133.269 126.593 130.98 125.774 129.263 125.364C128.501 125.16 127.547 124.75 126.593 124.545C125.83 124.34 124.495 123.521 123.923 123.726C123.16 123.93 122.97 125.569 122.779 126.389C122.016 128.642 121.444 130.281 121.062 132.329C120.872 133.353 120.681 134.582 120.49 135.607C120.3 134.992 119.918 134.582 119.727 134.173C119.537 133.148 119.727 132.329 119.155 131.51C118.583 130.485 117.057 130.281 115.913 130.69C115.532 130.895 115.15 131.1 114.959 131.1C114.578 130.076 114.769 128.232 115.15 127.003C115.532 124.75 116.104 122.906 116.676 121.063C117.057 120.243 117.439 119.014 117.82 118.605C118.392 117.99 119.727 118.4 120.49 117.99C121.062 117.785 121.635 116.556 122.016 116.146C122.97 115.122 124.305 114.713 125.449 114.098C125.64 114.713 125.258 115.942 126.021 116.146ZM195.634 148.717C195.825 148.307 196.206 147.488 196.587 147.283C196.969 147.283 197.541 147.488 197.541 147.897C197.541 148.307 196.778 148.921 196.587 149.126C195.252 150.355 194.108 151.38 192.773 152.404C193.536 151.38 194.68 150.151 195.634 148.717ZM88.8308 167.972C89.7844 167.562 90.9288 168.382 91.5009 168.996C92.6452 170.02 93.5988 171.659 93.7896 173.912C93.7896 174.527 93.9803 175.756 93.4081 175.756C93.0267 175.756 92.4545 174.527 92.2638 174.117C91.8824 173.503 91.5009 172.888 91.1195 172.274C90.738 171.864 89.9752 171.249 89.2123 171.454C88.2587 171.659 88.068 172.888 87.3051 173.298C86.7329 172.479 85.97 172.069 85.0164 171.659C85.97 170.43 87.3051 168.586 88.8308 167.972ZM85.97 174.527C87.1144 176.166 87.1144 180.467 85.2072 181.082C85.3979 176.985 83.6814 174.527 81.2021 173.093C83.1093 172.683 85.0164 172.888 85.97 174.527ZM79.6763 173.912C80.8206 174.937 82.3464 175.346 83.1093 176.78C83.6814 178.009 83.6814 179.648 83.6814 181.492C82.9185 181.696 82.3464 181.901 81.5835 182.106C81.5835 178.419 79.867 176.371 77.5784 174.937C78.3413 174.732 78.9134 174.322 79.6763 173.912Z" fill="black"/>
<path fill-rule="evenodd" clip-rule="evenodd" d="M127.356 131.305C126.403 131.305 123.732 131.919 123.732 133.149C123.732 133.353 123.923 133.968 124.305 133.968C124.877 134.173 125.258 133.763 125.64 133.353C126.021 133.149 126.593 132.944 127.165 132.944C127.738 132.944 128.31 133.353 128.691 133.558C129.263 133.968 130.789 134.582 130.598 133.149C130.598 132.534 129.645 132.124 129.263 131.919C128.5 131.51 128.119 131.305 127.356 131.305Z" fill="black"/>
<path fill-rule="evenodd" clip-rule="evenodd" d="M125.64 139.089C123.923 138.679 124.877 141.138 125.258 141.957C125.64 142.572 126.593 143.186 127.165 143.186C127.547 143.186 127.928 142.981 127.928 142.162C127.928 141.342 126.784 141.342 126.402 140.728C126.402 140.318 126.402 139.294 125.64 139.089Z" fill="black"/>
<path fill-rule="evenodd" clip-rule="evenodd" d="M133.268 134.992C132.696 134.992 132.315 135.402 132.315 136.016V137.245C132.315 137.86 132.696 138.27 133.268 138.27C133.841 138.27 134.222 137.86 134.222 137.245V135.812C134.222 135.402 133.841 134.992 133.268 134.992Z" fill="black"/>
<path fill-rule="evenodd" clip-rule="evenodd" d="M127.356 134.173C126.784 134.173 126.402 134.583 126.402 135.197V136.631C126.402 137.245 126.784 137.655 127.356 137.655C127.928 137.655 128.31 137.245 128.31 136.631V135.197C128.31 134.583 127.928 134.173 127.356 134.173Z" fill="black"/>
<path fill-rule="evenodd" clip-rule="evenodd" d="M258.952 1.22949H142.995C139.371 1.22949 136.32 4.507 136.32 8.39903V86.6494C136.32 90.5415 139.371 93.819 142.995 93.819H258.952C262.576 93.819 265.628 90.5415 265.628 86.6494V8.19419C265.437 4.30215 262.576 1.22949 258.952 1.22949Z" fill="white"/>
<path d="M142.995 94.4343H258.953C262.958 94.4343 266.391 90.9519 266.391 86.4454V8.19497C266.391 3.89325 263.149 0.206055 258.953 0.206055H142.995C138.99 0.206055 135.557 3.6884 135.557 8.19497V86.4454C135.557 90.9519 138.799 94.4343 142.995 94.4343ZM258.953 2.04965C262.195 2.04965 264.674 4.91747 264.674 8.19497V86.4454C264.674 89.9277 262.004 92.5907 258.953 92.5907H142.995C139.753 92.5907 137.273 89.7229 137.273 86.4454V8.19497C137.273 4.71262 139.944 2.04965 142.995 2.04965H258.953Z" fill="black"/>
<path fill-rule="evenodd" clip-rule="evenodd" d="M268.679 0H134.794V11.6761H268.679V0Z" fill="black"/>
<path d="M203.644 20.0745H255.711C256.092 20.0745 256.473 19.6649 256.473 19.2552C256.473 18.8455 256.092 18.4358 255.711 18.4358H203.644C203.263 18.4358 202.881 18.8455 202.881 19.2552C202.881 19.6649 203.072 20.0745 203.644 20.0745Z" fill="#FF645A"/>
<path d="M203.644 24.9908H220.427C220.809 24.9908 221.19 24.5811 221.19 24.1714C221.19 23.7617 220.809 23.3521 220.427 23.3521H203.644C203.263 23.3521 202.881 23.7617 202.881 24.1714C202.69 24.5811 203.072 24.9908 203.644 24.9908Z" fill="#FF645A"/>
<path d="M238.927 24.9908H255.711C256.092 24.9908 256.473 24.5811 256.473 24.1714C256.473 23.7617 256.092 23.3521 255.711 23.3521H238.927C238.546 23.3521 238.164 23.7617 238.164 24.1714C237.974 24.5811 238.355 24.9908 238.927 24.9908Z" fill="#FF645A"/>
<path d="M225.577 24.9908H232.633C233.015 24.9908 233.396 24.5811 233.396 24.1714C233.396 23.7617 233.015 23.3521 232.633 23.3521H225.577C225.195 23.3521 224.814 23.7617 224.814 24.1714C224.623 24.5811 225.005 24.9908 225.577 24.9908Z" fill="#FF645A"/>
<path d="M203.644 29.7025H255.711C256.092 29.7025 256.473 29.2928 256.473 28.8831C256.473 28.4734 256.092 28.0637 255.711 28.0637H203.644C203.263 28.0637 202.881 28.4734 202.881 28.8831C202.69 29.2928 203.072 29.7025 203.644 29.7025Z" fill="#FF645A"/>
<path d="M203.644 34.619H214.706C215.087 34.619 215.469 34.2093 215.469 33.7996C215.469 33.3899 215.087 32.9802 214.706 32.9802H203.644C203.262 32.9802 202.881 33.3899 202.881 33.7996C202.881 34.2093 203.262 34.619 203.644 34.619Z" fill="#FF645A"/>
<path d="M225.386 34.619H255.711C256.092 34.619 256.473 34.2093 256.473 33.7996C256.473 33.3899 256.092 32.9802 255.711 32.9802H225.577C225.195 32.9802 224.814 33.3899 224.814 33.7996C224.623 34.2093 225.005 34.619 225.386 34.619Z" fill="#FF645A"/>
<path d="M204.216 40.9691H255.711C256.092 40.9691 256.473 40.5594 256.473 40.1497C256.473 39.74 256.092 39.3303 255.711 39.3303H204.216C203.835 39.3303 203.453 39.74 203.453 40.1497C203.453 40.5594 203.835 40.9691 204.216 40.9691Z" fill="#FF645A"/>
<path d="M204.216 45.6803H220.809C221.19 45.6803 221.572 45.2706 221.572 44.8609C221.572 44.4512 221.19 44.0415 220.809 44.0415H204.216C203.835 44.0415 203.453 44.4512 203.453 44.8609C203.453 45.2706 203.835 45.6803 204.216 45.6803Z" fill="#FF645A"/>
<path d="M239.118 45.6803H255.711C256.092 45.6803 256.473 45.2706 256.473 44.8609C256.473 44.4512 256.092 44.0415 255.711 44.0415H239.118C238.736 44.0415 238.355 44.4512 238.355 44.8609C238.355 45.2706 238.736 45.6803 239.118 45.6803Z" fill="#FF645A"/>
<path d="M225.958 45.6803H236.066C236.448 45.6803 236.829 45.2706 236.829 44.8609C236.829 44.4512 236.448 44.0415 236.066 44.0415H225.958C225.577 44.0415 225.195 44.4512 225.195 44.8609C225.004 45.2706 225.386 45.6803 225.958 45.6803Z" fill="#FF645A"/>
<path d="M204.216 50.1866H255.711C256.092 50.1866 256.473 49.7769 256.473 49.3672C256.473 48.9575 256.092 48.5479 255.711 48.5479H204.216C203.835 48.5479 203.453 48.9575 203.453 49.3672C203.453 49.7769 203.835 50.1866 204.216 50.1866Z" fill="#FF645A"/>
<path d="M204.407 54.8983H215.278C215.659 54.8983 216.041 54.4886 216.041 54.0789C216.041 53.6692 215.659 53.2595 215.278 53.2595H204.216C203.835 53.2595 203.453 53.6692 203.453 54.0789C203.453 54.4886 203.835 54.8983 204.407 54.8983Z" fill="#FF645A"/>
<path d="M225.958 54.8983H255.711C256.092 54.8983 256.473 54.4886 256.473 54.0789C256.473 53.6692 256.092 53.2595 255.711 53.2595H225.768C225.386 53.2595 225.005 53.6692 225.005 54.0789C225.005 54.4886 225.386 54.8983 225.958 54.8983Z" fill="#FF645A"/>
<path d="M219.474 54.8983H220.999C221.381 54.8983 221.762 54.4886 221.762 54.0789C221.762 53.6692 221.381 53.2595 220.999 53.2595H219.474C219.092 53.2595 218.711 53.6692 218.711 54.0789C218.52 54.4886 218.902 54.8983 219.474 54.8983Z" fill="#FF645A"/>
<path fill-rule="evenodd" clip-rule="evenodd" d="M258.762 4.50659C257.808 4.50659 257.045 5.32597 257.045 6.35019C257.045 7.37441 257.808 8.19378 258.762 8.19378C259.716 8.19378 260.478 7.37441 260.478 6.35019C260.478 5.32597 259.716 4.50659 258.762 4.50659Z" fill="white"/>
<path fill-rule="evenodd" clip-rule="evenodd" d="M251.133 4.50659C250.18 4.50659 249.417 5.32597 249.417 6.35019C249.417 7.37441 250.18 8.19378 251.133 8.19378C252.087 8.19378 252.85 7.37441 252.85 6.35019C252.85 5.32597 252.087 4.50659 251.133 4.50659Z" fill="white"/>
<path fill-rule="evenodd" clip-rule="evenodd" d="M242.742 4.50659C241.788 4.50659 241.025 5.32597 241.025 6.35019C241.025 7.37441 241.788 8.19378 242.742 8.19378C243.695 8.19378 244.458 7.37441 244.458 6.35019C244.649 5.32597 243.695 4.50659 242.742 4.50659Z" fill="white"/>
<path fill-rule="evenodd" clip-rule="evenodd" d="M180.758 17.6167H148.526C146.047 17.6167 144.139 19.6651 144.139 22.3281V75.9972C144.139 78.6602 146.047 80.7086 148.526 80.7086H180.758C183.237 80.7086 185.144 78.6602 185.144 75.9972V22.3281C185.144 19.87 183.046 17.6167 180.758 17.6167Z" fill="#FF645A"/>
<path d="M245.221 90.1312L232.061 81.9375V65.55L245.221 57.3562L258.38 65.55V81.9375L245.221 90.1312Z" fill="#FF645A"/>
<path fill-rule="evenodd" clip-rule="evenodd" d="M159.588 84.6006C160.732 81.3231 162.448 78.865 166.263 76.4069C170.077 73.9487 190.294 62.2726 190.294 62.2726C190.294 62.2726 188.959 56.1273 190.866 53.6692C192.582 51.2111 193.727 49.7771 193.154 44.8609C192.582 39.9446 192.01 36.2574 192.01 36.2574L189.531 39.1253C189.531 39.1253 188.386 34.209 191.819 28.8831C195.062 23.5571 200.592 18.436 205.742 18.0263C210.891 17.6166 217.948 18.2312 221.381 25.6056C224.814 32.9799 225.005 45.4754 226.912 47.9336C229.01 50.3917 239.309 53.4643 241.216 56.7418C243.123 60.0194 243.314 63.2969 243.314 63.2969C243.314 63.2969 253.04 74.973 256.473 80.0941C259.906 85.2152 263.339 90.9508 256.283 95.2525C249.035 99.5542 228.247 104.266 228.247 104.266C228.247 104.266 228.437 106.519 226.34 107.748C224.432 108.977 222.907 110.616 222.907 110.616C222.907 110.616 221.19 118.195 217.566 117.99C213.943 117.785 212.989 116.761 212.798 115.737C212.417 114.713 212.036 107.543 212.036 107.543L210.891 108.977C210.891 108.977 210.319 114.303 208.984 114.303C207.649 114.303 206.505 113.484 206.695 111.23C207.077 109.182 207.268 105.904 210.128 103.037C213.18 100.374 229.963 92.1799 229.963 92.1799L209.747 92.5895L206.123 88.083C206.123 88.083 202.118 88.083 199.83 85.8297C196.206 82.1425 197.922 77.8408 197.922 77.8408L185.716 82.3474C185.716 82.3474 189.34 83.3716 190.675 84.6006C192.01 85.8297 193.917 89.312 193.917 90.7459C194.108 92.1799 194.108 96.6864 191.247 98.1203C188.386 99.3494 186.861 98.53 185.907 97.0961C184.953 95.6622 184.953 94.638 184.953 94.638L182.855 91.7702C182.855 91.7702 183.428 98.53 182.665 98.7349C181.902 99.1446 179.804 97.7106 179.804 96.4816C179.613 95.2525 179.613 93.6138 179.613 93.6138L178.469 91.975C178.469 91.975 165.881 93.8186 163.974 92.7944C161.495 91.975 158.443 88.083 159.588 84.6006ZM242.551 86.4442L236.257 80.2989L234.922 89.5169L242.551 86.4442Z" fill="white"/>
<path fill-rule="evenodd" clip-rule="evenodd" d="M243.695 64.1163C243.695 64.1163 239.499 58.3807 233.968 57.971C228.438 57.5613 221.572 58.1758 220.046 55.9225C218.52 53.6693 216.613 46.9094 216.613 46.9094L218.52 43.0174C218.52 43.0174 222.525 40.5592 221.572 37.6914C220.618 34.8236 219.283 35.2333 219.283 35.2333L217.566 36.4624L216.613 41.1738L209.938 31.1364L206.123 34.4139L204.025 33.5945L200.974 36.4624L198.113 34.8236L196.206 37.0769L196.015 39.9447H197.541C197.541 39.9447 198.113 50.1869 202.309 51.8257C206.505 53.4644 208.603 52.0305 208.603 52.0305C208.603 52.0305 211.654 57.971 208.984 58.1758C206.314 58.3807 202.5 57.5613 199.067 58.9952C195.634 60.4291 190.484 63.0921 190.484 63.0921C190.484 63.0921 189.149 58.1758 190.675 55.1032C192.01 52.0305 193.536 51.6208 193.345 47.7288C193.154 43.6319 192.391 37.2817 192.391 37.2817L189.912 40.3544C189.912 40.3544 188.768 33.7994 191.438 29.9074C194.108 26.0153 204.788 15.1586 213.18 18.2312C220.809 21.0991 222.716 26.425 224.242 34.4139C225.767 42.4028 225.386 48.9578 231.108 51.2111C237.401 53.6693 239.309 55.1032 241.597 58.3807C243.886 61.6582 243.695 64.1163 243.695 64.1163Z" fill="black"/>
<path fill-rule="evenodd" clip-rule="evenodd" d="M159.397 83.5761C160.16 81.118 162.067 79.0695 163.974 77.6356C167.789 74.7678 172.366 72.3097 176.562 69.8515C180.948 67.1886 185.335 64.9353 189.531 62.2723C189.149 60.019 188.577 57.9706 189.149 55.9221C189.531 54.0785 190.866 52.8495 191.629 51.4156C193.536 48.1381 191.819 42.6073 191.819 38.5104C191.056 38.9201 190.484 40.9685 189.34 40.7637C188.196 40.5588 188.577 36.6668 188.768 35.6426C189.149 29.907 192.201 27.0391 194.871 23.9665C196.587 21.918 199.067 20.2793 201.546 19.0502C203.453 18.2308 205.742 17.4115 208.221 17.0018C212.989 16.3872 216.041 18.026 218.52 20.2793C220.427 22.1229 221.953 24.1713 223.097 26.8343C224.242 29.4973 224.814 32.7748 225.386 35.8474C225.577 37.4862 225.958 39.1249 226.149 40.7637C226.53 43.8363 226.912 46.909 228.628 48.5478C229.391 49.1623 230.345 49.572 231.489 50.1865C233.587 51.0059 235.494 52.0301 237.401 53.0543C239.309 54.2834 241.025 55.3076 242.169 57.1512C242.932 58.3803 243.695 60.2239 244.267 61.8626C244.458 62.4771 244.458 63.0917 244.839 63.7062C245.03 64.1159 245.602 64.7304 246.174 65.345C247.509 66.9837 248.845 68.6225 249.989 70.0564C253.613 74.3581 256.855 78.2501 260.097 82.9615C261.623 85.2148 262.767 89.1069 261.051 91.9747C260.478 92.9989 259.334 94.0231 258.19 94.8425C257.045 95.6619 255.901 96.4813 254.566 96.8909C251.896 98.12 248.654 98.9394 246.174 99.7588C240.262 101.602 234.922 103.241 229.01 105.085C228.628 108.157 226.53 109.386 224.242 110.411C223.288 113.074 222.907 115.737 221.19 117.375C219.092 119.219 214.706 118.4 213.18 116.351C212.226 115.122 212.226 113.278 211.845 111.435C211.463 112.869 210.701 115.122 209.366 115.122C208.221 115.327 207.458 114.098 207.268 113.074C206.886 111.23 207.458 108.567 207.84 107.133C208.412 105.494 209.366 104.06 210.319 103.036C211.273 102.012 212.417 101.193 213.371 100.373H213.561V100.168C214.896 99.1442 216.231 98.12 217.566 97.3006C223.288 93.6134 229.391 91.7698 235.113 89.1069C234.922 87.673 235.303 86.0342 235.494 84.6003C235.685 82.9615 235.685 81.5276 236.066 80.0937C235.303 79.4792 234.731 78.8647 233.778 77.8404C233.206 77.2259 231.87 76.2017 231.87 75.3823C232.061 73.7436 233.587 75.3823 234.159 75.792C237.401 79.0695 240.834 82.5519 243.886 85.6245C244.649 85.4197 246.365 84.1906 246.937 85.01C248.082 86.2391 245.412 86.8536 244.649 87.0584C237.592 89.7214 230.535 92.3844 224.051 95.457C220.237 97.0958 216.804 99.3491 213.752 101.807C212.417 102.831 210.51 104.265 209.556 106.109C209.175 106.928 208.793 108.157 208.603 109.386C208.412 110.615 208.031 112.254 208.793 113.074C209.366 112.459 209.556 111.64 209.747 110.615C209.938 109.796 209.938 108.362 210.319 107.748C210.701 107.133 211.463 106.928 211.654 106.314C212.036 105.29 211.845 103.241 212.989 103.241C214.324 103.241 213.561 105.085 213.371 106.109C212.989 108.567 213.18 112.049 213.752 113.893C213.943 114.508 214.134 114.917 214.706 115.122C214.515 113.688 214.134 112.049 214.324 110.206C214.324 108.977 214.706 108.157 214.896 107.133C215.087 106.519 215.278 104.88 216.422 104.88C217.757 104.88 216.804 106.928 216.613 107.748C216.422 108.567 216.041 109.386 216.041 110.206C215.85 112.049 216.231 113.688 216.422 115.122C216.422 115.532 216.422 116.351 216.994 116.146C217.185 113.483 217.376 110.001 218.329 107.748C218.52 107.133 218.902 105.904 219.474 105.699C220.046 105.699 220.046 105.904 220.427 106.314C220.427 107.133 220.046 107.748 219.855 108.567C219.092 110.615 218.902 113.483 218.902 116.146C220.427 115.737 220.809 114.303 221.381 113.074C221.572 112.459 221.953 111.845 222.144 111.025C222.334 110.411 222.525 109.386 222.716 108.977C223.097 108.567 224.051 108.157 224.623 107.953C225.195 107.543 226.149 107.133 226.53 106.723C227.102 105.904 227.102 104.265 227.675 103.651C228.056 103.241 229.01 103.241 229.773 103.036C234.922 101.602 239.881 99.9636 244.649 98.3249C248.654 97.0958 253.231 95.8667 256.664 93.6134C257.236 92.9989 258.571 91.9747 259.143 90.9505C260.097 89.3117 259.716 86.6487 258.953 85.01C258.381 83.7809 257.427 82.5519 256.664 81.5276C252.468 75.9968 247.891 70.4661 243.504 65.345C241.788 63.2965 239.69 61.2481 237.02 60.019C234.541 62.2723 231.68 64.3207 228.247 65.5498C224.814 66.7789 220.809 67.8031 216.613 68.0079C209.556 68.4176 203.263 67.1886 199.067 64.5256C197.541 63.7062 196.397 62.2723 195.252 61.2481C186.288 66.1643 176.562 71.4903 167.789 77.0211C165.881 78.2501 164.356 79.2744 163.021 80.9131C161.686 82.5519 160.16 84.6003 160.923 87.2633C161.495 89.3117 163.021 91.3602 164.928 91.9747C166.835 92.5892 169.124 92.3844 171.222 92.1795C173.129 92.1795 175.227 91.9747 177.134 91.7698C176.562 91.1553 176.371 89.7214 177.325 89.7214C177.897 89.7214 178.469 90.9505 178.85 91.565C179.232 92.1795 179.804 92.9989 179.995 93.8183C180.567 95.457 180.376 97.5055 181.711 97.7103C182.093 95.6619 181.711 92.5892 181.33 90.7456C181.139 89.7214 180.567 88.2875 181.711 88.2875C182.474 88.2875 182.474 89.3117 182.855 90.1311C183.237 91.1553 184.191 92.1795 184.763 93.4086C185.526 95.0473 185.716 97.3006 187.242 97.7103C187.433 94.6377 186.67 92.3844 185.526 90.5408C185.144 89.9262 184 87.8778 185.526 87.8778C186.288 87.8778 186.67 89.1069 187.051 89.7214C188.196 91.9747 189.149 94.6377 188.959 98.12C189.34 97.9152 189.912 97.9152 190.103 97.7103C190.866 94.0231 189.721 91.3602 188.577 89.1069C188.196 88.2875 187.623 86.8536 188.959 86.8536C189.721 86.8536 190.103 88.0826 190.294 88.6972C191.438 90.9505 192.391 93.2038 192.01 96.4813C192.582 95.8667 192.582 95.0473 192.773 94.0231C192.964 92.9989 193.154 91.9747 192.964 90.9505C192.773 89.9262 192.01 88.6972 191.438 87.673C190.866 86.6487 190.294 85.6245 189.34 85.01C188.386 84.3955 186.861 84.1906 185.526 83.7809C182.665 83.1664 180.185 82.7567 177.134 82.347C175.99 82.1422 173.51 82.1422 173.51 80.9131C173.51 79.684 175.036 80.2986 175.799 80.2986C178.088 80.7083 179.613 80.7083 181.711 81.118C182.665 81.3228 183.809 81.7325 184.572 81.7325C184.953 81.7325 185.526 81.3228 186.098 81.118C189.721 79.8889 193.536 78.455 196.969 77.2259C197.159 75.9969 197.35 74.9726 197.732 73.9484C197.541 73.5387 196.969 73.129 196.397 72.7193C196.015 72.3097 195.252 71.9 195.252 71.0806C195.252 70.6709 195.634 70.4661 195.824 70.4661C196.587 70.2612 197.159 71.2854 197.732 71.6951C198.304 72.3097 199.257 72.7193 199.257 73.5387C199.257 73.9484 199.067 74.5629 198.876 75.1775C198.685 75.792 198.495 76.4065 198.495 76.8162C197.732 80.7083 198.304 84.1906 200.783 86.0342C201.546 86.4439 202.69 86.8536 203.644 87.0584C204.407 87.2633 205.36 87.2633 206.314 87.4681C206.886 87.673 207.268 88.4923 207.649 89.1069C208.603 90.3359 209.175 91.3602 210.128 92.5892C210.319 92.9989 211.082 93.4086 211.273 94.0231H209.366C209.366 94.0231 209.366 93.8183 209.175 93.8183C208.221 92.5892 207.649 91.7698 206.886 90.5408C206.505 90.1311 205.933 89.1069 205.551 88.902C204.979 88.6972 204.407 88.6972 203.835 88.4923C203.263 88.2875 202.69 88.2875 202.118 88.0826C198.685 86.8536 196.587 83.9858 196.778 79.0695C193.727 80.0937 190.675 81.118 187.623 82.347C190.103 82.9615 191.629 84.3955 192.773 86.4439C193.345 87.4681 194.299 89.1069 194.489 90.3359C194.68 91.1553 194.489 92.7941 194.299 94.0231C194.108 95.0473 193.917 96.0716 193.536 96.8909C192.201 99.5539 187.623 100.988 185.335 98.3249C184.572 97.3006 184.191 96.0716 183.618 94.6377C183.428 96.4813 184 99.1442 182.474 99.5539C181.33 99.9636 180.376 99.1442 179.804 98.5297C178.66 97.3006 179.041 94.6377 177.897 93.4086C174.845 93.8183 171.794 94.0231 168.552 94.0231C164.928 94.228 162.639 93.2038 160.923 91.3602C159.588 89.5166 158.253 86.6487 159.397 83.5761ZM241.597 86.4439C240.071 84.8051 238.546 83.1664 236.829 81.5276C236.448 83.7809 236.257 86.2391 235.876 88.4923C237.973 87.8778 239.69 87.2633 241.597 86.4439ZM241.788 61.0432C240.834 57.1512 238.164 55.7173 234.922 53.8737C233.587 53.0543 231.87 52.2349 230.154 51.6204C228.438 50.801 227.102 50.1865 226.149 48.7526C225.195 47.3187 224.814 45.2703 224.623 43.2218C223.86 38.9201 223.479 34.8232 222.525 30.9312C222.144 29.0876 221.381 27.4488 220.427 26.0149C218.52 22.9423 216.422 20.4841 212.989 19.4599C209.175 18.2308 204.788 19.8696 201.737 21.3035C200.211 22.1229 198.685 22.9423 197.35 23.9665C196.015 24.9907 195.062 26.2198 193.917 27.6537C191.819 30.3166 189.721 32.9796 189.912 37.8959C190.103 37.8959 190.294 37.4862 190.484 37.2813C190.866 36.6668 191.629 35.2329 192.582 35.2329C193.536 35.2329 193.917 36.462 194.489 36.8716C195.062 36.462 195.443 36.0523 196.015 35.6426C196.397 35.2329 196.969 34.6184 197.541 34.4135C198.495 34.2087 199.257 35.4377 200.211 35.8474C200.783 35.4377 201.165 34.8232 201.737 34.2087C202.118 33.799 202.69 32.7748 203.263 32.5699C204.407 32.3651 204.788 33.799 205.742 34.2087C206.314 33.5941 206.695 32.9796 207.458 32.3651C207.84 31.9554 208.603 30.7263 209.366 30.7263C210.128 30.7263 210.891 31.9554 211.273 32.5699C211.845 33.3893 212.417 34.0038 212.799 34.6184C213.752 36.2571 214.706 38.1007 215.469 39.1249C215.659 38.1007 215.85 36.6668 216.041 35.2329C216.231 34.0038 216.231 31.9554 217.376 31.9554C218.52 31.9554 217.948 33.5941 217.948 34.6184C219.855 33.799 221.953 36.0523 221.953 37.8959C222.144 39.1249 221.572 40.1492 221.19 40.9685C220.618 42.1976 219.283 43.017 218.52 44.0412C217.948 45.0654 217.566 46.0896 216.994 47.1138C217.566 49.1623 218.329 51.2107 219.092 53.464C219.474 54.4882 219.855 55.5125 220.618 55.9221C221.953 56.7415 224.051 56.7415 226.149 56.9464C228.247 56.9464 230.345 57.1512 232.061 57.356C236.638 57.5609 239.309 58.9948 241.788 61.0432ZM191.056 61.4529C194.68 59.6093 198.495 57.1512 203.644 57.1512C205.36 57.1512 207.649 57.5609 208.984 56.9464C208.793 55.5125 208.221 54.2834 208.031 53.0543C204.979 53.0543 201.927 52.4398 200.02 50.1865C199.067 49.1623 198.113 47.3187 197.732 45.0654C197.541 44.0412 197.159 42.1976 198.304 42.1976C199.448 42.1976 199.257 45.0654 199.639 45.8848C200.02 47.1138 200.783 48.3429 201.546 48.9574C202.881 50.3914 205.36 51.2107 207.84 51.0059C209.556 50.801 210.891 49.9817 212.036 48.7526C212.417 48.3429 212.798 47.7284 213.18 47.7284C213.561 47.7284 213.943 47.9332 213.943 48.5478C213.943 49.3671 212.798 50.3913 212.417 50.801C211.654 51.4156 210.701 51.8253 209.938 52.2349C210.128 53.0543 210.319 53.6689 210.51 54.4882C210.701 55.3076 211.082 56.127 210.891 56.9464C210.701 57.9706 209.556 58.5851 208.412 58.79C206.505 58.9948 204.216 58.5851 202.118 58.79C200.02 58.9948 198.304 59.6093 196.969 60.2239C200.783 64.7304 208.221 66.7789 216.613 66.1643C224.242 65.5498 231.298 63.2965 235.303 59.1996C232.824 58.3803 229.773 58.1754 226.721 58.1754C223.67 57.9706 220.427 57.7657 219.092 55.7173C218.329 54.4882 217.948 52.8495 217.376 51.2107C217.185 50.5962 216.994 49.7768 216.613 48.7526C216.422 47.9332 216.041 47.1138 216.041 46.2945C216.041 45.6799 216.613 45.0654 216.994 44.246C217.376 43.6315 217.566 43.017 217.948 42.4024C218.711 41.1734 219.855 40.5588 220.427 39.5346C221.381 38.1007 220.999 36.0523 219.474 35.4377C218.902 35.6426 217.948 35.8474 217.948 36.8716C218.329 37.0765 218.711 36.2571 219.283 36.462C219.474 36.462 219.664 36.6668 219.855 37.0765C220.046 38.3056 218.139 38.3056 217.757 39.1249C217.376 40.1492 217.757 41.7879 216.613 41.7879C216.041 41.7879 215.659 40.9685 215.278 40.1492C214.896 39.3298 214.515 38.7152 214.134 38.3056C212.798 36.2571 211.463 33.5941 209.938 32.1602C209.366 32.5699 208.984 33.3893 208.412 34.0038C208.031 34.4135 207.268 35.4377 206.695 35.6426C205.742 35.6426 205.17 34.2087 204.216 34.0038C203.835 34.4135 203.263 35.0281 202.69 35.6426C202.309 36.0523 201.737 37.0765 201.165 37.2813C200.211 37.4862 199.448 36.0523 198.495 35.8474C197.732 36.2571 196.969 36.8717 197.35 38.3056C199.83 36.6668 201.927 38.5104 203.263 40.354C204.407 41.9928 205.17 44.4509 204.598 46.4993C205.17 46.909 205.933 46.7042 205.933 47.5235C205.933 49.1623 203.072 47.9332 202.881 47.1138C202.69 46.4993 203.263 45.8848 203.263 45.0654C203.453 43.6315 202.69 42.1976 202.118 41.3782C201.546 40.5588 200.783 39.3298 199.639 39.3298C198.304 39.3298 197.732 40.7637 196.778 40.5588C196.015 40.354 196.015 39.3298 196.015 38.1007C195.824 37.8959 195.634 38.1007 195.252 38.1007C194.68 38.1007 194.299 37.0765 193.727 36.8716C193.917 39.1249 194.299 41.3782 194.489 43.6315C194.68 45.8848 194.871 48.5478 194.108 50.3914C193.345 52.4398 191.247 53.8737 191.056 56.3318C190.484 58.79 190.866 60.019 191.056 61.4529Z" fill="black"/>
<path fill-rule="evenodd" clip-rule="evenodd" d="M209.175 36.6669C208.031 36.462 207.268 37.0766 206.314 37.6911C205.742 38.1008 204.788 38.5105 204.788 39.3299C204.788 39.5347 204.979 40.1492 205.36 40.1492C205.933 40.3541 206.505 39.5347 207.077 39.3299C207.458 38.9202 208.221 38.5105 208.793 38.5105C209.938 38.5105 210.51 39.7396 211.463 39.5347C211.654 39.5347 212.036 39.125 212.036 38.7153C212.036 37.896 211.082 37.6911 210.891 37.4863C210.319 36.8717 209.938 36.6669 209.175 36.6669Z" fill="black"/>
<path fill-rule="evenodd" clip-rule="evenodd" d="M210.51 45.0654C209.556 44.8606 209.556 46.0896 208.984 46.909C208.603 47.3187 207.649 47.7284 207.458 48.1381C207.268 49.572 208.603 49.1623 209.365 48.7526C209.747 48.5477 210.128 48.1381 210.319 47.9332C210.51 47.5235 212.036 45.2702 210.51 45.0654Z" fill="black"/>
<path d="M248.082 98.7348C248.272 98.7348 248.463 98.7348 248.463 98.5299C249.226 97.9154 249.607 97.096 249.798 96.0718C249.989 94.2282 249.417 91.7701 247.891 89.9265C245.602 86.8538 242.551 85.4199 240.644 86.8538C240.262 87.0587 240.071 87.6732 240.453 88.0829C240.644 88.4926 241.216 88.6974 241.597 88.2877C242.741 87.6732 245.03 88.4926 246.747 90.9507C247.891 92.5895 248.463 94.433 248.272 95.8669C248.272 96.4815 247.891 96.8912 247.7 97.096C247.319 97.3009 247.319 97.9154 247.509 98.3251C247.509 98.5299 247.891 98.7348 248.082 98.7348Z" fill="black"/>
<path fill-rule="evenodd" clip-rule="evenodd" d="M166.072 92.7946C164.356 91.3607 164.356 87.2638 167.407 83.7815C170.268 80.504 173.701 80.7088 175.608 81.1185L166.072 92.7946Z" fill="white"/>
<path d="M166.072 93.6136C166.263 93.6136 166.644 93.4088 166.835 93.2039C167.026 92.7942 167.026 92.1797 166.644 91.9748C166.263 91.5652 165.881 90.9506 165.881 90.1312C165.691 88.6973 166.263 86.4441 168.17 84.3956C170.077 82.3472 172.557 81.5278 175.608 81.9375C175.99 81.9375 176.562 81.7326 176.562 81.1181C176.562 80.7084 176.371 80.0939 175.799 80.0939C172.175 79.4794 169.124 80.5036 166.835 82.9617C164.928 85.0101 163.974 87.878 164.165 90.1312C164.356 91.5652 164.737 92.5894 165.691 93.2039C165.691 93.6136 165.881 93.6136 166.072 93.6136Z" fill="black"/>
<path fill-rule="evenodd" clip-rule="evenodd" d="M207.649 40.1496C207.268 40.3544 207.077 40.969 207.458 41.5835L208.221 42.8126C208.412 43.2222 208.984 43.4271 209.556 43.0174C209.938 42.8126 210.128 42.198 209.747 41.5835L208.984 40.3544C208.603 39.9447 208.031 39.7399 207.649 40.1496Z" fill="black"/>
<path fill-rule="evenodd" clip-rule="evenodd" d="M200.592 41.1736C200.211 41.5833 200.02 41.993 200.402 42.6075L201.165 43.6317C201.546 44.0414 201.928 44.2463 202.5 43.8366C202.881 43.4269 203.072 43.0172 202.69 42.4027L201.928 41.3785C201.546 40.9688 200.974 40.9688 200.592 41.1736Z" fill="black"/>
<path fill-rule="evenodd" clip-rule="evenodd" d="M121.825 178.215H55.0733C53.929 178.215 52.9754 179.239 52.9754 180.468V181.082C52.9754 182.311 53.929 183.336 55.0733 183.336H121.825C122.97 183.336 123.923 182.311 123.923 181.082V180.263C123.923 179.034 122.97 178.215 121.825 178.215Z" fill="white"/>
<path d="M55.0734 183.95H121.825C123.351 183.95 124.495 182.721 124.495 181.082V180.263C124.495 178.624 123.351 177.395 121.825 177.395H55.0734C53.5476 177.395 52.4033 178.624 52.4033 180.263V180.877C52.2126 182.516 53.5476 183.95 55.0734 183.95ZM121.825 178.829C122.588 178.829 123.16 179.443 123.16 180.263V180.877C123.16 181.697 122.588 182.311 121.825 182.311H55.0734C54.3105 182.311 53.7384 181.697 53.7384 180.877V180.263C53.7384 179.443 54.3105 178.829 55.0734 178.829H121.825Z" fill="black"/>
<path fill-rule="evenodd" clip-rule="evenodd" d="M54.3104 178.419L89.4028 178.215V183.336L54.3104 183.541L53.3568 180.878L54.3104 178.419Z" fill="black"/>
<path d="M218.901 179.033L212.989 190.505H224.814L218.901 179.033Z" fill="black"/>
<path fill-rule="evenodd" clip-rule="evenodd" d="M243.695 200.747H28.754C27.9911 200.747 27.2282 201.362 27.2282 202.386V204.025C27.2282 204.844 27.8004 205.663 28.754 205.663H243.695C244.458 205.663 245.221 205.049 245.221 204.025V202.386C245.221 201.362 244.458 200.747 243.695 200.747Z" fill="black"/>
<path fill-rule="evenodd" clip-rule="evenodd" d="M92.2637 184.155C93.408 184.155 94.1709 183.131 94.1709 182.107V178.01C94.1709 176.781 93.2173 175.961 92.2637 175.961H88.4493C87.305 175.961 86.5421 176.985 86.5421 178.01V182.107C86.5421 183.336 87.4957 184.155 88.4493 184.155H92.2637Z" fill="#FF645A"/>
<path d="M88.4494 176.78C87.8772 176.78 87.3051 177.395 87.3051 178.009V182.106C87.3051 182.721 87.8772 183.335 88.4494 183.335H92.2638C92.8359 183.335 93.4081 182.721 93.4081 182.106V178.009C93.4081 177.395 92.8359 176.78 92.2638 176.78H88.4494ZM88.4494 175.142H92.2638C93.7895 175.142 94.9338 176.371 94.9338 178.009V182.106C94.9338 183.745 93.7895 184.974 92.2638 184.974H88.4494C86.9236 184.974 85.7793 183.745 85.7793 182.106V178.009C85.5886 176.371 86.9236 175.142 88.4494 175.142Z" fill="black"/>
<path fill-rule="evenodd" clip-rule="evenodd" d="M166.644 194.807H106.186C105.805 194.807 105.614 195.012 105.614 195.421V197.06C105.614 198.699 106.758 199.928 108.284 199.928H164.356C165.881 199.928 167.026 198.699 167.026 197.06V195.421C167.026 195.012 166.835 194.807 166.644 194.807Z" fill="white"/>
<path d="M108.284 200.952H164.356C166.263 200.952 167.979 199.313 167.979 197.06V195.421C167.979 194.602 167.407 193.988 166.644 193.988H106.186C105.423 193.988 104.851 194.602 104.851 195.421V197.06C104.66 199.109 106.377 200.952 108.284 200.952ZM166.263 195.626V197.06C166.263 198.289 165.309 199.109 164.356 199.109H108.284C107.14 199.109 106.377 198.084 106.377 197.06V195.626H166.263Z" fill="black"/>
<path fill-rule="evenodd" clip-rule="evenodd" d="M135.175 161.622H175.227C176.943 161.622 179.232 164.285 178.66 165.924L171.412 192.349C171.031 193.987 169.124 195.421 167.407 195.421H127.356C125.639 195.421 123.351 192.758 123.923 191.12L131.17 164.9C131.742 163.056 133.459 161.622 135.175 161.622Z" fill="white"/>
<path d="M127.356 196.241H167.407C169.505 196.241 171.603 194.602 172.175 192.554L179.423 166.334C179.613 165.309 179.423 164.08 178.66 163.056C177.897 162.032 176.562 160.803 175.227 160.803H135.176C133.078 160.803 130.98 162.441 130.408 164.49L123.16 190.71C122.97 191.734 123.16 192.963 123.923 193.987C124.686 195.217 126.021 196.241 127.356 196.241ZM175.227 162.646C175.799 162.646 176.752 163.261 177.325 164.08C177.706 164.695 177.897 165.309 177.897 165.719L170.649 191.939C170.268 193.373 168.933 194.397 167.598 194.397H127.547C126.975 194.397 126.021 193.783 125.449 192.963C125.067 192.349 124.877 191.734 124.877 191.324L132.124 165.104C132.506 163.671 133.841 162.646 135.176 162.646H175.227Z" fill="black"/>
<path fill-rule="evenodd" clip-rule="evenodd" d="M155.201 175.552C152.912 175.552 150.624 177.6 149.861 180.263C149.098 182.926 150.242 184.974 152.531 184.974C154.82 184.974 157.108 182.926 157.871 180.263C158.634 177.805 157.49 175.552 155.201 175.552Z" fill="white"/>
<path d="M152.531 185.999C155.201 185.999 157.871 183.745 158.634 180.673C159.016 179.034 158.825 177.395 158.062 176.371C157.299 175.347 156.345 174.732 155.01 174.732C152.34 174.732 149.67 176.985 148.907 180.058C148.526 181.697 148.717 183.336 149.48 184.36C150.242 185.384 151.196 185.794 152.531 185.999ZM155.201 176.371C155.964 176.371 156.536 176.576 156.918 177.19C157.299 177.805 157.49 178.829 157.108 180.058C156.536 182.311 154.438 184.155 152.531 184.155C151.768 184.155 151.196 183.95 150.815 183.336C150.433 182.721 150.242 181.697 150.624 180.468C151.196 178.215 153.294 176.371 155.201 176.371Z" fill="black"/>
<path fill-rule="evenodd" clip-rule="evenodd" d="M196.397 177.395L190.866 183.335L196.397 189.276L201.927 183.335L196.397 177.395Z" fill="black"/>
<path fill-rule="evenodd" clip-rule="evenodd" d="M123.542 35.6428L118.011 41.5833L119.346 43.0172L124.877 37.0767L123.542 35.6428Z" fill="black"/>
<path fill-rule="evenodd" clip-rule="evenodd" d="M119.155 35.6428L117.82 37.0767L123.542 43.0172L124.877 41.5833L119.155 35.6428Z" fill="black"/>
<path fill-rule="evenodd" clip-rule="evenodd" d="M265.024 205.519H5.45581C3.17526 205.519 1.30936 207.459 1.30936 209.829C1.30936 212.199 3.17526 214.138 5.45581 214.138H265.024C267.305 214.138 269.171 212.199 269.171 209.829C269.171 207.459 267.305 205.519 265.024 205.519Z" fill="white"/>
<path d="M5.45587 215H265.024C267.719 215 270 212.63 270 209.829C270 207.027 267.719 204.657 265.024 204.657H5.45587C2.76068 204.657 0.480133 207.027 0.480133 209.829C0.480133 212.63 2.76068 215 5.45587 215ZM265.024 206.381C266.89 206.381 268.341 207.889 268.341 209.829C268.341 211.768 266.89 213.276 265.024 213.276H5.45587C3.58997 213.276 2.1387 211.768 2.1387 209.829C2.1387 207.889 3.58997 206.381 5.45587 206.381H265.024Z" fill="black"/>
</svg>
