<svg width="250" height="241" viewBox="0 0 250 241" fill="none" xmlns="http://www.w3.org/2000/svg">
<g clip-path="url(#clip0)">
<path fill-rule="evenodd" clip-rule="evenodd" d="M29.8414 85.1324C29.8414 85.1324 24.207 71.1523 38.1887 67.1878C46.5359 64.8926 47.788 73.6562 43.197 74.2822C38.606 74.9082 34.8498 66.3532 36.9366 61.3454C39.2321 56.3376 44.2404 56.9636 50.9182 55.2943C56.7613 53.8337 55.7179 46.322 55.7179 46.322L29.8414 85.1324Z" fill="white"/>
<path d="M29.8415 85.9671C29.6328 85.9671 29.2154 85.7585 29.0067 85.5498C28.7981 85.3411 26.2939 78.6641 29.0067 73.239C30.2588 70.5264 32.5543 68.6485 35.6845 67.3966C35.2672 65.31 35.2672 63.2234 36.1019 61.3455C37.98 57.1723 41.3189 56.5463 45.7012 55.9204C47.162 55.7117 48.8314 55.2944 50.5009 54.8771C55.5092 53.4165 54.6745 46.9481 54.6745 46.7394C54.6745 46.3221 54.8832 45.9048 55.3006 45.9048C55.7179 45.9048 56.1353 46.1134 56.1353 46.5308C56.5526 49.2433 55.9266 55.0857 50.9183 56.3377C49.2488 56.755 47.5794 57.1723 46.1186 57.381C41.945 58.2156 39.0234 58.6329 37.5627 61.9715C36.9366 63.4321 36.9366 65.1013 37.1453 66.7706C37.354 66.7706 37.5627 66.5619 37.7713 66.5619C41.945 65.5186 44.2405 66.9792 45.0752 68.0225C46.3273 69.2745 46.7446 71.1524 46.1186 72.8217C45.7012 74.0736 44.4491 75.1169 42.9884 75.3256C41.1102 75.5342 39.2321 74.6996 37.7713 72.613C36.9366 71.5697 36.3106 70.3178 35.8932 69.0658C33.1804 70.1091 31.3022 71.7784 30.2588 74.0736C27.7547 79.0814 30.2588 85.1325 30.2588 85.1325C30.4675 85.5498 30.2588 85.9671 29.8415 86.1758C30.0501 85.7585 30.0501 85.9671 29.8415 85.9671ZM37.7713 68.2312C38.1887 69.4831 38.8147 70.5264 39.4408 71.3611C40.0668 72.1957 41.5276 73.6563 43.1971 73.4476C44.0318 73.239 44.6578 72.8217 45.0752 71.987C45.4925 70.9437 45.0752 69.6918 44.2405 68.8572C43.6144 68.0225 41.945 66.9792 38.3974 67.8139C38.3974 68.0225 38.1887 68.0225 37.7713 68.2312Z" fill="black"/>
<path d="M66.152 60.928L60.7263 59.4674L64.6912 55.5029L66.152 60.928ZM60.9349 59.4674L66.152 60.928L64.6912 55.5029L60.9349 59.4674Z" fill="#BA9BC9"/>
<path d="M66.1519 61.7628C66.1519 61.7628 65.9432 61.7628 66.1519 61.7628L60.5175 60.3022C60.3088 60.3022 60.1002 60.0936 59.8915 59.6762C59.8915 59.4676 59.8915 59.0503 60.1002 58.8416L64.0651 54.8771C64.2738 54.6685 64.4825 54.6685 64.8998 54.6685C65.1085 54.6685 65.3172 54.8771 65.5259 55.2944L66.9866 60.7195C66.9866 60.9282 66.9866 61.3455 66.778 61.5542C66.5693 61.5542 66.3606 61.7628 66.1519 61.7628ZM62.3956 59.0503L65.1085 59.6762L64.4825 56.9637L62.3956 59.0503Z" fill="#FF645A"/>
<path d="M197.412 84.5064C197.204 84.5064 196.995 84.5064 196.786 84.2977C196.578 83.8804 196.578 83.4631 196.786 83.2544C196.995 83.0458 200.543 79.7072 199.499 73.0302C198.873 69.2743 197.621 66.5618 196.16 64.4752C195.952 64.8925 195.743 65.3098 195.534 65.7271C193.239 70.109 189.274 72.6129 185.309 72.8215C182.805 72.8215 180.509 71.7782 179.257 70.109C178.422 68.857 178.422 67.3964 179.048 65.9358C179.883 63.6406 182.179 61.554 184.683 60.7194C188.648 59.4674 192.195 59.6761 194.699 61.3453C194.908 61.554 195.117 61.554 195.326 61.7626C195.952 57.5895 194.073 54.0423 191.361 51.9557C185.935 47.1566 178.005 47.7826 177.588 47.7826C177.17 47.7826 176.962 47.5739 176.753 47.3652C176.544 46.9479 176.753 46.5306 177.17 46.322C177.588 46.1133 186.352 45.696 192.404 50.7038C195.326 53.2077 198.038 57.7981 196.578 63.0146C198.664 65.1012 199.917 68.4397 200.751 73.0302C202.212 80.5419 197.83 84.5064 197.621 84.715C197.621 84.5064 197.412 84.5064 197.412 84.5064ZM189.482 61.3453C188.23 61.3453 186.561 61.554 184.891 62.18C183.013 62.8059 180.927 64.6839 180.3 66.3531C180.092 67.1877 179.883 68.231 180.509 69.2743C181.344 70.5263 183.013 71.3609 185.1 71.3609C188.648 71.3609 191.987 68.857 194.073 65.1012C194.491 64.4752 194.699 63.8492 194.908 63.4319C194.491 63.2232 194.282 62.8059 193.865 62.5973C192.613 61.554 191.152 61.3453 189.482 61.3453Z" fill="black"/>
<path d="M57.8047 209.075L67.1954 236.201H48.4141L57.8047 209.075Z" fill="black"/>
<path fill-rule="evenodd" clip-rule="evenodd" d="M39.8581 26.9167C43.197 26.9167 45.9099 29.6293 45.9099 32.9678C45.9099 36.3064 43.197 39.0189 39.8581 39.0189C36.5193 39.0189 33.8064 36.3064 33.8064 32.9678C33.8064 29.6293 36.5193 26.9167 39.8581 26.9167Z" fill="#FF645A"/>
<path fill-rule="evenodd" clip-rule="evenodd" d="M156.511 35.6807C158.389 35.6807 160.058 37.1413 160.058 39.2278C160.058 41.1058 158.598 42.775 156.511 42.775C154.633 42.775 152.963 41.3144 152.963 39.2278C152.963 37.1413 154.633 35.6807 156.511 35.6807Z" fill="#FF645A"/>
<path d="M164.649 27.7516C164.232 27.7516 163.815 27.3343 163.815 26.917C163.815 26.917 164.023 22.3265 161.102 18.9879C160.476 18.1533 159.432 17.736 158.389 17.5273C158.598 18.9879 158.18 20.6572 157.554 22.5351C156.302 25.665 154.215 26.291 153.172 26.4996C151.503 26.7083 149.624 25.665 148.79 24.2044C147.955 22.7438 147.955 21.2832 148.998 20.0312C150.459 17.736 153.589 16.0667 156.511 15.8581C156.302 15.4408 156.093 15.2321 155.885 14.8148C152.963 10.6416 144.616 10.8503 144.616 10.8503C144.199 10.8503 143.781 10.433 143.781 10.0157C143.781 9.59834 144.199 9.18102 144.616 9.18102C145.033 9.18102 153.798 8.97236 157.346 13.7715C157.763 14.3975 158.18 15.0234 158.389 15.8581C160.058 16.0667 161.728 16.9014 162.563 17.9447C165.693 21.7005 165.693 26.7083 165.693 26.917C165.484 27.3343 165.067 27.7516 164.649 27.7516ZM156.928 17.5273C154.215 17.5273 151.503 18.9879 150.25 20.8659C149.624 21.9092 149.833 22.7438 150.25 23.3698C150.876 24.4131 152.129 25.039 153.172 25.039C154.424 25.039 155.467 23.9957 156.094 22.1178C156.72 20.2399 156.928 18.7793 156.928 17.5273Z" fill="#FF645A"/>
<path fill-rule="evenodd" clip-rule="evenodd" d="M30.2588 172.56C30.2588 172.56 36.9366 170.891 37.5626 162.545C38.1887 153.364 30.2588 137.506 26.9199 137.297C23.9983 137.088 16.9032 152.112 18.99 162.545C20.6594 170.474 26.9199 172.978 26.9199 172.978L30.2588 172.56Z" fill="white"/>
<path d="M26.9199 173.812H26.7112C26.5025 173.603 19.8247 170.891 18.1553 162.753C16.4858 154.198 20.8681 142.305 24.4157 138.131C25.2504 137.088 26.0851 136.671 26.9199 136.671C27.7546 136.671 28.5893 137.297 29.8414 138.549C33.5977 142.931 39.0234 155.033 38.3973 162.753C37.7713 171.517 30.4674 173.395 30.4674 173.603C30.0501 173.812 29.6327 173.395 29.424 172.977C29.2154 172.56 29.6327 172.143 30.0501 171.934C30.2588 171.934 36.3105 170.265 36.7279 162.545C37.1452 155.241 32.1369 143.557 28.3806 139.383C27.3372 138.132 26.7112 138.131 26.7112 138.131C26.5025 138.131 26.0851 138.34 25.4591 139.175C22.3289 142.722 17.9466 154.198 19.616 162.545C21.0768 169.848 27.1285 172.351 27.1285 172.351C27.5459 172.56 27.7546 172.977 27.5459 173.395C27.5459 173.603 27.3372 173.812 26.9199 173.812Z" fill="black"/>
<path d="M31.5109 224.933C31.0935 224.933 30.6762 224.725 30.6762 224.307C30.6762 223.89 27.5459 192.174 27.3373 172.143C27.3373 161.71 26.5025 150.443 26.2938 149.817C26.0852 149.399 26.5025 148.982 26.9199 148.773C27.3373 148.565 27.7546 148.982 27.9633 149.399C28.172 150.025 29.0067 162.127 29.0067 172.143C29.2154 192.174 32.3456 223.89 32.3456 224.099C32.3456 224.516 31.9282 224.933 31.5109 224.933Z" fill="black"/>
<path fill-rule="evenodd" clip-rule="evenodd" d="M39.0233 203.233C39.0233 203.233 45.9098 202.607 47.7879 194.469C49.8748 185.497 49.2487 169.013 46.5359 166.509C44.8664 165.049 27.1285 176.525 26.7111 191.131C26.5025 199.06 35.6844 203.233 35.6844 203.233H39.0233Z" fill="white"/>
<path d="M39.0234 204.068C38.606 204.068 38.1887 203.859 38.1887 203.442C38.1887 203.024 38.3973 202.607 38.8147 202.607C39.0234 202.607 45.2838 201.772 46.9533 194.469C49.0401 185.497 48.414 169.43 45.9099 167.344C45.4925 167.344 43.197 168.178 39.6494 170.891C36.7279 172.978 27.5459 181.115 27.3372 191.339C27.1286 198.434 35.8932 202.398 35.8932 202.398C36.3105 202.607 36.5192 203.024 36.3105 203.442C36.1018 203.859 35.6845 204.068 35.2671 203.859C34.8498 203.65 25.4591 199.477 25.6678 191.131C26.0852 178.611 38.8147 168.387 44.0317 166.301C45.4925 165.675 46.3272 165.675 46.9533 166.092C50.2922 169.013 50.2922 186.332 48.414 194.678C46.5359 203.233 39.0234 204.068 39.0234 204.068Z" fill="black"/>
<path d="M33.389 233.071C32.9717 233.071 32.5543 232.654 32.5543 232.236C32.5543 232.028 32.1369 220.969 35.0585 200.938C36.3106 191.757 38.8147 183.619 42.3623 176.316C42.571 175.899 42.9884 175.69 43.4057 175.899C43.8231 176.107 44.0318 176.525 43.8231 176.942C40.2755 184.245 37.98 192.174 36.7279 201.146C33.8064 220.969 34.2237 232.028 34.2237 232.028C34.2237 232.862 33.8064 233.071 33.389 233.071Z" fill="black"/>
<path fill-rule="evenodd" clip-rule="evenodd" d="M24.6243 203.65C24.6243 203.65 35.6844 199.269 28.3806 183.828C21.7028 169.222 10.0167 162.127 8.76458 162.545C7.51249 162.962 1.25206 188.836 6.46909 198.017C12.5208 208.241 21.2854 204.902 21.2854 204.902L24.6243 203.65Z" fill="white"/>
<path d="M17.9466 206.154C14.6077 206.154 9.59934 204.902 5.84308 198.434C1.25209 190.505 5.00836 170.056 7.30385 163.797C7.72121 162.336 8.13857 161.919 8.55594 161.919C10.6427 161.084 22.5376 169.222 29.2154 183.619C31.9282 189.461 32.3456 194.469 30.8848 198.434C29.0067 202.816 25.0417 204.276 25.0417 204.485C24.6244 204.694 24.207 204.485 23.9983 204.068C23.7897 203.65 23.9983 203.233 24.4157 203.024C24.4157 203.024 27.7546 201.564 29.4241 197.808C30.8848 194.261 30.2588 189.67 27.9633 184.245C21.7028 170.474 11.4775 164.005 9.39066 163.379C7.72121 166.3 2.71286 189.461 7.51253 197.599C13.1469 207.197 21.2855 204.068 21.2855 204.068C21.7028 203.859 22.1202 204.068 22.3289 204.485C22.5376 204.902 22.3289 205.319 21.9115 205.528C21.7028 205.528 20.2421 206.154 17.9466 206.154Z" fill="black"/>
<path d="M28.798 232.445C28.3806 232.445 28.172 232.236 27.9633 231.819C27.9633 231.61 24.207 213.248 21.9115 204.068C19.616 194.887 14.6077 180.698 14.6077 180.489C14.399 180.072 14.6077 179.655 15.025 179.446C15.4424 179.237 15.8598 179.446 16.0685 179.863C16.0685 180.072 21.0768 194.261 23.3723 203.442C25.6678 212.622 29.424 230.984 29.6327 231.193C29.6327 231.819 29.424 232.236 28.798 232.445C29.0067 232.445 28.798 232.445 28.798 232.445Z" fill="black"/>
<path fill-rule="evenodd" clip-rule="evenodd" d="M20.242 220.76H43.197C44.0317 220.76 44.8664 221.386 44.8664 222.429L42.3622 238.705C42.3622 239.539 41.7362 240.374 41.1102 240.374H22.7462C22.1202 240.374 21.4941 239.748 21.4941 238.705L18.7813 222.429C18.5726 221.386 19.4073 220.76 20.242 220.76Z" fill="white"/>
<path d="M40.9015 241H22.5376C21.4942 241 20.4508 239.957 20.4508 238.705L17.7379 222.429C17.7379 220.969 18.7813 219.926 20.0334 219.926H42.9883C44.2404 219.926 45.2838 220.969 45.2838 222.221L42.7797 238.705C42.9883 239.957 42.1536 241 40.9015 241ZM20.2421 221.595C19.8247 221.595 19.4074 222.012 19.4074 222.429L22.1202 238.705C22.1202 239.331 22.3289 239.539 22.5376 239.539H40.9015C41.1102 239.539 41.3189 239.122 41.3189 238.705L43.8231 222.221C43.8231 222.012 43.4057 221.595 42.9883 221.595H20.2421Z" fill="black"/>
<path fill-rule="evenodd" clip-rule="evenodd" d="M18.3639 216.796H44.8664C45.7011 216.796 46.3272 217.422 46.3272 218.465L47.9966 222.847C47.9966 223.682 47.3706 224.516 46.3272 224.516H16.9032C16.0684 224.516 15.2337 223.89 15.2337 222.847L16.9032 218.465C16.9032 217.631 17.5292 216.796 18.3639 216.796Z" fill="white"/>
<path d="M46.3272 225.142H16.9032C15.6511 225.142 14.6077 224.099 14.6077 222.847V222.638L16.2771 218.465C16.2771 217.213 17.3205 216.17 18.5726 216.17H45.0751C46.3272 216.17 47.1619 217.213 47.3706 218.465L49.0401 222.638V222.847C48.8314 224.099 47.788 225.142 46.3272 225.142ZM16.0684 222.847C16.0684 223.264 16.4858 223.473 16.9032 223.473H46.5359C46.9532 223.473 47.1619 223.264 47.3706 222.847L45.7012 218.674V218.465C45.7012 218.048 45.4925 217.631 45.0751 217.631H18.3639C17.9466 217.631 17.7379 218.048 17.7379 218.465V218.674L16.0684 222.847Z" fill="black"/>
<path fill-rule="evenodd" clip-rule="evenodd" d="M178.631 89.9314H241.235C245.618 89.9314 249.165 93.4786 249.165 97.8604V224.098C249.165 228.48 245.618 232.027 241.235 232.027H178.631C174.249 232.027 170.701 228.48 170.701 224.098V97.8604C170.701 93.4786 174.249 89.9314 178.631 89.9314Z" fill="#FF645A"/>
<path d="M241.235 232.654H178.631C173.831 232.654 169.866 228.689 169.866 223.89V97.8606C169.866 93.0614 173.831 89.0969 178.631 89.0969H241.235C246.035 89.0969 250 93.0614 250 97.8606V224.099C250 228.689 246.035 232.654 241.235 232.654ZM178.631 90.7662C174.666 90.7662 171.536 93.8961 171.536 97.8606V224.099C171.536 228.063 174.666 231.193 178.631 231.193H241.235C245.2 231.193 248.331 228.063 248.331 224.099V97.8606C248.331 93.8961 245.2 90.7662 241.235 90.7662H178.631Z" fill="black"/>
<path fill-rule="evenodd" clip-rule="evenodd" d="M182.179 94.3132H237.062C241.444 94.3132 244.992 97.8604 244.992 102.242V214.292C244.992 218.673 241.444 222.221 237.062 222.221H182.179C177.796 222.221 174.249 218.673 174.249 214.292V102.242C174.457 97.8604 178.005 94.3132 182.179 94.3132Z" fill="white"/>
<path d="M237.27 222.847H182.179C177.379 222.847 173.414 218.882 173.414 214.083V102.242C173.414 97.4433 177.379 93.4788 182.179 93.4788H237.062C241.861 93.4788 245.826 97.4433 245.826 102.242V214.292C245.826 218.882 242.07 222.847 237.27 222.847ZM182.179 95.148C178.214 95.148 175.083 98.2779 175.083 102.242V214.292C175.083 218.256 178.214 221.386 182.179 221.386H237.062C241.027 221.386 244.157 218.256 244.157 214.292V102.242C244.157 98.2779 241.027 95.148 237.062 95.148H182.179Z" fill="black"/>
<path fill-rule="evenodd" clip-rule="evenodd" d="M183.222 100.573H192.613C194.908 100.573 196.786 102.451 196.786 104.746V114.136C196.786 116.431 194.908 118.309 192.613 118.309H183.222C180.927 118.309 179.048 116.431 179.048 114.136V104.746C178.84 102.451 180.718 100.573 183.222 100.573Z" fill="#FF645A"/>
<path fill-rule="evenodd" clip-rule="evenodd" d="M204.299 100.573H213.69C215.985 100.573 217.863 102.451 217.863 104.746V114.136C217.863 116.431 215.985 118.309 213.69 118.309H204.299C202.003 118.309 200.125 116.431 200.125 114.136V104.746C200.125 102.451 202.003 100.573 204.299 100.573Z" fill="#FF645A"/>
<path d="M234.349 118.518H224.958C222.663 118.518 220.785 116.64 220.785 114.345V104.955C220.785 102.66 222.663 100.782 224.958 100.782H234.349C236.644 100.782 238.523 102.66 238.523 104.955V114.345C238.731 116.64 236.853 118.518 234.349 118.518ZM224.958 100.573C222.663 100.573 220.785 102.451 220.785 104.746V114.136C220.785 116.431 222.663 118.309 224.958 118.309H234.349C236.644 118.309 238.523 116.431 238.523 114.136V104.746C238.523 102.451 236.644 100.573 234.349 100.573H224.958Z" fill="#DDCEE5"/>
<path fill-rule="evenodd" clip-rule="evenodd" d="M183.222 121.648H192.613C194.908 121.648 196.786 123.526 196.786 125.821V135.21C196.786 137.506 194.908 139.384 192.613 139.384H183.222C180.927 139.384 179.048 137.506 179.048 135.21V125.821C178.84 123.526 180.718 121.648 183.222 121.648Z" fill="#DDCEE5"/>
<path fill-rule="evenodd" clip-rule="evenodd" d="M204.299 121.648H213.69C215.985 121.648 217.863 123.526 217.863 125.821V135.21C217.863 137.506 215.985 139.384 213.69 139.384H204.299C202.003 139.384 200.125 137.506 200.125 135.21V125.821C200.125 123.526 202.003 121.648 204.299 121.648Z" fill="#DDCEE5"/>
<path fill-rule="evenodd" clip-rule="evenodd" d="M224.958 121.648H234.349C236.644 121.648 238.523 123.526 238.523 125.821V135.21C238.523 137.506 236.644 139.384 234.349 139.384H224.958C222.663 139.384 220.785 137.506 220.785 135.21V125.821C220.785 123.526 222.663 121.648 224.958 121.648Z" fill="#DDCEE5"/>
<path fill-rule="evenodd" clip-rule="evenodd" d="M183.222 121.856H192.613C194.908 121.856 196.786 123.734 196.786 126.029V135.419C196.786 137.714 194.908 139.592 192.613 139.592H183.222C180.927 139.592 179.048 137.714 179.048 135.419V126.029C178.84 123.734 180.718 121.856 183.222 121.856Z" fill="#FF645A"/>
<path fill-rule="evenodd" clip-rule="evenodd" d="M204.299 121.856H213.69C215.985 121.856 217.863 123.734 217.863 126.029V135.419C217.863 137.714 215.985 139.592 213.69 139.592H204.299C202.003 139.592 200.125 137.714 200.125 135.419V126.029C200.125 123.734 202.003 121.856 204.299 121.856Z" fill="#FF645A"/>
<path fill-rule="evenodd" clip-rule="evenodd" d="M224.958 121.856H234.349C236.644 121.856 238.523 123.734 238.523 126.029V135.419C238.523 137.714 236.644 139.592 234.349 139.592H224.958C222.663 139.592 220.785 137.714 220.785 135.419V126.029C220.785 123.734 222.663 121.856 224.958 121.856Z" fill="#FF645A"/>
<path fill-rule="evenodd" clip-rule="evenodd" d="M183.222 142.931H192.613C194.908 142.931 196.786 144.809 196.786 147.104V156.494C196.786 158.789 194.908 160.667 192.613 160.667H183.222C180.927 160.667 179.048 158.789 179.048 156.494V147.104C178.84 144.809 180.718 142.931 183.222 142.931Z" fill="#BA9BC9"/>
<path fill-rule="evenodd" clip-rule="evenodd" d="M204.299 142.931H213.69C215.985 142.931 217.863 144.809 217.863 147.104V156.494C217.863 158.789 215.985 160.667 213.69 160.667H204.299C202.003 160.667 200.125 158.789 200.125 156.494V147.104C200.125 144.809 202.003 142.931 204.299 142.931Z" fill="#DDCEE5"/>
<path fill-rule="evenodd" clip-rule="evenodd" d="M224.958 142.931H234.349C236.644 142.931 238.523 144.809 238.523 147.104V156.494C238.523 158.789 236.644 160.667 234.349 160.667H224.958C222.663 160.667 220.785 158.789 220.785 156.494V147.104C220.785 144.809 222.663 142.931 224.958 142.931Z" fill="#BA9BC9"/>
<path fill-rule="evenodd" clip-rule="evenodd" d="M183.222 142.931H192.613C194.908 142.931 196.786 144.809 196.786 147.104V156.494C196.786 158.789 194.908 160.667 192.613 160.667H183.222C180.927 160.667 179.048 158.789 179.048 156.494V147.104C178.84 144.809 180.718 142.931 183.222 142.931Z" fill="#FF645A"/>
<path fill-rule="evenodd" clip-rule="evenodd" d="M204.299 142.931H213.69C215.985 142.931 217.863 144.809 217.863 147.104V156.494C217.863 158.789 215.985 160.667 213.69 160.667H204.299C202.003 160.667 200.125 158.789 200.125 156.494V147.104C200.125 144.809 202.003 142.931 204.299 142.931Z" fill="#FF645A"/>
<path fill-rule="evenodd" clip-rule="evenodd" d="M224.958 142.931H234.349C236.644 142.931 238.523 144.809 238.523 147.104V156.494C238.523 158.789 236.644 160.667 234.349 160.667H224.958C222.663 160.667 220.785 158.789 220.785 156.494V147.104C220.785 144.809 222.663 142.931 224.958 142.931Z" fill="#FF645A"/>
<path fill-rule="evenodd" clip-rule="evenodd" d="M183.222 164.214H192.613C194.908 164.214 196.786 166.092 196.786 168.387V177.777C196.786 180.072 194.908 181.95 192.613 181.95H183.222C180.927 181.95 179.048 180.072 179.048 177.777V168.387C178.84 166.092 180.718 164.214 183.222 164.214Z" fill="white"/>
<path fill-rule="evenodd" clip-rule="evenodd" d="M204.299 164.214H213.69C215.985 164.214 217.863 166.092 217.863 168.387V177.777C217.863 180.072 215.985 181.95 213.69 181.95H204.299C202.003 181.95 200.125 180.072 200.125 177.777V168.387C200.125 166.092 202.003 164.214 204.299 164.214Z" fill="#DDCEE5"/>
<path fill-rule="evenodd" clip-rule="evenodd" d="M224.958 164.214H234.349C236.644 164.214 238.523 166.092 238.523 168.387V177.777C238.523 180.072 236.644 181.95 234.349 181.95H224.958C222.663 181.95 220.785 180.072 220.785 177.777V168.387C220.785 166.092 222.663 164.214 224.958 164.214Z" fill="#BA9BC9"/>
<path fill-rule="evenodd" clip-rule="evenodd" d="M183.222 164.214H192.613C194.908 164.214 196.786 166.092 196.786 168.387V177.777C196.786 180.072 194.908 181.95 192.613 181.95H183.222C180.927 181.95 179.048 180.072 179.048 177.777V168.387C178.84 166.092 180.718 164.214 183.222 164.214Z" fill="white"/>
<path fill-rule="evenodd" clip-rule="evenodd" d="M204.299 164.214H213.69C215.985 164.214 217.863 166.092 217.863 168.387V177.777C217.863 180.072 215.985 181.95 213.69 181.95H204.299C202.003 181.95 200.125 180.072 200.125 177.777V168.387C200.125 166.092 202.003 164.214 204.299 164.214Z" fill="#FF645A"/>
<path fill-rule="evenodd" clip-rule="evenodd" d="M224.958 164.214H234.349C236.644 164.214 238.523 166.092 238.523 168.387V177.777C238.523 180.072 236.644 181.95 234.349 181.95H224.958C222.663 181.95 220.785 180.072 220.785 177.777V168.387C220.785 166.092 222.663 164.214 224.958 164.214Z" fill="#FF645A"/>
<path fill-rule="evenodd" clip-rule="evenodd" d="M183.222 185.289H192.613C194.908 185.289 196.786 187.166 196.786 189.462V198.851C196.786 201.147 194.908 203.025 192.613 203.025H183.222C180.927 203.025 179.048 201.147 179.048 198.851V189.462C178.84 187.166 180.718 185.289 183.222 185.289Z" fill="white"/>
<path fill-rule="evenodd" clip-rule="evenodd" d="M204.299 185.289H213.69C215.985 185.289 217.863 187.166 217.863 189.462V198.851C217.863 201.147 215.985 203.025 213.69 203.025H204.299C202.003 203.025 200.125 201.147 200.125 198.851V189.462C200.125 187.166 202.003 185.289 204.299 185.289Z" fill="#FF645A"/>
<path fill-rule="evenodd" clip-rule="evenodd" d="M224.958 185.289H234.349C236.644 185.289 238.523 187.166 238.523 189.462V198.851C238.523 201.147 236.644 203.025 234.349 203.025H224.958C222.663 203.025 220.785 201.147 220.785 198.851V189.462C220.785 187.166 222.663 185.289 224.958 185.289Z" fill="#FF645A"/>
<path fill-rule="evenodd" clip-rule="evenodd" d="M66.152 164.005H192.613C196.995 164.005 200.543 167.552 200.543 171.934V230.984C200.543 235.366 196.995 238.913 192.613 238.913H66.152C61.7697 238.913 58.2221 235.366 58.2221 230.984V171.934C58.2221 167.552 61.7697 164.005 66.152 164.005Z" fill="white"/>
<path d="M192.613 239.539H66.1519C61.3523 239.539 57.3873 235.575 57.3873 230.776V171.934C57.3873 167.135 61.3523 163.17 66.1519 163.17H192.613C197.412 163.17 201.377 167.135 201.377 171.934V230.984C201.169 235.783 197.412 239.539 192.613 239.539ZM66.1519 164.84C62.187 164.84 59.0568 167.97 59.0568 171.934V230.984C59.0568 234.949 62.187 238.079 66.1519 238.079H192.613C196.578 238.079 199.708 234.949 199.708 230.984V171.934C199.708 167.97 196.578 164.84 192.613 164.84H66.1519Z" fill="black"/>
<path fill-rule="evenodd" clip-rule="evenodd" d="M47.9966 161.293H208.264V176.525H47.9966V161.293Z" fill="black"/>
<path fill-rule="evenodd" clip-rule="evenodd" d="M176.127 167.761C177.17 167.761 178.214 168.596 178.214 169.848C178.214 170.891 177.379 171.934 176.127 171.934C175.084 171.934 174.04 171.1 174.04 169.848C174.249 168.596 175.084 167.761 176.127 167.761Z" fill="white"/>
<path fill-rule="evenodd" clip-rule="evenodd" d="M183.848 167.761C184.892 167.761 185.935 168.596 185.935 169.848C185.935 170.891 185.1 171.934 183.848 171.934C182.596 171.934 181.761 171.1 181.761 169.848C181.761 168.596 182.596 167.761 183.848 167.761Z" fill="white"/>
<path fill-rule="evenodd" clip-rule="evenodd" d="M190.943 167.761C191.987 167.761 193.03 168.596 193.03 169.848C193.03 170.891 192.195 171.934 190.943 171.934C189.9 171.934 188.856 171.1 188.856 169.848C188.856 168.596 189.691 167.761 190.943 167.761Z" fill="white"/>
<path fill-rule="evenodd" clip-rule="evenodd" d="M147.955 181.95H187.604C190.526 181.95 192.821 184.245 192.821 187.166V205.319C192.821 208.241 190.526 210.536 187.604 210.536H147.955C145.033 210.536 142.738 208.241 142.738 205.319V187.166C142.738 184.454 145.033 181.95 147.955 181.95Z" fill="#FF645A"/>
<path fill-rule="evenodd" clip-rule="evenodd" d="M176.753 213.666C182.179 213.666 186.561 218.048 186.561 223.473C186.561 228.898 182.179 233.28 176.753 233.28C171.327 233.28 166.945 228.898 166.945 223.473C166.945 218.048 171.327 213.666 176.753 213.666Z" fill="black"/>
<path d="M167.154 233.488L155.467 223.681L169.866 218.465L167.154 233.488Z" fill="#FF645A"/>
<path d="M136.895 187.584H65.9432C65.5258 187.584 65.1085 187.166 65.1085 186.749C65.1085 186.332 65.5258 185.914 65.9432 185.914H136.895C137.312 185.914 137.729 186.332 137.729 186.749C137.729 187.166 137.312 187.584 136.895 187.584Z" fill="#FF645A"/>
<path d="M102.671 195.721H65.9432C65.5258 195.721 65.1085 195.304 65.1085 194.886C65.1085 194.469 65.5258 194.052 65.9432 194.052H102.671C103.088 194.052 103.506 194.469 103.506 194.886C103.506 195.304 103.088 195.721 102.671 195.721Z" fill="#FF645A"/>
<path d="M136.895 195.721H108.097C107.679 195.721 107.262 195.304 107.262 194.886C107.262 194.469 107.679 194.052 108.097 194.052H137.103C137.521 194.052 137.938 194.469 137.938 194.886C137.938 195.304 137.312 195.721 136.895 195.721Z" fill="#FF645A"/>
<path d="M136.895 203.65H65.9432C65.5258 203.65 65.1085 203.233 65.1085 202.816C65.1085 202.398 65.5258 201.981 65.9432 201.981H136.895C137.312 201.981 137.729 202.398 137.729 202.816C137.729 203.442 137.312 203.65 136.895 203.65Z" fill="#FF645A"/>
<path d="M136.895 212.205H65.9432C65.5258 212.205 65.1085 211.788 65.1085 211.371C65.1085 210.953 65.5258 210.536 65.9432 210.536H136.895C137.312 210.536 137.729 210.953 137.729 211.371C137.729 211.788 137.312 212.205 136.895 212.205Z" fill="#FF645A"/>
<path d="M136.895 220.134H122.913C122.496 220.134 122.078 219.717 122.078 219.3C122.078 218.882 122.496 218.465 122.913 218.465H136.895C137.312 218.465 137.73 218.882 137.73 219.3C137.73 219.717 137.312 220.134 136.895 220.134Z" fill="#FF645A"/>
<path d="M136.895 228.272H65.9432C65.5258 228.272 65.1085 227.854 65.1085 227.437C65.1085 227.02 65.5258 226.603 65.9432 226.603H136.895C137.312 226.603 137.729 227.02 137.729 227.437C137.729 227.854 137.312 228.272 136.895 228.272Z" fill="#FF645A"/>
<path d="M113.94 220.134H65.7345C65.3171 220.134 64.8998 219.717 64.8998 219.3C64.8998 218.882 65.3171 218.465 65.7345 218.465H113.94C114.357 218.465 114.775 218.882 114.775 219.3C114.775 219.717 114.566 220.134 113.94 220.134Z" fill="#FF645A"/>
<path d="M167.78 189.879L174.457 201.564H161.102L167.78 189.879Z" fill="white"/>
<path fill-rule="evenodd" clip-rule="evenodd" d="M85.5593 214.5L84.7246 223.89C84.7246 223.89 85.768 227.437 85.5593 230.984C85.3506 234.531 84.7246 239.539 84.7246 239.539L46.7446 239.331C46.7446 239.331 47.162 232.653 51.9616 230.567C56.7613 228.48 63.8565 226.602 63.8565 226.602L66.1519 222.221L67.6127 211.996C67.6127 211.996 66.5693 210.536 66.778 209.075C66.778 207.615 67.1954 201.772 68.2388 200.937C69.2822 200.103 69.4908 199.268 69.4908 199.268L73.4558 170.891C73.4558 170.891 72.6211 176.942 70.5342 177.568C68.4474 177.985 67.6127 178.194 67.6127 178.194L57.1787 198.851C57.1787 198.851 40.4842 196.973 34.8498 193.843C29.4241 190.713 24.6244 185.705 25.0418 182.784C25.4591 179.654 26.7112 177.985 28.798 177.776C30.8848 177.568 41.7363 179.446 41.7363 179.446L48.6227 176.733L52.7964 170.682C52.7964 170.682 51.7529 167.552 53.4224 164.005C55.0918 160.458 58.2221 157.119 58.2221 157.119C58.2221 157.119 71.1603 130.828 73.6645 126.864C76.1686 122.899 80.1336 121.856 82.8464 121.021C85.3506 120.187 96.4107 84.9236 96.4107 84.9236C96.4107 84.9236 100.584 75.7427 104.549 73.0301C108.514 70.5262 109.349 69.6916 109.349 69.6916C109.349 69.6916 104.341 68.6483 104.341 65.1011C104.341 61.3453 106.219 58.4241 106.219 58.4241C106.219 58.4241 105.384 55.0855 106.01 54.0423C106.636 52.7903 106.636 52.373 106.636 52.373L104.549 48.4085L105.175 45.9046C105.175 45.9046 101.836 46.3219 100.167 45.07C98.4975 43.818 97.8715 43.192 98.4975 42.5661C99.1236 41.9401 103.297 40.0622 103.297 40.0622C103.297 40.0622 101.21 36.515 102.254 36.3063C103.506 36.0977 108.514 36.0977 111.436 34.6371C114.149 33.1765 114.983 31.9245 118.114 32.5505C121.244 33.1765 129.591 33.8024 131.678 40.2708C133.765 46.7392 133.973 49.2431 132.095 52.5817C130.217 55.9202 127.504 58.2154 127.504 58.2154L127.296 61.7626C127.296 61.7626 128.339 67.1877 131.469 67.3964C134.599 67.605 143.781 65.9358 148.164 67.3964C152.337 68.857 157.763 68.857 162.354 82.0024C166.945 95.1479 174.457 112.049 173.831 115.179C173.205 118.518 171.745 121.021 169.658 122.482C166.11 124.777 162.145 123.943 162.145 123.943C162.145 123.943 165.902 136.879 166.319 144.183C166.945 151.277 166.528 160.249 156.511 166.3C146.285 172.351 125.626 163.17 125.626 163.17L99.3322 164.005L88.8982 202.607C88.8982 202.607 90.5676 203.441 89.9416 209.284C89.1069 216.17 85.5593 214.5 85.5593 214.5Z" fill="white"/>
<path fill-rule="evenodd" clip-rule="evenodd" d="M116.444 49.2434C117.07 49.2434 117.487 49.6607 117.487 50.2867V51.5386C117.487 52.1646 117.07 52.5819 116.444 52.5819C115.818 52.5819 115.401 52.1646 115.401 51.5386V50.2867C115.401 49.6607 115.818 49.2434 116.444 49.2434Z" fill="black"/>
<path fill-rule="evenodd" clip-rule="evenodd" d="M116.653 127.073L137.73 132.915L165.067 134.376L163.606 124.986C163.606 124.986 174.249 122.482 173.205 114.762C172.162 106.833 161.102 76.7863 158.598 73.6564C155.885 70.5265 151.502 67.188 146.703 66.9793C141.903 66.7707 136.477 67.188 136.477 67.188C136.477 67.188 135.225 75.117 126.878 76.5776C118.531 78.0382 117.279 77.8295 116.444 75.5343C115.609 73.0304 117.279 69.0659 117.279 69.0659C117.279 69.0659 111.853 69.6919 110.184 70.5265C108.305 71.3611 102.254 74.491 98.7062 81.5854C95.1586 88.6798 95.1586 88.8884 95.1586 88.8884L104.967 114.971L108.097 110.589C108.097 110.589 106.845 109.754 107.888 105.581C108.932 101.617 112.27 97.2347 112.27 97.2347L111.018 96.6088C111.018 96.6088 106.845 99.9473 105.175 99.7386C103.715 99.3213 104.549 97.2347 107.053 94.9395C109.349 92.6443 110.81 92.0183 113.523 93.4789C116.235 94.9395 126.252 101.825 126.252 101.825L155.467 107.668C155.467 107.668 159.432 109.546 159.85 115.597C160.476 121.648 158.598 124.152 158.598 124.152L128.965 114.345C128.965 114.345 126.043 116.014 122.913 114.345C119.783 112.675 117.905 110.798 117.905 110.798L113.523 113.301L114.983 119.352L116.653 127.073Z" fill="black"/>
<path fill-rule="evenodd" clip-rule="evenodd" d="M109.558 97.0259L147.12 95.1479L155.467 113.927L113.314 113.719L109.558 97.0259Z" fill="white"/>
<path fill-rule="evenodd" clip-rule="evenodd" d="M143.781 89.097L161.728 80.542L167.571 94.1048L149.207 101.199L143.781 89.097Z" fill="white"/>
<path fill-rule="evenodd" clip-rule="evenodd" d="M95.3673 87.219L109.14 93.4787L112.062 106.207L103.297 110.171L91.1937 97.6519L95.3673 87.219Z" fill="white"/>
<path fill-rule="evenodd" clip-rule="evenodd" d="M108.932 49.8691C109.558 49.8691 109.975 50.2865 109.975 50.9124V52.1644C109.975 52.7904 109.558 53.2077 108.932 53.2077C108.306 53.2077 107.888 52.7904 107.888 52.1644V50.9124C107.888 50.4951 108.306 49.8691 108.932 49.8691Z" fill="black"/>
<path fill-rule="evenodd" clip-rule="evenodd" d="M123.957 56.1291C123.957 56.1291 124.374 65.7273 118.322 68.0226C112.27 70.3178 110.81 69.9005 108.514 69.0658C106.219 68.2312 103.715 67.1879 103.923 64.0581C104.132 60.9282 103.088 58.4243 107.262 57.381C111.436 56.3377 116.027 55.5031 117.07 55.9204C118.114 56.3377 120.409 57.7983 120.409 57.7983C120.409 57.7983 120.409 53.2078 121.244 50.7039C122.078 48.2 122.496 46.3221 121.87 44.6529C121.244 42.9836 121.035 41.3143 120.2 41.523C119.366 41.7316 114.983 43.1923 112.688 43.1923C110.392 43.1923 107.262 41.9403 107.262 41.9403L105.801 45.2788C105.801 45.2788 104.341 46.3221 102.462 45.4875C100.376 44.6529 98.7062 42.9836 98.9149 42.3576C99.1235 41.523 104.132 39.0191 104.132 39.0191C104.132 39.0191 102.88 37.3498 103.297 36.5152C103.923 35.6806 109.349 35.6806 111.018 34.4286C112.688 33.1767 115.818 31.9247 117.487 31.7161C119.157 31.7161 121.452 33.1767 121.452 33.1767C121.452 33.1767 124.583 33.3853 125.417 33.8026C127.504 34.6373 131.886 36.7239 133.139 41.9403C134.391 47.1568 133.765 49.6607 133.347 51.7472C132.721 53.8338 128.13 59.4676 128.13 59.4676L123.957 56.1291Z" fill="#FF645A"/>
<path fill-rule="evenodd" clip-rule="evenodd" d="M66.3607 220.969L84.5159 221.386L84.0986 224.307L84.7246 228.063C84.7246 228.063 82.6378 229.524 81.177 231.819C79.7163 234.114 78.0468 236.409 78.0468 236.409H61.561C61.561 236.409 61.7697 232.862 60.1002 231.402C58.4308 229.732 57.1787 228.898 57.1787 228.898L64.2739 226.394L65.7346 223.473L66.3607 220.969Z" fill="black"/>
<path fill-rule="evenodd" clip-rule="evenodd" d="M35.4758 178.403C35.4758 178.403 37.354 179.863 37.7713 183.41C38.1887 186.958 38.3974 190.713 38.3974 190.713L53.6311 194.678C53.6311 194.678 55.3005 193.009 57.3873 192.174C59.2655 191.339 61.561 190.922 61.561 190.922L65.3172 183.41C65.3172 183.41 60.7262 184.245 56.7613 181.95C52.5877 179.655 51.1269 178.194 50.7096 177.359C50.0835 176.525 49.6661 175.273 49.6661 175.273L48.4141 176.942L41.9449 179.655L35.4758 178.403Z" fill="black"/>
<path fill-rule="evenodd" clip-rule="evenodd" d="M56.97 161.084L71.5776 129.368C71.5776 129.368 75.3339 118.726 87.2287 120.813C99.1236 122.899 140.86 133.75 140.86 133.75L165.067 134.376C165.067 134.376 168.197 148.564 167.362 152.529C166.528 156.493 159.224 168.596 149.624 168.178C140.025 167.97 127.504 163.17 127.504 163.17L99.5409 164.005L89.5242 202.19L69.6995 199.686L73.6645 168.596C73.6645 168.596 70.3256 170.056 64.6912 167.761C59.0568 165.257 56.97 161.084 56.97 161.084Z" fill="#FF645A"/>
<path fill-rule="evenodd" clip-rule="evenodd" d="M116.027 69.9004C113.314 70.7351 110.81 70.7351 108.514 71.7783C106.427 72.8216 104.758 74.2822 103.297 75.7428C100.167 78.8727 98.7061 83.2545 96.828 87.845C93.6978 95.5654 90.5676 103.286 87.646 111.006C87.2287 112.049 86.8113 114.136 85.7679 113.927C84.5158 113.719 85.7679 111.632 85.9766 111.006C88.8981 103.912 91.4023 96.8173 94.3238 89.7229C95.9933 85.5498 97.454 81.5853 99.5409 78.0381C101.628 74.4909 104.758 71.987 108.514 70.1091C106.636 69.2744 105.593 68.8571 104.549 67.6052C103.088 65.7273 103.297 61.3454 104.549 59.4675C104.758 59.2589 104.967 59.0502 105.175 58.6329C105.384 58.4242 105.801 58.0069 105.801 57.7983C105.801 57.3809 105.593 56.755 105.384 56.129C105.384 55.2944 105.593 54.4597 105.801 53.6251C106.01 52.9991 106.845 51.1212 107.679 52.3731C108.305 53.2078 107.053 54.4597 107.053 55.503C107.053 56.129 107.262 56.3376 107.262 56.9636C107.679 56.9636 108.305 56.755 108.932 56.5463C109.14 56.3377 108.723 56.129 108.514 55.9203C107.679 54.6684 109.558 53.8338 109.975 52.9991C110.81 51.3299 109.558 49.2433 108.514 48.826C107.888 48.6173 107.053 48.6173 106.01 48.6173C105.175 48.6173 103.923 48.826 103.714 48.2C103.506 47.574 103.923 47.1567 104.132 46.5307C102.045 46.5307 101.002 45.9047 99.7495 44.8615C99.1235 44.2355 97.8714 43.4009 97.8714 42.3576C97.8714 41.3143 99.1235 40.6883 99.9582 40.271C101.002 39.8537 101.836 39.4364 102.88 39.019C102.462 38.1844 101.628 36.3065 102.671 35.4718C103.297 34.8459 105.175 34.8459 106.427 34.6372C109.14 34.2199 111.018 33.3853 113.105 32.5506C114.149 32.1333 115.192 31.5073 116.235 31.2987C118.74 30.6727 121.244 32.1333 123.331 32.7593C125.626 33.3853 127.921 34.0112 129.591 35.2632C132.721 37.3498 134.808 42.3576 134.808 47.574C134.808 52.9991 132.095 56.755 128.756 59.0502C128.548 59.6762 128.756 60.7195 128.339 61.3454C128.965 63.0147 129.382 64.8926 130.843 65.7273C132.095 66.3532 134.391 66.3532 136.06 66.1446C137.938 66.1446 140.025 65.9359 141.486 65.7273C143.364 65.5186 145.242 65.5186 146.911 65.7273C151.711 66.5619 155.885 68.6485 158.389 71.7783C160.058 73.8649 161.31 76.5775 162.354 79.29C165.693 87.4277 169.032 95.774 171.953 104.538C172.371 105.79 172.997 107.25 173.414 108.919C173.831 110.38 174.457 112.049 174.666 113.51C174.875 116.848 173.414 119.561 171.745 121.23C170.075 123.108 167.571 124.151 164.441 124.569C165.693 131.037 166.945 137.506 167.78 144.183C167.988 145.852 168.197 147.73 168.406 149.399C168.406 151.277 167.988 152.946 167.571 154.407C166.736 157.537 165.275 159.623 163.397 161.71C159.85 165.466 154.841 168.804 147.12 168.387C140.86 168.178 135.851 166.3 130.843 164.631C130.217 164.423 129.382 164.005 128.756 163.797C127.713 163.588 126.461 163.797 125.209 163.797C121.661 164.005 117.905 163.797 114.566 163.797C109.766 164.005 105.175 163.797 100.376 164.005C97.2454 175.273 94.3238 187.792 91.1936 199.477C90.9849 200.312 90.5676 201.355 90.5676 201.772C90.5676 202.19 91.1936 202.607 91.4023 203.233C92.0283 204.693 91.4023 206.571 91.1936 208.241C90.9849 209.493 90.9849 210.953 90.5676 211.997C90.1502 213.666 88.4808 214.709 86.3939 214.292C86.1853 216.378 85.9766 218.465 85.7679 220.551C85.5592 222.847 85.7679 224.933 86.1853 226.811C86.6026 228.689 86.8113 230.567 86.6026 233.071C86.6026 233.906 86.3939 234.949 86.1853 236.201C86.1853 237.035 85.9766 238.705 85.3505 239.122C84.3071 239.539 82.0116 239.122 80.5509 239.331C75.5425 239.539 70.9515 239.539 65.9432 239.539C61.1435 239.539 56.1352 239.748 51.1268 239.748C49.6661 239.748 46.7445 240.165 46.5358 239.331C46.3272 238.496 47.1619 236.827 47.3706 236.201C48.414 233.071 49.6661 230.358 52.3789 229.106C54.4657 228.063 56.5525 228.063 58.6394 227.229C60.7262 226.394 62.6043 225.768 64.4824 224.933C64.8998 223.89 65.5258 222.847 65.9432 221.803C66.1519 220.969 66.1519 220.134 66.3606 219.091C66.5692 217.004 66.9866 214.918 67.404 212.414C67.404 211.997 67.6126 211.371 67.6126 211.162C67.6126 210.745 66.9866 210.119 66.7779 209.701C66.3606 208.449 66.7779 206.571 67.1953 205.111C67.6126 202.607 67.6126 200.103 69.4908 199.06C70.5342 191.339 71.7863 183.41 72.8297 175.899C72.621 175.899 72.4123 176.107 72.2036 176.525C71.5776 177.151 70.7429 177.777 69.2821 177.777C66.1519 183.828 63.2303 190.087 60.1001 196.347C59.6828 197.182 59.0567 198.642 58.4307 198.851C57.8046 199.06 56.1352 198.642 55.0918 198.642C51.5442 198.225 48.6227 197.599 45.7011 196.973C41.7362 195.93 37.7712 194.887 34.4323 193.426C31.3021 191.965 28.1719 189.253 26.2938 186.54C25.2504 185.08 24.4156 183.202 25.2504 180.906C25.6677 179.237 26.9198 177.359 28.3806 176.733C29.424 176.316 30.8848 176.316 32.1368 176.525C35.4757 176.733 37.9799 177.359 41.1101 177.985C41.5275 178.194 42.3622 178.403 42.7796 178.403C43.1969 178.403 43.823 177.985 44.2404 177.777C45.2838 177.359 46.1185 176.942 47.1619 176.525C47.5793 176.316 48.2053 176.107 48.6227 175.899C49.04 175.69 49.2487 174.855 49.6661 174.438C50.7095 172.769 51.7529 171.308 52.7963 169.848C51.7529 167.761 52.7963 165.048 53.631 162.753C54.6744 160.249 55.5091 157.745 58.222 156.911C62.813 147.73 66.9866 137.714 71.9949 128.951C74.4991 124.36 77.0033 120.187 83.4724 119.561C90.3589 118.935 95.9933 120.813 101.628 122.065C102.254 121.022 102.88 119.978 103.297 118.726C104.967 115.388 106.636 112.258 108.305 108.919C108.097 108.293 107.888 108.085 107.679 107.459C107.053 105.164 107.888 103.077 108.723 101.199C109.558 99.1125 110.392 97.6519 111.644 96.6086C111.227 96.6086 110.81 97.026 110.601 97.2346C110.184 97.4433 109.975 97.8606 109.558 98.0692C108.932 98.4866 108.097 99.3212 107.471 99.5299C106.219 99.9472 104.549 99.3212 104.341 98.2779C104.132 97.026 105.593 95.774 106.219 95.148C107.053 94.3134 107.679 93.4788 108.514 92.4355C108.305 91.8095 108.097 91.3922 108.097 90.7662C107.888 90.3489 107.888 89.7229 107.679 89.097C107.262 88.471 105.801 87.845 106.01 86.8017C106.01 86.5931 106.219 86.1757 106.636 86.1757C107.262 86.1757 107.679 86.8017 108.097 87.0104C108.514 87.4277 108.932 87.6364 109.14 88.0537C109.558 89.097 109.558 90.1402 109.975 91.1835C110.81 90.7662 111.644 90.1402 112.896 90.3489C114.357 90.5576 115.818 91.6009 117.07 92.4355C120.2 94.3134 123.122 96.6086 126.252 98.6952C126.878 99.1125 127.504 99.7385 128.13 99.9472C128.965 100.156 130.008 100.364 131.052 100.573C137.938 101.825 145.033 103.077 151.92 104.329C150.042 100.156 147.538 95.148 145.242 90.7662C145.033 90.1402 143.781 88.471 145.033 88.2623C145.868 88.2623 146.077 89.3056 146.494 89.9316C148.79 94.9394 151.502 99.7385 153.798 104.746C154.841 104.955 156.093 105.164 157.554 105.372C158.598 105.581 160.684 105.581 160.684 106.624C160.684 107.459 159.85 107.459 159.015 107.25C160.058 108.711 160.893 110.797 161.31 113.301C161.937 116.222 161.937 120.187 160.684 122.274C164.649 123.317 168.614 121.856 170.701 119.978C171.953 118.935 172.788 117.474 173.205 115.805C173.414 114.971 173.623 113.927 173.623 112.884C173.623 112.049 173.205 111.215 172.997 110.38C171.118 103.703 168.406 97.2346 166.11 90.9749C165.067 87.845 163.815 84.7151 162.563 81.3766C161.31 78.2467 160.058 75.1169 158.18 72.613C156.511 70.1091 153.589 68.4398 150.25 67.3965C148.581 66.9792 146.703 66.5619 144.616 66.5619C142.529 66.5619 140.651 66.7705 138.564 66.9792C136.686 70.7351 133.765 74.4909 129.174 76.1602C126.878 76.9948 123.539 77.2034 120.826 76.7861C119.366 76.5775 118.322 76.3688 117.487 75.3255C116.861 74.4909 116.235 73.4476 116.235 71.987C115.192 71.5697 115.609 70.9437 116.027 69.9004ZM127.921 57.5896C130.426 55.7117 132.721 52.3731 132.721 48.2C132.93 45.0701 132.095 42.1489 130.843 39.645C130.217 38.6017 129.591 37.5584 128.548 36.7238C126.669 35.2632 123.748 34.6372 121.035 33.8026C119.783 33.3853 118.113 32.7593 116.653 32.968C115.609 33.1766 114.566 33.8026 113.522 34.2199C112.479 34.6372 111.436 35.0545 110.392 35.4718C108.305 36.3065 106.01 36.7238 103.297 36.9325C103.088 38.3931 104.549 38.8104 104.549 39.8537C104.549 40.6883 102.671 40.897 102.045 41.3143C101.002 41.7316 100.167 42.1489 99.3322 42.5662C100.584 44.0268 101.836 45.4874 104.758 45.0701C104.967 44.2355 105.801 43.6095 106.01 42.7749C106.219 42.3576 106.01 41.9402 106.427 41.7316C107.053 41.3143 107.679 41.7316 108.097 41.7316C109.975 42.1489 111.853 42.3576 113.731 41.9402C115.818 41.7316 117.279 41.5229 118.948 40.897C119.574 40.6883 119.992 40.271 120.618 40.4796C121.87 40.6883 122.287 42.9835 122.704 44.4441C123.122 46.1134 123.122 47.9913 122.704 49.4519C122.287 50.9125 121.87 52.3731 121.661 54.2511C121.661 54.877 121.452 56.129 121.452 56.9636C121.452 58.0069 121.452 59.0502 120.618 59.0502C119.992 59.0502 119.366 58.2156 118.74 58.0069C118.113 57.5896 117.487 57.1723 116.861 56.9636C114.983 56.5463 113.105 57.1723 111.227 57.3809C110.601 57.3809 109.766 57.5896 109.14 57.7983C108.514 58.0069 107.471 58.0069 107.053 58.4242C106.636 58.6329 106.01 59.4675 105.801 59.8848C105.175 61.1368 104.758 64.2667 105.593 65.9359C105.801 66.3532 106.219 66.7705 106.427 66.9792C108.097 68.4398 110.81 69.0658 113.522 68.6485C116.027 68.2312 118.322 67.3965 119.992 66.1446C122.078 64.2667 122.913 61.3454 123.331 58.2156C123.539 56.129 123.748 52.9991 123.957 50.4952C123.957 50.0779 123.748 49.8693 123.957 49.0346C124.165 47.9913 125.835 48.2 125.417 49.6606C127.504 48.826 129.591 50.0779 130.217 51.5385C131.26 53.8338 129.382 56.129 128.13 57.1723C127.921 57.3809 127.295 57.3809 127.295 57.7983C127.295 58.0069 127.713 57.7983 127.921 57.5896ZM120.2 52.1645C120.409 50.7039 121.035 49.2433 121.244 47.9913C121.452 45.9047 120.618 44.0268 119.992 42.3576C116.653 43.4009 111.436 44.6528 107.262 43.4009C106.636 44.6528 105.801 45.9047 105.384 47.3654C106.219 47.3654 106.845 47.1567 107.471 47.3654C109.975 47.574 111.853 49.8693 111.436 52.5818C111.436 53.6251 110.81 54.4597 110.392 54.877C110.184 55.0857 109.766 55.503 109.766 55.503C109.766 55.7117 110.392 55.9203 110.601 56.129C112.062 55.9203 113.94 55.503 115.609 55.503C117.279 55.503 118.531 56.3376 119.574 56.9636C119.783 55.2944 119.783 53.6251 120.2 52.1645ZM128.756 66.5619C127.087 64.8926 126.461 62.3887 125.835 59.6762C125.626 58.8415 125.209 57.5896 125.417 56.9636C125.626 56.5463 126.252 56.3376 126.669 55.9203C127.713 55.2944 128.756 54.2511 128.548 52.5818C128.339 51.1212 126.043 50.4952 125 51.5385C125 51.9558 125 52.1645 125 52.5818C125.626 52.3731 127.713 50.9125 127.713 52.3731C127.713 52.9991 126.878 53.2078 126.461 53.4164C125.835 53.6251 125.417 54.0424 124.791 54.2511C124.583 59.6762 123.748 64.4753 120.618 67.1879C120.826 67.6052 121.452 68.2312 121.661 69.0658C121.661 69.9004 121.244 71.1524 120.409 71.1524C119.992 71.1524 119.574 70.9437 119.574 70.3177C119.574 69.9004 119.992 69.6918 119.992 69.0658C119.992 68.6485 119.574 68.4398 119.366 68.0225C118.74 68.4398 118.113 68.6485 117.487 69.0658C117.279 70.5264 116.653 71.1524 116.444 72.613C116.444 73.6563 116.861 74.9082 117.696 75.3255C118.322 75.7428 119.574 75.7428 120.409 75.9515C123.748 76.1602 126.878 75.7428 128.756 74.4909C131.886 72.8216 133.973 70.5264 135.225 67.6052C132.721 68.0225 130.008 68.0225 128.756 66.5619ZM159.224 119.352C159.641 115.179 158.389 110.797 156.511 108.711C155.259 107.459 153.381 107.459 151.294 107.042C145.659 105.998 139.816 104.955 134.182 103.912C131.886 103.494 129.591 102.868 127.295 102.66C127.087 102.66 126.669 102.66 126.461 102.66C126.043 102.66 125.209 101.825 124.583 101.408C120.826 98.6952 117.279 95.9827 113.314 93.6874C112.688 93.2701 111.436 92.6441 110.81 92.8528C109.349 93.2701 108.514 94.5221 107.471 95.774C106.636 96.8173 105.593 97.6519 105.175 98.6952C106.427 99.1125 107.053 98.0693 108.097 97.4433C108.514 97.2346 108.932 96.8173 109.349 96.4C109.766 95.9827 110.184 95.5654 110.601 95.5654C111.436 95.5654 111.644 96.1913 112.062 96.4C112.479 95.9827 114.357 94.9394 114.357 96.4C114.357 97.026 112.896 97.8606 112.27 98.2779C110.601 99.5299 109.975 100.99 109.14 103.077C108.514 104.538 108.097 105.998 108.305 107.876C109.14 106.416 109.766 104.746 111.018 103.077C111.436 102.451 112.062 101.825 112.896 101.199C113.314 100.782 114.357 99.5299 114.983 99.5299C115.401 99.5299 115.609 99.9472 115.609 100.364C115.609 100.99 114.149 102.034 113.731 102.451C113.105 103.077 112.27 103.912 111.853 104.538C110.601 106.207 109.975 107.876 109.14 109.754C109.558 110.38 109.975 110.797 110.392 111.215C111.227 109.545 111.853 107.876 113.314 106.416C113.94 105.79 114.566 105.372 115.401 104.538C115.818 104.12 116.861 103.077 117.696 103.077C118.113 103.077 118.322 103.494 118.322 103.912C118.322 104.329 117.905 104.746 117.487 104.955C116.235 105.79 115.192 106.624 114.357 107.459C113.314 108.711 112.688 110.171 111.853 111.632C111.853 111.841 111.644 112.049 111.644 112.258C112.479 112.675 113.105 112.049 113.731 111.632C114.983 110.797 116.027 109.754 117.07 108.711C117.696 108.293 118.113 107.25 118.948 107.459C119.366 107.459 119.574 107.876 119.574 108.293C119.574 109.337 118.113 109.545 117.905 110.38C119.783 111.423 121.244 112.884 123.331 113.51C124.165 113.719 125 113.719 125.835 113.719C126.669 113.719 127.504 113.51 128.548 113.51C128.965 113.51 129.591 113.927 130.217 114.136C139.19 117.266 148.164 120.604 157.346 123.317C159.015 121.856 159.015 120.604 159.224 119.352ZM114.357 112.884C115.401 117.683 116.861 122.065 117.905 126.864C123.957 128.325 130.217 130.203 136.269 131.663C137.103 131.872 138.147 132.289 138.982 132.289C141.068 132.498 143.155 132.498 145.242 132.498C151.711 132.706 157.763 133.124 164.232 133.124C163.815 130.203 163.189 127.699 162.771 124.777C162.354 124.777 161.937 124.777 161.31 124.777C158.389 124.36 155.676 123.317 152.963 122.482C145.451 120.187 138.356 117.474 131.052 114.971C130.426 114.762 129.591 114.345 128.965 114.345C128.339 114.345 127.713 114.553 127.295 114.553C125 114.553 123.748 114.345 122.287 113.719C120.618 112.884 119.157 111.841 117.487 110.797C116.235 111.423 115.401 112.258 114.357 112.884ZM108.723 110.797C106.636 114.762 104.549 118.935 102.462 122.9C107.053 123.943 111.644 125.403 116.235 126.238C115.192 122.065 113.94 117.683 112.896 113.301C110.601 113.51 109.975 111.841 108.723 110.797ZM144.825 134.167C143.99 134.167 142.738 133.958 142.112 133.958C141.694 134.167 141.694 134.376 141.068 134.584C140.651 134.584 140.025 134.376 139.399 134.167C137.521 133.75 135.851 133.332 134.182 132.706C122.496 129.577 111.227 126.447 99.3322 123.526C94.5325 122.482 89.7328 121.022 83.8898 121.23C81.1769 121.439 79.0901 122.065 77.4207 123.317C75.9599 124.569 74.9165 126.238 73.8731 127.907C72.8297 129.577 71.7863 131.246 70.9515 133.124C67.1953 140.427 63.6477 147.939 60.1001 155.45C59.2654 157.328 58.222 159.206 57.5959 161.293C59.2654 163.379 61.5609 164.84 64.2737 166.092C66.5692 167.135 70.1168 168.596 73.4557 167.761C73.8731 165.674 74.0818 163.379 74.4991 161.293C74.9165 159.206 75.1252 156.911 75.9599 155.033C77.4207 151.486 80.1335 149.19 83.8898 147.73C83.055 147.313 81.1769 147.313 81.3856 146.061C81.3856 145.435 82.2203 145.435 82.8464 145.643C84.5158 146.269 86.1853 146.895 87.646 147.521C102.88 152.946 117.905 158.58 133.139 163.797C135.434 164.631 137.521 165.257 140.025 165.883C142.529 166.3 145.033 166.718 147.955 166.926C153.589 167.135 157.763 164.84 160.684 162.127C163.815 159.206 166.11 156.076 166.527 150.234C166.527 148.982 166.319 147.521 166.11 146.061C165.693 142.096 165.067 138.549 164.232 134.584C157.972 134.584 151.294 134.376 144.825 134.167ZM90.9849 150.86C89.3155 150.234 87.8547 149.608 86.1853 149.19H85.9766C83.6811 149.816 81.803 150.442 80.3422 151.694C78.8814 152.946 77.6293 154.407 77.0033 156.493C76.3773 158.58 75.9599 160.875 75.5425 163.379C73.6644 175.273 71.9949 187.584 70.3255 199.268C76.3773 200.103 82.6377 200.938 88.6894 201.772C91.8196 189.879 94.7412 177.359 97.8714 165.257C98.0801 164.423 98.2888 163.379 98.7061 163.171C99.3322 162.962 100.793 163.171 101.836 163.171C109.349 163.171 116.653 162.962 123.957 162.962C112.896 158.789 101.836 154.616 90.9849 150.86ZM53.4223 166.509C53.2136 167.135 53.005 168.178 53.2136 168.804C53.4223 169.639 54.6744 170.891 55.7178 171.726C56.7612 172.56 57.8046 173.395 58.848 173.812C61.3522 175.273 63.8564 176.316 66.7779 176.525C67.6126 176.525 68.656 176.525 69.2821 176.316C70.5342 175.899 71.3689 174.021 71.9949 172.977C72.2036 172.56 72.621 172.143 72.621 171.726C72.8297 171.1 72.621 170.474 73.0383 169.639C70.7429 170.056 68.4474 169.639 66.5692 169.013C61.9782 167.552 57.8046 164.84 55.7178 161.293C54.8831 162.753 53.8397 164.631 53.4223 166.509ZM53.005 171.517C52.5876 172.143 52.1702 172.769 51.7529 173.395C51.1268 174.438 50.2921 175.064 50.7095 176.316C50.9181 177.151 51.9616 178.194 52.7963 178.82C55.3005 181.115 60.5175 183.828 64.6911 182.158C65.3171 180.906 65.9432 179.655 66.5692 178.194C60.7262 177.359 56.5525 174.855 53.005 171.517ZM54.8831 182.158C52.7963 180.906 50.7095 179.237 49.6661 177.151C49.2487 177.777 48.414 177.985 47.5793 178.194C46.3272 178.611 45.2838 179.029 44.2404 179.655C43.6143 179.863 42.9883 180.281 42.5709 180.281C41.7362 180.281 40.9015 180.072 40.0667 179.863C39.232 179.655 38.3973 179.446 37.5626 179.237C39.232 181.741 40.2754 185.497 39.6494 189.879C43.6143 190.922 47.9966 192.174 51.9616 193.217C52.5876 193.426 53.4223 193.843 53.8397 193.635C54.0484 193.635 54.4657 193.217 54.6744 193.009C56.7612 191.339 58.848 190.296 61.5609 189.461C62.3956 187.584 63.439 185.914 64.0651 184.036C60.1001 184.662 57.1786 183.619 54.8831 182.158ZM55.3005 194.261C54.8831 194.678 54.257 195.304 53.8397 195.304C53.2136 195.304 52.3789 195.095 51.7529 194.887C48.2053 194.052 45.0751 193.009 41.5275 192.174C40.4841 191.965 37.9799 191.548 37.7712 190.713C37.5626 190.296 37.7712 189.67 37.7712 189.044C37.7712 188.418 37.7712 187.792 37.9799 187.166C37.9799 184.454 37.5626 182.784 36.5192 181.115C36.3105 180.698 35.4757 179.029 35.0584 178.82C34.8497 178.611 34.2237 178.611 33.8063 178.611C32.5542 178.403 30.6761 178.194 29.424 178.194C28.1719 178.403 27.3372 179.237 26.7111 180.281C26.2938 181.115 25.8764 182.367 25.8764 183.41C26.0851 185.08 27.3372 186.332 28.3806 187.375C29.424 188.418 30.2587 189.253 31.3021 190.087C33.5976 191.757 36.1018 192.8 38.8146 193.635C44.8664 195.513 50.2921 196.764 57.3873 197.39C58.4307 195.304 59.4741 193.426 60.3088 191.339C58.222 192.174 56.7612 193.217 55.3005 194.261ZM68.656 201.772C68.2387 202.607 68.2387 204.276 68.03 205.737C67.8213 207.197 67.404 208.867 67.8213 209.91C68.2387 210.953 69.2821 210.953 70.7429 211.162C75.5425 211.788 80.1335 212.414 85.1419 213.04C85.9766 213.248 87.02 213.457 87.646 213.248C88.8981 213.04 88.8981 211.788 89.1068 210.327C89.3155 208.867 89.5242 207.615 89.7328 206.363C89.9415 205.528 89.9415 204.902 89.9415 204.276C89.5242 203.233 88.4808 203.233 87.02 203.024C84.5158 202.607 82.2203 202.398 79.9248 201.981C77.4207 201.564 75.3338 201.355 72.8297 200.938C71.9949 200.729 70.9515 200.52 70.3255 200.729C69.4908 200.938 68.8647 201.355 68.656 201.772ZM67.404 219.717C72.8297 219.717 78.4641 219.717 83.8898 219.717C84.0984 218.048 84.0985 216.378 84.3071 214.709C79.0901 214.083 73.6644 213.248 68.4474 212.622C68.03 214.709 67.8213 217.213 67.404 219.717ZM67.1953 221.595C67.1953 223.055 66.5692 223.681 66.1519 224.725C65.9432 225.351 65.7345 226.185 65.3171 226.603C65.1085 226.811 64.2737 227.02 63.8564 227.229C62.3956 227.855 60.9348 228.48 59.4741 228.898C61.1435 230.567 62.1869 233.28 63.2303 235.784C68.2387 235.784 73.247 235.575 78.2554 235.575C79.5075 233.071 81.1769 231.193 82.8464 229.315C83.2637 228.898 84.3071 227.855 84.5158 227.229C84.5158 226.811 84.3071 226.394 84.3071 225.977C84.0985 224.516 84.0984 223.264 84.0984 221.595C78.2554 221.386 72.8297 221.386 67.1953 221.595C67.1953 221.386 67.1953 221.386 67.1953 221.595ZM84.5158 229.106C83.055 230.776 81.3856 232.654 80.1335 234.949C79.7161 235.575 79.2988 236.827 78.6727 236.827C78.2554 237.035 77.4207 236.827 76.5859 236.827C75.9599 236.827 75.1252 236.827 74.4991 236.827C71.5776 236.827 69.2821 237.035 66.1519 237.035C65.3172 237.035 62.813 237.453 61.9783 237.035C61.5609 236.827 61.5609 236.201 61.3522 235.784C60.5175 233.906 59.8914 231.819 58.6394 230.567C58.222 230.15 58.0133 229.732 57.5959 229.524C55.0918 230.15 52.5876 230.567 50.9181 232.236C49.4574 233.906 48.8313 236.41 47.9966 238.913C60.1001 238.705 71.9949 238.705 84.0984 238.496C84.7245 235.575 85.1419 232.028 84.5158 229.106Z" fill="black"/>
<path fill-rule="evenodd" clip-rule="evenodd" d="M115.609 45.9048C116.027 45.9048 116.653 45.9048 117.07 45.9048C117.905 46.1134 119.366 46.7394 119.366 47.574C119.366 47.9914 119.157 48.2 118.74 48.4087C117.905 48.4087 117.279 47.574 116.444 47.574C115.609 47.574 114.983 47.7827 114.566 47.9914C113.94 48.2 112.27 49.0347 112.27 47.7827C112.27 46.9481 113.731 46.5308 114.566 46.3221C114.983 45.9048 115.401 45.9048 115.609 45.9048Z" fill="black"/>
<path fill-rule="evenodd" clip-rule="evenodd" d="M114.983 57.5897C115.401 57.3811 116.027 57.5897 116.027 58.2157C116.027 59.0503 114.983 59.885 114.149 60.3023C113.523 60.5109 110.601 60.9282 111.227 59.4676C111.436 58.8417 113.105 59.259 113.731 58.8417C114.566 58.2157 114.357 57.7984 114.983 57.5897Z" fill="black"/>
<path fill-rule="evenodd" clip-rule="evenodd" d="M127.921 46.1135C130.843 46.1135 133.347 49.0347 133.347 52.5819C133.347 56.1291 131.052 59.0503 128.13 59.0503C125.209 59.0503 122.704 56.1291 122.704 52.5819C122.704 49.0347 125 46.1135 127.921 46.1135Z" fill="black"/>
<path fill-rule="evenodd" clip-rule="evenodd" d="M114.566 32.3421C113.94 32.5508 122.078 31.0902 125.417 39.8538C127.504 45.0703 126.252 47.9915 126.252 47.9915L128.339 47.7828C128.339 47.7828 128.339 42.775 127.295 38.1845C126.043 32.9681 119.992 31.9248 119.992 31.9248L114.566 32.3421Z" fill="black"/>
<path fill-rule="evenodd" clip-rule="evenodd" d="M60.9348 118.518H127.713C129.174 118.518 130.426 119.77 130.426 121.23V124.36C130.426 125.821 129.174 127.073 127.713 127.073H60.9348C59.4741 127.073 58.222 125.821 58.222 124.36V121.23C58.222 119.77 59.4741 118.518 60.9348 118.518Z" fill="white"/>
<path d="M127.713 127.699H60.9348C59.0567 127.699 57.5959 126.238 57.5959 124.36V121.23C57.5959 119.352 59.0567 117.892 60.9348 117.892H127.713C129.591 117.892 131.052 119.352 131.052 121.23V124.36C131.052 126.238 129.591 127.699 127.713 127.699ZM60.9348 119.352C59.8914 119.352 59.0567 120.187 59.0567 121.23V124.36C59.0567 125.404 59.8914 126.238 60.9348 126.238H127.713C128.756 126.238 129.591 125.404 129.591 124.36V121.23C129.591 120.187 128.756 119.352 127.713 119.352H60.9348Z" fill="black"/>
<path fill-rule="evenodd" clip-rule="evenodd" d="M44.6577 87.0103H97.4541C98.9148 87.0103 100.376 88.0535 101.002 89.3055L112.479 118.935C112.896 120.187 111.018 122.899 109.558 122.899H56.5526C55.0918 122.899 53.631 121.856 53.005 120.604L41.7362 90.9748C41.3188 89.7228 43.197 87.0103 44.6577 87.0103Z" fill="white"/>
<path d="M109.558 123.526H56.5526C54.6745 123.526 53.005 122.274 52.379 120.813L40.9015 91.1836C40.4841 90.1403 41.3189 88.6797 41.5275 88.2624C42.1536 87.2191 43.4057 86.1758 44.4491 86.1758H97.2454C99.1235 86.1758 100.793 87.4277 101.419 88.8883L112.896 118.518C113.314 119.561 112.479 121.022 112.27 121.439C111.853 122.482 110.601 123.526 109.558 123.526ZM44.6578 87.6364C44.2404 87.6364 43.6144 88.0537 42.9883 89.097C42.571 89.9316 42.3623 90.3489 42.3623 90.5576L53.8397 120.187C54.2571 121.022 55.5092 121.856 56.5526 121.856H109.349C109.766 121.856 110.392 121.439 111.018 120.396C111.436 119.77 111.644 119.144 111.644 118.935L100.167 89.3057C99.7496 88.471 98.4975 87.6364 97.4541 87.6364H44.6578Z" fill="black"/>
<path fill-rule="evenodd" clip-rule="evenodd" d="M74.2905 103.494C76.586 103.494 79.0902 105.372 79.9249 107.668C80.5509 109.963 79.2989 111.841 77.0034 111.841C74.7079 111.841 72.2037 109.963 71.369 107.668C70.5343 105.372 71.7863 103.494 74.2905 103.494Z" fill="black"/>
<path fill-rule="evenodd" clip-rule="evenodd" d="M69.2822 134.793C69.2822 134.793 74.7079 120.396 83.8898 120.813C93.0718 121.022 119.783 128.325 119.783 128.325L108.097 132.498L69.2822 135.002V134.793Z" fill="#FF645A"/>
<path fill-rule="evenodd" clip-rule="evenodd" d="M100.793 122.482C95.3673 121.23 89.5242 119.352 82.6377 119.978C76.1686 120.604 73.6645 124.777 71.1603 129.368C68.4474 134.167 65.9433 139.384 63.4391 144.6H65.3172C67.1953 140.844 68.8648 137.297 70.7429 133.541C71.5777 131.663 72.6211 129.994 73.6645 128.325C74.7079 126.447 75.7513 124.986 77.212 123.734C78.8815 122.482 80.9683 121.856 83.6812 121.648C89.3155 121.439 94.3239 122.691 99.1236 123.943C104.132 125.195 117.696 128.742 122.496 129.994L123.957 128.742C120.2 127.907 106.219 124.152 102.462 123.108C101.628 122.691 101.419 122.691 100.793 122.482Z" fill="black"/>
<path fill-rule="evenodd" clip-rule="evenodd" d="M110.81 92.8528C111.436 92.6441 112.688 93.2701 113.314 93.6874C117.487 95.9826 121.035 98.6952 124.583 101.408C125.209 101.825 125.835 102.66 126.461 102.66C126.669 102.66 127.087 102.66 127.295 102.66C129.382 102.868 131.886 103.494 134.182 103.912C136.269 104.329 138.564 104.746 140.651 105.164V103.494C137.103 102.868 133.347 102.242 129.8 101.616C128.756 101.408 127.713 101.408 126.878 100.99C126.252 100.782 125.626 100.156 125 99.7385C121.87 97.4432 118.948 95.3567 115.818 93.4787C114.566 92.6441 113.105 91.6008 111.644 91.3922C110.392 91.1835 109.558 91.8095 108.723 92.2268C108.305 91.3922 108.305 90.1402 107.888 89.0969C107.888 88.8883 107.679 88.6796 107.471 88.4709H105.175C105.593 88.8883 106.427 89.3056 106.636 89.9315C106.845 90.5575 106.845 91.1835 107.053 91.6008C107.262 92.2268 107.262 92.6441 107.471 93.2701C106.636 94.1047 106.01 94.9393 105.175 95.9826C104.549 96.6086 103.297 97.8606 103.297 99.1125C103.506 100.156 105.175 100.782 106.427 100.364C107.053 100.156 107.888 99.3212 108.514 98.9038C108.932 98.6952 109.14 98.2779 109.558 98.0692C109.975 97.8606 110.184 97.4432 110.601 97.4432C109.349 98.4865 108.514 100.156 107.679 102.034C107.053 103.703 106.01 105.998 106.636 108.293C106.845 108.919 107.053 109.128 107.262 109.754C107.679 110.38 107.888 110.797 108.305 111.215C109.558 112.258 110.184 113.927 112.479 113.927C112.479 114.345 112.688 114.553 112.688 114.971C112.688 114.971 112.688 114.971 112.688 114.762C113.105 114.345 113.522 114.136 113.94 113.927C113.94 113.719 113.731 113.51 113.731 113.093C114.775 112.467 115.609 111.632 116.653 111.006C118.322 112.258 119.783 113.093 121.452 113.927C122.913 114.553 124.165 114.971 126.461 114.762C127.087 114.762 127.504 114.553 128.13 114.553C128.756 114.553 129.382 114.971 130.217 115.179C133.556 116.431 136.686 117.474 140.025 118.726V116.848C136.686 115.596 133.347 114.553 130.217 113.301C129.591 113.093 128.965 112.675 128.548 112.675C127.713 112.467 126.669 112.884 125.835 112.884C125 112.884 124.165 112.884 123.331 112.675C121.244 112.049 119.783 110.589 117.905 109.545C118.322 108.711 119.574 108.502 119.574 107.459C119.574 107.042 119.366 106.624 118.948 106.624C118.322 106.624 117.696 107.459 117.07 107.876C116.027 108.919 114.983 109.963 113.731 110.797C113.105 111.215 112.27 111.841 111.644 111.423C111.644 111.215 111.644 111.006 111.853 110.797C112.479 109.337 113.314 107.876 114.357 106.624C115.192 105.79 116.235 104.955 117.487 104.12C117.905 103.912 118.322 103.494 118.322 103.077C118.322 102.66 118.113 102.451 117.696 102.242C116.861 102.034 115.818 103.286 115.401 103.703C114.566 104.329 113.94 104.955 113.314 105.581C111.853 107.042 111.227 108.711 110.392 110.38C109.766 109.963 109.558 109.545 109.14 108.919C109.975 107.25 110.601 105.372 111.853 103.703C112.27 103.077 113.105 102.451 113.731 101.616C114.149 101.199 115.609 100.156 115.609 99.5298C115.609 99.3212 115.192 98.9038 114.983 98.6952C114.149 98.6952 113.314 99.9471 112.896 100.364C112.27 100.99 111.644 101.616 111.018 102.242C109.766 103.912 109.14 105.581 108.305 107.042C107.888 105.164 108.514 103.912 109.14 102.242C109.975 100.156 110.601 98.9038 112.27 97.4432C112.896 97.0259 114.149 96.1913 114.357 95.5653C114.357 94.1047 112.479 95.148 112.062 95.5653C111.436 95.3567 111.227 94.7307 110.601 94.7307C110.184 94.7307 109.766 95.3567 109.349 95.5653C108.932 95.9826 108.514 96.1913 108.097 96.6086C107.262 97.2346 106.427 98.2779 105.175 97.8606C105.593 97.0259 106.636 95.9826 107.471 94.9393C108.514 94.522 109.349 93.2701 110.81 92.8528Z" fill="black"/>
</g>
<defs>
<clipPath id="clip0">
<rect width="250" height="241" fill="white"/>
</clipPath>
</defs>
</svg>
