<svg width="1440" height="1162" viewBox="0 0 1440 1162" fill="none" xmlns="http://www.w3.org/2000/svg">
<g clip-path="url(#clip0)">
<path d="M0 256L48 229.3C96 203 192 149 288 154.7C384 160 480 224 576 218.7C672 213 768 139 864 128C960 117 1056 171 1152 197.3C1248 224 1344 224 1392 224H1440V320H1392C1344 320 1248 320 1152 320C1056 320 960 320 864 320C768 320 672 320 576 320C480 320 384 320 288 320C192 320 96 320 48 320H0V256Z" fill="#FF3233"/>
<path d="M0 239H48C96 239 192 239 288 212.3C384 186 480 132 576 132.3C672 132 768 186 864 217.7C960 250 1056 260 1152 233.7C1248 207 1344 143 1392 111L1440 79V367H1392C1344 367 1248 367 1152 367C1056 367 960 367 864 367C768 367 672 367 576 367C480 367 384 367 288 367C192 367 96 367 48 367H0V239Z" fill="black"/>
</g>
<rect y="317" width="1440" height="539" fill="black"/>
<path d="M0 1133L40 1122.3C80 1112 160 1090 240 1047.7C320 1005 400 941 480 925C560 909 640 941 720 989C800 1037 880 1101 960 1090.3C1040 1080 1120 994 1200 978.3C1280 962 1360 1016 1400 1042.3L1440 1069V845H1400C1360 845 1280 845 1200 845C1120 845 1040 845 960 845C880 845 800 845 720 845C640 845 560 845 480 845C400 845 320 845 240 845C160 845 80 845 40 845H0V1133Z" fill="#FF3233"/>
<path d="M1440 1066L1400 1039.3C1360 1013 1280 959 1200 927.3C1120 895 1040 885 960 906C880 927 800 981 720 1028.7C640 1077 560 1119 480 1130C400 1141 320 1119 240 1103.3C160 1087 80 1077 40 1071.3L0 1066V842H40C80 842 160 842 240 842C320 842 400 842 480 842C560 842 640 842 720 842C800 842 880 842 960 842C1040 842 1120 842 1200 842C1280 842 1360 842 1400 842H1440V1066Z" fill="black"/>
<defs>
<clipPath id="clip0">
<rect width="1440" height="320" fill="white"/>
</clipPath>
</defs>
</svg>
