<svg width="624" height="617" viewBox="0 0 624 617" fill="none" xmlns="http://www.w3.org/2000/svg">
<path fill-rule="evenodd" clip-rule="evenodd" d="M28.8963 378.21C-26.4229 490.443 67.8247 557.065 154.389 577.564C240.441 598.063 562.112 601.138 613.846 374.11C640.481 257.265 612.309 53.298 496.549 43.5609C381.3 33.8238 348.519 226.003 268.101 258.802C188.195 292.113 70.3857 294.163 28.8963 378.21Z" fill="#FF3233"/>
<path d="M14.5542 376.672C13.0175 376.16 11.9931 374.11 12.5053 372.572C13.0175 371.035 15.0664 370.01 17.1153 371.035C19.1641 372.06 19.6763 373.597 18.6519 375.135C17.6275 376.672 16.0908 377.185 14.5542 376.672Z" fill="#1A1A1A"/>
<path d="M9.43204 390.509C7.8954 389.997 6.87097 387.947 7.38318 386.409C7.8954 384.872 9.94426 383.847 11.4809 384.359C13.0175 384.872 14.042 386.922 13.5298 388.459C13.0175 389.997 11.4809 391.022 9.43204 390.509Z" fill="#1A1A1A"/>
<path d="M5.84662 404.346C4.30998 403.833 2.77333 402.296 3.28555 400.246C3.79776 398.196 5.33441 397.171 7.38327 397.684C8.91991 398.196 10.4566 399.734 9.94434 401.783C9.43213 403.321 7.89548 404.858 5.84662 404.346Z" fill="#1A1A1A"/>
<path d="M3.79793 418.696C1.74907 418.696 0.72464 417.158 0.72464 415.108C0.72464 413.058 2.7735 412.033 4.31015 412.033C6.35901 412.546 7.38344 414.083 7.38344 415.621C7.38344 417.671 5.84679 418.696 3.79793 418.696Z" fill="#1A1A1A"/>
<path d="M3.79781 433.045C1.74895 433.045 0.212304 431.508 0.724519 429.97C0.724519 427.92 2.26116 426.383 3.79781 426.895C5.84667 426.895 6.8711 428.433 6.8711 429.97C6.8711 431.508 5.33445 433.045 3.79781 433.045Z" fill="#1A1A1A"/>
<path d="M4.82226 447.394C3.28561 447.907 1.23676 446.369 1.23676 444.832C1.23676 442.782 2.26119 441.245 4.31005 440.732C6.35891 440.732 7.89555 441.757 7.89555 443.295C7.89555 445.344 6.87112 446.882 4.82226 447.394Z" fill="#1A1A1A"/>
<path d="M8.40754 461.231C6.87089 461.744 4.82204 460.719 4.30982 459.181C3.79761 457.131 4.82204 455.594 6.8709 455.081C8.40754 454.569 10.4564 455.594 10.9686 457.131C10.9686 459.181 9.94418 460.719 8.40754 461.231Z" fill="#1A1A1A"/>
<path d="M13.5301 474.556C11.9935 475.068 9.94463 474.556 8.9202 473.018C8.40799 471.481 8.9202 469.431 10.9691 468.918C12.5057 468.406 14.5546 468.919 15.0668 470.456C15.579 471.993 15.0668 474.043 13.5301 474.556Z" fill="#1A1A1A"/>
<path d="M20.1886 487.368C18.6519 488.393 16.6031 487.88 15.5787 486.343C14.5542 484.806 15.0664 482.756 16.6031 481.731C18.1397 480.706 20.1886 481.218 21.213 482.756C22.2375 484.293 21.7252 486.343 20.1886 487.368Z" fill="#1A1A1A"/>
<path d="M28.8963 499.155C27.3597 500.18 25.3108 500.18 24.2864 498.642C22.7497 497.105 23.2619 495.055 24.7986 494.03C26.3352 493.005 28.3841 493.518 29.4085 494.543C30.433 496.08 29.9207 498.13 28.8963 499.155Z" fill="#1A1A1A"/>
<path d="M38.1165 509.917C36.5798 510.942 34.531 510.942 33.5065 509.917C31.9699 508.379 32.4821 506.329 33.5065 505.304C35.0432 504.279 37.092 504.279 38.1165 505.304C39.6531 506.842 39.6531 508.892 38.1165 509.917Z" fill="#1A1A1A"/>
<path d="M48.8729 520.166C47.8485 521.704 45.7996 521.704 44.263 520.679C42.7264 519.654 42.7264 517.091 44.263 516.066C45.2874 514.529 47.3363 514.529 48.8729 516.066C49.8974 516.579 49.8974 518.629 48.8729 520.166Z" fill="#1A1A1A"/>
<path d="M60.1414 528.879C59.117 530.416 57.0681 530.416 55.5315 529.391C53.9948 528.366 53.9948 526.316 55.0193 524.779C56.0437 523.241 58.0926 523.241 59.6292 524.266C61.1658 525.291 61.1658 527.341 60.1414 528.879Z" fill="#1A1A1A"/>
<path d="M71.9224 537.078C70.898 538.615 68.8491 539.128 67.3125 538.103C65.7758 537.078 65.2636 535.028 66.288 533.491C67.3125 531.953 69.3613 531.441 70.898 532.466C72.4346 533.491 72.9468 535.541 71.9224 537.078Z" fill="#1A1A1A"/>
<path d="M84.7278 544.253C83.7034 545.79 81.6545 546.303 80.1178 545.79C78.5812 544.765 78.069 542.715 79.0934 541.178C80.1179 539.64 82.1667 539.128 83.7034 540.153C84.7278 540.665 85.24 542.715 84.7278 544.253Z" fill="#1A1A1A"/>
<path d="M97.5333 550.402C97.0211 551.94 94.9722 552.965 92.9234 551.94C91.3867 550.915 90.3623 549.377 91.3867 547.327C92.4112 545.79 93.9478 544.765 95.9967 545.79C97.5333 546.815 98.0455 548.865 97.5333 550.402Z" fill="#1A1A1A"/>
<path d="M110.851 556.04C110.338 557.577 108.29 558.602 106.753 558.09C105.216 557.577 104.192 555.527 104.704 553.99C105.216 552.453 107.265 551.428 108.802 552.453C110.338 552.453 111.363 554.503 110.851 556.04Z" fill="#1A1A1A"/>
<path d="M124.168 561.165C123.656 562.702 121.607 563.727 120.07 563.215C118.534 562.702 117.509 560.652 118.021 559.115C118.534 557.577 120.583 556.552 122.119 557.065C123.656 557.577 124.68 559.115 124.168 561.165Z" fill="#1A1A1A"/>
<path d="M137.998 565.265C137.486 566.802 135.949 567.827 133.9 567.315C132.364 566.802 131.339 564.752 131.852 563.215C132.364 561.677 134.413 560.652 135.949 561.165C137.486 561.677 138.51 563.727 137.998 565.265Z" fill="#1A1A1A"/>
<path d="M151.828 568.852C151.315 570.389 149.779 571.927 147.73 571.414C145.681 570.902 144.657 569.364 145.169 567.315C145.681 565.777 147.218 564.24 149.267 564.752C151.315 565.265 152.34 566.802 151.828 568.852Z" fill="#1A1A1A"/>
<path d="M166.17 571.414C165.658 573.464 164.121 574.489 162.584 573.977C160.536 573.464 159.511 571.927 160.023 570.389C160.536 568.852 162.072 567.315 163.609 567.827C165.145 567.827 166.682 569.365 166.17 571.414Z" fill="#1A1A1A"/>
<path d="M180.512 572.952C180.512 575.002 178.463 576.026 176.926 576.026C174.877 576.026 173.853 573.977 173.853 572.439C173.853 570.389 175.902 569.364 177.439 569.364C179.487 569.877 180.512 571.414 180.512 572.952Z" fill="#1A1A1A"/>
<path d="M194.854 574.489C194.854 576.539 193.317 577.564 191.269 577.564C189.22 577.564 188.195 576.027 188.195 573.977C188.195 572.439 189.732 570.902 191.781 570.902C193.83 570.902 194.854 572.439 194.854 574.489Z" fill="#1A1A1A"/>
<path d="M209.196 575.514C209.196 577.564 207.66 578.589 205.611 578.589C203.562 578.589 202.537 577.051 202.537 575.002C202.537 572.952 204.074 571.927 206.123 571.927C208.172 571.927 209.196 573.464 209.196 575.514Z" fill="#1A1A1A"/>
<path d="M223.538 576.026C223.538 578.076 222.001 579.101 219.952 579.101C217.904 579.101 216.879 577.564 216.879 575.514C216.879 573.464 218.416 572.439 220.465 572.439C222.001 572.952 223.538 573.977 223.538 576.026Z" fill="#1A1A1A"/>
<path d="M237.88 576.027C237.88 578.077 236.343 579.102 234.807 579.102C232.758 579.102 231.734 577.564 231.734 576.027C231.734 573.977 233.27 572.952 234.807 572.952C236.343 572.952 237.88 574.489 237.88 576.027Z" fill="#1A1A1A"/>
<path d="M252.222 576.027C252.222 578.076 250.686 579.101 249.149 579.614C247.1 579.614 246.076 578.076 246.076 576.539C246.076 574.489 247.612 573.464 249.149 573.464C250.686 572.952 252.222 574.489 252.222 576.027Z" fill="#1A1A1A"/>
<path d="M267.076 576.027C267.076 578.077 265.54 579.614 264.003 579.614C261.954 579.614 260.417 578.077 260.417 576.539C260.417 574.489 261.954 573.464 263.491 572.952C265.027 572.439 266.564 573.977 267.076 576.027Z" fill="#1A1A1A"/>
<path d="M281.418 575.002C281.418 577.051 280.394 578.589 278.345 578.589C276.296 578.589 274.76 577.051 274.76 575.514C274.76 573.464 276.296 571.927 277.833 571.927C279.37 571.927 280.906 573.464 281.418 575.002Z" fill="#1A1A1A"/>
<path d="M295.76 573.977C295.76 576.027 294.736 577.564 292.687 577.564C290.638 577.564 289.101 576.539 289.101 574.489C289.101 572.439 290.126 570.902 292.175 570.902C293.711 570.902 295.248 572.439 295.76 573.977Z" fill="#1A1A1A"/>
<path d="M310.102 572.439C310.102 574.489 309.078 576.026 307.029 576.026C304.98 576.026 303.444 575.002 303.444 572.952C303.444 570.902 304.468 569.364 306.517 569.364C308.054 569.364 309.59 570.902 310.102 572.439Z" fill="#1A1A1A"/>
<path d="M324.445 570.902C324.445 572.439 323.42 574.489 321.371 574.489C319.322 574.489 317.786 573.464 317.786 571.927C317.786 569.877 318.81 568.339 320.859 568.339C322.396 567.827 323.932 568.852 324.445 570.902Z" fill="#1A1A1A"/>
<path d="M338.274 568.852C338.787 570.389 337.25 572.439 335.713 572.439C333.665 572.439 332.128 571.414 332.128 569.877C331.616 568.339 333.152 566.289 334.689 566.289C336.738 565.777 338.274 567.314 338.274 568.852Z" fill="#1A1A1A"/>
<path d="M352.616 566.289C353.128 567.827 351.592 569.877 350.055 569.877C348.518 569.877 346.47 568.852 346.47 567.314C345.957 565.777 347.494 563.727 349.031 563.727C350.567 563.727 352.616 564.752 352.616 566.289Z" fill="#1A1A1A"/>
<path d="M366.959 563.727C367.471 565.264 365.934 567.314 364.397 567.827C362.861 568.339 360.812 566.802 360.3 565.265C359.787 563.727 361.324 561.677 362.861 561.165C364.91 560.652 366.446 561.677 366.959 563.727Z" fill="#1A1A1A"/>
<path d="M380.788 560.652C381.3 562.19 380.276 564.24 378.227 564.752C376.69 565.265 374.642 564.24 374.129 562.19C373.617 560.652 374.642 558.602 376.69 558.09C378.739 557.577 380.276 558.602 380.788 560.652Z" fill="#1A1A1A"/>
<path d="M395.13 557.065C395.642 558.603 394.618 560.652 392.569 561.165C391.032 561.677 388.983 560.652 388.471 558.603C387.959 557.065 388.983 555.015 391.032 554.503C392.569 553.99 394.618 555.015 395.13 557.065Z" fill="#1A1A1A"/>
<path d="M408.96 552.965C409.472 554.503 408.448 556.553 406.911 557.065C405.374 557.577 403.326 556.553 402.813 555.015C402.301 553.478 403.326 551.428 404.862 550.915C406.399 550.403 408.448 551.428 408.96 552.965Z" fill="#1A1A1A"/>
<path d="M422.277 548.353C422.79 549.89 421.765 551.94 420.229 552.453C418.692 552.965 416.643 551.94 416.131 550.403C415.619 548.865 416.643 546.815 418.18 546.303C420.229 545.79 421.765 546.815 422.277 548.353Z" fill="#1A1A1A"/>
<path d="M436.107 543.741C436.62 545.278 436.107 547.328 434.058 547.84C432.522 548.353 430.473 547.84 429.961 545.79C429.449 544.253 429.961 542.203 432.01 541.691C433.546 541.178 435.595 541.691 436.107 543.741Z" fill="#1A1A1A"/>
<path d="M449.425 538.103C449.937 539.641 449.425 541.691 447.888 542.203C446.352 542.715 444.303 542.203 443.791 540.153C443.279 538.616 443.791 536.566 445.327 536.053C446.864 536.053 448.913 536.566 449.425 538.103Z" fill="#1A1A1A"/>
<path d="M462.743 532.466C463.767 534.003 462.743 536.053 461.206 536.566C459.669 537.078 457.621 536.566 456.596 535.028C456.084 533.491 456.596 531.441 458.133 530.929C459.669 529.904 461.718 530.929 462.743 532.466Z" fill="#1A1A1A"/>
<path d="M475.548 525.803C476.572 527.341 475.548 529.391 474.011 530.416C472.474 531.441 470.426 530.416 469.401 528.878C468.377 527.341 469.401 525.291 470.938 524.266C472.474 523.754 474.523 524.266 475.548 525.803Z" fill="#1A1A1A"/>
<path d="M488.353 519.142C489.378 520.679 488.866 522.729 487.329 523.754C485.792 524.779 483.743 524.266 482.719 522.729C481.695 521.191 482.207 519.142 483.743 518.117C485.28 517.092 487.329 517.604 488.353 519.142Z" fill="#1A1A1A"/>
<path d="M500.646 511.454C501.671 512.992 501.158 515.042 499.622 516.067C498.085 517.092 496.036 516.579 495.012 515.042C493.987 513.504 494.5 511.454 496.036 510.429C497.573 509.404 499.622 509.917 500.646 511.454Z" fill="#1A1A1A"/>
<path d="M512.427 503.767C513.452 505.305 512.94 507.355 511.403 508.379C509.866 509.404 507.817 508.892 506.793 507.355C505.769 505.817 506.281 503.767 507.817 502.742C509.354 501.717 511.403 502.23 512.427 503.767Z" fill="#1A1A1A"/>
<path d="M523.696 494.543C524.72 496.08 524.72 498.13 523.184 499.155C521.647 500.18 519.598 500.18 518.574 498.642C517.549 497.105 517.549 495.055 519.086 494.03C520.623 493.005 522.672 493.518 523.696 494.543Z" fill="#1A1A1A"/>
<path d="M534.965 485.318C535.989 486.855 535.989 488.905 534.453 489.93C532.916 490.955 530.867 490.955 529.843 489.418C528.818 487.88 528.818 485.83 530.355 484.805C531.379 483.78 533.428 484.293 534.965 485.318Z" fill="#1A1A1A"/>
<path d="M545.209 475.581C546.746 476.606 546.746 479.168 545.209 480.193C544.185 481.73 542.136 481.73 540.599 480.193C539.575 478.655 539.575 476.606 540.599 475.581C542.136 474.043 544.185 474.043 545.209 475.581Z" fill="#1A1A1A"/>
<path d="M555.453 465.331C556.99 466.356 556.99 468.919 555.453 469.944C554.429 471.481 551.868 471.481 550.843 469.944C549.307 468.919 549.307 466.869 550.843 465.331C551.868 464.306 553.916 463.794 555.453 465.331Z" fill="#1A1A1A"/>
<path d="M564.673 454.056C566.21 455.081 566.21 457.131 565.185 458.669C564.161 460.206 562.112 460.206 560.575 459.181C559.039 458.156 559.039 456.106 560.063 454.569C561.088 453.031 563.136 453.031 564.673 454.056Z" fill="#1A1A1A"/>
<path d="M572.869 442.269C574.405 443.294 574.917 445.344 573.893 446.882C572.869 448.419 570.82 448.932 569.283 447.907C567.747 446.882 567.234 444.832 568.259 443.294C569.283 441.757 571.332 441.244 572.869 442.269Z" fill="#1A1A1A"/>
<path d="M580.552 429.97C582.089 430.995 582.601 433.045 581.576 434.582C580.552 436.12 578.503 436.632 576.966 435.607C575.43 434.582 574.918 432.532 575.942 430.995C576.966 429.97 579.015 429.457 580.552 429.97Z" fill="#1A1A1A"/>
<path d="M587.723 417.67C589.26 418.695 589.772 420.745 589.26 422.283C588.235 423.82 586.186 424.333 584.65 423.82C583.113 422.795 582.601 420.745 583.625 419.208C584.137 417.67 586.186 416.645 587.723 417.67Z" fill="#1A1A1A"/>
<path d="M593.869 404.858C595.406 405.371 596.43 407.421 595.406 408.958C594.382 410.496 592.845 411.521 590.796 410.496C589.259 409.471 588.235 407.933 589.259 406.396C590.284 404.858 592.333 403.833 593.869 404.858Z" fill="#1A1A1A"/>
<path d="M598.992 391.021C600.528 391.534 601.553 393.584 601.041 395.121C600.528 396.659 598.479 397.684 596.943 397.171C595.406 396.659 594.382 394.609 594.894 393.071C595.406 391.534 597.455 390.509 598.992 391.021Z" fill="#1A1A1A"/>
<path d="M604.114 377.697C605.65 378.21 606.675 380.259 606.163 381.797C605.651 383.334 603.602 384.359 602.065 383.847C600.528 383.334 599.504 381.284 600.016 379.747C600.528 378.21 602.065 377.185 604.114 377.697Z" fill="#1A1A1A"/>
<path d="M607.699 363.86C609.236 364.373 610.26 365.91 610.26 367.96C609.748 369.497 608.211 371.035 606.163 370.522C604.626 370.01 603.601 368.472 603.601 366.422C604.114 364.373 605.65 363.348 607.699 363.86Z" fill="#1A1A1A"/>
<path d="M610.773 349.511C612.309 350.023 613.846 351.561 613.334 353.61C612.822 355.66 611.285 356.685 609.236 356.173C607.699 355.66 606.163 354.123 606.675 352.073C607.187 350.536 609.236 349.511 610.773 349.511Z" fill="#1A1A1A"/>
<path d="M613.334 335.161C615.383 335.674 616.407 337.211 615.895 338.749C615.383 340.799 613.846 341.824 612.309 341.311C610.773 340.799 609.236 339.261 609.748 337.724C609.748 336.186 611.285 335.161 613.334 335.161Z" fill="#1A1A1A"/>
<path d="M614.87 321.325C616.407 321.325 617.944 323.375 617.944 324.912C617.944 326.962 615.895 327.987 614.358 327.987C612.822 327.987 611.285 325.937 611.797 324.4C611.797 322.35 613.334 320.812 614.87 321.325Z" fill="#1A1A1A"/>
<path d="M616.407 306.975C618.456 306.975 619.48 308.512 619.48 310.562C619.48 312.612 617.431 313.637 615.895 313.637C613.846 313.637 612.821 312.1 612.821 310.05C613.334 308 614.87 306.463 616.407 306.975Z" fill="#1A1A1A"/>
<path d="M617.431 292.113C619.48 292.113 620.505 293.651 620.505 295.701C620.505 297.75 618.968 298.775 616.919 298.775C614.87 298.775 613.846 297.238 613.846 295.188C613.846 293.651 615.382 292.113 617.431 292.113Z" fill="#1A1A1A"/>
<path d="M617.943 277.764C619.992 277.764 621.017 279.301 621.017 281.351C621.017 283.401 619.48 284.426 617.431 284.426C615.382 284.426 614.358 282.888 614.358 280.838C614.87 279.301 615.894 277.764 617.943 277.764Z" fill="#1A1A1A"/>
<path d="M617.944 263.414C619.993 263.414 621.017 264.952 621.017 266.489C621.017 268.539 619.48 269.564 617.944 269.564C615.895 269.564 614.87 268.027 614.87 266.489C614.87 264.952 616.407 263.414 617.944 263.414Z" fill="#1A1A1A"/>
<path d="M617.944 249.065C619.992 249.065 621.017 250.602 621.529 252.14C621.529 254.19 619.992 255.727 618.456 255.727C616.407 255.727 615.383 254.19 614.87 252.652C614.358 250.602 615.895 249.065 617.944 249.065Z" fill="#1A1A1A"/>
<path d="M616.919 234.716C618.968 234.716 620.505 235.741 620.505 237.791C620.505 239.841 619.48 241.378 617.431 241.378C615.382 241.378 613.846 239.84 613.846 238.303C613.846 236.253 615.382 234.716 616.919 234.716Z" fill="#1A1A1A"/>
<path d="M615.895 220.366C617.944 220.366 619.48 221.391 619.48 223.441C619.48 225.491 618.456 227.028 616.407 227.028C614.358 227.028 612.821 226.003 612.821 223.953C612.821 221.904 613.846 220.366 615.895 220.366Z" fill="#1A1A1A"/>
<path d="M614.358 206.016C616.407 206.016 617.943 207.041 617.943 209.091C617.943 211.141 616.919 212.679 614.87 212.679C612.821 212.679 611.285 211.654 611.285 209.604C611.285 208.066 612.309 206.016 614.358 206.016Z" fill="#1A1A1A"/>
<path d="M612.309 191.667C613.846 191.155 615.895 192.692 615.895 194.23C616.407 196.279 614.87 197.817 613.334 197.817C611.797 197.817 609.748 196.792 609.748 195.255C609.236 193.717 610.773 192.18 612.309 191.667Z" fill="#1A1A1A"/>
<path d="M609.748 177.318C611.285 176.805 613.334 178.343 613.334 179.88C613.334 181.417 612.309 183.467 610.773 183.467C609.236 183.98 607.187 182.442 607.187 180.905C607.187 179.367 608.212 177.83 609.748 177.318Z" fill="#1A1A1A"/>
<path d="M607.187 163.481C608.724 162.968 610.773 163.993 611.285 166.043C611.797 167.581 610.773 169.631 608.724 170.143C607.187 170.656 605.138 169.631 604.626 167.581C604.114 165.531 605.138 163.993 607.187 163.481Z" fill="#1A1A1A"/>
<path d="M603.602 149.131C605.138 148.619 607.187 149.644 607.7 151.694C608.212 153.231 607.187 155.281 605.138 155.793C603.602 156.306 601.553 155.281 601.041 153.231C600.529 151.694 602.065 149.644 603.602 149.131Z" fill="#1A1A1A"/>
<path d="M599.504 135.295C601.041 134.782 603.089 135.807 603.602 137.345C604.114 138.882 603.089 140.932 601.553 141.444C600.016 141.957 597.967 140.932 597.455 139.395C596.943 137.857 597.967 135.807 599.504 135.295Z" fill="#1A1A1A"/>
<path d="M594.894 121.97C596.431 121.458 598.479 121.97 598.992 124.02C599.504 125.557 598.479 127.607 596.943 128.12C595.406 128.632 593.357 127.607 592.845 126.07C592.333 124.532 593.357 122.482 594.894 121.97Z" fill="#1A1A1A"/>
<path d="M589.772 108.645C591.309 108.133 593.357 108.645 593.87 110.183C594.382 111.72 593.87 113.77 591.821 114.283C590.284 114.795 588.235 114.283 587.723 112.233C587.211 111.208 587.723 109.158 589.772 108.645Z" fill="#1A1A1A"/>
<path d="M583.625 95.3213C585.162 94.2963 587.211 95.3213 588.235 96.8587C589.26 98.3961 588.235 100.446 586.699 101.471C585.162 101.983 583.113 101.471 582.089 99.9336C581.576 97.8837 582.089 96.3462 583.625 95.3213Z" fill="#1A1A1A"/>
<path d="M576.966 82.5093C578.503 81.4843 580.552 81.9968 581.576 83.5342C582.601 85.0717 582.089 87.1216 580.552 88.1465C579.015 89.1715 576.966 88.659 575.942 87.1216C574.918 85.5841 575.43 83.5342 576.966 82.5093Z" fill="#1A1A1A"/>
<path d="M569.283 70.722C570.82 69.6971 572.869 70.2095 573.893 71.747C574.917 73.2844 574.405 75.3343 572.869 76.3593C571.332 77.3842 569.283 76.8718 568.259 75.3343C567.234 73.7969 567.747 71.747 569.283 70.722Z" fill="#1A1A1A"/>
<path d="M560.063 58.935C561.6 57.9101 563.649 57.9101 564.673 59.4475C565.698 60.985 565.698 63.0349 564.161 64.0598C562.624 65.0848 560.576 65.0848 559.551 63.5473C558.527 62.5224 559.039 60.4725 560.063 58.935Z" fill="#1A1A1A"/>
<path d="M550.331 48.6856C551.356 47.1482 553.405 47.1482 554.941 48.6856C556.478 50.223 556.478 52.273 554.941 53.2979C553.405 54.3229 551.356 54.3229 550.331 53.2979C549.307 52.273 549.307 49.7106 550.331 48.6856Z" fill="#1A1A1A"/>
<path d="M539.574 39.4607C540.599 37.9233 542.648 37.9233 544.184 38.9482C545.721 39.9732 545.721 42.0231 544.697 43.5605C543.672 45.098 541.623 45.098 540.087 44.073C538.55 43.0481 538.038 40.9981 539.574 39.4607Z" fill="#1A1A1A"/>
<path d="M527.281 31.7739C528.306 30.2365 530.355 29.724 531.891 30.2365C533.428 31.2614 533.94 33.3114 532.916 34.8488C531.891 36.3862 529.843 36.8987 528.306 35.8738C526.769 35.3613 526.257 33.3114 527.281 31.7739Z" fill="#1A1A1A"/>
<path d="M513.964 26.1363C514.476 24.5989 516.525 23.5739 518.062 24.0864C519.598 24.5989 520.623 26.6488 520.111 28.1862C519.598 29.7236 517.55 30.7486 516.013 30.2361C513.964 29.7236 513.452 27.6737 513.964 26.1363Z" fill="#1A1A1A"/>
<path d="M500.134 22.549C500.646 21.0116 502.183 19.4742 504.232 19.9866C506.281 20.4991 507.305 22.0365 506.793 24.0865C506.281 25.6239 504.744 26.6489 502.695 26.6489C500.646 25.6239 499.622 24.0865 500.134 22.549Z" fill="#1A1A1A"/>
<path d="M485.792 21.0116C485.792 18.9617 487.329 17.9368 489.377 17.9368C491.426 17.9368 492.451 19.4742 492.451 21.5241C492.451 23.0616 490.914 24.599 488.865 24.599C486.816 24.0865 485.792 22.5491 485.792 21.0116Z" fill="#1A1A1A"/>
<path d="M471.45 21.5241C471.45 19.9867 472.475 17.9368 474.524 17.9368C476.573 17.9368 478.109 18.9617 478.109 21.0116C478.109 23.0616 477.085 24.599 475.036 24.599C472.987 24.599 471.45 23.0616 471.45 21.5241Z" fill="#1A1A1A"/>
<path d="M457.108 24.5989C456.596 23.0614 457.62 21.0115 459.669 20.499C461.718 19.9865 463.254 21.524 463.767 23.0614C464.279 24.5989 463.254 26.6488 461.206 26.6488C459.669 27.1613 457.62 26.1363 457.108 24.5989Z" fill="#1A1A1A"/>
<path d="M443.79 29.2115C442.766 27.6741 443.79 25.6242 445.327 25.1117C446.864 24.5992 448.912 25.1117 449.425 26.6491C449.937 28.1865 449.425 30.2365 447.888 30.7489C446.351 31.7739 444.303 31.2614 443.79 29.2115Z" fill="#1A1A1A"/>
<path d="M430.985 36.386C429.96 34.8486 430.473 32.7987 432.009 31.7737C433.546 30.7488 435.595 31.2612 436.619 32.7987C437.644 34.3361 437.131 36.386 435.595 37.411C434.058 38.436 432.009 37.9235 430.985 36.386Z" fill="#1A1A1A"/>
<path d="M419.717 45.0982C418.692 43.5608 418.692 41.5108 420.229 40.4859C421.766 39.4609 423.814 39.4609 424.839 40.9984C425.863 42.5358 425.863 44.5857 424.327 45.6107C422.79 46.6356 420.741 46.1232 419.717 45.0982Z" fill="#1A1A1A"/>
<path d="M408.96 54.323C407.935 52.7856 407.935 50.7356 408.96 49.7107C410.496 48.6857 412.545 48.6857 413.57 49.7107C414.594 51.2481 414.594 53.298 413.57 54.323C412.033 55.8604 409.984 55.8604 408.96 54.323Z" fill="#1A1A1A"/>
<path d="M398.716 65.0847C397.179 64.0597 397.179 62.0098 398.716 60.4724C399.74 58.9349 401.789 58.9349 403.326 60.4724C404.862 61.4973 404.862 63.5472 403.326 65.0847C402.301 66.1096 400.252 66.1096 398.716 65.0847Z" fill="#1A1A1A"/>
<path d="M389.496 75.8471C387.959 74.8221 387.959 72.7722 388.984 71.2347C390.008 69.6973 392.057 69.6973 393.594 70.7223C395.13 71.7472 395.13 73.7971 394.106 75.3346C393.081 76.872 391.033 77.3845 389.496 75.8471Z" fill="#1A1A1A"/>
<path d="M380.788 87.6337C379.251 86.6088 378.739 84.5589 380.276 83.0214C381.3 81.484 383.349 81.484 384.886 82.5089C386.422 83.5339 386.422 85.5838 385.398 87.1213C384.374 88.1462 382.325 88.6587 380.788 87.6337Z" fill="#1A1A1A"/>
<path d="M372.593 99.4209C371.056 98.3959 370.544 96.346 371.568 94.8086C372.592 93.2711 374.641 92.7587 376.178 93.7836C377.715 94.8086 378.227 96.8585 377.202 98.3959C376.178 99.9334 374.129 100.446 372.593 99.4209Z" fill="#1A1A1A"/>
<path d="M364.909 111.72C363.373 110.695 362.86 108.646 363.885 107.108C364.909 105.571 366.958 105.058 368.495 106.083C370.031 107.108 370.544 109.158 369.519 110.695C368.495 112.233 366.446 112.745 364.909 111.72Z" fill="#1A1A1A"/>
<path d="M357.226 123.508C355.689 122.483 355.177 120.433 356.202 118.895C357.226 117.358 359.275 116.845 360.812 117.87C362.348 118.895 362.86 120.945 361.836 122.483C360.812 124.02 358.763 124.533 357.226 123.508Z" fill="#1A1A1A"/>
<path d="M349.543 135.807C348.006 134.782 347.494 132.732 348.518 131.194C349.543 129.657 351.592 129.145 353.128 130.17C354.665 131.194 355.177 133.244 354.153 134.782C353.128 136.319 351.08 136.832 349.543 135.807Z" fill="#1A1A1A"/>
<path d="M342.372 148.619C340.835 147.594 340.323 145.544 341.347 144.006C342.372 142.469 344.421 141.957 345.957 142.981C347.494 144.006 348.006 146.056 346.982 147.594C345.957 148.619 343.908 149.131 342.372 148.619Z" fill="#1A1A1A"/>
<path d="M334.688 160.918C333.152 159.893 332.64 157.844 333.664 156.306C334.689 154.769 336.737 154.256 338.274 155.281C339.811 156.306 340.323 158.356 339.298 159.893C338.274 161.431 336.225 161.431 334.688 160.918Z" fill="#1A1A1A"/>
<path d="M327.005 172.706C325.469 171.681 324.956 169.631 325.981 168.093C327.005 166.556 329.054 166.043 330.591 167.068C332.127 168.093 332.64 170.143 331.615 171.681C330.591 173.218 328.542 173.731 327.005 172.706Z" fill="#1A1A1A"/>
<path d="M319.322 185.005C317.785 183.98 317.273 181.93 318.298 180.393C319.322 178.855 321.371 178.343 322.908 179.368C324.444 180.393 324.956 182.443 323.932 183.98C322.908 185.518 320.859 186.03 319.322 185.005Z" fill="#1A1A1A"/>
<path d="M311.127 196.792C309.59 195.767 309.59 193.717 310.615 192.18C311.639 190.642 313.688 190.642 315.225 191.667C316.761 192.692 317.273 194.742 315.737 196.28C314.2 197.304 312.151 197.817 311.127 196.792Z" fill="#1A1A1A"/>
<path d="M301.907 208.066C300.37 207.041 300.37 204.992 301.395 203.454C302.419 201.917 304.468 201.917 306.005 202.942C307.541 203.967 307.541 206.017 306.517 207.554C305.492 209.091 303.443 209.091 301.907 208.066Z" fill="#1A1A1A"/>
<path d="M292.175 218.829C290.638 217.804 290.638 215.754 292.175 214.217C293.199 213.192 295.248 212.679 296.785 214.217C298.321 215.241 298.321 217.804 296.785 218.829C295.76 219.854 293.711 220.366 292.175 218.829Z" fill="#1A1A1A"/>
<path d="M281.931 228.566C280.906 227.541 280.906 225.491 282.443 223.954C283.98 222.929 286.028 222.929 287.053 224.466C288.077 226.004 288.077 228.053 286.541 229.078C285.004 230.103 282.955 230.103 281.931 228.566Z" fill="#1A1A1A"/>
<path d="M270.15 236.765C269.125 235.228 269.638 233.178 271.174 232.153C272.711 231.128 274.76 231.641 275.784 233.178C276.809 234.715 276.296 236.765 274.76 237.79C273.223 238.815 271.174 238.303 270.15 236.765Z" fill="#1A1A1A"/>
<path d="M257.344 243.428C256.832 241.89 257.344 239.84 259.393 239.328C260.93 238.815 262.979 239.328 263.491 240.865C264.003 242.403 263.491 244.452 261.954 245.477C259.906 245.477 257.857 244.965 257.344 243.428Z" fill="#1A1A1A"/>
<path d="M243.515 248.04C243.002 246.503 244.027 244.453 245.564 243.94C247.1 243.428 249.149 243.94 249.661 245.99C250.174 247.528 249.661 249.577 247.612 250.09C246.076 251.115 244.027 250.09 243.515 248.04Z" fill="#1A1A1A"/>
<path d="M229.685 252.652C229.172 251.115 230.197 249.065 231.733 248.552C233.27 248.04 235.319 249.065 235.831 250.602C236.343 252.14 235.319 254.19 233.782 254.702C232.246 255.215 230.709 254.702 229.685 252.652Z" fill="#1A1A1A"/>
<path d="M215.855 256.752C215.343 255.214 216.367 253.164 217.904 252.652C219.44 252.14 221.489 253.164 222.002 254.702C222.514 256.239 221.489 258.289 219.953 258.802C218.416 259.827 216.367 258.802 215.855 256.752Z" fill="#1A1A1A"/>
<path d="M202.025 260.852C201.513 259.314 202.537 257.264 204.074 256.752C205.61 256.239 207.659 257.264 208.171 258.802C208.684 260.339 207.659 262.389 206.123 262.902C204.586 263.414 202.537 262.389 202.025 260.852Z" fill="#1A1A1A"/>
<path d="M188.195 264.439C187.683 262.902 188.707 260.852 190.756 260.339C192.293 259.827 194.342 260.852 194.854 262.389C195.366 263.926 194.342 265.976 192.293 266.489C190.756 267.514 188.707 266.489 188.195 264.439Z" fill="#1A1A1A"/>
<path d="M174.366 268.539C173.853 267.002 174.878 264.952 176.415 264.439C177.951 263.927 180 264.952 180.512 266.489C181.024 268.027 180 270.076 177.951 270.589C176.927 271.101 174.878 270.076 174.366 268.539Z" fill="#1A1A1A"/>
<path d="M160.536 272.126C160.023 270.589 161.048 268.539 162.584 268.026C164.121 267.514 166.17 268.539 166.682 270.076C167.194 271.614 166.17 273.664 164.633 274.176C162.584 275.201 161.048 274.176 160.536 272.126Z" fill="#1A1A1A"/>
<path d="M146.706 276.226C146.194 274.689 147.218 272.639 148.755 272.126C150.291 271.614 152.34 272.639 152.853 274.176C153.365 275.714 152.34 277.764 150.804 278.276C149.267 278.789 147.218 277.764 146.706 276.226Z" fill="#1A1A1A"/>
<path d="M132.876 280.326C132.364 278.789 133.388 276.739 134.925 276.226C136.461 275.714 138.51 276.739 139.022 278.276C139.535 279.814 138.51 281.864 136.974 282.376C135.437 283.401 133.388 282.376 132.876 280.326Z" fill="#1A1A1A"/>
<path d="M119.558 285.451C119.046 283.914 120.071 281.864 121.607 281.351C123.144 280.839 125.193 281.864 125.705 283.401C126.217 284.939 125.193 286.988 123.656 287.501C121.607 288.013 120.071 286.988 119.558 285.451Z" fill="#1A1A1A"/>
<path d="M105.728 290.576C105.216 289.038 105.728 286.988 107.777 286.476C109.314 285.963 111.363 286.476 111.875 288.526C112.387 290.063 111.875 292.113 109.826 292.625C108.29 293.138 106.753 292.113 105.728 290.576Z" fill="#1A1A1A"/>
<path d="M92.9231 296.213C91.8986 294.676 92.9231 292.626 94.4597 292.113C95.9964 291.601 98.0452 292.113 99.0697 293.651C99.5819 295.188 99.0697 297.238 97.533 297.75C95.4842 298.775 93.4353 297.75 92.9231 296.213Z" fill="#1A1A1A"/>
<path d="M80.118 302.875C79.0936 301.338 79.6058 299.288 81.6547 298.263C83.1913 297.238 85.2402 297.75 86.2646 299.8C87.2891 301.338 86.2646 303.388 84.728 304.413C82.6791 304.925 80.6303 304.413 80.118 302.875Z" fill="#1A1A1A"/>
<path d="M67.8249 310.562C66.8005 309.025 67.3127 306.975 68.8493 305.95C70.386 304.925 72.4348 305.438 73.4593 306.975C74.4837 308.513 73.9715 310.562 72.4348 311.587C70.386 312.612 68.8493 312.1 67.8249 310.562Z" fill="#1A1A1A"/>
<path d="M56.044 318.762C55.0196 317.225 55.0196 315.175 56.5562 314.15C58.0928 313.125 60.1417 313.125 61.1661 314.662C62.1906 316.2 62.1906 318.25 60.6539 319.275C59.1173 320.812 57.0684 320.3 56.044 318.762Z" fill="#1A1A1A"/>
<path d="M45.287 328.499C44.2626 327.474 44.2626 324.912 45.287 323.887C46.8237 322.862 48.8725 322.862 49.897 323.887C50.9214 325.425 50.9214 327.474 49.897 328.499C48.3603 330.037 46.3115 330.037 45.287 328.499Z" fill="#1A1A1A"/>
<path d="M35.555 339.261C34.0183 338.237 34.0183 336.187 35.0428 334.649C36.0672 333.112 38.6283 333.112 39.6527 334.137C41.1893 335.162 41.1893 337.212 40.1649 338.749C39.1405 340.286 37.0916 340.286 35.555 339.261Z" fill="#1A1A1A"/>
<path d="M27.3595 351.048C25.8229 350.023 25.3106 347.973 26.3351 346.436C27.3595 344.898 29.4084 344.386 30.945 345.411C32.4817 346.436 32.9939 348.486 31.9694 350.023C30.4328 351.561 28.8962 352.073 27.3595 351.048Z" fill="#1A1A1A"/>
<path d="M20.1889 363.348C18.6523 362.323 18.14 360.785 18.6523 358.735C19.6767 357.198 21.7255 356.685 23.2622 357.198C24.7988 358.735 25.3111 360.785 24.2866 362.323C23.7744 363.86 21.7255 364.373 20.1889 363.348Z" fill="#1A1A1A"/>
<path d="M437.132 180.905L398.203 170.655L426.887 141.957L437.132 180.905Z" fill="#838BC5"/>
<path d="M394.106 280.839L389.496 297.751L377.203 285.451L394.106 280.839Z" fill="#CBB3D6"/>
<path d="M129.803 11.7872H468.377C472.475 11.7872 475.548 14.8621 475.548 18.9619V595.501C475.548 599.601 472.475 602.676 468.377 602.676H129.803C125.705 602.676 122.632 599.601 122.632 595.501V18.9619C122.632 14.8621 125.705 11.7872 129.803 11.7872Z" fill="white"/>
<path d="M468.377 604.726H129.803C124.681 604.726 120.583 600.626 120.583 595.501V18.9618C120.583 13.837 124.681 9.73718 129.803 9.73718H468.377C473.499 9.73718 477.597 13.837 477.597 18.9618V595.501C477.597 600.626 473.499 604.726 468.377 604.726ZM129.803 13.837C127.242 13.837 124.681 15.8869 124.681 18.9618V595.501C124.681 598.063 126.73 600.626 129.803 600.626H468.377C470.938 600.626 473.499 598.576 473.499 595.501V18.9618C473.499 16.3994 471.45 13.837 468.377 13.837H129.803Z" fill="black"/>
<path fill-rule="evenodd" clip-rule="evenodd" d="M465.816 592.938H485.28V612.412H465.816V592.938Z" fill="black"/>
<path fill-rule="evenodd" clip-rule="evenodd" d="M112.9 592.938H132.364V612.412H112.9V592.938Z" fill="black"/>
<path fill-rule="evenodd" clip-rule="evenodd" d="M465.816 0H485.28V19.4742H465.816V0Z" fill="black"/>
<path fill-rule="evenodd" clip-rule="evenodd" d="M112.9 0H132.364V19.4742H112.9V0Z" fill="black"/>
<path fill-rule="evenodd" clip-rule="evenodd" d="M297.297 512.479H451.474C455.572 512.479 458.645 515.554 458.645 519.654V573.464C458.645 577.564 455.572 580.639 451.474 580.639H297.297C293.199 580.639 290.126 577.564 290.126 573.464V519.654C290.126 515.554 293.199 512.479 297.297 512.479Z" fill="black"/>
<path fill-rule="evenodd" clip-rule="evenodd" d="M430.985 565.777C430.985 565.777 429.961 570.39 431.497 578.077C433.034 584.227 437.132 589.864 437.132 589.864C437.132 589.864 420.229 585.764 415.619 578.077C410.497 569.365 414.082 562.702 414.082 562.702L430.985 565.777Z" fill="black"/>
<path fill-rule="evenodd" clip-rule="evenodd" d="M246.588 448.419H372.08C376.178 448.419 379.251 451.494 379.251 455.594V495.055C379.251 499.155 376.178 502.23 372.08 502.23H246.588C242.49 502.23 239.417 499.155 239.417 495.055V455.594C239.417 451.494 242.49 448.419 246.588 448.419Z" fill="#FF3233"/>
<path fill-rule="evenodd" clip-rule="evenodd" d="M262.466 490.443C262.466 490.443 263.491 494.03 261.954 500.18C260.93 504.792 257.344 509.404 257.344 509.404C257.344 509.404 271.686 506.33 275.272 500.18C279.369 493.518 276.296 488.393 276.296 488.393L262.466 490.443Z" fill="#FF3233"/>
<path fill-rule="evenodd" clip-rule="evenodd" d="M386.935 38.4359H438.668C443.791 38.4359 448.4 42.5357 448.4 48.173C448.4 53.2978 444.303 57.9101 438.668 57.9101H386.935C381.813 57.9101 377.203 53.8103 377.203 48.173C377.203 42.5357 381.3 38.4359 386.935 38.4359Z" fill="#FF3233"/>
<path fill-rule="evenodd" clip-rule="evenodd" d="M167.707 38.4359H352.104C357.226 38.4359 361.836 42.5357 361.836 48.173C361.836 53.2978 357.738 57.9101 352.104 57.9101H167.707C162.584 57.9101 157.974 53.8103 157.974 48.173C158.487 42.5357 162.584 38.4359 167.707 38.4359Z" fill="#FF3233"/>
<path d="M106.753 81.9967H353.641C359.787 81.9967 364.909 87.1215 364.909 93.2713V312.612C364.909 318.762 359.787 323.887 353.641 323.887H106.753C100.607 323.887 95.4844 318.762 95.4844 312.612V93.7837C95.4844 87.1215 100.094 81.9967 106.753 81.9967Z" fill="white"/>
<path d="M106.753 81.9967H353.641C359.787 81.9967 364.909 87.1215 364.909 93.2713V312.612C364.909 318.762 359.787 323.887 353.641 323.887H106.753C100.607 323.887 95.4844 318.762 95.4844 312.612V93.7837C95.4844 87.1215 100.094 81.9967 106.753 81.9967Z" fill="white"/>
<path d="M353.641 324.399H106.753C100.607 324.399 95.4844 319.274 95.4844 313.125V93.7836C95.4844 87.6339 100.607 82.5091 106.753 82.5091H353.641C359.787 82.5091 364.909 87.6339 364.909 93.7836V313.125C364.909 319.274 359.787 324.399 353.641 324.399ZM106.753 82.5091C100.607 82.5091 95.4844 87.6339 95.4844 93.7836V313.125C95.4844 319.274 100.607 324.399 106.753 324.399H353.641C359.787 324.399 364.909 319.274 364.909 313.125V93.7836C364.909 87.6339 359.787 82.5091 353.641 82.5091H106.753Z" fill="black"/>
<path d="M353.641 326.449H106.753C99.582 326.449 93.4354 320.299 93.4354 313.125V93.7835C93.4354 86.6088 99.582 80.459 106.753 80.459H353.641C360.812 80.459 366.958 86.6088 366.958 93.7835V313.125C366.958 320.299 360.812 326.449 353.641 326.449ZM106.753 84.5589C101.631 84.5589 97.5331 88.6587 97.5331 93.7835V313.125C97.5331 318.249 101.631 322.349 106.753 322.349H353.641C358.763 322.349 362.86 318.249 362.86 313.125V93.7835C362.86 88.6587 358.763 84.5589 353.641 84.5589H106.753Z" fill="black"/>
<path d="M348.006 129.657H213.294C212.269 129.657 211.245 128.632 211.245 127.607C211.245 126.582 212.269 125.557 213.294 125.557H348.006C349.031 125.557 350.055 126.582 350.055 127.607C350.055 128.632 349.031 129.657 348.006 129.657Z" fill="#FF3233"/>
<path d="M348.006 141.957H213.294C212.269 141.957 211.245 140.932 211.245 139.907C211.245 138.882 212.269 137.857 213.294 137.857H348.006C349.031 137.857 350.055 138.882 350.055 139.907C350.055 140.932 349.031 141.957 348.006 141.957Z" fill="#FF3233"/>
<path d="M348.006 153.744H213.294C212.269 153.744 211.245 152.719 211.245 151.694C211.245 150.669 212.269 149.644 213.294 149.644H348.006C349.031 149.644 350.055 150.669 350.055 151.694C350.055 152.719 349.031 153.744 348.006 153.744Z" fill="#FF3233"/>
<path d="M348.006 166.043H213.294C212.269 166.043 211.245 165.018 211.245 163.993C211.245 162.968 212.269 161.943 213.294 161.943H348.006C349.031 161.943 350.055 162.968 350.055 163.993C350.055 165.018 349.031 166.043 348.006 166.043Z" fill="#FF3233"/>
<path d="M348.006 186.542H213.294C212.269 186.542 211.245 185.517 211.245 184.492C211.245 183.467 212.269 182.443 213.294 182.443H348.006C349.031 182.443 350.055 183.467 350.055 184.492C350.055 185.517 349.031 186.542 348.006 186.542Z" fill="#FF3233"/>
<path d="M348.006 198.842H213.294C212.269 198.842 211.245 197.817 211.245 196.792C211.245 195.767 212.269 194.742 213.294 194.742H348.006C349.031 194.742 350.055 195.767 350.055 196.792C350.055 197.817 349.031 198.842 348.006 198.842Z" fill="#FF3233"/>
<path d="M348.006 210.629H213.294C212.269 210.629 211.245 209.604 211.245 208.579C211.245 207.554 212.269 206.529 213.294 206.529H348.006C349.031 206.529 350.055 207.554 350.055 208.579C350.055 209.604 349.031 210.629 348.006 210.629Z" fill="#FF3233"/>
<path d="M348.006 222.928H213.294C212.269 222.928 211.245 221.903 211.245 220.878C211.245 219.853 212.269 218.828 213.294 218.828H348.006C349.031 218.828 350.055 219.853 350.055 220.878C350.055 222.416 349.031 222.928 348.006 222.928Z" fill="#FF3233"/>
<path fill-rule="evenodd" clip-rule="evenodd" d="M116.485 120.433H191.781C195.878 120.433 198.952 123.507 198.952 127.607V218.829C198.952 222.928 195.878 226.003 191.781 226.003H116.485C112.387 226.003 109.314 222.928 109.314 218.829V127.095C109.314 123.507 112.899 120.433 116.485 120.433Z" fill="#FF3233"/>
<path fill-rule="evenodd" clip-rule="evenodd" d="M82.679 74.8218H377.715V113.77L355.177 107.621H82.679V74.8218Z" fill="black"/>
<path fill-rule="evenodd" clip-rule="evenodd" d="M112.9 90.1962C115.973 90.1962 118.022 92.7586 118.022 95.321C118.022 98.3959 115.461 100.446 112.9 100.446C110.339 100.446 107.778 97.8834 107.778 95.321C107.265 92.7586 109.826 90.1962 112.9 90.1962Z" fill="white"/>
<path fill-rule="evenodd" clip-rule="evenodd" d="M131.339 90.1962C134.413 90.1962 136.462 92.7586 136.462 95.321C136.462 98.3959 133.901 100.446 131.339 100.446C128.266 100.446 126.217 97.8834 126.217 95.321C126.217 92.7586 128.266 90.1962 131.339 90.1962Z" fill="white"/>
<path fill-rule="evenodd" clip-rule="evenodd" d="M150.291 90.1962C153.364 90.1962 155.413 92.7586 155.413 95.321C155.413 98.3959 152.852 100.446 150.291 100.446C147.218 100.446 145.169 97.8834 145.169 95.321C145.169 92.7586 147.218 90.1962 150.291 90.1962Z" fill="white"/>
<path d="M108.29 336.699H527.794C533.941 336.699 539.063 341.824 539.063 347.974V427.921C539.063 434.07 533.941 439.195 527.794 439.195H108.29C102.143 439.195 97.0212 434.07 97.0212 427.921V347.974C97.0212 341.824 101.631 336.699 108.29 336.699Z" fill="white"/>
<path d="M527.282 441.245H108.29C101.119 441.245 94.9723 435.095 94.9723 427.92V347.974C94.9723 340.799 101.119 334.649 108.29 334.649H527.794C534.965 334.649 541.112 340.799 541.112 347.974V427.92C540.599 435.095 534.965 441.245 527.282 441.245ZM108.29 339.261C103.168 339.261 99.07 343.361 99.07 348.486V428.433C99.07 433.558 103.168 437.658 108.29 437.658H527.794C532.916 437.658 537.014 433.558 537.014 428.433V347.974C537.014 342.849 532.916 338.749 527.794 338.749H108.29V339.261Z" fill="black"/>
<path fill-rule="evenodd" clip-rule="evenodd" d="M89.8501 330.549H545.209V362.835H89.8501V330.549Z" fill="black"/>
<path d="M527.282 441.245H108.29C101.119 441.245 94.9723 435.095 94.9723 427.92V347.974C94.9723 340.799 101.119 334.649 108.29 334.649H527.794C534.965 334.649 541.112 340.799 541.112 347.974V427.92C540.599 435.095 534.965 441.245 527.282 441.245ZM108.29 339.261C103.168 339.261 99.07 343.361 99.07 348.486V428.433C99.07 433.558 103.168 437.658 108.29 437.658H527.794C532.916 437.658 537.014 433.558 537.014 428.433V347.974C537.014 342.849 532.916 338.749 527.794 338.749H108.29V339.261Z" fill="black"/>
<path fill-rule="evenodd" clip-rule="evenodd" d="M112.387 345.923C115.46 345.923 117.509 348.486 117.509 351.048C117.509 354.123 114.948 356.173 112.387 356.173C109.314 356.173 107.265 353.611 107.265 351.048C106.753 347.973 109.314 345.923 112.387 345.923Z" fill="white"/>
<path fill-rule="evenodd" clip-rule="evenodd" d="M130.827 345.923C133.9 345.923 135.949 348.486 135.949 351.048C135.949 354.123 133.388 356.173 130.827 356.173C127.754 356.173 125.705 353.611 125.705 351.048C125.705 347.973 127.754 345.923 130.827 345.923Z" fill="white"/>
<path fill-rule="evenodd" clip-rule="evenodd" d="M149.779 345.923C152.852 345.923 154.901 348.486 154.901 351.048C154.901 354.123 152.34 356.173 149.779 356.173C146.706 356.173 144.657 353.611 144.657 351.048C144.145 347.973 146.706 345.923 149.779 345.923Z" fill="white"/>
<path d="M150.291 423.82H115.973C110.851 423.82 106.241 419.72 106.241 414.083V381.797C106.241 376.672 110.339 372.06 115.973 372.06H150.291C155.413 372.06 160.023 376.16 160.023 381.797V414.083C160.023 419.208 155.926 423.82 150.291 423.82ZM115.973 377.185C113.412 377.185 111.363 379.235 111.363 381.797V414.083C111.363 416.646 113.412 418.695 115.973 418.695H150.291C152.852 418.695 154.901 416.646 154.901 414.083V381.797C154.901 379.235 152.852 377.185 150.291 377.185H115.973Z" fill="black"/>
<path d="M218.928 423.82H184.61C179.488 423.82 174.878 419.72 174.878 414.083V381.797C174.878 376.672 178.975 372.06 184.61 372.06H218.928C224.05 372.06 228.66 376.16 228.66 381.797V414.083C228.66 419.208 224.05 423.82 218.928 423.82ZM184.61 377.185C182.049 377.185 180 379.235 180 381.797V414.083C180 416.646 182.049 418.695 184.61 418.695H218.928C221.489 418.695 223.538 416.646 223.538 414.083V381.797C223.538 379.235 221.489 377.185 218.928 377.185H184.61Z" fill="black"/>
<path d="M290.638 423.82H256.32C251.198 423.82 246.588 419.72 246.588 414.083V381.797C246.588 376.672 250.686 372.06 256.32 372.06H290.638C295.76 372.06 300.37 376.16 300.37 381.797V414.083C300.37 419.208 295.76 423.82 290.638 423.82ZM256.32 377.185C253.759 377.185 251.71 379.235 251.71 381.797V414.083C251.71 416.646 253.759 418.695 256.32 418.695H290.638C293.199 418.695 295.248 416.646 295.248 414.083V381.797C295.248 379.235 293.199 377.185 290.638 377.185H256.32Z" fill="black"/>
<path d="M362.86 423.82H328.542C323.42 423.82 318.81 419.72 318.81 414.083V381.797C318.81 376.672 322.908 372.06 328.542 372.06H362.86C367.983 372.06 372.593 376.16 372.593 381.797V414.083C372.593 419.208 368.495 423.82 362.86 423.82ZM328.542 377.185C325.981 377.185 323.932 379.235 323.932 381.797V414.083C323.932 416.646 325.981 418.695 328.542 418.695H362.86C365.422 418.695 367.47 416.646 367.47 414.083V381.797C367.47 379.235 365.422 377.185 362.86 377.185H328.542Z" fill="black"/>
<path fill-rule="evenodd" clip-rule="evenodd" d="M397.179 374.622H431.497C435.595 374.622 438.668 377.697 438.668 381.797V414.083C438.668 418.183 435.595 421.258 431.497 421.258H397.179C393.081 421.258 390.008 418.183 390.008 414.083V381.797C390.008 377.697 393.081 374.622 397.179 374.622Z" fill="#CBB3D6"/>
<path fill-rule="evenodd" clip-rule="evenodd" d="M468.889 374.622H503.208C507.305 374.622 510.379 377.697 510.379 381.797V414.083C510.379 418.183 507.305 421.258 503.208 421.258H468.889C464.791 421.258 461.718 418.183 461.718 414.083V381.797C461.718 377.697 464.791 374.622 468.889 374.622Z" fill="#CBB3D6"/>
<path d="M307.029 230.616L287.052 156.306C286.028 152.719 281.93 150.156 278.345 151.181L158.999 182.955H158.486H157.974C154.389 183.98 149.267 189.105 150.291 195.767L170.267 270.077C171.292 273.664 175.389 276.226 178.975 275.201L298.321 243.428C300.882 242.915 302.931 240.865 303.443 238.303C306.004 237.278 307.541 234.203 307.029 230.616Z" fill="white"/>
<path d="M176.926 278.276C172.829 278.276 169.243 275.714 168.219 271.614L148.242 197.304C146.706 189.105 152.852 182.955 157.462 181.93H157.974L277.833 149.644C280.394 149.131 282.443 149.131 285.004 150.669C287.052 151.694 288.589 153.744 289.101 156.306L309.078 230.615C310.102 234.715 308.565 238.815 304.98 240.865C303.956 243.427 301.394 245.99 298.833 246.502L179.487 278.276C178.463 278.276 177.951 278.276 176.926 278.276ZM279.881 153.231C279.369 153.231 278.857 153.231 278.345 153.231L158.999 185.005H158.486H157.974C155.413 185.517 150.803 190.13 151.828 195.767L171.804 270.076C172.316 272.639 175.39 274.176 177.951 273.664L297.297 241.89C298.833 241.378 300.37 239.84 300.882 238.303C300.882 237.79 301.394 237.278 301.907 236.765C303.956 235.74 304.98 233.178 304.468 231.128L284.491 156.818C283.979 155.793 283.467 154.256 281.93 153.744C281.93 153.744 280.906 153.231 279.881 153.231Z" fill="black"/>
<path d="M274.247 160.919L169.755 189.105C166.17 190.13 163.608 194.23 164.633 197.817L179.487 253.677C180.512 257.265 184.609 259.827 188.195 258.802L292.687 230.616C296.272 229.591 298.833 225.491 297.809 221.904L282.955 166.043C281.93 162.456 277.832 159.894 274.247 160.919Z" fill="#838BC5"/>
<path fill-rule="evenodd" clip-rule="evenodd" d="M274.247 160.919L169.755 189.105C166.17 190.13 163.608 194.23 164.633 197.817L179.487 253.677C180.512 257.265 184.609 259.827 188.195 258.802L292.687 230.616C296.272 229.591 298.833 225.491 297.809 221.904L282.955 166.043C281.93 162.456 277.832 159.894 274.247 160.919Z" fill="#FF3233"/>
<path d="M186.658 260.852C185.122 260.852 183.585 260.339 182.048 259.827C180 258.802 178.463 256.752 177.951 254.19L163.097 198.329C162.584 195.767 162.584 193.717 164.121 191.155C165.145 189.105 167.194 187.567 169.755 187.055L273.735 158.869C278.857 157.331 283.467 160.406 285.004 165.531L299.858 221.391C301.395 226.516 298.321 231.128 293.199 232.666L188.707 260.852C188.195 260.852 187.683 260.852 186.658 260.852ZM274.759 162.968L170.268 191.155C169.243 191.667 167.706 192.18 167.194 193.205C166.682 194.23 166.17 195.767 166.682 196.792L181.536 252.652C182.048 253.677 182.561 255.215 183.585 255.727C184.61 256.24 186.146 256.752 187.171 256.24L291.662 228.053C294.224 227.541 295.76 224.466 295.248 221.903L280.906 166.556C280.394 163.993 277.32 162.456 274.759 162.968Z" fill="black"/>
<path fill-rule="evenodd" clip-rule="evenodd" d="M270.149 171.168L241.977 178.855C238.392 179.88 235.831 183.98 236.855 187.567L246.587 223.441C247.612 227.028 251.709 229.591 255.295 228.566L283.467 220.878C287.052 219.853 289.613 215.754 288.589 212.166L278.857 176.293C277.32 172.193 273.735 170.143 270.149 171.168Z" fill="white"/>
<path d="M177.951 207.554C176.926 207.554 175.902 207.042 175.902 206.017C175.39 204.992 176.414 203.967 177.439 203.454L229.172 189.617C230.197 189.105 231.221 190.13 231.733 191.155C232.246 192.18 231.221 193.205 230.197 193.717L178.463 207.554C178.463 207.554 178.463 207.554 177.951 207.554Z" fill="white"/>
<path d="M181.024 218.316C180 218.316 178.975 217.804 178.975 216.779C178.463 215.754 179.487 214.729 180.512 214.216L198.951 209.604C199.976 209.092 201 210.117 201.513 211.142C202.025 212.166 201 213.191 199.976 213.704L181.536 218.316H181.024Z" fill="white"/>
<path d="M207.147 211.141C206.122 211.141 205.098 210.629 205.098 209.604C204.586 208.579 205.61 207.554 206.635 207.041L232.245 200.379C233.27 199.867 234.294 200.892 234.806 201.917C235.319 202.942 234.294 203.967 233.27 204.479L207.659 211.141C207.659 211.141 207.659 211.141 207.147 211.141Z" fill="white"/>
<path d="M183.585 229.078C182.561 229.078 181.536 228.565 181.536 227.541C181.024 226.516 182.048 225.491 183.073 224.978L234.807 211.141C235.831 210.629 236.855 211.654 237.368 212.679C237.88 213.704 236.855 214.729 235.831 215.241L184.097 229.078H183.585Z" fill="white"/>
<path d="M186.658 240.353C185.634 240.353 184.609 239.84 184.609 238.815C184.097 237.79 185.122 236.765 186.146 236.253L237.88 222.416C238.904 221.904 239.929 222.929 240.441 223.953C240.953 224.978 239.929 226.003 238.904 226.516L187.17 240.353C186.658 240.353 186.658 240.353 186.658 240.353Z" fill="white"/>
<path d="M356.714 251.115C356.714 250.602 356.201 250.602 355.689 250.602L312.663 238.303C310.614 237.79 305.492 237.79 301.907 238.815L182.56 270.589C180.512 271.102 178.975 271.614 178.975 272.127C176.926 274.176 179.999 280.839 182.048 281.351L225.074 293.651C227.123 294.163 232.245 294.163 235.831 293.138L355.177 261.365C358.25 260.34 358.25 253.165 356.714 251.115Z" fill="white"/>
<path d="M228.148 296.725C226.611 296.725 225.587 296.725 224.562 296.213L181.536 283.913C178.975 283.401 177.438 279.814 176.926 277.764C175.902 275.201 176.414 272.639 177.438 271.614C177.438 271.101 178.463 270.077 182.048 269.052L301.394 236.765C304.98 235.74 310.614 235.228 313.175 236.253L356.201 248.552C357.226 249.065 358.25 249.577 358.25 250.09C359.787 252.14 359.787 256.24 359.275 258.802C358.763 261.364 357.226 262.902 355.177 263.414L235.831 295.188C233.782 296.213 230.709 296.725 228.148 296.725ZM309.59 239.84C307.541 239.84 304.98 240.353 302.419 240.865L183.585 272.639C182.048 273.151 181.024 273.664 181.024 273.664C181.024 273.664 181.024 274.176 181.024 275.201C181.536 277.251 182.561 278.789 183.073 279.301L225.587 291.601C227.123 292.113 231.733 292.113 235.319 291.088L354.665 259.314C355.177 259.314 355.177 258.802 355.689 257.777C356.201 255.727 356.201 253.165 355.689 252.652L312.663 239.84C311.639 239.84 311.127 239.84 309.59 239.84Z" fill="black"/>
<path fill-rule="evenodd" clip-rule="evenodd" d="M200.488 270.589L301.394 242.915C304.468 241.89 308.565 241.89 310.102 242.402L341.859 251.627C343.396 252.14 342.372 253.164 338.786 254.189L237.88 281.351C234.806 282.376 230.709 282.376 229.172 281.863L197.415 272.639C195.878 272.126 196.903 271.101 200.488 270.589Z" fill="#FF3233"/>
<path fill-rule="evenodd" clip-rule="evenodd" d="M617.944 587.301C614.358 572.952 603.602 526.316 599.504 521.704C595.918 517.092 587.723 517.091 584.65 517.604C581.576 518.116 572.869 522.729 572.869 522.729L565.186 518.629C565.186 518.629 565.186 511.967 562.625 509.917C560.063 507.354 550.331 502.23 544.185 495.567C538.038 488.905 528.818 477.631 528.818 477.631C528.818 477.631 531.892 470.456 527.282 453.544C522.672 436.12 510.379 399.734 510.379 399.734C510.379 399.734 510.891 361.81 511.403 351.561C511.915 341.311 511.403 319.787 508.842 303.9C506.281 288.013 503.72 267.514 503.72 267.514C503.72 267.514 516.525 206.017 512.94 195.255C509.866 184.492 502.183 175.268 493.988 171.168C485.792 167.068 485.28 166.556 483.231 158.869C481.182 151.181 480.67 144.519 480.67 144.519L482.719 137.344L496.037 129.657C496.037 129.657 506.281 127.095 506.281 122.482C506.793 112.745 501.671 106.596 501.671 106.596C501.671 106.596 504.232 99.4209 501.671 93.7837C499.11 88.1464 500.134 85.584 496.549 86.0965C492.963 86.6089 487.329 85.584 487.329 85.584C487.329 85.584 477.085 71.7471 469.401 74.3094C461.718 77.3843 461.206 79.4342 461.206 79.4342C461.206 79.4342 452.498 72.2595 448.401 77.3843C444.815 82.5091 445.839 89.1713 445.839 89.1713C445.839 89.1713 442.766 92.2462 444.303 94.8086C445.84 97.371 447.376 97.8835 447.376 97.8835C447.376 97.8835 447.376 101.471 443.278 107.621C439.693 113.77 439.693 117.358 437.132 117.358C434.059 117.358 432.522 117.358 433.546 120.433C434.059 123.507 436.62 125.557 436.62 125.557C436.62 125.557 436.62 135.807 442.766 139.394C448.913 142.469 458.645 140.932 460.182 148.106C461.718 155.281 460.182 162.456 460.182 162.456C460.182 162.456 442.254 161.431 433.034 163.993C423.814 166.556 417.155 172.705 417.155 172.705L409.984 169.118L398.716 129.145L397.179 110.695C397.179 110.695 398.203 101.983 397.179 96.346C396.155 90.1963 395.13 85.0715 393.594 86.0965C392.569 87.1214 391.545 96.346 391.545 96.346C391.545 96.346 388.984 85.0715 385.91 81.4842C382.837 78.4093 379.252 75.3344 377.715 77.3843C376.178 79.4342 377.715 92.2462 377.715 92.2462C377.715 92.2462 375.666 88.6589 371.568 85.0715C367.471 81.4842 363.373 76.8718 361.324 78.9218C359.275 80.9717 359.787 84.0466 362.861 87.1214C365.934 90.1963 369.007 92.2462 369.007 92.2462C369.007 92.2462 373.105 108.646 369.519 110.183C365.422 112.233 362.348 112.745 360.812 110.183C359.275 107.621 358.251 102.496 355.177 101.983C352.104 101.471 347.494 104.033 350.567 110.183C353.641 116.333 357.739 121.458 363.373 126.582C369.007 131.707 373.105 132.22 373.105 132.22C373.105 132.22 379.764 168.606 381.3 178.343C382.837 187.567 382.837 190.13 384.374 192.18C386.423 194.23 391.545 199.867 391.545 199.867L358.251 239.328L325.981 235.74L301.395 224.978C301.395 224.978 292.175 216.779 289.102 218.316C286.028 219.341 281.931 224.466 279.882 233.69C277.833 242.915 275.784 255.215 277.833 258.802C279.882 262.389 286.028 267.002 286.541 262.902C287.053 258.802 285.516 255.727 285.516 255.727L288.589 251.115C288.589 251.115 304.468 259.827 310.103 259.827C315.737 259.827 318.81 258.289 318.81 258.289C318.81 258.289 352.616 273.664 366.958 271.101C381.3 268.539 417.668 232.153 417.668 232.153L423.814 293.651L363.373 460.719C363.373 460.719 362.861 491.468 384.886 496.592C406.399 501.717 412.546 494.03 420.229 489.93C427.912 485.83 464.279 461.744 464.279 461.744C464.279 461.744 480.67 506.842 500.647 526.829C520.623 546.815 543.16 559.115 547.77 560.14C552.892 560.652 558.527 555.015 558.527 555.015L566.722 565.265C566.722 565.265 572.357 588.326 579.528 598.576C586.186 608.825 604.114 618.562 610.773 614.975C617.944 610.363 621.529 602.163 617.944 587.301ZM443.791 417.158L458.133 385.897L459.669 409.983L443.791 417.158Z" fill="white"/>
<path fill-rule="evenodd" clip-rule="evenodd" d="M510.891 401.784C515.501 408.446 522.159 433.557 526.257 444.832C530.355 456.106 531.891 475.068 528.818 476.093C525.745 477.118 519.598 474.556 512.939 456.619C506.281 438.682 501.671 422.795 499.622 412.546C497.573 402.296 492.451 394.609 499.11 394.609C505.256 394.096 506.281 395.121 510.891 401.784Z" fill="#FF3233"/>
<path fill-rule="evenodd" clip-rule="evenodd" d="M601.552 524.266C603.601 528.366 615.382 575.001 617.431 584.739C618.968 594.476 620.504 604.725 614.87 606.263C609.236 607.8 601.04 608.313 594.381 579.614C587.723 550.402 582.6 532.466 587.21 522.216C590.284 515.041 599.504 520.166 601.552 524.266Z" fill="#FF3233"/>
<path fill-rule="evenodd" clip-rule="evenodd" d="M513.452 333.624C513.452 333.624 505.768 328.499 482.207 323.374C459.157 318.25 439.181 315.687 433.034 317.225C427.4 318.25 414.594 320.299 414.594 320.299L422.277 296.213L415.619 232.666C415.619 232.666 381.812 262.902 375.666 267.514C369.519 272.126 361.836 274.176 350.567 271.101C339.299 268.027 332.64 263.414 332.64 263.414C332.64 263.414 329.054 256.752 331.615 249.577C334.689 242.403 338.786 238.303 338.786 238.303L359.787 239.84L393.593 199.354C393.593 199.354 384.886 197.817 383.349 187.567C381.812 177.318 376.69 153.744 376.69 153.744C376.69 153.744 381.3 148.106 391.032 147.082C400.764 146.057 404.35 149.644 404.35 149.644L413.058 170.656L417.155 173.73C417.155 173.73 423.814 164.506 434.571 165.018C445.327 165.531 462.23 164.506 462.23 164.506L464.279 161.943C464.279 161.943 472.475 161.943 476.06 162.456C479.646 162.968 484.255 163.481 484.255 163.481C484.255 163.481 487.841 168.606 493.988 171.681C500.134 174.755 511.915 181.93 513.452 196.28C514.988 210.629 503.72 270.589 503.72 270.589C503.72 270.589 506.281 294.163 509.354 306.463C512.427 317.737 513.452 333.624 513.452 333.624Z" fill="black"/>
<path fill-rule="evenodd" clip-rule="evenodd" d="M499.11 470.968C499.11 470.968 498.085 465.331 499.11 461.231C500.134 457.131 502.183 452.006 502.183 452.006L489.377 410.496C489.377 410.496 483.231 411.008 481.182 409.471C479.133 407.933 476.06 403.321 476.06 403.321L459.669 411.521C459.669 411.521 456.596 421.77 460.181 432.02C463.255 442.782 465.303 445.857 465.303 445.857L468.889 446.369L482.719 450.982L499.11 470.968Z" fill="black"/>
<path fill-rule="evenodd" clip-rule="evenodd" d="M577.991 547.328L584.649 588.839C584.649 588.839 579.015 588.838 576.454 586.789C574.405 584.739 568.771 567.314 568.771 567.314L560.063 552.965L555.453 550.915C555.453 550.915 553.404 535.541 556.478 527.853C559.551 520.166 563.649 516.066 563.649 516.066L579.015 519.141C579.015 519.141 570.82 520.166 569.795 529.391C567.234 539.64 577.991 547.328 577.991 547.328Z" fill="black"/>
<path fill-rule="evenodd" clip-rule="evenodd" d="M458.645 126.07L466.84 134.782L464.791 141.957L481.694 142.982L482.207 135.807L492.963 130.682L499.11 127.095L507.305 124.532C507.305 124.532 508.842 118.895 507.817 114.795C506.281 110.695 503.72 105.571 503.72 105.571C503.72 105.571 509.354 93.2711 500.134 88.1463C490.914 83.0215 489.378 86.6089 489.378 86.6089C489.378 86.6089 483.743 74.8218 475.548 74.8218C467.353 74.8218 464.791 80.9716 464.791 80.9716C464.791 80.9716 453.01 72.2594 448.401 78.9217C443.791 85.5839 447.376 89.1713 447.376 89.1713C447.376 89.1713 443.791 94.296 446.352 96.346C448.401 98.3959 453.523 97.8834 453.523 97.8834C453.523 97.8834 453.523 120.945 456.596 119.92C459.669 118.383 459.669 110.695 459.669 110.695C459.669 110.695 467.353 108.645 467.865 113.77C467.865 118.383 458.645 126.07 458.645 126.07Z" fill="black"/>
<path fill-rule="evenodd" clip-rule="evenodd" d="M563.649 516.579L556.478 514.529C556.478 514.529 548.283 518.629 546.234 528.879C544.185 539.128 544.697 549.378 544.697 549.378L554.941 550.403L550.331 559.115C550.331 559.115 525.233 546.815 507.305 531.441C479.134 507.355 465.304 458.669 465.304 458.669C465.304 458.669 419.717 487.88 410.497 493.005C401.277 498.13 392.569 498.642 380.788 494.543C369.52 490.443 359.787 471.993 362.861 457.644C365.934 443.295 413.57 319.787 413.57 319.787C413.57 319.787 429.961 312.612 448.401 316.2C456.084 317.737 474.011 319.275 486.305 321.837C503.208 325.424 513.452 330.549 513.452 330.549L509.866 397.684C509.866 397.684 501.671 386.922 482.207 397.684C462.743 408.446 459.157 409.471 459.157 409.471L458.645 381.285L442.766 417.158L452.498 413.058C452.498 413.058 445.84 420.746 449.937 434.07C453.523 447.394 458.133 449.444 458.133 449.444L466.84 446.882L481.182 450.469C481.182 450.469 501.159 476.093 511.915 479.681C522.672 483.268 530.355 480.193 530.355 480.193C530.355 480.193 537.526 493.005 548.283 500.18C559.039 507.355 562.112 508.892 563.649 510.942C564.161 512.992 563.649 516.579 563.649 516.579Z" fill="white"/>
<path fill-rule="evenodd" clip-rule="evenodd" d="M471.45 72.7719C472.474 72.7719 472.987 72.7719 474.011 72.7719C481.694 74.3093 486.816 78.4091 489.89 84.0464C493.988 84.0464 498.085 84.0464 500.646 86.0963C502.695 87.6337 503.72 90.1961 504.232 92.7585C505.768 96.8584 507.817 101.471 505.256 106.083C507.817 110.695 511.403 119.407 507.305 125.557C506.281 127.095 505.256 127.607 503.72 128.12C502.183 128.632 501.158 128.632 499.11 129.657C498.085 130.17 497.061 131.194 495.524 132.219C491.939 134.782 487.841 136.832 483.743 138.369C481.694 142.469 482.719 147.081 483.231 152.719C483.743 156.818 484.255 160.918 485.792 163.993C493.475 168.605 501.671 172.193 507.305 178.855C512.939 185.517 514.988 195.254 514.988 207.041C514.988 212.679 513.964 217.803 513.452 223.441C511.403 236.253 509.354 249.065 506.793 261.877C506.281 264.439 505.256 267.001 505.256 269.564C505.256 272.126 505.768 274.689 506.281 277.251C507.305 284.938 508.329 293.138 509.866 300.313C511.915 310.562 513.964 320.299 514.476 331.061C514.988 342.336 513.964 354.123 513.452 365.397C512.939 373.597 512.939 382.309 512.427 390.509C512.427 393.071 511.403 396.659 511.915 398.709C511.915 399.734 513.452 401.271 513.964 402.296C516.013 406.396 517.549 411.521 519.086 415.62C524.208 430.995 528.306 446.882 531.379 463.794C532.404 468.918 533.428 475.068 530.867 479.168C538.038 487.88 546.233 496.592 555.965 503.767C560.063 506.842 565.185 509.404 566.722 515.554C569.283 516.066 571.332 516.066 573.893 516.579C574.917 516.579 575.43 517.091 576.454 517.091C577.479 517.091 578.503 516.579 579.527 516.066C583.113 515.041 586.698 515.041 590.796 516.066C594.894 517.091 599.504 518.629 602.065 522.216C603.601 524.266 604.114 527.853 605.138 530.928C611.285 551.427 616.407 575.001 619.48 597.551V598.063C618.456 607.288 615.382 614.462 607.187 616C602.577 617.025 598.479 615.487 594.382 614.462C583.113 610.363 576.966 602.163 572.869 590.888C569.795 583.201 567.746 575.514 565.698 568.339V567.827C564.673 565.777 563.137 563.727 561.6 562.189C560.063 560.14 558.527 558.602 557.502 556.552C555.965 558.09 554.941 559.115 553.404 560.14C548.794 562.702 544.697 560.14 540.599 558.09C532.404 554.502 525.233 549.89 519.086 545.278C492.451 526.316 474.523 495.567 463.255 463.281C448.4 473.018 433.546 483.78 417.667 493.005C412.033 496.08 406.399 499.155 398.716 499.667C381.3 500.692 370.544 494.542 364.909 483.268C362.348 477.118 359.787 469.943 360.812 462.256C361.324 458.669 361.836 455.081 362.86 451.494C363.885 448.419 364.397 444.832 365.934 441.757C370.031 429.457 374.641 417.158 379.251 404.346C392.569 368.985 405.887 333.624 418.692 298.263C419.204 296.725 420.229 294.675 420.229 293.65C420.229 291.6 419.716 289.038 419.716 286.476C417.667 269.564 415.619 252.652 414.082 236.253C412.033 237.278 411.009 238.815 409.472 240.353C404.35 244.965 399.74 249.065 395.13 253.677C388.471 259.314 382.325 265.977 374.641 270.589C370.031 273.151 365.934 274.689 360.299 274.689C355.177 274.689 350.055 273.151 344.933 271.614C338.274 269.564 331.615 266.489 324.957 263.414C322.908 262.389 320.859 261.364 318.298 260.339C317.273 259.827 314.712 261.364 313.688 261.364C312.663 261.364 311.127 261.364 309.59 261.364C306.005 261.364 303.956 260.852 300.882 259.314C298.321 258.289 296.273 257.264 294.224 255.727C292.175 254.702 290.126 252.652 288.077 252.14C287.565 253.165 287.565 253.677 287.053 254.702C287.565 257.264 289.614 258.802 289.102 261.877C288.589 264.439 283.979 265.977 281.418 264.952C276.808 263.414 274.76 256.239 275.272 250.602C275.272 249.065 276.296 247.527 276.808 245.477C277.321 243.94 277.321 241.89 277.321 240.353C277.833 236.765 278.857 233.69 279.369 230.103C279.882 228.053 279.882 226.516 280.394 224.978C281.931 221.391 284.492 217.803 287.565 216.779C290.638 215.241 294.224 217.291 296.273 218.828C298.834 220.366 300.882 221.903 302.931 222.928C306.517 224.466 310.615 226.003 314.712 228.053C316.761 229.078 318.298 230.103 320.347 230.615C322.395 231.64 324.444 232.665 326.493 233.178C329.054 233.69 331.615 234.203 334.176 234.203C342.372 235.228 350.055 235.74 358.251 237.278C368.495 225.491 378.739 213.191 388.983 201.404C385.398 197.817 381.3 194.742 379.764 189.105C378.227 183.467 377.202 177.318 376.178 171.168C374.129 158.868 372.08 146.056 370.544 134.269C361.836 131.194 354.153 124.02 349.543 115.82C348.006 112.745 345.957 107.62 347.494 103.521C349.543 98.3958 357.226 100.446 359.275 104.546C359.787 105.571 359.787 107.62 360.812 108.645C361.836 109.67 364.397 110.695 365.934 110.183C369.519 109.67 368.495 104.033 367.983 100.446C367.47 97.8833 367.47 95.3209 366.958 93.7835C366.446 93.271 365.422 92.2461 364.909 91.7336C362.86 89.6837 359.275 87.6337 358.763 84.5589C356.714 79.4341 360.299 74.8218 365.422 77.3842C368.495 78.9216 372.08 81.9965 374.641 84.5589C374.641 84.5589 375.154 86.0963 375.666 85.0714C375.666 84.5589 375.154 83.0214 375.154 81.9965C375.154 78.4091 376.178 76.3592 379.764 76.8717C384.886 77.3842 388.983 83.0214 391.032 87.1213C392.057 86.6088 392.569 85.0714 394.618 85.0714C398.203 85.0714 399.74 92.2461 400.252 96.3459C400.764 99.4208 400.764 101.983 400.764 104.546C400.764 107.108 399.74 109.67 399.74 112.233C399.74 114.795 400.252 117.87 400.764 120.945C401.277 124.02 400.764 127.095 401.277 129.657C401.789 132.732 403.325 136.319 404.35 139.907C407.423 150.156 410.496 160.918 413.57 170.655C414.594 171.68 416.131 171.68 417.155 172.705C425.863 162.968 444.303 162.456 461.718 161.943C461.206 156.818 461.718 151.181 459.157 148.619C457.108 146.056 452.498 146.569 448.4 145.544C442.766 144.519 438.668 138.882 437.132 133.757C436.619 131.194 435.595 125.045 438.668 125.045C440.205 125.045 440.717 126.582 440.717 128.632C441.229 133.757 442.766 138.369 446.352 140.419C448.913 141.444 451.986 141.444 454.547 141.957C457.108 142.469 459.669 142.981 461.206 145.031C464.279 148.106 464.791 153.744 465.303 160.406C470.938 159.893 476.572 160.406 481.182 161.943C480.158 157.331 479.645 152.719 479.133 147.594C476.06 147.594 472.987 147.594 470.426 147.594C467.865 147.594 464.791 147.594 463.255 145.544C461.718 142.981 463.767 139.907 463.767 137.857C463.767 136.319 461.718 134.782 460.181 133.244C459.157 132.219 456.596 130.17 456.596 128.632C456.084 125.557 459.669 124.532 461.718 122.482C462.23 121.97 463.255 120.945 463.767 119.92C465.303 117.87 465.816 115.82 463.767 114.283C463.255 113.77 461.718 113.258 461.718 114.795C461.718 115.82 462.23 115.308 463.255 115.82C465.303 117.358 462.742 119.92 460.181 118.895C459.157 120.945 458.645 123.507 456.084 123.507C451.986 122.995 451.474 110.183 451.474 110.183C451.474 110.183 451.474 107.108 450.961 105.571C450.449 105.571 449.937 106.083 449.937 106.595C448.4 108.133 446.864 109.67 445.839 111.72C444.303 114.795 443.278 117.87 441.742 119.92C440.205 121.457 433.034 124.532 433.546 119.92C433.546 117.358 437.132 118.382 438.668 116.845C440.717 112.233 443.79 107.108 446.864 103.521C447.376 103.008 447.888 103.008 447.888 101.983C444.815 101.471 443.278 98.9083 444.303 95.8334C444.815 94.8085 445.327 93.7835 445.327 93.271C445.327 92.2461 444.303 91.2211 444.303 89.6837C443.79 84.5589 446.864 79.9466 450.449 78.4091C454.547 76.3592 459.669 76.8717 464.279 79.9466C465.816 75.8467 467.865 73.2843 471.45 72.7719ZM480.67 135.807C481.182 134.782 483.743 134.269 485.28 133.757C488.865 132.219 490.914 130.682 493.475 128.632C494.5 127.607 496.036 126.582 497.061 125.557C499.622 124.532 501.671 125.045 503.207 123.507C504.232 121.97 504.744 119.92 504.744 117.87C504.744 114.795 503.72 112.745 502.695 110.695C502.183 108.645 501.158 107.62 501.158 106.595C501.158 104.546 502.695 103.008 502.183 100.958C502.183 98.9083 501.159 96.3459 500.134 94.296C498.597 90.1961 497.061 88.6587 492.451 88.1462C490.914 88.1462 488.865 88.6587 487.329 88.1462C485.792 87.6338 485.28 85.5838 484.255 84.5589C483.231 83.5339 482.207 81.484 481.182 80.9715C479.133 79.4341 475.548 77.3842 472.987 77.3842C470.426 76.8717 468.889 78.4091 467.352 79.9466C466.328 80.9715 465.303 82.509 463.767 82.509C462.742 82.509 460.694 81.484 459.669 80.9715C456.596 79.4341 451.474 78.4091 448.913 81.484C447.888 82.509 446.864 85.5838 447.376 87.6338C447.376 89.1712 448.913 89.1712 448.913 90.7086C448.913 92.7585 447.376 93.271 446.864 95.3209C448.913 96.3459 452.498 95.3209 454.035 96.8584C455.059 98.3958 454.547 102.496 454.547 105.571C454.547 108.645 455.059 111.72 455.571 113.77C457.108 111.208 457.62 107.62 460.694 107.108C463.255 106.595 465.816 108.645 466.84 110.183C467.865 111.72 468.889 113.258 468.377 115.308C467.865 119.92 463.255 123.507 459.669 125.557C462.742 129.145 468.377 133.244 465.303 140.419C468.889 141.444 473.499 140.932 478.109 140.932C479.645 139.394 479.645 136.832 480.67 135.807ZM385.398 103.521C381.812 104.033 383.349 99.9333 383.349 97.3709C383.349 95.8334 383.349 93.7835 383.349 91.7336C383.349 86.6088 382.837 80.459 378.739 79.4341C378.739 79.4341 378.739 79.4341 378.227 79.4341C378.227 81.9965 378.739 84.5589 379.251 88.1462C379.764 91.2211 381.812 97.8833 378.227 97.8833C376.178 97.8833 375.666 94.296 375.154 92.7585C372.593 86.0963 367.47 82.509 361.836 79.4341C361.324 82.509 363.885 84.0464 365.422 85.5838C366.958 87.1213 369.519 88.6587 370.544 90.1961C371.568 92.2461 371.568 95.3209 372.08 97.8833C372.593 100.446 373.105 103.521 373.105 106.083C372.593 109.67 370.031 112.745 366.446 113.258C361.836 113.77 356.202 110.695 356.202 105.571C355.177 104.546 354.153 104.033 352.104 104.033C351.08 109.67 353.641 113.258 355.689 116.333C358.763 120.945 362.348 124.532 367.47 127.607C369.519 128.632 374.129 129.657 375.154 131.707C375.666 132.732 375.666 134.269 375.666 135.807C376.178 140.419 377.202 144.519 377.715 149.131C382.837 145.031 392.057 141.957 400.764 144.006C399.74 139.394 397.179 134.269 396.154 128.632C395.642 125.557 395.642 122.482 395.13 119.407C394.618 116.333 394.106 112.745 394.106 110.183C394.106 107.62 395.13 105.058 395.13 102.496C395.642 97.3709 394.618 92.7585 393.081 89.1712C393.081 92.2461 393.081 95.8334 392.569 98.9083C392.569 101.471 393.081 104.033 390.52 104.033C386.422 104.033 389.496 94.296 387.447 92.2461C387.959 95.8334 388.983 103.521 385.398 103.521ZM407.423 166.043C406.399 162.456 405.374 159.381 404.35 155.281C403.838 153.744 403.325 151.181 402.813 150.156C401.277 148.106 397.179 147.594 394.106 148.106C387.447 148.619 381.812 150.669 378.739 154.769C380.276 162.968 381.3 172.705 382.837 180.905C383.349 183.98 383.861 187.055 384.886 189.105C386.422 192.692 390.008 195.254 392.569 198.329C397.691 192.18 403.325 186.03 408.448 179.88C409.984 177.83 412.033 175.78 413.57 173.73C408.96 172.705 408.448 169.63 407.423 166.043ZM505.768 298.775C504.744 291.6 503.207 283.913 502.183 276.739C501.671 274.176 501.158 271.101 501.158 269.051C501.671 265.464 502.695 260.852 503.207 257.264C505.256 245.477 507.817 232.665 509.354 220.878C510.378 212.679 511.403 203.454 509.866 194.742C508.329 186.542 505.256 180.905 499.622 176.805C494.5 172.705 488.865 171.168 483.743 167.581C482.719 167.068 482.207 165.531 481.182 165.018C479.645 163.993 477.084 163.481 475.036 162.968C472.474 162.456 467.865 161.943 464.791 162.456C463.767 162.968 463.767 163.993 462.742 163.993C461.206 164.506 459.157 163.993 457.108 164.506C443.79 165.018 429.448 165.531 421.765 171.68C420.229 172.705 418.692 174.755 417.155 176.293C413.058 180.905 408.96 186.03 404.862 190.642C389.496 208.066 375.154 225.491 359.787 243.427C358.251 244.965 356.714 247.527 355.177 247.527C354.153 247.527 353.641 246.502 353.641 245.99C353.641 243.94 356.202 242.915 355.689 241.89C352.616 241.378 350.567 241.378 348.006 240.865C345.957 240.353 342.372 239.84 340.323 239.84C337.25 240.353 335.201 246.502 334.176 249.065C333.152 252.14 332.128 259.827 334.176 262.389C334.689 262.902 336.737 263.414 337.762 263.927C341.347 265.464 344.933 267.001 348.518 268.026C353.641 269.564 358.763 271.614 365.422 270.076C375.154 268.026 382.837 259.827 388.983 254.189C401.277 242.915 412.545 232.153 425.351 220.878C427.4 219.341 428.936 216.266 430.985 216.266C431.497 216.266 433.034 216.779 433.034 218.316C433.034 219.853 430.985 221.391 429.961 222.416C425.863 226.003 422.277 229.59 418.692 232.665C420.741 249.577 422.79 268.539 424.838 286.476C425.351 289.038 425.863 292.113 425.351 294.163C425.351 295.7 424.326 298.263 423.302 299.8C421.253 305.437 418.692 311.587 416.643 316.712C432.009 311.587 450.449 315.175 465.816 317.737C482.207 319.787 497.573 322.862 510.378 328.499C509.866 317.737 507.305 308.512 505.768 298.775ZM324.957 236.765C322.908 236.253 320.859 235.228 318.81 234.203C314.712 232.153 310.615 230.103 307.029 228.566C304.98 227.541 302.419 227.028 300.882 226.003C297.297 223.953 294.736 220.366 290.126 219.853C289.102 219.853 288.077 221.391 287.053 221.903C286.54 222.928 285.516 223.441 285.516 223.953C288.589 222.928 298.321 222.416 298.321 226.003C298.321 229.078 294.736 227.541 292.175 227.541C288.077 227.028 283.979 228.053 283.467 230.615C285.516 229.59 296.273 227.541 295.248 231.64C294.736 234.715 288.077 232.665 285.516 233.69C283.467 234.203 281.418 235.74 281.418 237.79C281.93 237.79 282.955 236.765 283.979 236.765C286.54 235.74 294.224 234.203 294.224 237.79C294.224 240.865 288.589 239.328 285.516 240.353C281.418 241.89 279.369 247.015 279.369 252.14C279.369 255.727 281.418 260.339 285.004 259.314C285.004 257.264 282.955 256.239 282.955 253.677C282.955 251.627 283.979 250.602 285.004 249.065C286.028 247.527 286.54 245.99 288.077 245.477C289.614 245.477 291.663 247.015 292.687 248.04C294.224 249.065 295.76 250.09 297.297 250.602C301.907 253.165 306.005 256.752 312.663 255.214C312.151 254.702 311.127 254.189 311.639 253.165C311.639 249.577 315.737 252.14 317.786 252.652C321.883 254.189 327.005 256.239 330.079 257.777C329.054 248.552 331.615 241.378 335.201 236.253C331.103 237.278 328.03 237.79 324.957 236.765ZM454.035 320.299C446.864 319.274 439.693 318.249 433.034 318.249C426.375 318.249 420.741 320.299 414.594 321.837C400.764 359.76 385.91 397.684 372.593 435.607C370.544 441.244 369.007 446.882 367.47 452.519C365.934 458.669 364.909 464.818 366.446 471.993C369.007 484.293 375.666 492.492 388.471 494.542C394.618 495.567 402.813 495.567 408.448 493.005C413.57 490.955 418.18 487.88 422.79 485.318C436.619 476.605 449.937 467.381 462.742 458.669C461.206 458.156 459.669 456.619 458.645 455.594C451.474 447.907 445.839 434.07 448.4 419.208C429.448 428.945 408.448 439.194 389.496 448.932C387.447 449.957 384.373 451.494 384.373 448.419C384.373 446.369 388.983 444.832 390.52 443.807C393.081 442.269 395.642 441.244 397.691 440.219C412.033 432.532 426.887 425.358 440.717 418.183C450.449 396.659 460.181 374.11 469.913 352.586C470.938 350.536 472.474 343.873 475.036 344.386C477.597 344.898 476.572 347.461 476.06 348.998C471.45 359.248 467.352 368.472 463.255 378.209C462.742 379.747 461.206 381.797 461.206 383.334C460.693 384.872 461.206 387.434 461.718 389.484C461.718 395.634 461.718 402.296 462.23 407.933C469.913 403.833 479.133 399.734 487.841 395.634C490.914 394.096 493.475 392.559 497.061 392.046C501.158 391.534 504.744 393.071 507.305 394.609C507.817 395.121 508.842 395.634 509.354 395.634C510.378 375.135 511.915 355.148 511.915 334.136C495.012 325.937 474.523 322.862 454.035 320.299ZM445.839 414.596C449.425 412.546 453.523 411.008 456.596 408.958C456.084 403.321 456.084 397.171 456.084 391.534C453.01 399.221 449.425 406.908 445.839 414.596ZM485.792 407.933C487.329 408.446 489.378 408.446 490.402 408.958C490.914 409.471 491.939 412.033 492.451 413.571C496.036 424.333 499.11 434.582 502.183 445.344C502.695 447.394 503.72 449.444 503.72 450.469C503.72 452.007 502.695 454.056 502.183 455.594C501.671 457.644 500.646 459.181 500.646 461.231C500.646 464.306 502.183 466.356 502.183 468.918C504.744 470.968 506.281 473.531 509.354 475.068C512.939 477.118 525.233 479.68 527.794 475.068C528.818 473.018 528.306 467.893 527.794 464.818C524.208 444.832 519.086 426.895 513.452 409.983C512.427 406.908 511.403 403.833 510.378 401.784C508.33 398.196 501.671 393.071 495.524 394.609C489.378 396.146 484.768 399.734 478.621 402.296C480.158 406.396 482.207 407.421 485.792 407.933ZM474.523 405.371C470.426 407.421 466.328 409.471 462.23 411.521C460.694 417.158 460.694 424.333 462.23 429.97C463.255 435.607 465.303 441.244 468.889 443.807C471.45 443.294 474.011 444.832 476.572 445.344C478.621 445.857 480.67 446.369 482.207 447.394C483.231 447.907 484.768 449.957 485.792 451.494C489.378 455.594 492.451 459.694 496.036 463.281C496.036 463.281 496.549 464.306 497.061 463.794C497.061 460.206 497.573 458.156 498.085 455.594C498.597 454.056 499.622 452.006 499.622 450.982C499.622 449.957 498.597 447.907 498.085 446.369C494.5 435.095 490.914 423.82 487.841 413.058C481.182 412.033 477.084 409.471 474.523 405.371ZM457.108 414.083C455.571 415.108 454.035 415.62 453.01 416.645C451.474 418.183 450.961 421.258 450.961 423.82C450.449 433.045 454.547 443.294 458.132 448.419C460.181 447.394 462.23 446.882 464.279 445.857C458.645 439.194 455.571 426.383 457.108 414.083ZM531.379 485.318C530.355 484.293 529.33 482.755 528.306 482.243C521.647 484.805 512.939 483.268 508.33 480.705C505.768 479.168 503.207 476.605 500.646 474.043C494.5 467.893 489.378 461.744 483.743 455.081C482.719 453.544 481.694 452.006 480.158 451.494C478.621 450.469 476.572 450.469 475.036 449.957C474.523 455.081 471.45 458.669 467.352 460.719C481.694 502.229 504.232 536.053 542.648 553.99C540.599 545.79 541.624 536.566 543.672 528.878C546.233 520.166 550.331 511.967 556.478 507.867C546.746 501.204 538.55 493.005 531.379 485.318ZM553.404 515.554C548.282 523.241 545.209 532.978 545.209 545.79C548.282 546.303 550.331 547.84 552.892 548.353C550.331 537.078 552.892 524.266 558.527 518.116C556.478 517.604 554.429 517.091 553.404 515.554ZM590.796 607.288C594.894 609.85 601.04 612.412 606.163 611.9C612.821 611.388 615.895 604.725 615.895 597.551C615.895 594.476 614.87 590.888 614.358 587.813C610.772 568.852 607.187 550.402 601.553 532.466C600.528 529.391 600.016 525.803 598.479 524.266C595.918 520.679 588.235 518.629 582.601 519.141C580.04 519.141 577.479 520.679 575.43 522.216C573.381 523.241 571.332 524.779 570.82 527.341C569.795 530.416 570.82 534.516 571.844 537.078C572.869 539.128 574.405 540.665 575.43 542.203C576.454 543.74 578.503 545.79 579.015 547.328C580.04 550.402 580.552 555.015 581.064 558.09C582.601 566.289 583.625 571.927 585.674 580.126C586.186 582.689 588.235 589.351 586.698 590.888C584.137 592.426 579.527 589.863 577.991 589.351C580.552 597.038 584.65 602.675 590.796 607.288ZM558.014 550.402C560.575 551.427 561.6 552.965 562.624 555.015C563.649 556.04 564.161 557.577 565.185 558.602C566.722 560.652 569.283 563.214 570.308 565.777C571.332 567.827 571.844 570.902 572.869 573.464C573.381 576.026 573.893 578.589 574.917 580.639C575.43 581.664 576.454 582.689 577.991 583.714C579.527 585.251 581.064 586.789 583.113 586.789C580.552 573.977 577.991 561.677 575.43 548.865C571.844 544.765 566.722 537.591 566.722 529.903C566.722 526.828 567.746 524.266 568.771 522.729C569.283 522.216 570.308 521.704 569.795 521.704C567.746 520.679 565.185 520.679 562.624 520.166C556.478 524.779 554.429 540.665 558.014 550.402Z" fill="black"/>
<path fill-rule="evenodd" clip-rule="evenodd" d="M449.937 123.507C450.961 123.507 452.498 123.507 452.498 125.557C452.498 127.607 447.376 132.22 444.815 132.22C443.79 132.22 442.766 131.195 442.766 130.17C442.766 128.632 444.815 128.12 445.839 127.095C447.376 125.557 448.4 123.507 449.937 123.507Z" fill="black"/>
<path fill-rule="evenodd" clip-rule="evenodd" d="M448.913 108.645C447.888 108.645 446.864 109.158 446.352 110.183L445.84 113.258C445.84 114.283 446.352 115.308 447.376 115.82C448.401 115.82 449.425 115.308 449.937 114.283L450.45 111.208C450.962 110.183 450.45 109.158 448.913 108.645Z" fill="black"/>
<path fill-rule="evenodd" clip-rule="evenodd" d="M207.659 512.479C211.245 513.504 217.391 509.917 223.538 504.792C229.684 499.667 228.148 494.03 228.66 489.418C229.172 484.805 236.343 461.231 232.758 454.569C229.172 447.907 212.269 428.945 201 433.045C189.732 436.632 187.683 454.569 190.756 459.694C193.829 465.331 203.562 471.481 201.513 477.631C199.976 483.268 190.756 486.343 191.268 494.543C191.781 502.742 204.586 511.454 207.659 512.479Z" fill="#FF3233"/>
<path fill-rule="evenodd" clip-rule="evenodd" d="M189.732 457.131C189.732 456.106 189.732 455.081 189.732 453.544C190.244 447.907 191.269 444.319 192.805 440.22C194.342 436.632 196.391 432.532 199.976 430.995C205.099 428.433 211.245 432.02 214.831 434.582C217.904 436.632 220.465 438.682 223.538 441.245C229.173 445.857 235.319 451.494 235.831 459.694C236.344 464.819 234.807 468.918 233.783 473.018C232.758 476.606 230.709 481.218 230.197 485.318C229.685 489.418 231.221 492.492 231.221 496.592C231.221 502.23 227.636 505.304 224.05 507.867C223.026 508.892 216.879 514.017 216.367 509.917C215.855 508.379 217.904 507.354 218.416 506.842C221.489 504.792 225.075 502.23 226.612 498.642C227.636 495.567 226.099 490.955 226.099 487.368C226.099 483.78 227.124 481.218 227.636 478.656C228.66 476.093 229.173 473.531 230.197 470.456C230.709 467.893 232.246 464.306 231.734 461.231C231.221 453.544 225.075 448.419 220.465 444.832C217.904 442.782 215.855 440.732 212.782 438.682C210.733 437.145 206.635 434.582 202.537 435.095C198.952 435.607 196.903 440.732 195.366 444.319C193.83 448.419 192.293 453.544 193.318 458.156C193.83 461.744 196.903 464.306 198.952 466.868C201.001 469.431 203.562 472.506 204.074 475.581C204.586 480.705 201.001 483.78 198.952 486.343C197.415 487.88 195.366 489.93 194.342 491.468C193.318 495.567 194.854 499.667 196.391 502.23C198.952 505.817 204.074 506.842 207.66 509.404C206.635 506.329 205.611 504.792 205.099 501.717C204.074 491.468 211.245 484.293 213.294 477.118C214.831 471.993 214.831 465.331 212.782 460.719C211.757 458.669 210.221 457.131 208.172 454.569C207.147 453.032 203.05 450.982 203.562 448.932C203.562 447.907 204.074 447.394 205.099 447.394C207.147 446.882 210.221 450.982 211.757 452.007C213.806 454.056 215.343 456.619 216.879 458.669C219.441 463.794 219.953 471.993 217.904 477.631C215.855 483.78 211.245 489.418 210.221 497.105C208.684 506.329 214.831 510.429 217.904 516.579C219.953 521.191 219.953 526.829 217.392 530.928C213.806 538.616 207.66 542.203 205.099 549.89C203.05 556.04 202.537 563.215 202.025 570.902C202.025 574.489 201.513 576.539 199.464 576.539C197.415 576.539 197.415 573.977 197.415 570.389C197.927 562.702 198.952 554.502 200.489 548.865C202.025 544.253 203.562 541.178 206.123 538.103C208.684 535.028 211.245 532.466 213.294 528.878C215.855 523.241 213.294 516.579 210.221 512.992C209.196 512.992 208.684 514.017 207.66 513.504C206.635 513.504 205.099 511.967 203.562 511.454C196.903 507.867 189.732 503.767 189.732 494.03C189.732 488.393 192.293 486.343 195.366 483.268C196.903 481.73 199.464 478.656 199.464 476.093C199.464 474.043 197.927 472.506 196.903 470.968C194.342 467.381 190.244 463.281 189.732 457.131Z" fill="black"/>
<path fill-rule="evenodd" clip-rule="evenodd" d="M168.731 505.305C165.658 505.305 145.681 505.817 142.608 497.617C139.535 489.418 152.34 475.581 147.73 469.431C143.12 463.281 137.486 460.207 137.486 452.007C137.486 443.295 138.51 434.583 144.145 432.533C149.267 430.995 162.072 434.07 164.121 440.22C166.682 446.37 164.121 456.107 168.731 462.256C173.341 468.406 181.024 470.969 180.512 479.681C180.512 488.393 175.902 498.13 174.365 500.18C173.341 502.23 172.316 505.305 168.731 505.305Z" fill="#FF3233"/>
<path fill-rule="evenodd" clip-rule="evenodd" d="M165.146 502.23C162.072 499.667 158.487 496.08 157.975 490.443C157.463 486.855 158.487 482.755 158.999 479.168C159.511 475.581 161.048 471.481 160.536 468.406C160.024 465.844 157.975 464.306 156.438 463.281C154.901 461.744 152.853 460.206 152.34 458.156C151.316 456.107 149.779 445.857 153.365 445.857C156.438 445.857 154.901 453.032 155.926 456.107C156.438 458.156 158.999 459.694 160.536 461.231C162.072 462.769 164.121 465.331 164.634 468.406C165.146 471.993 164.121 476.093 163.097 479.681C162.072 484.293 161.048 490.443 162.585 494.03C165.658 501.205 176.927 501.717 177.951 511.454C178.463 517.604 175.902 522.216 174.366 527.341C172.829 531.953 170.78 537.078 170.268 542.715C169.243 550.403 169.243 562.19 169.243 569.364C169.243 571.927 169.756 577.052 167.195 577.052C164.634 577.052 165.146 573.977 165.146 570.389C165.146 561.165 165.146 551.94 166.17 543.74C166.682 538.616 168.219 533.491 169.756 528.879C171.292 524.266 173.853 520.166 174.366 515.042C174.878 510.942 173.341 508.379 170.78 506.329C169.756 506.842 167.707 506.842 166.17 506.842C159.511 506.842 150.292 506.329 145.682 503.255C143.633 501.717 141.584 499.667 141.584 496.08C141.072 488.905 146.706 482.755 147.218 475.581C147.73 466.869 139.535 463.281 136.462 456.619C133.388 449.444 136.974 438.17 140.559 434.07C142.608 431.507 145.169 430.483 148.755 430.483C152.853 430.483 156.95 432.532 160.024 434.07C163.097 436.12 166.17 438.682 167.707 441.245C170.78 446.369 168.731 454.569 171.292 460.206C173.853 465.844 180 469.431 183.073 474.556C187.171 482.243 182.049 491.98 178.463 497.617C177.439 499.155 176.414 501.717 174.366 501.205C171.292 500.692 173.341 497.617 174.366 495.567C174.878 494.542 176.414 492.493 176.927 490.955C178.463 487.88 180.512 483.268 180 479.168C179.488 476.093 176.927 473.531 174.878 471.481C170.78 466.869 166.682 463.281 165.658 455.594C165.146 450.982 165.658 446.369 163.609 442.782C162.072 440.22 159.511 438.17 156.95 436.632C154.389 435.095 150.292 433.045 147.218 434.07C142.608 435.607 140.047 444.319 140.047 449.957C140.047 457.644 146.706 460.719 149.779 466.356C150.804 468.406 151.828 471.481 151.828 475.068C151.316 478.656 149.779 482.755 148.755 485.83C147.73 488.393 145.169 493.005 146.194 496.592C147.218 499.155 151.316 500.18 154.389 500.692C157.463 502.23 161.56 502.23 165.146 502.23Z" fill="black"/>
<path fill-rule="evenodd" clip-rule="evenodd" d="M189.732 368.985C198.44 368.985 209.196 376.16 209.196 382.822C209.196 389.484 203.05 401.271 207.66 409.983C211.757 418.695 225.075 429.97 221.489 442.782C217.904 455.594 206.635 457.644 207.66 466.356C208.684 475.068 215.855 481.73 213.806 487.368C211.757 493.005 205.611 507.867 195.366 507.867C185.634 507.867 174.878 500.692 168.219 493.517C161.56 486.343 150.804 472.506 161.048 462.769C171.292 453.031 183.585 438.682 175.39 428.432C167.195 418.183 152.34 399.734 164.121 388.459C175.902 376.16 181.537 368.472 189.732 368.985Z" fill="#FF3233"/>
<path fill-rule="evenodd" clip-rule="evenodd" d="M196.39 509.404C197.927 515.554 201 522.216 200.488 529.391C199.976 536.566 197.415 542.203 194.342 547.328C191.78 552.452 189.732 558.09 188.707 565.777C188.195 569.364 187.683 573.464 187.683 577.051C187.683 579.614 188.195 586.788 185.122 586.788C182.561 586.788 183.073 583.201 183.073 579.614C183.585 570.902 184.097 562.19 186.146 555.527C187.683 550.915 189.732 546.815 191.78 542.715C193.829 538.615 195.878 534.516 195.878 528.366C195.878 523.241 193.829 517.604 192.805 512.992C189.732 503.254 186.658 494.542 184.097 484.805C182.561 480.193 181.024 474.556 181.024 469.431C181.536 461.744 186.658 455.081 190.244 449.957C193.317 445.857 196.903 441.244 196.903 434.07C196.903 432.532 196.39 430.995 195.878 429.457C193.829 424.845 190.244 420.745 187.683 416.645C186.146 414.596 185.122 412.033 184.609 408.958C183.585 405.883 182.561 402.296 183.073 398.709C183.585 396.659 184.097 394.609 185.634 392.559C186.146 391.534 188.195 387.947 190.244 388.972C192.293 389.997 190.244 392.559 189.732 394.096C187.683 397.684 186.658 401.271 188.195 406.908C188.707 408.958 189.732 411.008 190.244 413.058C193.317 419.208 198.952 423.82 200.488 430.482C202.025 436.632 199.976 443.807 197.415 447.394C193.829 454.056 185.634 460.719 184.609 469.431C184.097 473.018 185.634 476.093 186.146 479.168C188.195 487.88 191.781 497.105 193.829 505.817C196.903 504.279 200.488 501.717 203.561 498.642C206.123 496.08 210.22 492.492 210.732 488.393C210.732 484.293 208.684 481.218 207.147 478.655C206.123 475.068 203.561 471.481 204.074 466.356C205.098 458.669 213.806 456.619 216.879 450.982C219.44 446.369 220.465 437.145 217.903 430.995C216.367 427.407 213.806 424.333 211.757 421.77C207.147 415.62 203.561 408.958 205.098 398.196C205.61 396.146 206.123 393.584 206.123 391.534C206.635 389.484 207.147 386.922 206.635 384.359C206.123 381.284 204.586 379.234 203.049 377.185C201 374.622 197.927 372.06 194.342 371.547C189.219 371.035 184.609 373.085 181.024 374.622C173.853 378.209 168.731 383.847 165.145 391.534C163.096 395.121 161.56 400.759 162.584 405.371C163.096 408.446 164.633 410.496 166.17 413.058C167.706 415.108 169.243 417.67 170.78 419.72C173.853 423.82 177.438 429.457 177.951 435.095C178.463 442.782 175.39 447.907 171.804 452.519C168.731 457.131 164.121 461.231 162.072 465.843C159.511 470.968 159.511 480.705 162.072 485.318C164.121 488.905 169.755 493.517 173.341 496.08C174.877 497.105 176.926 498.642 178.975 500.692C180.512 501.717 184.609 503.767 183.585 505.817C182.561 508.892 177.438 504.792 176.414 503.767C173.853 501.717 171.804 500.18 169.755 498.642C165.658 495.567 160.535 491.467 157.974 486.855C154.901 481.218 154.901 471.481 157.462 465.331C159.511 460.719 163.609 456.106 166.682 452.006C169.755 447.907 173.341 442.269 173.341 436.632C173.341 430.482 169.243 425.87 166.17 421.258C162.584 416.645 157.974 411.521 157.462 405.371C156.95 399.734 158.487 394.609 160.535 391.021C165.658 379.747 176.414 369.497 189.732 367.96C194.854 367.447 199.976 369.497 203.049 372.06C206.123 375.135 210.22 379.747 210.22 385.384C210.732 392.559 207.147 398.196 207.659 406.396C208.684 416.645 217.391 421.77 220.465 429.97C223.538 438.17 222.001 448.932 217.903 454.569C216.367 456.619 213.806 458.669 211.757 460.719C209.708 462.256 206.635 464.818 206.635 467.893C206.123 470.968 208.684 474.556 210.22 477.118C212.269 480.705 215.342 485.83 213.806 491.467C212.781 496.08 208.684 499.667 205.61 502.229C203.561 504.792 200.488 506.842 196.39 509.404Z" fill="black"/>
<path d="M162.585 547.328H222.002C227.124 547.328 231.222 550.403 231.222 554.503L222.514 592.939C222.514 597.039 219.441 600.113 215.343 600.113H169.756C165.658 600.113 162.585 597.039 162.585 592.939L153.365 554.503C153.365 550.403 157.463 547.328 162.585 547.328Z" fill="white"/>
<path d="M215.343 602.163H169.756C164.634 602.163 160.536 598.063 160.536 592.939L151.316 555.015C151.316 549.378 156.438 545.278 162.585 545.278H222.002C228.148 545.278 233.27 549.378 233.27 554.503L224.563 593.451C224.563 598.063 220.465 602.163 215.343 602.163ZM162.585 549.378C158.999 549.378 155.414 551.428 155.414 554.503L164.634 592.426C164.634 595.501 166.682 598.063 169.756 598.063H215.343C217.904 598.063 220.465 596.014 220.465 592.939L229.173 553.99C229.173 551.94 226.099 549.378 222.002 549.378H162.585Z" fill="black"/>
<path d="M151.316 536.566H235.319C236.856 536.566 237.88 537.591 237.88 539.641L240.441 556.04C240.441 557.578 239.417 559.115 237.368 559.115H148.755C147.218 559.115 145.682 558.09 145.682 556.04L148.243 539.641C148.243 537.591 149.779 536.566 151.316 536.566Z" fill="white"/>
<path d="M237.368 560.652H148.755C146.194 560.652 143.633 558.603 143.633 555.528L146.194 539.128C146.194 536.566 148.243 534.516 150.804 534.516H234.807C237.368 534.516 239.417 536.566 239.417 539.641L241.978 555.528C242.49 558.09 240.441 560.652 237.368 560.652ZM151.316 538.616C150.804 538.616 150.804 539.128 150.804 539.128L148.243 555.528L148.755 556.04H237.368C237.88 556.04 237.88 555.528 237.88 555.528L235.319 539.641C235.319 539.128 234.807 538.616 234.807 538.616H151.316Z" fill="black"/>
</svg>
